<svg width="174" height="38" viewBox="0 0 174 38" fill="none" xmlns="http://www.w3.org/2000/svg">
<path d="M128.897 27.7802C128.709 27.7978 128.52 27.8099 128.336 27.8362C128.216 27.8527 128.165 27.8044 128.085 27.7791C128.059 27.7703 128.03 27.7527 128.005 27.7549C127.819 27.7725 127.633 27.7923 127.447 27.8121C127.39 27.8549 127.354 27.912 127.267 27.9329C127.182 27.9526 127.081 27.9526 126.986 27.9625C126.861 27.9746 126.736 27.9867 126.61 27.9977C126.548 28.0032 126.496 28.024 126.476 28.0636C126.472 28.0702 126.513 28.0866 126.536 28.0965C126.612 28.1295 126.686 28.1668 126.77 28.1921C126.849 28.2162 126.948 28.1767 127.034 28.2074C127.225 28.2766 127.227 28.2755 127.373 28.2624C127.499 28.2503 127.624 28.2371 127.749 28.2283C127.774 28.2261 127.802 28.2426 127.829 28.2514C127.909 28.2755 127.96 28.3305 128.077 28.3096C128.167 28.2931 128.265 28.2898 128.358 28.281C128.436 28.3129 128.508 28.3491 128.592 28.3744C128.67 28.3986 128.692 28.4172 128.651 28.4491C128.613 28.4787 128.56 28.4908 128.489 28.493C128.427 28.4941 128.364 28.504 128.301 28.5095C128.269 28.5128 128.239 28.515 128.208 28.5183C128.089 28.5304 128.089 28.5304 127.871 28.4601C127.785 28.4326 127.688 28.471 127.607 28.4447C127.552 28.4271 127.504 28.4008 127.451 28.3821C127.428 28.3744 127.392 28.3733 127.364 28.3755C127.269 28.3832 127.174 28.3887 127.083 28.403C127.018 28.4128 126.98 28.4436 126.988 28.4743C126.99 28.4864 127.035 28.504 127.062 28.5051C127.123 28.5073 127.187 28.4919 127.246 28.4996C127.303 28.5073 127.362 28.5293 127.404 28.5534C127.489 28.6039 127.586 28.5589 127.667 28.5721C127.753 28.5864 127.823 28.6303 127.905 28.6567C127.926 28.6633 127.965 28.6523 127.998 28.649C128.091 28.6413 128.184 28.6347 128.277 28.627C128.355 28.6589 128.438 28.6874 128.508 28.7237C128.635 28.7896 128.772 28.8148 128.937 28.783C129.03 28.7654 129.121 28.772 129.195 28.8148C129.271 28.8588 129.359 28.8544 129.455 28.8456C129.545 28.8368 129.636 28.8126 129.727 28.8434C129.924 28.9115 129.926 28.9148 130.16 28.8884C130.23 28.8807 130.283 28.8785 130.336 28.9038C130.385 28.9269 130.439 28.9466 130.49 28.9686C130.583 28.9609 130.678 28.9532 130.771 28.9444C130.89 28.9323 130.957 28.9477 130.985 29.0092C131.002 29.0466 131.01 29.0806 131.052 29.1059C131.101 29.1366 131.154 29.1355 131.226 29.1267C131.295 29.1191 131.344 29.107 131.372 29.0674C131.384 29.051 131.407 29.0356 131.427 29.0224C131.445 29.0125 131.471 28.9971 131.486 28.9993C131.515 29.0037 131.553 29.0158 131.562 29.0301C131.655 29.163 131.655 29.1641 131.75 29.2025C131.854 29.2454 131.963 29.2838 132.058 29.3321C132.143 29.375 132.228 29.3563 132.321 29.3563C132.392 29.3563 132.437 29.3849 132.431 29.4134C132.428 29.4299 132.401 29.454 132.378 29.4562C132.192 29.4782 132.004 29.4969 131.817 29.5123C131.794 29.5144 131.765 29.4947 131.739 29.4848C131.686 29.465 131.638 29.4343 131.581 29.4277C131.524 29.4211 131.458 29.4376 131.395 29.4431C131.333 29.4485 131.266 29.4628 131.209 29.4541C131.152 29.4453 131.107 29.4134 131.054 29.3925C131.029 29.3827 130.995 29.3684 130.974 29.3717C130.835 29.398 130.733 29.3618 130.634 29.3135C130.613 29.3036 130.577 29.297 130.551 29.2992C130.33 29.3179 130.112 29.3398 129.892 29.3607C129.803 29.3695 129.731 29.331 129.712 29.2662C129.702 29.23 129.683 29.1937 129.683 29.1575C129.683 29.0916 129.579 29.0554 129.503 29.063C129.378 29.074 129.25 29.0828 129.127 29.0993C129.026 29.1125 128.941 29.0993 128.873 29.0597C128.793 29.0147 128.702 29.0235 128.611 29.0356C128.542 29.0444 128.523 29.0806 128.527 29.1718C128.531 29.2454 128.499 29.2684 128.375 29.2805C128.22 29.2959 128.062 29.3113 127.905 29.3233C127.88 29.3255 127.852 29.3069 127.827 29.297C127.774 29.2772 127.726 29.2454 127.669 29.2388C127.612 29.2311 127.546 29.2476 127.483 29.2541C127.421 29.2596 127.354 29.275 127.297 29.2673C127.24 29.2596 127.193 29.2267 127.142 29.2058C127.117 29.1959 127.087 29.1817 127.062 29.1839C126.937 29.1926 126.811 29.2058 126.686 29.2179C126.546 29.2311 126.546 29.2311 126.346 29.163C126.255 29.1322 126.164 29.1564 126.075 29.1652C125.98 29.174 125.891 29.1784 125.817 29.1344C125.768 29.1059 125.713 29.0883 125.654 29.0938C125.496 29.107 125.341 29.1235 125.183 29.1366C125.156 29.1388 125.12 29.1333 125.1 29.1235C124.999 29.0773 124.9 29.0411 124.76 29.0641C124.638 29.0839 124.507 29.085 124.386 29.1037C124.319 29.1136 124.289 29.1487 124.302 29.1762C124.31 29.1905 124.35 29.2069 124.376 29.2069C124.437 29.208 124.504 29.1915 124.56 29.1981C124.678 29.2113 124.737 29.3036 124.891 29.2783C124.982 29.2629 125.077 29.2574 125.172 29.253C125.196 29.252 125.223 29.2728 125.249 29.2838C125.325 29.3135 125.392 29.3519 125.502 29.3321C125.593 29.3167 125.69 29.3124 125.783 29.3036C125.931 29.2893 125.931 29.2904 126.123 29.3574C126.214 29.3892 126.305 29.364 126.394 29.3563C126.46 29.3508 126.523 29.3398 126.576 29.3552C126.658 29.3783 126.717 29.431 126.817 29.4277C126.912 29.4244 127.005 29.409 127.1 29.4035C127.159 29.4002 127.214 29.4178 127.261 29.4475C127.311 29.4771 127.364 29.4903 127.428 29.4837C127.521 29.4749 127.616 29.4639 127.711 29.4584C127.738 29.4573 127.768 29.4672 127.793 29.476C127.846 29.4958 127.897 29.5188 127.948 29.5397C128.041 29.5331 128.136 29.5309 128.227 29.5177C128.298 29.5079 128.347 29.5123 128.404 29.5342C128.476 29.5639 128.535 29.6166 128.653 29.5913C128.711 29.5793 128.78 29.5825 128.839 29.5716C128.911 29.5573 128.96 29.5628 129.011 29.5957C129.108 29.6583 129.23 29.6594 129.355 29.6353C129.491 29.6089 129.594 29.6397 129.696 29.688C129.805 29.7385 129.805 29.7374 129.888 29.8593C129.913 29.8945 129.983 29.9109 130.042 29.9044C130.141 29.8934 130.226 29.8989 130.298 29.9406C130.374 29.9856 130.465 29.9801 130.558 29.9681C130.682 29.9516 130.805 29.9373 130.905 30.001C130.955 30.0318 131.008 30.0394 131.074 30.0318C131.262 30.012 131.452 29.9999 131.636 29.9758C131.748 29.9604 131.813 29.9955 131.889 30.0252C131.991 30.0658 132.103 30.1021 132.103 30.1888C132.103 30.2031 132.13 30.2196 132.152 30.2306C132.202 30.2536 132.255 30.2734 132.306 30.2954C132.382 30.3283 132.456 30.3558 132.561 30.3382C132.652 30.3239 132.748 30.3195 132.841 30.3096C132.934 30.2997 133.02 30.2943 133.103 30.336C133.2 30.3832 133.303 30.4283 133.413 30.4634C133.491 30.4887 133.593 30.4458 133.677 30.4799C133.728 30.5007 133.777 30.5249 133.832 30.5425C133.855 30.5502 133.891 30.5447 133.921 30.5425C133.984 30.5381 134.049 30.5348 134.109 30.5238C134.18 30.5117 134.233 30.5139 134.286 30.5392C134.335 30.5623 134.385 30.5941 134.441 30.6007C134.527 30.6106 134.622 30.5666 134.707 30.6172C134.751 30.6424 134.806 30.6666 134.863 30.6743C134.92 30.682 134.986 30.6655 135.047 30.6666C135.074 30.6666 135.106 30.6842 135.121 30.6984C135.13 30.7061 135.117 30.727 135.104 30.738C135.087 30.7512 135.062 30.7687 135.037 30.7709C134.85 30.7907 134.662 30.8072 134.474 30.8259C134.362 30.8368 134.362 30.8368 134.136 30.7676C134.083 30.7512 134.024 30.7545 133.957 30.7621C133.868 30.772 133.777 30.7907 133.684 30.7709C133.563 30.6962 133.413 30.6896 133.253 30.7182C133.187 30.7303 133.126 30.7303 133.077 30.7094C132.972 30.6677 132.862 30.6293 132.769 30.5798C132.697 30.5414 132.663 30.5381 132.633 30.5908C132.623 30.6073 132.614 30.6249 132.616 30.6402C132.627 30.6951 132.648 30.749 132.659 30.8039C132.663 30.8193 132.648 30.8368 132.638 30.8533C132.608 30.8994 132.568 30.8961 132.502 30.8577C132.435 30.8193 132.356 30.794 132.249 30.8116C132.158 30.8269 132.059 30.8248 131.968 30.8412C131.828 30.8654 131.729 30.8302 131.629 30.783C131.608 30.7731 131.572 30.7676 131.545 30.7698C131.262 30.7951 130.981 30.8237 130.699 30.8489C130.638 30.8544 130.583 30.8379 130.535 30.8083C130.486 30.7786 130.431 30.7632 130.37 30.7687C130.12 30.7918 129.869 30.8127 129.619 30.8412C129.516 30.8533 129.435 30.839 129.364 30.8006C129.311 30.772 129.262 30.7632 129.195 30.7665C129.123 30.7698 129.072 30.7808 129.036 30.8127C129.002 30.8434 129.026 30.8621 129.102 30.8863C129.184 30.9126 129.26 30.9467 129.338 30.9774C129.4 30.973 129.463 30.9642 129.524 30.9653C129.55 30.9653 129.575 30.9851 129.602 30.9961C129.677 31.0279 129.748 31.0598 129.856 31.0422C129.947 31.0268 130.044 31.0235 130.137 31.0137C130.266 31.0016 130.266 31.0016 130.475 31.0708C130.528 31.0883 130.585 31.0872 130.653 31.0774C130.712 31.0697 130.773 31.085 130.814 31.118C130.831 31.1312 130.826 31.1532 130.79 31.2256C130.79 31.2795 130.83 31.2553 130.843 31.2201C130.864 31.1696 130.824 31.1531 130.748 31.1806C130.695 31.2004 130.668 31.2289 130.682 31.252C130.689 31.2641 130.725 31.2795 130.79 31.2256C130.957 31.1597 131.084 31.152 131.205 31.1345C131.277 31.1246 131.323 31.129 131.38 31.1575C131.448 31.1916 131.517 31.2278 131.629 31.2103C131.75 31.1905 131.879 31.1883 132.003 31.1718C132.116 31.1564 132.175 31.2048 132.247 31.2333C132.335 31.2674 132.431 31.2289 132.511 31.2487C132.595 31.2685 132.654 31.3168 132.75 31.3256C132.891 31.2959 132.98 31.3508 133.086 31.3871C133.17 31.4145 133.268 31.3904 133.358 31.3783C133.458 31.3651 133.542 31.3772 133.612 31.4167C133.692 31.4618 133.781 31.4519 133.872 31.442C134.085 31.42 134.092 31.4167 134.216 31.4771C134.305 31.5211 134.39 31.5013 134.479 31.4958C134.557 31.5255 134.633 31.5573 134.715 31.5837C134.736 31.5903 134.776 31.5793 134.808 31.576C134.901 31.5672 134.996 31.5584 135.089 31.5496C135.151 31.5441 135.218 31.5277 135.275 31.5343C135.332 31.542 135.379 31.5738 135.43 31.5947C135.482 31.6155 135.535 31.6364 135.584 31.6584C135.66 31.6913 135.732 31.7188 135.838 31.7023C135.93 31.688 136.024 31.6836 136.119 31.6738C136.239 31.6617 136.235 31.665 136.457 31.7309C136.577 31.7671 136.7 31.7232 136.822 31.7188C136.882 31.7166 136.941 31.7287 136.983 31.7605C137 31.7737 136.994 31.7957 137 31.8143C136.687 31.844 136.372 31.8692 136.062 31.9055C135.943 31.9198 135.88 31.8802 135.816 31.8473C135.709 31.7946 135.569 31.8714 135.468 31.8033C135.408 31.7627 135.32 31.7397 135.216 31.7594C135.155 31.7704 135.091 31.7693 135.028 31.7792C134.869 31.8033 134.722 31.8045 134.595 31.7287C134.552 31.7023 134.489 31.688 134.443 31.6628C134.39 31.6353 134.339 31.6199 134.276 31.6254C133.994 31.6518 133.713 31.6781 133.432 31.7067C133.407 31.7089 133.382 31.7254 133.361 31.7374C133.308 31.7682 133.325 31.7924 133.411 31.8121C133.439 31.8187 133.462 31.833 133.489 31.844C133.54 31.8649 133.587 31.8978 133.644 31.9055C133.701 31.9132 133.768 31.8978 133.83 31.8923C133.893 31.8868 133.959 31.8703 134.016 31.8769C134.073 31.8846 134.121 31.9165 134.174 31.9363C134.199 31.9461 134.229 31.9626 134.254 31.9615C134.379 31.9549 134.502 31.9428 134.627 31.933C134.705 31.9626 134.772 32.0054 134.865 32.0153C134.924 32.0219 134.986 32.0098 135.047 32.012C135.074 32.0131 135.108 32.0296 135.121 32.0439C135.129 32.0527 135.104 32.0746 135.085 32.0856C135.013 32.1274 134.914 32.1197 134.825 32.1328C134.728 32.1471 134.641 32.1427 134.567 32.0999C134.517 32.0713 134.462 32.056 134.402 32.0615C134.244 32.0757 134.088 32.0922 133.931 32.1043C133.904 32.1065 133.872 32.0966 133.847 32.0889C133.648 32.0219 133.648 32.0197 133.508 32.034C133.301 32.0549 133.301 32.0549 133.162 31.9966C133.136 31.9857 133.107 31.9648 133.084 31.9659C132.864 31.9835 132.646 32.001 132.428 32.0263C132.356 32.034 132.306 32.034 132.253 32.0054C132.208 31.9813 132.154 31.9538 132.097 31.9472C132.039 31.9406 131.974 31.9571 131.911 31.9626C131.849 31.9681 131.782 31.9824 131.727 31.9736C131.67 31.9648 131.621 31.9341 131.572 31.9121C131.52 31.889 131.465 31.8901 131.395 31.8989C131.179 31.9242 131.177 31.9209 130.962 31.8528C130.938 31.8451 130.906 31.8363 130.879 31.8385C130.721 31.8517 130.566 31.8682 130.408 31.8813C130.347 31.8868 130.289 31.8725 130.247 31.8407C130.23 31.8275 130.236 31.8055 130.224 31.7627C130.211 31.7528 130.226 31.7704 130.23 31.7869C130.258 31.7847 130.292 31.7869 130.313 31.7781C130.366 31.7572 130.393 31.7298 130.38 31.7067C130.372 31.6946 130.336 31.6792 130.313 31.6792C130.272 31.6792 130.236 31.7034 130.224 31.7627C130.105 31.799 129.977 31.8066 129.854 31.8242C129.782 31.8352 129.736 31.8297 129.679 31.8012C129.611 31.766 129.541 31.732 129.429 31.7495C129.307 31.7693 129.178 31.7726 129.053 31.788C128.909 31.8056 128.846 31.7067 128.725 31.7089C128.599 31.7111 128.474 31.7298 128.349 31.7429C128.239 31.7539 128.239 31.7539 128.011 31.6825C127.928 31.6562 127.829 31.6946 127.747 31.6672C127.692 31.6496 127.645 31.6232 127.592 31.6046C127.569 31.5969 127.533 31.5969 127.504 31.5991C127.347 31.6122 127.187 31.621 127.035 31.6452C126.863 31.6737 126.732 31.643 126.608 31.5782C126.453 31.5903 126.295 31.5969 126.142 31.6177C126.03 31.6331 125.965 31.5969 125.889 31.5672C125.862 31.5573 125.84 31.5409 125.811 31.5365C125.783 31.5321 125.749 31.5408 125.718 31.5441C125.593 31.5562 125.464 31.5617 125.342 31.5815C125.192 31.6068 125.136 31.5167 125.02 31.5057C124.942 31.5595 124.9 31.6331 124.746 31.6386C124.621 31.643 124.496 31.6606 124.371 31.6727C124.308 31.6781 124.245 31.6847 124.183 31.6902C124.082 31.7001 124.035 31.7429 124.056 31.8088C124.067 31.8451 124.076 31.8813 124.086 31.9176C124.105 31.9824 124.057 32.0373 123.978 32.045C123.758 32.0659 123.539 32.0878 123.319 32.1065C123.26 32.112 123.203 32.0933 123.156 32.0636C123.107 32.034 123.052 32.0208 122.991 32.0263C122.771 32.0472 122.552 32.0691 122.332 32.0878C122.308 32.09 122.275 32.079 122.251 32.0702C122.197 32.0505 122.146 32.0274 122.095 32.0065C121.97 32.0164 121.846 32.023 121.723 32.0362C121.524 32.056 121.524 32.0571 121.377 31.9966C121.351 31.9857 121.324 31.9648 121.3 31.9659C121.205 31.9703 121.112 31.9813 121.017 31.9912C120.738 32.0197 120.738 32.0197 120.656 31.9868C120.582 31.956 120.516 31.9187 120.404 31.9363C120.282 31.956 120.153 31.9626 120.028 31.9736C119.935 31.9813 119.842 31.9901 119.749 31.9923C119.724 31.9934 119.698 31.9725 119.671 31.9615C119.595 31.9275 119.521 31.9 119.417 31.9187C119.356 31.9297 119.292 31.9319 119.229 31.9374C119.066 31.9527 119.066 31.9527 118.798 31.8868C118.772 31.8802 118.739 31.8725 118.713 31.8758C118.493 31.8956 118.274 31.9176 118.054 31.9363C118.028 31.9384 117.995 31.9318 117.969 31.9264C117.669 31.8627 117.669 31.8627 117.35 31.8934C117.228 31.9044 117.225 31.9088 117.097 31.8506C117.041 31.8253 116.993 31.8132 116.927 31.8209C116.676 31.8473 116.424 31.8649 116.175 31.8956C116.063 31.9088 115.999 31.8758 115.923 31.8462C115.896 31.8363 115.868 31.8143 115.845 31.8154C115.594 31.8363 115.344 31.8616 115.093 31.8824C115.07 31.8846 115.042 31.8627 115.015 31.8528C114.964 31.833 114.915 31.8034 114.858 31.7968C114.799 31.7902 114.734 31.8066 114.67 31.8121C114.512 31.8264 114.512 31.8253 114.33 31.7605C114.306 31.7517 114.273 31.7396 114.249 31.7418C113.998 31.7638 113.746 31.7825 113.497 31.8143C113.355 31.8319 113.258 31.8001 113.157 31.7539C113.136 31.744 113.1 31.7396 113.074 31.7418C112.791 31.7671 112.51 31.7957 112.227 31.8209C112.168 31.8264 112.111 31.8077 112.064 31.7792C111.988 31.7342 111.899 31.7396 111.804 31.7495C111.586 31.7726 111.584 31.7715 111.455 31.7188C111.428 31.7078 111.405 31.6935 111.377 31.688C111.35 31.6825 111.316 31.6858 111.288 31.688C111.162 31.699 111.037 31.7111 110.912 31.7232C110.787 31.7353 110.659 31.7419 110.536 31.7605C110.384 31.7836 110.312 31.7122 110.206 31.6792C110.05 31.6935 109.891 31.7023 109.737 31.7254C109.619 31.7429 109.564 31.6946 109.487 31.6694C109.46 31.6606 109.431 31.6419 109.407 31.6441C109.124 31.6683 108.841 31.6946 108.56 31.7243C108.492 31.7309 108.446 31.7221 108.389 31.6957C108.262 31.6364 108.257 31.6386 108.044 31.6606C107.951 31.6705 107.862 31.6792 107.782 31.6342C107.712 31.5936 107.626 31.5837 107.526 31.5969C107.402 31.6133 107.275 31.6221 107.15 31.6331C107.025 31.6452 106.9 31.6617 106.774 31.6672C106.674 31.6726 106.613 31.621 106.533 31.5947C106.509 31.587 106.474 31.5859 106.446 31.5881C106.321 31.598 106.192 31.6056 106.07 31.6243C105.922 31.6474 105.84 31.587 105.736 31.5518C105.713 31.5442 105.675 31.5485 105.647 31.5518C105.427 31.5716 105.208 31.5936 104.988 31.6144C104.91 31.5848 104.831 31.5562 104.753 31.5266C104.628 31.5376 104.502 31.5496 104.377 31.5606C104.282 31.5694 104.185 31.5727 104.096 31.5892C103.98 31.6111 103.923 31.5595 103.846 31.5343C103.819 31.5255 103.791 31.5068 103.766 31.509C103.608 31.5211 103.451 31.5343 103.295 31.5529C103.147 31.5716 103.088 31.4728 102.967 31.4738C102.842 31.4749 102.713 31.4892 102.591 31.509C102.451 31.5321 102.352 31.4969 102.251 31.4497C102.23 31.4398 102.194 31.4343 102.168 31.4365C102.01 31.4497 101.855 31.4662 101.697 31.4793C101.671 31.4815 101.638 31.4761 101.612 31.4695C101.312 31.4047 101.312 31.4036 101.181 31.4167C101.088 31.4255 100.993 31.4365 100.898 31.442C100.871 31.4442 100.839 31.4343 100.814 31.4255C100.617 31.3585 100.617 31.3574 100.475 31.3706C100.349 31.3827 100.224 31.3948 100.099 31.4069C100.021 31.3772 99.9414 31.3486 99.8636 31.319C99.7079 31.3333 99.5485 31.3442 99.3948 31.364C99.3227 31.3728 99.2752 31.3695 99.2202 31.3421C99.1518 31.3091 99.0835 31.2707 98.9696 31.2893C98.8482 31.3091 98.7191 31.3113 98.5957 31.3278C98.4477 31.3475 98.3869 31.2476 98.2674 31.2487C98.1421 31.2498 98.013 31.2641 97.8916 31.2838C97.7511 31.3069 97.6524 31.2718 97.5518 31.2245C97.5309 31.2147 97.4949 31.2092 97.4683 31.2114C97.1229 31.2432 96.7794 31.2751 96.4339 31.3091C96.2213 31.33 96.2213 31.3311 95.8171 31.2707C95.7886 31.2663 95.7582 31.2619 95.7297 31.2641C95.6044 31.274 95.4754 31.2816 95.3539 31.3003C95.2059 31.3234 95.1243 31.2641 95.0199 31.2278C94.9971 31.2201 94.961 31.2245 94.9307 31.2267C94.8358 31.2344 94.7428 31.2443 94.6479 31.2531C94.5226 31.2652 94.3973 31.2773 94.2721 31.2893C94.1942 31.2608 94.1145 31.2311 94.0367 31.2026C93.8811 31.2168 93.7216 31.2245 93.5679 31.2476C93.4502 31.2652 93.3952 31.219 93.3174 31.1927C93.2908 31.1839 93.2623 31.1652 93.2377 31.1663C92.9548 31.1905 92.6721 31.2157 92.3912 31.2465C92.2754 31.2597 92.2222 31.2103 92.1444 31.185C92.1178 31.1773 92.0875 31.163 92.0628 31.1652C91.8749 31.1806 91.687 31.1993 91.4991 31.2179C91.3928 31.2289 91.3928 31.2289 91.1612 31.1608C91.1347 31.1531 91.1043 31.1455 91.0777 31.1477C90.4818 31.2026 89.8877 31.2608 89.2917 31.3157C89.231 31.3212 89.1759 31.3047 89.1285 31.2751C89.0791 31.2454 89.0241 31.23 88.9633 31.2355C88.7128 31.2586 88.4604 31.2795 88.2117 31.308C88.1092 31.3201 88.0276 31.3058 87.9574 31.2674C87.9042 31.2388 87.8549 31.2278 87.7885 31.2344C87.6632 31.2476 87.538 31.2586 87.4127 31.2707C87.2874 31.2827 87.1622 31.2948 87.0369 31.3069C86.9116 31.319 86.7845 31.3256 86.6611 31.3443C86.5092 31.3673 86.4352 31.2992 86.3308 31.2652C86.1429 31.2817 85.955 31.2981 85.769 31.3157C85.5184 31.3388 85.2679 31.364 85.0174 31.386C84.9946 31.3882 84.9661 31.3684 84.9396 31.3585C84.8618 31.3311 84.8048 31.2926 84.689 31.3047C84.1272 31.3629 83.5616 31.4124 82.9979 31.4695C82.8802 31.4815 82.829 31.4343 82.7493 31.4091C82.7227 31.4014 82.6923 31.386 82.6677 31.3882C82.3545 31.4156 82.0413 31.4464 81.7282 31.476C81.601 31.4881 81.601 31.4881 81.3884 31.42C81.3637 31.4123 81.3314 31.4025 81.3049 31.4047C80.8968 31.442 80.4906 31.4815 80.0826 31.52C80.0218 31.5255 79.9668 31.5101 79.9175 31.4804C79.87 31.4508 79.813 31.4343 79.7542 31.4398C79.3784 31.475 79.0007 31.509 78.6268 31.5474C78.5262 31.5584 78.4427 31.5485 78.3706 31.509C78.3193 31.4804 78.2681 31.4684 78.2036 31.4749C77.6398 31.5288 77.0761 31.5804 76.5124 31.6375C76.4042 31.6485 76.3283 31.6276 76.26 31.5914C76.205 31.5628 76.1575 31.5573 76.0891 31.5617C76.017 31.5672 75.9734 31.5793 75.9335 31.6122C75.8823 31.6551 75.85 31.7089 75.7285 31.7122C75.6033 31.7155 75.4761 31.7287 75.3527 31.7473C75.2351 31.766 75.18 31.7166 75.106 31.6869C75.051 31.6661 74.9997 31.6628 74.9295 31.6727C74.865 31.6814 74.8251 31.7001 74.7871 31.7352C74.7036 31.8099 74.696 31.8099 74.5935 31.7627C74.5385 31.7374 74.4891 31.7177 74.4284 31.7221C74.1779 31.744 73.9273 31.7682 73.6768 31.7935C73.5325 31.8077 73.5307 31.8099 73.4225 31.755C73.3693 31.7276 73.3181 31.7144 73.2554 31.721C72.5665 31.7869 71.8775 31.8506 71.1885 31.9198C71.0822 31.9308 71.0101 31.9077 70.9342 31.8747C70.9095 31.8638 70.8848 31.8484 70.8564 31.844C70.8279 31.8396 70.7956 31.844 70.7653 31.8462C70.2642 31.8934 69.7612 31.9384 69.262 31.9912C69.1481 32.0032 69.0874 31.9681 69.0096 31.9395C68.9831 31.9297 68.9602 31.9143 68.9318 31.9099C68.9033 31.9066 68.8691 31.9143 68.8388 31.9176C68.3377 31.9648 67.8347 32.0098 67.3356 32.0626C67.216 32.0746 67.1647 32.0285 67.0869 32.0043C67.0603 31.9956 67.0319 31.9791 67.0072 31.9813C66.8497 31.9934 66.6941 32.0098 66.5365 32.0241C66.1607 32.0604 65.7849 32.0944 65.4091 32.1318C65.2648 32.146 65.2022 32.0483 65.0807 32.0527C64.9232 32.0582 64.7675 32.0801 64.61 32.0955C64.4847 32.1076 64.3595 32.1186 64.2342 32.1318C64.1108 32.1438 64.1108 32.1438 63.8034 32.0801C63.7768 32.0746 63.7445 32.0669 63.718 32.0691C63.2795 32.1098 62.8392 32.1504 62.4027 32.1944C62.3021 32.2042 62.2185 32.1988 62.1464 32.1581C62.0952 32.1296 62.042 32.1153 61.9794 32.1219C61.3208 32.1845 60.6641 32.2471 60.0054 32.3086C59.9808 32.3108 59.9485 32.2998 59.9238 32.291C59.8707 32.2712 59.8194 32.2482 59.7682 32.2273C59.7302 32.2526 59.6809 32.2756 59.6562 32.3042C59.6221 32.3426 59.5765 32.3536 59.5044 32.3602C59.4323 32.3668 59.3867 32.3646 59.3298 32.336C59.2615 32.3009 59.1912 32.2734 59.0792 32.2844C58.3903 32.3536 57.7013 32.4162 57.0123 32.4843C56.8984 32.4953 56.8453 32.447 56.7656 32.4217C56.739 32.414 56.7086 32.4019 56.6839 32.4041C56.4011 32.4294 56.1202 32.4569 55.8374 32.4832C55.0536 32.5579 54.2697 32.6293 53.4877 32.7084C53.3454 32.7227 53.2486 32.6952 53.148 32.648C53.1271 32.6381 53.091 32.6326 53.0645 32.6348C51.9674 32.738 50.8704 32.8424 49.7752 32.9467C49.7164 32.9522 49.6594 32.9346 49.612 32.9061C49.5626 32.8764 49.5076 32.8621 49.4469 32.8676C48.9458 32.9149 48.4447 32.9621 47.9437 33.0104C47.8184 33.0225 47.8165 33.0236 47.6874 32.9709C47.6608 32.9599 47.6324 32.939 47.6115 32.9412C47.5678 32.9467 47.5261 32.9742 47.4957 33.0115C47.4653 33.051 47.4179 33.062 47.3477 33.0697C47.2755 33.0774 47.2281 33.0741 47.1731 33.0477C47.1028 33.0148 47.0383 32.983 46.9244 32.9939C45.4838 33.1345 44.0432 33.2696 42.6026 33.4091C42.4869 33.4201 42.4337 33.3739 42.354 33.3487C42.3274 33.341 42.3009 33.33 42.2724 33.3278C42.242 33.3256 42.2098 33.3322 42.1794 33.3355C39.8297 33.5585 37.4799 33.7825 35.1302 34.0055C34.9898 34.0187 34.9917 34.0187 34.8379 34.1197C34.8189 34.1318 34.7942 34.1483 34.7677 34.1505C34.0483 34.2207 33.3271 34.2888 32.6059 34.3569C32.2927 34.3866 31.9795 34.4174 31.6664 34.4459C31.5544 34.4558 31.5544 34.4558 31.2868 34.5744C31.264 34.5843 31.2374 34.5975 31.2108 34.5997C29.9581 34.7194 28.7054 34.8391 27.4508 34.9566C27.3521 34.9654 27.2724 34.9852 27.2269 35.0379C27.1946 35.0752 27.1529 35.0972 27.0902 35.1038C26.2134 35.1873 25.3365 35.2718 24.4577 35.3531C24.3533 35.363 24.2907 35.3938 24.2394 35.4399C24.2223 35.4553 24.2072 35.4728 24.1825 35.4838C24.1597 35.4937 24.1255 35.497 24.0971 35.5003C23.3455 35.5717 22.5939 35.6453 21.8404 35.7134C21.7284 35.7233 21.6828 35.7639 21.6278 35.8067C21.6088 35.821 21.5955 35.8408 21.5708 35.8507C21.5461 35.8594 21.5101 35.8594 21.4797 35.8616C20.8534 35.921 20.2271 35.9814 19.6007 36.0407C19.4792 36.0352 19.4527 36.0989 19.3938 36.1373C19.3729 36.1505 19.3578 36.1681 19.3331 36.1769C19.3065 36.1856 19.2723 36.1845 19.2401 36.1867C18.739 36.234 18.2379 36.2845 17.735 36.3284C17.6192 36.3383 17.5964 36.3943 17.5338 36.4328C17.5129 36.4448 17.492 36.4635 17.4674 36.4668C17.1542 36.4987 16.841 36.5283 16.5279 36.5569C16.4235 36.5668 16.4235 36.5657 16.2394 36.6744C16.2185 36.6865 16.1938 36.6997 16.1672 36.703C15.6984 36.7491 15.2277 36.793 14.757 36.8381C14.6963 36.8435 14.6545 36.8699 14.6241 36.9072C14.5938 36.9446 14.5501 36.9688 14.4894 36.9742C14.1136 37.0105 13.7378 37.0478 13.3619 37.0808C13.2576 37.0896 13.1892 37.117 13.1437 37.1664C13.1095 37.2038 13.0678 37.2225 13.0013 37.229C12.6255 37.2642 12.2497 37.3026 11.872 37.3334C11.762 37.3422 11.705 37.3795 11.6594 37.4256C11.6234 37.463 11.5816 37.4762 11.5114 37.4828C10.8224 37.5465 10.1316 37.6102 9.44448 37.6805C9.3287 37.6925 9.26985 37.6541 9.19393 37.6266C9.08574 37.5882 8.98518 37.5465 8.98518 37.4608C8.98518 37.4476 8.9529 37.4322 8.93013 37.4213C8.76121 37.3389 8.7612 37.3389 8.73463 37.251C8.71944 37.1972 8.70236 37.1423 8.68908 37.0874C8.6644 36.9973 8.60365 36.9742 8.42903 36.9907C8.36639 36.9962 8.30376 37.0039 8.24113 37.0083C8.14813 37.016 8.07791 36.9797 8.06083 36.9138C8.05134 36.8776 8.03997 36.8413 8.03048 36.8051C8.12538 36.7963 8.12345 36.7952 8.29048 36.6623C8.3607 36.6063 8.36073 36.6063 8.22598 36.5503C8.17473 36.5294 8.12537 36.5063 8.07033 36.4866C8.04565 36.4778 8.0134 36.4723 7.98682 36.4745C7.82929 36.4877 7.67366 36.5031 7.51802 36.5184C7.26749 36.5426 7.26746 36.5426 7.01312 36.4306C6.99225 36.4218 6.95998 36.4053 6.96377 36.3965C6.98465 36.3559 7.03589 36.3383 7.10042 36.3339C7.19532 36.3273 7.28832 36.3163 7.38133 36.3076C7.44396 36.3021 7.50659 36.2955 7.56923 36.29C7.62806 36.2483 7.68883 36.2076 7.74387 36.1648C7.83118 36.0989 7.83115 36.0967 7.71158 36.0506C7.63566 36.0198 7.55404 35.9923 7.47623 35.9638C7.38322 35.9726 7.28833 35.9825 7.19532 35.9901C7.07765 36 7.03019 35.9792 6.99982 35.9078C6.97325 35.8452 7.00552 35.7913 7.09662 35.7782C7.18963 35.765 7.27697 35.7562 7.32442 35.7002C7.36997 35.6464 7.44968 35.6255 7.54837 35.6211C7.61101 35.6178 7.67364 35.6101 7.73628 35.6035C7.81789 35.5948 7.86156 35.5387 7.84447 35.4761C7.83498 35.4355 7.816 35.4014 7.74197 35.3927C7.41362 35.3542 7.4098 35.3553 7.24657 35.2806C7.23139 35.274 7.22003 35.2543 7.22572 35.2444C7.23521 35.2279 7.2561 35.2037 7.27887 35.2005C7.49714 35.1763 7.7154 35.1543 7.93368 35.1379C8.0058 35.1324 8.05895 35.1247 8.08362 35.084C8.11779 35.028 8.1026 34.9764 8.03617 34.938C8.0153 34.9259 7.9811 34.9105 7.95833 34.9116C7.70779 34.9314 7.45916 34.9566 7.20862 34.9764C7.18585 34.9786 7.14411 34.9599 7.13462 34.9456C7.11564 34.9193 7.14409 34.8841 7.21052 34.8721C7.29783 34.8556 7.38704 34.8545 7.44587 34.7996C7.52749 34.7216 7.62807 34.6502 7.71918 34.5755C7.73436 34.5623 7.75907 34.5371 7.75337 34.5349C7.70592 34.5107 7.65087 34.492 7.60152 34.469C7.51801 34.4305 7.518 34.3767 7.53698 34.3251C7.55216 34.2834 7.6091 34.2669 7.67933 34.2669C7.70969 34.2669 7.74765 34.2669 7.77233 34.257C7.83686 34.2328 7.85774 34.2021 7.82548 34.179C7.8065 34.1658 7.77235 34.1472 7.74957 34.1494C7.3434 34.1856 6.9353 34.2208 6.53102 34.2658C6.41145 34.279 6.35644 34.2372 6.28432 34.2076C6.22928 34.1845 6.178 34.1757 6.10967 34.1922C6.04514 34.2076 5.98253 34.1988 5.94267 34.1625C5.9104 34.1329 5.96733 34.1076 6.12107 34.0791C6.14954 34.0736 6.18179 34.0703 6.20267 34.0593C6.42284 33.9407 6.42283 33.9396 6.57467 33.9242C6.72272 33.9099 6.72275 33.9088 6.80057 33.8451C6.83663 33.8155 6.87646 33.7858 6.91062 33.7551C6.92391 33.743 6.94671 33.721 6.93912 33.7144C6.89737 33.6804 6.8404 33.6727 6.77397 33.6804C6.62593 33.6991 6.45134 33.6837 6.37352 33.788C6.34315 33.8276 6.2957 33.8385 6.22737 33.8451C5.54029 33.9088 4.85319 33.9769 4.16421 34.0384C4.05223 34.0483 4.00102 34.089 3.95736 34.134C3.9194 34.1713 3.87764 34.1823 3.80551 34.1889C3.73339 34.1955 3.67642 34.1988 3.63466 34.1625C3.60999 34.1406 3.63087 34.1098 3.68781 34.0791C3.76943 34.0351 3.75424 33.9802 3.72766 33.9286C3.70868 33.8946 3.64985 33.8704 3.58721 33.8726C3.49421 33.877 3.40503 33.8891 3.32721 33.8451C3.28166 33.8199 3.22471 33.8023 3.17346 33.7803C3.07476 33.7353 2.97606 33.6892 2.83751 33.7188C2.74261 33.7078 2.67618 33.6683 2.60026 33.6375C2.47309 33.587 2.4617 33.5793 2.55281 33.5255C2.6553 33.4651 2.57557 33.386 2.63251 33.3267C2.69325 33.263 2.77679 33.207 2.85081 33.1477C2.86979 33.1323 2.88688 33.118 2.90586 33.1027C2.8622 33.0807 2.82235 33.0532 2.77111 33.0379C2.70468 33.0181 2.67051 32.9939 2.67431 32.9258C2.66102 32.916 2.66668 32.9412 2.68186 32.9478C2.69894 32.9544 2.74073 32.9489 2.76161 32.9412C2.81475 32.9203 2.8413 32.8929 2.82801 32.8698C2.82042 32.8577 2.78438 32.8424 2.76161 32.8424C2.71985 32.8424 2.6838 32.8665 2.67241 32.9258C2.45983 32.9709 2.23963 32.9928 2.01946 33.0104C1.99668 33.0126 1.96823 32.9906 1.94166 32.9797C1.85435 32.9423 1.85434 32.9434 1.59811 32.9324C1.57153 32.9313 1.53549 32.916 1.5222 32.9006C1.46716 32.8336 1.46908 32.76 1.4425 32.6886C1.49185 32.6425 1.54116 32.5974 1.59241 32.5524C1.6949 32.4612 1.82779 32.3811 1.90751 32.2811C1.89042 32.2273 1.86764 32.1735 1.95116 32.1296C2.18841 32.0746 2.18652 32.0746 2.25106 32.0219C2.43516 31.8726 2.61736 31.7221 2.80906 31.5749C2.8603 31.5365 2.86031 31.5156 2.76921 31.4991C2.74074 31.4947 2.71033 31.4936 2.67996 31.4958C2.58506 31.5035 2.49016 31.5233 2.39716 31.5189C2.30416 31.5156 2.23583 31.4673 2.15991 31.4376C2.08209 31.4069 2.00428 31.375 1.92646 31.3432C1.83725 31.3464 1.74806 31.3772 1.65886 31.3278C1.59053 31.2893 1.50512 31.2619 1.4273 31.23C1.48614 31.1466 1.59624 31.0828 1.68165 31.0093C1.75947 30.9423 1.76133 30.9434 1.97011 30.8917C2.0688 30.8676 2.10297 30.7435 2.01946 30.7072C1.91886 30.6633 1.8126 30.6227 1.71011 30.5809C1.6209 30.5842 1.52981 30.6139 1.4444 30.5645C1.37797 30.5271 1.30204 30.5018 1.19195 30.5161C1.00595 30.5403 0.816154 30.5524 0.628251 30.5721C0.563719 30.5787 0.493472 30.5743 0.465002 30.537C0.446022 30.5106 0.501068 30.4744 0.563702 30.4667C0.658603 30.4557 0.744004 30.4425 0.791454 30.3876C0.837006 30.3327 0.920509 30.3162 1.01921 30.3085C1.04578 30.3063 1.07617 30.2932 1.08945 30.28C1.15778 30.2163 1.23371 30.1614 1.37985 30.1636C1.44059 30.1416 1.47284 30.1141 1.45386 30.0878C1.44247 30.0735 1.40263 30.0548 1.37985 30.057C1.22232 30.068 1.06479 30.079 0.911052 30.0988C0.838928 30.1076 0.783856 30.1097 0.738304 30.0768C0.706038 30.0548 0.723118 30.0252 0.783854 29.9933C0.836999 29.9659 0.852199 29.934 0.848403 29.8967C0.838913 29.8099 0.781962 29.7846 0.599753 29.7901C0.468791 29.7945 0.436523 29.7802 0.408053 29.7056C0.400461 29.688 0.381514 29.6638 0.3948 29.6517C0.476414 29.5771 0.529562 29.4848 0.683301 29.4497C0.744037 29.4365 0.808543 29.4365 0.846503 29.4079C0.884463 29.3794 0.918644 29.3464 0.958502 29.3189C1.00785 29.286 1.04198 29.2553 1.01921 29.2344C0.981245 29.197 0.920529 29.1937 0.850303 29.2069C0.789567 29.2179 0.725037 29.219 0.662402 29.2256C0.55042 29.2377 0.459336 29.2091 0.44605 29.1608C0.409988 29.0334 0.372017 28.9071 0.339751 28.7797C0.335955 28.7643 0.345419 28.7445 0.360603 28.7313C0.413747 28.6852 0.470709 28.6413 0.525751 28.5963C0.590284 28.5446 0.692793 28.5545 0.780101 28.5446C0.903471 28.5304 0.903429 28.5315 1.06856 28.426C1.13309 28.3843 1.24508 28.4008 1.31151 28.3634C1.33238 28.3513 1.36465 28.3316 1.35896 28.3206C1.35136 28.3063 1.31342 28.2953 1.28495 28.2887C1.25838 28.2821 1.22612 28.2788 1.19765 28.2821C0.852216 28.314 0.508686 28.348 0.163249 28.3788C0.104411 28.3843 0.0398767 28.3601 0.0189986 28.3261C-0.00187947 28.2942 0.00379601 28.2558 0 28.2195C0.0550422 28.1745 0.117652 28.1328 0.165102 28.0844C0.201165 28.0471 0.242928 28.0306 0.315052 28.0284C0.409953 28.0251 0.502964 28.0119 0.609253 28.0021C0.806645 27.8417 1.00023 27.6737 1.21281 27.5133C1.29822 27.4485 1.27737 27.3826 1.29445 27.3134C1.31154 27.2497 1.43869 27.2596 1.5241 27.2409C1.59243 27.2256 1.61518 27.1904 1.58861 27.1662C1.57342 27.152 1.53928 27.1355 1.51271 27.1355C1.45007 27.1355 1.38744 27.1454 1.3248 27.1509C1.26217 27.1564 1.19005 27.1531 1.1388 27.1717C1.08946 27.1893 1.05717 27.2266 1.0249 27.2585C0.988843 27.2936 0.941426 27.3057 0.869302 27.3079C0.776299 27.3101 0.683303 27.32 0.5903 27.3277C0.487808 27.2849 0.381497 27.2431 0.282801 27.1981C0.263821 27.1893 0.260005 27.1641 0.261903 27.1476C0.265699 27.1047 0.237236 27.0784 0.174602 27.0575C0.121458 27.0399 0.0777997 27.0147 0.0284516 26.9927C0.0664117 26.9631 0.108183 26.9345 0.138551 26.9026C0.204981 26.8356 0.288503 26.7873 0.432751 26.7895C0.489691 26.7467 0.53523 26.694 0.609253 26.6643C0.679479 26.6358 0.799059 26.6643 0.852203 26.5995C0.878775 26.5677 0.918655 26.5314 0.969902 26.5182C1.05152 26.4974 1.1578 26.5084 1.20525 26.4469C1.23372 26.4117 1.27546 26.3798 1.3305 26.3711C1.39314 26.3612 1.45765 26.359 1.50321 26.3381C1.52788 26.3271 1.55446 26.3096 1.55446 26.2942C1.55446 26.2843 1.51653 26.2689 1.48995 26.2623C1.46528 26.2546 1.43298 26.2492 1.40451 26.2513C1.30961 26.2579 1.21661 26.27 1.1217 26.2766C1.09513 26.2788 1.06477 26.2711 1.0363 26.2645C0.952792 26.247 0.958475 26.225 1.0249 26.1855C1.09134 26.147 1.13881 26.0976 1.19385 26.0525C1.25459 26.0449 1.3305 26.0482 1.37225 26.0273C1.44248 25.9932 1.49182 25.9438 1.54876 25.901C1.61139 25.8944 1.67592 25.8922 1.73476 25.8801C1.75943 25.8757 1.77083 25.8516 1.79171 25.8373C1.82967 25.8098 1.86196 25.7703 1.91321 25.7571C1.99672 25.7373 2.09921 25.745 2.14856 25.6846C2.17703 25.6495 2.22066 25.6121 2.27381 25.6099C2.42185 25.6055 2.48449 25.5451 2.56041 25.488C2.61735 25.4452 2.73882 25.4671 2.80146 25.4243C2.84322 25.3969 2.8736 25.3628 2.91536 25.3364C2.93244 25.3255 2.96849 25.32 2.99696 25.3167C3.1526 25.3002 3.31012 25.2881 3.46576 25.2705C3.49044 25.2672 3.51323 25.2508 3.53221 25.2376C3.57207 25.209 3.59671 25.1695 3.64606 25.1508C3.69541 25.1322 3.76563 25.1322 3.82636 25.1267C4.02186 25.1102 4.03706 25.1146 4.12626 25.0212C4.19839 24.9454 4.37492 24.9993 4.43376 24.9158C4.46793 24.8675 4.53053 24.8279 4.64252 24.8224C4.80005 24.8147 4.95568 24.7939 5.11322 24.7796C5.25367 24.7664 5.25178 24.7664 5.40362 24.6643C5.47195 24.6181 5.57256 24.6247 5.66177 24.6159C5.75667 24.6072 5.84397 24.594 5.88952 24.5391C5.93507 24.4853 6.01857 24.4677 6.11537 24.46C6.20458 24.4523 6.30519 24.4578 6.37542 24.4139C6.54624 24.3084 6.54435 24.3073 6.66392 24.2963C6.85182 24.2788 7.03972 24.2612 7.22762 24.2425C7.35289 24.2304 7.48385 24.2282 7.60152 24.2041C7.68693 24.1865 7.72488 24.125 7.77993 24.0822C7.93556 24.0657 8.09119 24.0492 8.24683 24.0338C8.4651 24.0119 8.68526 23.9921 8.90543 23.9712C9.00033 23.9295 9.01365 23.8372 9.17308 23.8328C9.26798 23.8306 9.36098 23.8164 9.45588 23.8076C9.61341 23.7922 9.76905 23.7724 9.92658 23.7648C10.0462 23.7593 10.067 23.6999 10.1296 23.6626C10.1505 23.6494 10.1695 23.6308 10.1942 23.6275C10.4409 23.5967 10.6952 23.5901 10.9363 23.5451C10.961 23.5407 10.9837 23.5176 10.9894 23.5012C10.9932 23.4924 10.961 23.4759 10.9401 23.4682C10.9154 23.4594 10.8832 23.4506 10.8566 23.4528C10.0727 23.5264 9.28885 23.6011 8.50498 23.6747C8.39489 23.6857 8.39489 23.6846 8.12728 23.8054C8.1045 23.8153 8.0779 23.8263 8.04943 23.8295C7.92416 23.8427 7.797 23.8504 7.67363 23.8669C7.57303 23.8801 7.48955 23.8669 7.41742 23.8273C7.36618 23.7988 7.31301 23.79 7.24847 23.7922C7.17635 23.7955 7.12893 23.8076 7.08717 23.8372C7.03213 23.8779 7.00365 23.9306 6.88787 23.9416C6.35453 23.9888 5.82116 24.0415 5.28972 24.092C5.2157 24.0767 5.17964 24.0536 5.19862 24.0262C5.21001 24.0097 5.23279 23.9877 5.25557 23.9855C5.47384 23.9624 5.694 23.9427 5.91227 23.9207C5.94264 23.9174 5.98439 23.9196 6.00147 23.9086C6.08498 23.8592 6.11539 23.779 6.27292 23.7735C6.36402 23.7702 6.45701 23.7538 6.54432 23.7384C6.569 23.734 6.59178 23.7109 6.59747 23.6945C6.59937 23.6857 6.569 23.6692 6.54622 23.6615C6.46271 23.6297 6.36593 23.6681 6.28242 23.6461C6.25395 23.6384 6.21407 23.6275 6.20837 23.6143C6.20458 23.6022 6.23684 23.5824 6.25962 23.5703C6.2805 23.5594 6.30895 23.5495 6.33742 23.5462C6.58796 23.5209 6.83853 23.4946 7.08907 23.4748C7.19156 23.4671 7.26367 23.4396 7.30922 23.3891C7.34339 23.3518 7.38514 23.332 7.44967 23.3265C7.88811 23.2859 8.32654 23.2409 8.76688 23.2035C8.87696 23.1947 8.93393 23.1585 8.97948 23.1113C9.01554 23.0739 9.0573 23.0607 9.12753 23.0541C9.75577 22.997 10.3802 22.9333 11.0084 22.8784C11.1242 22.8685 11.1584 22.8213 11.2172 22.7807C11.2381 22.7664 11.2514 22.7488 11.2779 22.74C11.3045 22.7312 11.3387 22.7323 11.3709 22.7301C11.872 22.6829 12.3731 22.6324 12.8761 22.5885C12.9938 22.5786 13.0165 22.5236 13.0772 22.4852C13.0981 22.4731 13.1171 22.4534 13.1418 22.4501C13.5176 22.4127 13.8934 22.3776 14.2692 22.3413C14.5197 22.3172 14.7703 22.293 15.0208 22.2699C15.1442 22.259 15.1442 22.2579 15.3112 22.1535C15.3302 22.1414 15.3568 22.1272 15.3814 22.1239C16.1027 22.0536 16.822 21.9866 17.5433 21.9174C17.604 21.9119 17.6476 21.8866 17.678 21.8493C17.7084 21.8119 17.7521 21.7867 17.8109 21.7812C18.3746 21.7263 18.9383 21.6725 19.5039 21.6208C19.6064 21.612 19.6785 21.5857 19.7241 21.5363C19.7582 21.4989 19.8 21.4792 19.8645 21.4737C20.4282 21.4209 20.992 21.3649 21.5576 21.3144C21.6658 21.3045 21.7189 21.2672 21.772 21.2232C21.791 21.2079 21.8062 21.1826 21.829 21.1804C22.1099 21.1496 22.3889 21.1178 22.6717 21.0969C22.7894 21.0881 22.8292 21.042 22.8767 20.9981C22.9146 20.9629 22.9583 20.9509 23.0304 20.9465C23.188 20.9366 23.3436 20.9179 23.4973 20.8992C23.5201 20.8959 23.5486 20.8718 23.5505 20.8564C23.5543 20.8278 23.5106 20.8081 23.4385 20.7982C22.6869 20.8696 21.9334 20.941 21.1818 21.0124C21.0584 21.0244 21.0584 21.0244 20.8914 21.1288C20.8724 21.1409 20.8458 21.1551 20.8192 21.1584C20.098 21.2276 19.3787 21.2957 18.6574 21.3649C18.5967 21.3704 18.553 21.3957 18.5227 21.433C18.4923 21.4704 18.4486 21.4956 18.3898 21.5011C17.7008 21.567 17.0118 21.634 16.321 21.6966C16.2185 21.7054 16.1464 21.7307 16.1008 21.7812C16.0666 21.8185 16.0249 21.8383 15.9604 21.8438C15.3017 21.9053 14.645 21.9701 13.9845 22.0294C13.9181 22.0349 13.8687 22.003 13.8725 21.9734C13.8744 21.958 13.9029 21.9328 13.9256 21.9306C14.2692 21.8943 14.6109 21.857 14.9563 21.8295C15.0721 21.8207 15.1062 21.7724 15.1651 21.7318C15.184 21.7175 15.1992 21.6988 15.2239 21.6911C15.2505 21.6823 15.2846 21.6834 15.3169 21.6812C16.1311 21.6033 16.9454 21.5242 17.7616 21.4506C17.8792 21.4396 17.902 21.3858 17.9627 21.3473C17.9836 21.3342 18.0026 21.3144 18.0273 21.3122C18.2778 21.2858 18.5283 21.2628 18.7789 21.2397C19.2173 21.198 19.6557 21.1562 20.0961 21.1145C20.2232 21.1024 20.2232 21.1024 20.3865 20.9992C20.4054 20.9871 20.432 20.9717 20.4567 20.9695C21.6164 20.8586 22.7761 20.7477 23.9358 20.6378C23.9965 20.6323 24.0402 20.6071 24.0705 20.5697C24.1009 20.5335 24.1445 20.5071 24.2034 20.5005C25.7711 20.3512 27.337 20.2018 28.9047 20.0546C29.0072 20.0447 29.0793 20.0217 29.1249 19.9701C29.1572 19.9327 29.2008 19.9129 29.2653 19.9064C30.9887 19.7427 32.7121 19.5791 34.4374 19.4143C35.5971 19.3045 36.7568 19.1924 37.9165 19.0848C38.0228 19.0749 38.0797 19.0409 38.1328 18.9958C38.1499 18.9805 38.167 18.9552 38.1898 18.953C38.4384 18.9255 38.687 18.9003 38.9357 18.875C39.0135 18.9047 39.0913 18.9332 39.1691 18.9629C39.228 18.9212 39.2849 18.8783 39.3438 18.8366C39.7196 18.8047 40.0897 18.7553 40.4693 18.7399C40.494 18.7388 40.5205 18.7597 40.5471 18.7707C40.7236 18.8399 40.8242 18.8344 40.9362 18.7421C40.976 18.7092 41.0102 18.6795 41.0709 18.674C41.2588 18.6543 41.4487 18.6411 41.6347 18.618C41.7353 18.6059 41.8188 18.6169 41.8909 18.6565C41.9421 18.685 41.9953 18.6971 42.0579 18.6905C42.4034 18.6576 42.7469 18.6257 43.0923 18.5906C43.117 18.5884 43.1398 18.5697 43.1587 18.5565C43.1986 18.528 43.2328 18.4972 43.2707 18.4676C43.322 18.4862 43.3789 18.5005 43.4207 18.5247C43.4738 18.5532 43.5232 18.5532 43.5953 18.5455C44.9732 18.4126 46.3531 18.283 47.7311 18.149C47.8487 18.1381 47.9 18.1842 47.9797 18.2084C48.0063 18.2171 48.0328 18.2281 48.0613 18.2303C48.0917 18.2325 48.1239 18.2259 48.1543 18.2226C49.1887 18.1238 50.2232 18.026 51.2576 17.9272C51.3942 17.914 51.3942 17.914 51.5973 17.9821C51.622 17.9909 51.6542 18.0008 51.6808 17.9975C52.1515 17.9546 52.6222 17.9085 53.091 17.8646C53.1518 17.8591 53.203 17.8767 53.2581 17.9019C53.3663 17.9513 53.3738 17.9514 53.4535 17.8789C53.4915 17.8448 53.5313 17.8239 53.594 17.8141C53.6623 17.8031 53.7174 17.8064 53.7705 17.8261C53.8464 17.8536 53.9015 17.8997 54.0173 17.8876C54.5183 17.836 55.0213 17.7932 55.5205 17.7405C55.6344 17.7284 55.6951 17.7657 55.771 17.7932C55.7976 17.8031 55.8223 17.8185 55.8507 17.8217C55.8792 17.825 55.9134 17.8173 55.9437 17.8141C56.5701 17.7547 57.1983 17.6965 57.8227 17.6328C57.9404 17.6208 57.9917 17.668 58.0714 17.6921C58.098 17.7009 58.1283 17.7163 58.153 17.7141C58.5288 17.6801 58.9065 17.6438 59.2823 17.6076C59.4171 17.5944 59.4171 17.5955 59.622 17.6625C59.6467 17.6713 59.679 17.6801 59.7056 17.6779C60.144 17.6372 60.5844 17.5955 61.0228 17.5537C61.1576 17.5406 61.1576 17.5406 61.5466 17.5977C61.5751 17.6021 61.6055 17.6087 61.634 17.6065C62.135 17.5593 62.638 17.5131 63.1391 17.4626C63.2397 17.4527 63.3232 17.4615 63.3953 17.501C63.4466 17.5296 63.4997 17.5417 63.5623 17.5351C64.126 17.4813 64.6917 17.4297 65.2535 17.3725C65.3616 17.3616 65.4318 17.3857 65.5078 17.4176C65.5324 17.4285 65.5571 17.4439 65.5856 17.4483C65.6141 17.4527 65.6463 17.4483 65.6767 17.445C66.2404 17.3912 66.806 17.3407 67.3678 17.2825C67.4817 17.2704 67.5424 17.3077 67.6184 17.3352C67.6449 17.3451 67.6734 17.3648 67.6962 17.3637C67.9163 17.3451 68.1365 17.3286 68.3548 17.3011C68.4725 17.2858 68.5237 17.3363 68.6034 17.3604C68.63 17.3681 68.6604 17.3846 68.685 17.3824C69.1557 17.3396 69.6265 17.2946 70.0953 17.2484C70.1617 17.2418 70.211 17.2517 70.2642 17.2803C70.3344 17.3187 70.416 17.3341 70.5185 17.322C70.7368 17.2967 70.957 17.2792 71.1771 17.2583C71.3062 17.2462 71.3062 17.2462 71.701 17.3033C71.7295 17.3077 71.7598 17.3143 71.7883 17.3121C72.1641 17.277 72.5418 17.2429 72.9157 17.2045C73.0163 17.1935 73.0998 17.2034 73.1719 17.2429C73.2232 17.2715 73.2744 17.2836 73.3389 17.277C73.6844 17.244 74.028 17.2111 74.3734 17.1781C74.4987 17.1661 74.6239 17.1452 74.7492 17.1452C74.8403 17.1463 74.9067 17.199 74.9883 17.2254C75.0111 17.233 75.0491 17.2243 75.0794 17.2221C75.5179 17.1803 75.9582 17.1419 76.3948 17.0947C76.5086 17.0826 76.5694 17.1199 76.6453 17.1474C76.6719 17.1573 76.7003 17.177 76.7231 17.1759C76.8806 17.1639 77.0363 17.1474 77.1938 17.1331C77.3817 17.1155 77.5715 17.1023 77.7575 17.0782C77.9093 17.0584 77.9663 17.154 78.0878 17.1573C78.1808 17.1606 78.2757 17.1419 78.3687 17.1331C78.5566 17.1155 78.7445 17.0958 78.9324 17.0804C78.9988 17.0749 79.0501 17.0573 79.071 17.0178C79.0748 17.0101 79.0425 16.9936 79.0216 16.9837C78.7692 16.8717 78.7691 16.8717 78.5148 16.8959C78.3573 16.9112 78.2016 16.9266 78.0441 16.9398C78.0175 16.942 77.9872 16.9332 77.9606 16.9266C77.8847 16.9079 77.8923 16.886 77.9568 16.8464C78.0213 16.8069 78.0707 16.7586 78.1257 16.7135C78.2035 16.7421 78.2795 16.7706 78.3573 16.7992C78.4199 16.7937 78.4826 16.7871 78.5452 16.7816C78.8584 16.7531 79.1715 16.7234 79.4847 16.6971C79.5075 16.6949 79.5359 16.7168 79.5625 16.7278C79.6384 16.7597 79.7068 16.7871 79.8169 16.775C80.0978 16.7432 80.3806 16.7201 80.6615 16.6927C80.7848 16.6806 80.7848 16.6806 81.0012 16.7487C81.0259 16.7564 81.0581 16.7652 81.0847 16.763C81.3675 16.7377 81.6484 16.7102 81.9312 16.6839C81.992 16.6784 82.0508 16.6927 82.0945 16.7245C82.1115 16.7377 82.1077 16.7597 82.1799 16.9398C82.4038 17.0859 82.5576 17.0705 82.7132 17.0573C82.7796 17.0518 82.8385 17.0463 82.8821 17.0244C82.9049 17.0123 82.9334 16.9947 82.9334 16.9804C82.9334 16.9694 82.8916 16.9519 82.8651 16.9497C82.6772 16.9277 82.4987 16.9738 82.3146 16.9837C82.2292 16.9881 82.1552 16.9497 82.14 16.8871C82.1362 16.8695 82.1305 16.8508 82.1248 16.8333C82.1191 16.8157 82.1154 16.797 82.1097 16.7794C82.0356 16.774 81.992 16.7937 81.9597 16.8311C81.9331 16.8618 81.8952 16.897 81.8439 16.9134C81.7927 16.931 81.7225 16.9277 81.6598 16.9332C81.5991 16.9387 81.5327 16.953 81.4757 16.9453C81.4188 16.9365 81.3732 16.9046 81.3201 16.8849C81.2954 16.875 81.265 16.8607 81.2404 16.8629C81.0221 16.8816 80.8057 16.9003 80.5894 16.9244C80.4755 16.9376 80.4185 16.8915 80.3464 16.8629C80.2895 16.8409 80.2325 16.8464 80.223 16.897C80.1983 17.0178 80.2857 17.0683 80.4793 17.0452C80.6387 17.0255 80.7829 17.0222 80.9082 17.0969C80.9253 17.1067 80.9651 17.1111 80.9898 17.1089C81.1455 17.0958 81.2992 17.0793 81.4548 17.0661C81.4833 17.0639 81.5137 17.0683 81.5403 17.0727C81.9275 17.132 81.9275 17.1331 82.0584 17.1199C82.121 17.1133 82.1818 17.1078 82.1761 16.9409C82.2956 16.7619 82.4855 16.7498 82.6696 16.7234C82.7891 16.707 82.8404 16.7553 82.9182 16.7805C82.9447 16.7893 82.9732 16.8069 82.9979 16.8047C83.406 16.7685 83.8121 16.73 84.2183 16.6894C84.2867 16.6828 84.336 16.6894 84.3891 16.7179C84.4575 16.7542 84.5334 16.7772 84.6416 16.7641C84.8579 16.7377 85.0781 16.7212 85.2983 16.6993C85.4103 16.6883 85.4103 16.6883 85.6361 16.7564C85.6608 16.7641 85.6931 16.7728 85.7196 16.7706C85.9398 16.752 86.1581 16.7289 86.3764 16.7091C86.4371 16.7037 86.4921 16.719 86.5396 16.7487C86.587 16.7783 86.644 16.7937 86.7028 16.7882C86.923 16.7685 87.1413 16.7465 87.3595 16.7267C87.3861 16.7245 87.4184 16.7322 87.443 16.7399C87.6746 16.808 87.6746 16.808 87.7809 16.797C87.9365 16.7805 88.0959 16.7729 88.2497 16.7509C88.3996 16.7289 88.4774 16.7926 88.5799 16.8278C88.8608 16.8025 89.1436 16.7816 89.4226 16.7509C89.5365 16.7377 89.5973 16.7739 89.6732 16.8025C89.6998 16.8124 89.7263 16.8333 89.751 16.8322C89.8459 16.8278 89.9389 16.8157 90.0319 16.8069C90.1249 16.7981 90.2198 16.7893 90.3128 16.7805C90.4191 16.8124 90.4894 16.8871 90.6412 16.8618C90.7323 16.8464 90.8291 16.8431 90.9221 16.8344C91.0151 16.8256 91.11 16.8168 91.203 16.808C91.2656 16.8025 91.3302 16.7992 91.3909 16.7893C91.5029 16.7728 91.5579 16.8267 91.6376 16.8508C91.6642 16.8585 91.6946 16.8717 91.7193 16.8695C91.9072 16.8541 92.0969 16.8409 92.2811 16.8157C92.4234 16.7959 92.5202 16.8289 92.6208 16.875C92.6417 16.8849 92.6777 16.8904 92.7043 16.8882C92.9245 16.8695 93.1427 16.8464 93.361 16.8267C93.4198 16.8212 93.4768 16.8387 93.5243 16.8673C93.5736 16.897 93.6286 16.9112 93.6894 16.9058C93.9076 16.886 94.1278 16.864 94.3461 16.8442C94.3727 16.842 94.4049 16.8508 94.4296 16.8596C94.6422 16.9277 94.6422 16.9288 94.7675 16.9156C94.7978 16.9123 94.8301 16.9101 94.8605 16.9068C95.0161 16.8915 95.1774 16.886 95.3293 16.8596C95.5039 16.83 95.631 16.8673 95.7544 16.9299C95.91 16.9167 96.0695 16.909 96.2213 16.8871C96.3352 16.8706 96.3959 16.9123 96.4719 16.9398C96.4984 16.9497 96.5269 16.9694 96.5497 16.9673C96.7698 16.9486 96.99 16.9321 97.2064 16.9047C97.324 16.8893 97.3753 16.9387 97.455 16.964C97.4816 16.9727 97.51 16.9881 97.5347 16.9859C97.66 16.9771 97.7853 16.964 97.9106 16.9519C98.0567 16.9376 98.0567 16.9387 98.2503 17.0057C98.3414 17.0375 98.4325 17.0123 98.5217 17.0046C98.6166 16.9958 98.7058 16.9892 98.7817 17.0342C98.8292 17.0628 98.8861 17.0804 98.945 17.076C99.0702 17.0661 99.1974 17.0562 99.3208 17.0397C99.4195 17.0266 99.5049 17.0353 99.577 17.076C99.6282 17.1045 99.6814 17.1188 99.744 17.1122C100.025 17.0859 100.308 17.0584 100.589 17.0331C100.613 17.031 100.647 17.0408 100.67 17.0507C100.723 17.0705 100.775 17.0925 100.826 17.1144C100.949 17.1045 101.076 17.1002 101.198 17.0848C101.327 17.0694 101.445 17.0639 101.545 17.1243C101.566 17.1375 101.596 17.1562 101.621 17.1551C101.716 17.1507 101.809 17.1397 101.902 17.1309C101.995 17.1221 102.09 17.1133 102.183 17.1045C102.291 17.132 102.359 17.2111 102.511 17.1858C102.602 17.1704 102.699 17.1671 102.792 17.1584C102.885 17.1496 102.98 17.1397 103.073 17.132C103.104 17.1298 103.138 17.1243 103.164 17.1287C103.193 17.1331 103.217 17.1485 103.242 17.1595C103.318 17.1913 103.388 17.2232 103.496 17.2045C103.587 17.1891 103.684 17.1858 103.777 17.1759C103.904 17.1639 103.904 17.1639 104.115 17.233C104.201 17.2616 104.297 17.2243 104.379 17.2484C104.434 17.2649 104.481 17.2924 104.535 17.311C104.557 17.3187 104.593 17.322 104.62 17.3198C104.745 17.3099 104.872 17.3 104.996 17.2836C105.096 17.2704 105.18 17.2836 105.25 17.3231C105.301 17.3517 105.353 17.3637 105.417 17.3572C105.73 17.3264 106.044 17.3 106.355 17.266C106.461 17.2539 106.546 17.2726 106.605 17.3121C106.706 17.3802 106.848 17.3 106.953 17.355C107.017 17.389 107.082 17.4286 107.199 17.4121C107.416 17.3835 107.636 17.3681 107.854 17.3484C107.932 17.378 108.01 17.4077 108.09 17.4373C108.215 17.4253 108.34 17.4132 108.465 17.4022C108.558 17.3934 108.653 17.3835 108.746 17.3758C108.777 17.3736 108.809 17.3692 108.837 17.3747C108.866 17.3802 108.889 17.3945 108.915 17.4055C109.046 17.4593 109.046 17.4604 109.263 17.4384C109.356 17.4285 109.445 17.422 109.523 17.4659C109.595 17.5065 109.68 17.5142 109.779 17.5021C109.965 17.4802 110.153 17.4637 110.343 17.4483C110.401 17.4428 110.456 17.4615 110.506 17.4901C110.58 17.5351 110.671 17.5307 110.764 17.5186C110.887 17.5032 111.009 17.4879 111.113 17.5494C111.134 17.5625 111.166 17.5812 111.189 17.5801C111.345 17.5713 111.502 17.5647 111.654 17.5439C111.806 17.523 111.88 17.5911 111.984 17.624C112.14 17.6098 112.297 17.5955 112.453 17.5812C112.483 17.5779 112.519 17.568 112.546 17.5735C112.658 17.5966 112.723 17.679 112.876 17.6537C112.966 17.6394 113.062 17.635 113.155 17.6317C113.18 17.6306 113.212 17.6493 113.229 17.6636C113.239 17.6713 113.229 17.6921 113.218 17.7031C113.184 17.7339 113.142 17.7624 113.112 17.7943C113.108 17.7987 113.144 17.8184 113.165 17.8272C113.216 17.847 113.275 17.8437 113.343 17.8349C113.402 17.8272 113.463 17.8426 113.505 17.8756C113.522 17.8887 113.516 17.9107 113.48 17.9832C113.48 18.037 113.52 18.0128 113.533 17.9777C113.554 17.9272 113.514 17.9107 113.438 17.9382C113.385 17.9579 113.358 17.9865 113.372 18.0096C113.379 18.0216 113.415 18.037 113.48 17.9832C113.647 17.9173 113.772 17.9052 113.897 17.8931C113.93 17.8898 113.968 17.8789 113.99 17.8854C114.072 17.9118 114.148 17.9437 114.228 17.9733C114.319 17.9667 114.404 17.9502 114.493 17.9931C114.619 18.0535 114.624 18.048 114.746 18.0359C114.809 18.0293 114.871 18.0238 114.934 18.0184C114.996 18.0129 115.046 18.0293 115.101 18.0546C115.213 18.1062 115.222 18.1062 115.296 18.0359C115.34 17.9931 115.37 17.9788 115.425 17.9986C115.608 18.0656 115.609 18.07 115.765 18.0502C115.894 18.0337 116.016 18.0293 116.111 18.0919C116.175 18.1359 116.196 18.126 116.247 18.0798C116.384 17.9579 116.446 17.9601 116.703 18.048C116.822 18.0897 116.946 18.0447 117.067 18.0392C117.17 18.0348 117.242 18.0612 117.249 18.1304C117.255 18.1732 117.272 18.204 117.34 18.2182C117.367 18.2237 117.399 18.2314 117.426 18.2292C117.583 18.216 117.739 18.2007 117.897 18.1853C117.976 18.1776 118.02 18.126 118.005 18.0579C117.988 17.9854 118.018 17.959 118.132 17.9382C118.2 17.9261 118.255 17.9283 118.31 17.9481C118.371 17.97 118.354 17.9898 118.301 18.0293C118.174 18.126 118.189 18.1853 118.352 18.2523C118.409 18.2753 118.455 18.2962 118.468 18.3303C118.475 18.3478 118.468 18.3709 118.485 18.3841C118.578 18.4577 118.707 18.5049 118.851 18.5401C118.99 18.5104 119.085 18.5598 119.191 18.5994C119.275 18.6301 119.373 18.6038 119.462 18.5928C119.563 18.5807 119.647 18.5895 119.719 18.6301C119.77 18.6587 119.823 18.6718 119.886 18.6663C120.011 18.6543 120.138 18.6466 120.261 18.629C120.368 18.6136 120.447 18.6356 120.514 18.6729C120.597 18.7202 120.69 18.6883 120.778 18.6949C120.895 18.7026 120.954 18.8003 121.108 18.774C121.199 18.7586 121.294 18.7531 121.389 18.7487C121.414 18.7476 121.444 18.7663 121.465 18.7795C121.565 18.8399 121.683 18.8366 121.812 18.819C121.901 18.8069 121.989 18.796 122.076 18.8377C122.22 18.908 122.38 18.9695 122.532 19.0343C122.552 19.0848 122.537 19.1441 122.645 19.1738C122.702 19.1891 122.755 19.2122 122.799 19.2375C122.852 19.2671 122.902 19.2748 122.97 19.2671C123.093 19.2518 123.222 19.2485 123.344 19.2287C123.456 19.2111 123.526 19.2474 123.594 19.2814C123.649 19.3089 123.701 19.322 123.767 19.3023C123.835 19.2836 123.885 19.2957 123.94 19.3253C124.018 19.366 124.023 19.3616 124.281 19.3737C124.308 19.3748 124.34 19.3912 124.355 19.4055C124.363 19.4132 124.346 19.4352 124.333 19.4462C124.316 19.4593 124.289 19.4747 124.264 19.478C123.983 19.5066 123.701 19.5318 123.42 19.5604C123.391 19.5637 123.361 19.5714 123.34 19.5824C123.317 19.5944 123.289 19.6109 123.289 19.6263C123.289 19.6373 123.327 19.6504 123.353 19.6581C123.437 19.6834 123.536 19.645 123.617 19.6735C123.672 19.6922 123.718 19.7185 123.773 19.7361C123.796 19.7438 123.832 19.7427 123.86 19.7405C123.955 19.7328 124.048 19.7218 124.143 19.7152C124.169 19.7141 124.2 19.7251 124.225 19.7339C124.407 19.7998 124.407 19.7998 124.564 19.7855C124.627 19.7801 124.693 19.7636 124.752 19.7702C124.809 19.7768 124.858 19.8064 124.91 19.8251C125.016 19.8646 125.117 19.9031 125.124 19.9887C125.128 20.0217 125.191 20.0502 125.253 20.0524C125.314 20.0546 125.378 20.0426 125.441 20.036C125.589 20.0228 125.589 20.0228 125.781 20.0898C125.834 20.1085 125.891 20.1106 125.959 20.0997C125.986 20.0953 126.018 20.0997 126.047 20.1052C126.14 20.1216 126.14 20.1425 126.079 20.182C125.993 20.2402 126.001 20.2457 126.24 20.2952C126.331 20.3138 126.401 20.349 126.477 20.3797C126.601 20.4292 126.599 20.4292 126.517 20.494C126.498 20.5082 126.481 20.5236 126.462 20.539C126.407 20.5818 126.364 20.6279 126.25 20.6323C126.124 20.6367 125.999 20.6543 125.874 20.6664C125.752 20.6785 125.72 20.7048 125.732 20.7795C125.745 20.8696 125.769 20.8795 125.988 20.8784C126.05 20.8784 126.105 20.8871 126.153 20.9168C126.13 20.9519 126.088 20.9794 126.028 20.986C125.872 21.0025 125.714 21.0168 125.559 21.031C125.434 21.0431 125.308 21.0552 125.183 21.0673C125.105 21.075 125.056 21.1321 125.077 21.1958C125.088 21.232 125.098 21.2683 125.107 21.3045C125.128 21.377 125.168 21.3957 125.295 21.3924C125.327 21.3913 125.358 21.3825 125.388 21.3847C125.511 21.3924 125.57 21.4835 125.718 21.4649C125.842 21.4495 125.971 21.4462 126.092 21.4264C126.204 21.4089 126.267 21.4484 126.345 21.4781C126.371 21.4879 126.4 21.5088 126.422 21.5077C126.58 21.4956 126.737 21.4835 126.891 21.4627C126.963 21.4539 127.007 21.4605 127.064 21.4868C127.201 21.5505 127.204 21.5472 127.407 21.5275C127.556 21.5121 127.557 21.5143 127.747 21.5813C127.8 21.6 127.857 21.6 127.926 21.5912C128.015 21.5802 128.108 21.5626 128.201 21.5791C128.229 21.5835 128.265 21.5967 128.275 21.6109C128.281 21.6208 128.254 21.645 128.231 21.6527C128.064 21.7098 127.869 21.6999 127.686 21.723C127.63 21.7296 127.573 21.7087 127.525 21.679C127.476 21.6494 127.423 21.6373 127.358 21.6428C127.233 21.6549 127.106 21.6626 126.982 21.6801C126.876 21.6955 126.802 21.6703 126.728 21.6362C126.703 21.6252 126.675 21.6044 126.65 21.6055C126.369 21.6274 126.086 21.6494 125.807 21.6801C125.695 21.6933 125.631 21.6582 125.555 21.6285C125.528 21.6186 125.502 21.5978 125.477 21.5989C125.382 21.6033 125.289 21.6153 125.194 21.6241C124.849 21.6571 124.505 21.69 124.16 21.7208C124.137 21.723 124.109 21.6999 124.082 21.69C124.031 21.6703 123.978 21.6516 123.925 21.6329C123.83 21.6417 123.737 21.6527 123.642 21.6593C123.573 21.6637 123.513 21.679 123.503 21.7208C123.498 21.7482 123.56 21.7735 123.627 21.7713C123.691 21.7691 123.756 21.7559 123.809 21.7702C124.073 21.8405 124.073 21.8416 124.238 21.8273C124.382 21.8141 124.367 21.8031 124.494 21.8636C124.549 21.8899 124.598 21.9053 124.661 21.8987C124.817 21.8833 124.974 21.868 125.132 21.8548C125.156 21.8526 125.189 21.8636 125.213 21.8723C125.399 21.9382 125.399 21.9404 125.553 21.924C125.754 21.9042 125.762 21.8987 125.897 21.9657C125.99 22.0118 126.075 21.98 126.164 21.9778C126.267 22.0206 126.379 22.0591 126.472 22.1074C126.582 22.1645 126.698 22.1546 126.823 22.1381C126.916 22.1261 127.007 22.1217 127.083 22.1667C127.155 22.2084 127.242 22.2128 127.341 22.2018C127.43 22.192 127.521 22.1711 127.614 22.1952C127.639 22.2018 127.677 22.2183 127.675 22.2282C127.673 22.2436 127.648 22.2655 127.624 22.2721C127.449 22.3172 127.258 22.3161 127.073 22.3369C127.049 22.3402 127.016 22.3281 126.992 22.3194C126.939 22.2996 126.887 22.2765 126.836 22.2557C126.743 22.2623 126.648 22.2644 126.557 22.2776C126.487 22.2875 126.434 22.2864 126.383 22.2601C126.335 22.2359 126.284 22.2062 126.227 22.1985C126.17 22.1909 126.104 22.2073 126.041 22.2139C125.978 22.2205 125.906 22.2172 125.857 22.2348C125.807 22.2524 125.777 22.2908 125.745 22.3216C125.709 22.3556 125.659 22.3666 125.587 22.3699C125.521 22.3732 125.468 22.3688 125.418 22.338C125.397 22.3249 125.369 22.315 125.341 22.3062C125.314 22.2985 125.284 22.2864 125.259 22.2886C124.976 22.3139 124.695 22.3413 124.412 22.3677C124.272 22.3809 124.274 22.3809 123.982 22.3161C123.955 22.3106 123.923 22.3029 123.896 22.3051C123.739 22.3183 123.583 22.3336 123.425 22.349C123.266 22.3644 123.268 22.3622 122.996 22.293C122.947 22.2798 122.875 22.2974 122.816 22.2952C122.693 22.2897 122.632 22.1975 122.488 22.215C122.364 22.2304 122.235 22.2337 122.112 22.2535C122 22.271 121.936 22.2326 121.86 22.2029C121.833 22.1931 121.805 22.1711 121.782 22.1733C121.499 22.1975 121.218 22.2249 120.842 22.2282C120.749 22.2282 120.791 22.2513 120.852 22.259C120.939 22.271 120.968 22.248 120.92 22.204C120.886 22.1733 120.837 22.1579 120.797 22.1656C120.776 22.17 120.749 22.1909 120.842 22.2282C120.941 22.2699 120.935 22.293 120.952 22.3062C120.994 22.338 121.053 22.3512 121.114 22.3468C121.209 22.3391 121.302 22.3281 121.396 22.3216C121.423 22.3194 121.455 22.3271 121.48 22.3358C121.689 22.4039 121.691 22.4083 121.913 22.382C121.983 22.3743 122.034 22.3743 122.089 22.3952C122.165 22.4237 122.22 22.472 122.336 22.4566C122.49 22.4358 122.647 22.4237 122.805 22.4116C122.829 22.4094 122.856 22.4292 122.884 22.438C122.962 22.4643 123.019 22.5138 123.135 22.4929C123.224 22.4764 123.321 22.472 123.416 22.4687C123.441 22.4676 123.479 22.4852 123.49 22.4995C123.513 22.5247 123.484 22.5544 123.42 22.5753C123.393 22.5841 123.357 22.5819 123.327 22.5852C123.201 22.5972 123.076 22.6104 122.951 22.6203C122.885 22.6258 122.822 22.6423 122.814 22.6829C122.809 22.7104 122.877 22.7345 122.941 22.7323C123.036 22.729 123.131 22.7202 123.222 22.706C123.384 22.6818 123.524 22.6884 123.655 22.7576C123.748 22.8059 123.742 22.7883 123.841 22.9311C123.866 22.9674 123.94 22.9707 124.004 22.9685C124.16 22.963 124.232 22.9795 124.219 23.0135C124.202 23.0552 124.147 23.0684 124.076 23.0739C123.951 23.0827 123.826 23.097 123.701 23.1091C123.67 23.1124 123.636 23.1189 123.608 23.1167C123.579 23.1145 123.553 23.1014 123.528 23.0915C123.475 23.0706 123.429 23.0388 123.372 23.0311C123.315 23.0234 123.249 23.0399 123.186 23.0464C123.124 23.0519 123.057 23.0684 123 23.0607C122.943 23.053 122.896 23.0201 122.845 23.0003C122.82 22.9904 122.79 22.9751 122.765 22.9762C122.64 22.9849 122.514 22.9992 122.389 23.0102C122.235 23.0245 122.235 23.0245 122.049 22.9564C121.996 22.9366 121.941 22.9377 121.871 22.9465C121.719 22.9641 121.717 22.9608 121.44 22.8971C121.414 22.8905 121.381 22.8828 121.355 22.8861C121.072 22.9114 120.791 22.9388 120.51 22.9652C120.269 22.9882 120.269 22.9882 120.136 23.0981C120.037 23.1794 120.036 23.1793 120.132 23.2167C120.21 23.2474 120.28 23.2925 120.366 23.3089C120.446 23.3243 120.544 23.2749 120.632 23.3254C120.675 23.3507 120.732 23.3781 120.787 23.3825C120.875 23.388 120.968 23.3562 121.051 23.4045C121.093 23.4287 121.155 23.4539 121.209 23.455C121.302 23.4572 121.396 23.4396 121.489 23.432C121.518 23.4298 121.55 23.4298 121.577 23.4353C121.605 23.4418 121.63 23.455 121.655 23.466C121.731 23.5034 121.812 23.5209 121.911 23.5023C122.072 23.4715 122.216 23.4869 122.342 23.5572C122.359 23.5671 122.401 23.5682 122.427 23.5638C122.495 23.5528 122.554 23.5517 122.605 23.5725C122.626 23.5813 122.657 23.5967 122.653 23.6066C122.647 23.6231 122.624 23.645 122.6 23.6505C122.421 23.6879 122.23 23.6923 122.046 23.712C122.021 23.7142 121.991 23.6999 121.966 23.6901C121.913 23.6703 121.867 23.6373 121.81 23.6297C121.753 23.622 121.687 23.6362 121.624 23.6417C121.562 23.6472 121.495 23.6637 121.438 23.6571C121.381 23.6494 121.328 23.622 121.283 23.5978C121.229 23.5703 121.178 23.5671 121.108 23.578C121.017 23.5923 120.922 23.5945 120.829 23.6022C120.778 23.5813 120.726 23.5583 120.673 23.5385C120.649 23.5286 120.618 23.5165 120.592 23.5176C120.466 23.5264 120.341 23.5396 120.216 23.5517C120.091 23.5638 120.091 23.5638 119.878 23.4957C119.853 23.488 119.821 23.4792 119.795 23.4814C119.637 23.4946 119.481 23.511 119.324 23.5242C119.263 23.5297 119.208 23.5143 119.159 23.4847C119.111 23.455 119.054 23.4385 118.995 23.444C118.745 23.4671 118.494 23.4891 118.244 23.5165C118.143 23.5275 118.058 23.5176 117.99 23.4781C117.91 23.4331 117.821 23.444 117.728 23.4528C117.517 23.4748 117.515 23.4737 117.38 23.4177C117.354 23.4067 117.327 23.3858 117.302 23.3869C117.084 23.4034 116.864 23.4188 116.648 23.4451C116.534 23.4594 116.473 23.421 116.397 23.3924C116.371 23.3825 116.342 23.3617 116.319 23.3639C116.162 23.3759 116.004 23.3869 115.85 23.4089C115.697 23.4309 115.638 23.3287 115.522 23.3298C115.365 23.3309 115.209 23.3562 115.053 23.3716C114.928 23.3836 114.803 23.3957 114.678 23.4078C114.552 23.4199 114.427 23.4298 114.302 23.444C114.235 23.4517 114.186 23.4418 114.131 23.4144C114.061 23.3781 113.977 23.3496 113.901 23.3166C113.785 23.2694 113.785 23.2694 113.645 23.2826C113.615 23.2859 113.582 23.2881 113.552 23.2914C113.322 23.3155 113.322 23.3133 113.03 23.2441C113.017 23.2409 112.983 23.2529 112.969 23.2617C112.929 23.2903 112.893 23.321 112.857 23.3507C112.806 23.3331 112.743 23.3232 112.709 23.298C112.613 23.2266 112.461 23.3243 112.362 23.254C112.326 23.2277 112.263 23.2046 112.206 23.198C112.147 23.1914 112.081 23.2068 112.02 23.2134C111.863 23.2299 111.863 23.2288 111.728 23.3265C111.66 23.3748 111.561 23.3661 111.472 23.377C111.379 23.3891 111.29 23.3957 111.212 23.3507C111.142 23.31 111.056 23.3002 110.956 23.3133C110.832 23.3298 110.705 23.3397 110.58 23.3496C110.553 23.3518 110.521 23.3463 110.494 23.3397C110.204 23.2749 110.204 23.2738 110.063 23.2881C110.001 23.2947 109.936 23.2969 109.876 23.3067C109.773 23.3243 109.695 23.3013 109.621 23.2661C109.597 23.2551 109.568 23.2343 109.543 23.2354C109.418 23.2409 109.295 23.2507 109.171 23.2606C109.077 23.2683 108.982 23.2727 108.891 23.2881C108.739 23.3133 108.665 23.2419 108.56 23.209C108.405 23.2233 108.247 23.2332 108.091 23.2529C108.019 23.2617 107.972 23.2584 107.917 23.2321C107.847 23.1991 107.782 23.1618 107.668 23.1783C107.516 23.2002 107.357 23.2079 107.201 23.2211C107.097 23.187 107.021 23.1178 106.871 23.1431C106.78 23.1585 106.683 23.1618 106.59 23.1706C106.465 23.1826 106.34 23.1936 106.214 23.2068C106.08 23.22 106.081 23.2167 105.875 23.1519C105.755 23.1135 105.632 23.1563 105.51 23.1629C105.415 23.1684 105.368 23.2189 105.391 23.2837C105.413 23.3485 105.362 23.399 105.275 23.4078C105.057 23.4287 104.836 23.4506 104.618 23.4693C104.592 23.4715 104.559 23.4638 104.535 23.4561C104.301 23.3869 104.301 23.388 104.197 23.3979C104.041 23.4144 103.882 23.4232 103.728 23.444C103.622 23.4583 103.544 23.4353 103.475 23.3979C103.422 23.3694 103.373 23.3628 103.305 23.3694C102.553 23.4429 101.801 23.511 101.052 23.5868C100.94 23.5978 100.875 23.566 100.799 23.5363C100.773 23.5264 100.748 23.5055 100.721 23.5055C100.659 23.5055 100.596 23.5154 100.534 23.522C100.253 23.5484 99.9718 23.5802 99.689 23.6C99.5694 23.6088 99.5371 23.6593 99.4859 23.7011C99.446 23.7329 99.4005 23.7461 99.3303 23.7505C99.2619 23.7549 99.2126 23.7494 99.1594 23.7208C99.0911 23.6835 99.0133 23.6604 98.907 23.6758C98.7837 23.6934 98.6583 23.7011 98.5312 23.7131C98.4666 23.7186 98.4173 23.7384 98.3964 23.7779C98.3926 23.7845 98.4325 23.801 98.4553 23.8109C98.5312 23.8438 98.6033 23.8823 98.6887 23.9053C98.776 23.9284 98.8709 23.902 98.962 23.8954C98.9943 23.8932 99.0247 23.8867 99.055 23.8878C99.0835 23.8889 99.1177 23.8944 99.1386 23.9042C99.2373 23.9537 99.3416 23.9877 99.4783 23.9581C99.596 23.9723 99.6567 24.0635 99.8067 24.0393C99.8978 24.0251 99.9927 24.0185 100.088 24.013C100.112 24.0119 100.139 24.0316 100.165 24.0415C100.241 24.069 100.302 24.1129 100.416 24.0942C100.537 24.0745 100.666 24.0712 100.79 24.0558C100.858 24.047 100.907 24.0547 100.961 24.0833C101.029 24.1195 101.107 24.147 101.213 24.1294C101.304 24.114 101.401 24.1107 101.494 24.1008C101.615 24.0887 101.615 24.0898 101.832 24.1579C101.857 24.1656 101.889 24.1744 101.915 24.1722C102.073 24.159 102.229 24.1426 102.386 24.1294C102.447 24.1239 102.506 24.1382 102.547 24.17C102.564 24.1832 102.559 24.2052 102.564 24.2239C102.251 24.2535 101.938 24.2788 101.627 24.315C101.509 24.3293 101.456 24.2843 101.378 24.259C101.352 24.2502 101.323 24.2315 101.298 24.2337C101.078 24.2524 100.86 24.2722 100.642 24.2963C100.573 24.304 100.522 24.2996 100.471 24.2678C100.34 24.1832 100.181 24.2293 100.033 24.2414C99.9186 24.2502 99.8826 24.2843 99.8959 24.3567C99.913 24.4424 99.9813 24.4688 100.156 24.4534C100.219 24.4479 100.281 24.4402 100.344 24.4358C100.405 24.4314 100.46 24.4457 100.509 24.4754C100.556 24.505 100.613 24.5204 100.672 24.516C100.797 24.5061 100.925 24.4962 101.046 24.4798C101.147 24.4666 101.23 24.4776 101.3 24.5182C101.378 24.5632 101.469 24.5533 101.56 24.5435C101.773 24.5215 101.775 24.5226 101.908 24.5775C101.934 24.5885 101.961 24.6094 101.986 24.6083C102.204 24.5918 102.424 24.5775 102.638 24.5512C102.75 24.538 102.815 24.5731 102.889 24.6017C102.916 24.6116 102.942 24.6335 102.967 24.6313C103.124 24.6192 103.282 24.6072 103.436 24.5863C103.508 24.5764 103.551 24.583 103.61 24.6094C103.751 24.6742 103.755 24.672 103.954 24.6511C104.015 24.6445 104.081 24.6324 104.138 24.6412C104.195 24.65 104.24 24.6819 104.294 24.7016C104.318 24.7104 104.349 24.7225 104.375 24.7203C104.5 24.7115 104.626 24.6983 104.751 24.6862C104.869 24.6742 104.869 24.6753 105.089 24.7434C105.178 24.7719 105.271 24.7477 105.36 24.739C105.457 24.7291 105.544 24.7291 105.618 24.7719C105.692 24.8147 105.782 24.8125 105.876 24.8038C105.966 24.795 106.057 24.7708 106.148 24.8005C106.357 24.8686 106.357 24.8697 106.486 24.8565C106.674 24.8378 106.86 24.8202 107.049 24.8038C107.074 24.8016 107.106 24.8147 107.131 24.8235C107.184 24.8433 107.23 24.8762 107.287 24.8839C107.344 24.8927 107.41 24.8795 107.471 24.873C107.666 24.8521 107.68 24.8444 107.811 24.9169C107.921 24.9762 108.057 24.8905 108.16 24.9586C108.219 24.9971 108.298 25.0278 108.408 25.0091C108.5 24.9938 108.594 24.9894 108.689 24.9806C108.839 24.9663 108.839 24.9674 109.029 25.0333C109.054 25.0421 109.086 25.0531 109.111 25.0509C109.236 25.0421 109.363 25.0344 109.485 25.0146C109.627 24.9916 109.718 25.0333 109.824 25.074C109.908 25.1058 110.007 25.0794 110.096 25.0685C110.193 25.0575 110.28 25.0608 110.352 25.1036C110.428 25.1475 110.517 25.142 110.612 25.1333C110.701 25.1256 110.792 25.1003 110.883 25.1311C111.079 25.1992 111.079 25.1992 111.221 25.186C111.347 25.1739 111.472 25.1607 111.597 25.1519C111.622 25.1497 111.652 25.164 111.677 25.1739C111.73 25.1937 111.775 25.2266 111.832 25.2343C111.889 25.242 111.956 25.2277 112.018 25.2222C112.081 25.2167 112.147 25.2003 112.204 25.2068C112.261 25.2134 112.315 25.2409 112.36 25.2651C112.413 25.2936 112.463 25.2969 112.535 25.2859C112.626 25.2716 112.721 25.2683 112.814 25.2607C112.865 25.2815 112.918 25.3024 112.967 25.3255C113.019 25.3496 113.074 25.3474 113.144 25.3397C113.377 25.3134 113.379 25.3167 113.575 25.3848C113.664 25.4155 113.757 25.3903 113.846 25.3826C113.941 25.3738 114.03 25.3694 114.104 25.4133C114.176 25.4551 114.266 25.4606 114.361 25.4474C114.421 25.4386 114.486 25.4331 114.548 25.4298C114.577 25.4287 114.611 25.4331 114.632 25.4419C114.733 25.488 114.831 25.5298 114.97 25.5001C115.091 25.5089 115.152 25.5989 115.298 25.5814C115.422 25.566 115.551 25.5627 115.672 25.5429C115.784 25.5254 115.864 25.5561 115.921 25.5946C116.023 25.6627 116.167 25.5704 116.27 25.6374C116.329 25.6758 116.405 25.7066 116.519 25.6901C116.644 25.6725 116.684 25.6956 116.72 25.7648C116.741 25.8043 116.737 25.8362 116.699 25.8669C116.661 25.8988 116.619 25.8933 116.558 25.8571C116.488 25.8164 116.405 25.8087 116.304 25.8175C116.205 25.8263 116.145 25.7692 116.063 25.7472C115.981 25.7242 115.885 25.7626 115.799 25.7329C115.598 25.6638 115.598 25.6637 115.461 25.6769C115.368 25.6857 115.272 25.6901 115.181 25.7055C115.072 25.7242 115.002 25.6901 114.928 25.6594C114.902 25.6484 114.875 25.6275 114.852 25.6286C114.634 25.6451 114.414 25.6605 114.197 25.6879C114.083 25.7022 114.023 25.6627 113.947 25.6352C113.92 25.6253 113.892 25.6055 113.869 25.6077C113.681 25.6231 113.495 25.6429 113.307 25.6616C113.271 25.6912 113.231 25.7198 113.197 25.7516C113.161 25.7846 113.112 25.7988 113.04 25.7977C112.92 25.7977 112.802 25.8439 112.683 25.7857C112.559 25.7264 112.55 25.7296 112.43 25.7439C112.278 25.7626 112.117 25.7582 111.975 25.801C111.95 25.8087 111.924 25.8296 111.924 25.845C111.922 25.8548 111.961 25.8691 111.986 25.8779C112.07 25.9043 112.166 25.8658 112.25 25.8933C112.305 25.9109 112.351 25.9372 112.406 25.9559C112.428 25.9636 112.463 25.9625 112.493 25.9614C112.525 25.9603 112.556 25.9526 112.586 25.9537C112.614 25.9548 112.645 25.9614 112.668 25.9713C112.772 26.013 112.882 26.0515 112.975 26.1009C113.066 26.1492 113.152 26.1163 113.243 26.1141C113.607 26.1909 113.607 26.192 113.852 26.1679C113.913 26.1624 113.975 26.1558 114.038 26.1569C114.064 26.1569 114.089 26.1767 114.116 26.1876C114.192 26.2206 114.264 26.2502 114.37 26.2327C114.461 26.2173 114.558 26.214 114.651 26.2041C114.776 26.192 114.776 26.192 114.989 26.2612C115.042 26.2788 115.099 26.2766 115.167 26.2678C115.226 26.2601 115.287 26.2766 115.329 26.3085C115.346 26.3216 115.34 26.3436 115.346 26.3623C115.158 26.3799 114.968 26.3919 114.786 26.4183C114.668 26.4348 114.615 26.3875 114.537 26.3623C114.511 26.3535 114.482 26.3348 114.457 26.337C114.271 26.3535 114.085 26.3722 113.899 26.3941C113.877 26.3963 113.848 26.4216 113.846 26.437C113.842 26.4655 113.89 26.493 113.958 26.4919C114.049 26.4908 114.139 26.4721 114.22 26.5171C114.288 26.5567 114.374 26.5743 114.474 26.5567C114.535 26.5468 114.6 26.5468 114.66 26.538C114.822 26.5116 114.968 26.5171 115.089 26.5918C115.182 26.6116 115.274 26.5929 115.363 26.583C115.429 26.5754 115.494 26.5677 115.541 26.5885C115.642 26.6325 115.74 26.6764 115.879 26.6467C116.029 26.6775 116.143 26.7423 116.268 26.795C116.327 26.8203 116.372 26.8346 116.441 26.8181C116.469 26.8115 116.503 26.8115 116.534 26.8082C116.596 26.8027 116.663 26.7862 116.72 26.7928C116.777 26.8005 116.824 26.8324 116.875 26.8521C116.9 26.862 116.929 26.8785 116.953 26.8774C117.048 26.8719 117.141 26.8609 117.234 26.8521C117.327 26.8444 117.42 26.8368 117.513 26.8291C117.591 26.8576 117.671 26.8862 117.748 26.9147C117.874 26.9027 117.999 26.8906 118.122 26.8796C118.261 26.8664 118.261 26.8675 118.46 26.9356C118.549 26.9664 118.644 26.9466 118.73 26.9323C118.872 26.9092 118.967 26.951 119.068 26.9949C119.089 27.0037 119.126 27.0092 119.151 27.0048C119.25 26.9894 119.335 27.0015 119.407 27.0421C119.459 27.0707 119.51 27.0839 119.572 27.0784C119.791 27.0575 120.009 27.0355 120.227 27.0169C120.254 27.0147 120.284 27.0246 120.309 27.0334C120.502 27.1003 120.504 27.1036 120.647 27.0861C120.774 27.0707 120.892 27.0641 120.992 27.1245C121.013 27.1377 121.045 27.1564 121.068 27.1553C121.224 27.1443 121.381 27.1322 121.535 27.1135C121.605 27.1047 121.655 27.108 121.71 27.1333C121.78 27.1652 121.843 27.2036 121.958 27.1893C122.279 27.1487 122.281 27.1553 122.661 27.231C122.687 27.2365 122.723 27.2278 122.754 27.2234C122.818 27.2124 122.866 27.2278 122.922 27.253C123.05 27.3101 123.053 27.3068 123.175 27.2948C123.268 27.2849 123.365 27.2827 123.456 27.2662C123.596 27.242 123.689 27.2849 123.794 27.3255C123.877 27.3574 123.974 27.331 124.063 27.3211C124.16 27.3101 124.247 27.3134 124.319 27.3552C124.369 27.3837 124.422 27.3991 124.485 27.3936C124.703 27.3738 124.921 27.3519 125.139 27.3321C125.166 27.3299 125.198 27.3387 125.223 27.3464C125.439 27.4145 125.439 27.4178 125.654 27.3925C125.722 27.3848 125.779 27.3826 125.83 27.4057C125.88 27.4276 125.933 27.4485 125.984 27.4694C126.077 27.4617 126.172 27.4595 126.263 27.4463C126.333 27.4364 126.383 27.4408 126.438 27.4639C126.51 27.4936 126.57 27.5452 126.684 27.5199C126.743 27.5078 126.811 27.5111 126.87 27.5001C126.941 27.4859 126.988 27.4946 127.043 27.5232C127.111 27.5572 127.182 27.5924 127.292 27.5748C127.413 27.555 127.542 27.5518 127.666 27.5364C127.734 27.5276 127.781 27.5364 127.836 27.5649C127.905 27.6012 127.983 27.6242 128.089 27.61C128.305 27.5825 128.307 27.588 128.518 27.6572C128.571 27.6748 128.628 27.6726 128.696 27.6638C128.755 27.6561 128.816 27.6726 128.858 27.7044C128.897 27.7396 128.894 27.7615 128.897 27.7802ZM111.984 17.8745C111.922 17.88 111.859 17.8865 111.768 17.791C111.762 17.7745 111.766 17.7548 111.753 17.7405C111.722 17.7108 111.675 17.69 111.618 17.6867C111.515 17.6823 111.392 17.7196 111.394 17.7482C111.396 17.7723 111.428 17.7932 111.491 17.813C111.517 17.8206 111.538 17.8338 111.563 17.8426C111.635 17.8679 111.692 17.9173 111.796 17.892C111.777 17.8239 111.787 17.858 111.796 17.892C111.787 17.9338 111.815 17.9634 111.884 17.9755C111.903 17.9788 111.931 17.9766 111.946 17.97C112.005 17.9459 112.015 17.9129 111.971 17.8261C111.963 17.8404 111.969 17.8657 111.986 17.8723C112.003 17.8789 112.045 17.8734 112.066 17.8657C112.119 17.8448 112.146 17.8174 112.132 17.7943C112.125 17.7822 112.089 17.7668 112.066 17.7668C112.026 17.7668 111.99 17.791 111.984 17.8745ZM127.332 30.6117C127.193 30.6325 127.034 30.6249 126.895 30.6677C126.87 30.6754 126.846 30.6951 126.844 30.7105C126.842 30.7204 126.88 30.7347 126.903 30.7424C126.954 30.76 127.011 30.7545 127.077 30.749C127.178 30.7413 127.237 30.7918 127.314 30.8171C127.339 30.8247 127.371 30.8302 127.398 30.828C127.552 30.8149 127.704 30.8006 127.857 30.7852C127.884 30.7819 127.912 30.7742 127.935 30.7643C128.011 30.7325 128.003 30.7116 127.929 30.6875C127.848 30.6611 127.783 30.6172 127.7 30.5963C127.58 30.5666 127.459 30.6062 127.332 30.6117ZM116.553 31.4134C116.46 31.4222 116.369 31.431 116.276 31.4398C116.245 31.4431 116.213 31.4442 116.185 31.4486C116.126 31.4563 116.082 31.4793 116.054 31.5156C116.097 31.5441 116.15 31.5606 116.209 31.5573C116.302 31.5507 116.393 31.5365 116.486 31.5332C116.587 31.5288 116.646 31.5782 116.724 31.6035C116.748 31.6111 116.779 31.6122 116.807 31.6133C116.948 31.6177 117.033 31.5606 117.006 31.4804C116.987 31.4178 116.915 31.3805 116.828 31.3882C116.737 31.3959 116.644 31.4047 116.553 31.4134ZM127.981 28.9884C128.003 28.9697 128.028 28.9565 128.04 28.94C128.074 28.884 128.06 28.8423 127.998 28.7983C127.922 28.7445 127.829 28.7808 127.743 28.7863C127.723 28.7874 127.7 28.8104 127.688 28.8247C127.681 28.8346 127.681 28.8555 127.692 28.861C127.785 28.9049 127.884 28.9455 127.981 28.9884ZM111.515 25.7439C111.424 25.7527 111.331 25.7593 111.24 25.7714C111.217 25.7747 111.197 25.7955 111.183 25.8098C111.159 25.8362 111.185 25.8724 111.263 25.8757C111.352 25.8801 111.445 25.8614 111.538 25.8527C111.656 25.8417 111.726 25.801 111.682 25.7659C111.641 25.7318 111.584 25.7253 111.515 25.7439ZM11.6063 23.3968C11.667 23.3913 11.7297 23.3869 11.7904 23.3792C11.8473 23.3716 11.891 23.3474 11.9195 23.3111C11.872 23.2826 11.8189 23.2672 11.76 23.2705C11.667 23.2771 11.5759 23.2859 11.4848 23.2969C11.4279 23.3035 11.3729 23.3276 11.3596 23.365C11.3463 23.3935 11.4734 23.41 11.6063 23.3968ZM103.489 23.2277C103.513 23.2376 103.538 23.2573 103.563 23.2573C103.624 23.2573 103.686 23.2507 103.743 23.2398C103.768 23.2354 103.787 23.2156 103.798 23.2002C103.806 23.1903 103.804 23.1728 103.792 23.164C103.737 23.1113 103.517 23.1299 103.481 23.1903C103.477 23.2013 103.487 23.2156 103.489 23.2277ZM97.5006 17.2133C97.5063 17.2308 97.5082 17.2484 97.5158 17.266C97.531 17.2989 97.5727 17.3231 97.6334 17.3396C97.6809 17.3121 97.7056 17.2814 97.7037 17.2484C97.7018 17.2309 97.6961 17.2133 97.6885 17.1957C97.6733 17.1627 97.6316 17.1386 97.5708 17.1221C97.5234 17.1485 97.5006 17.1792 97.5006 17.2133ZM132.367 31.6046C132.35 31.6188 132.333 31.6331 132.314 31.6463C132.365 31.6781 132.413 31.688 132.449 31.6705C132.471 31.6595 132.485 31.643 132.502 31.6287C132.45 31.5969 132.405 31.5881 132.367 31.6046ZM131.186 31.7539C131.211 31.7638 131.234 31.777 131.26 31.7836C131.304 31.7946 131.344 31.7759 131.374 31.7363C131.35 31.7265 131.327 31.7133 131.3 31.7067C131.257 31.6957 131.217 31.7144 131.186 31.7539ZM131.934 31.5529C131.921 31.5793 131.948 31.6013 132.018 31.6199C132.035 31.6057 132.058 31.5925 132.069 31.5771C132.088 31.5518 132.056 31.5288 131.987 31.5112C131.968 31.5244 131.951 31.5387 131.934 31.5529ZM127.928 30.3689C127.914 30.3953 127.941 30.4173 128.011 30.4359C128.028 30.4217 128.051 30.4085 128.062 30.3931C128.081 30.3678 128.049 30.3448 127.981 30.3272C127.962 30.3404 127.945 30.3547 127.928 30.3689ZM122.469 22.5972C122.452 22.6115 122.435 22.6258 122.416 22.639C122.467 22.6708 122.514 22.6807 122.55 22.6631C122.573 22.6522 122.587 22.6357 122.604 22.6214C122.552 22.5895 122.507 22.5808 122.469 22.5972ZM117.24 18.4741C117.285 18.4818 117.323 18.4665 117.356 18.4258C117.331 18.4159 117.308 18.4028 117.282 18.3962C117.238 18.3852 117.198 18.4039 117.168 18.4434C117.192 18.4544 117.217 18.4643 117.24 18.4741ZM114.463 18.216C114.446 18.2303 114.429 18.2446 114.41 18.2578C114.461 18.2896 114.509 18.2995 114.545 18.2819C114.567 18.271 114.581 18.2545 114.598 18.2402C114.547 18.2083 114.501 18.2007 114.463 18.216ZM95.633 17.2122C95.6159 17.2265 95.5988 17.2407 95.5798 17.2539C95.6311 17.2858 95.6785 17.2956 95.7146 17.2781C95.7373 17.2671 95.7506 17.2506 95.7677 17.2363C95.7165 17.2045 95.6709 17.1968 95.633 17.2122ZM1.87331 26.1481C1.84863 26.1382 1.82398 26.1283 1.80121 26.1174C1.74616 26.147 1.72909 26.1745 1.75946 26.1953C1.77844 26.2085 1.80688 26.2162 1.83156 26.2261C1.8885 26.1964 1.90178 26.1701 1.87331 26.1481Z" fill="#FFE492"/>
<path d="M98.1087 7.44532C97.9775 7.47378 97.8473 7.50971 97.7161 7.52768C97.6465 7.53666 97.6214 7.60106 97.5928 7.66096C97.57 7.70888 97.5437 7.72385 97.5015 7.73284C97.1454 7.80621 96.7904 7.88409 96.4354 7.96046C96.3909 7.94099 96.3692 7.90955 96.3795 7.87211C96.3852 7.84965 96.3989 7.8182 96.4126 7.81521C96.6557 7.7598 96.8977 7.70289 97.1419 7.65946C97.2116 7.64748 97.231 7.58159 97.2664 7.52768C97.2778 7.50971 97.2869 7.48275 97.3018 7.47227C97.3166 7.46029 97.3383 7.46179 97.3577 7.4588C97.7503 7.37344 98.143 7.28958 98.5357 7.20422C98.5802 7.22369 98.6019 7.25513 98.5916 7.29257C98.5859 7.31504 98.5722 7.34648 98.5585 7.34948C98.4078 7.38093 98.2583 7.41238 98.1087 7.44532Z" fill="#FFE492"/>
<path d="M170.057 15.4194C169.998 15.4374 169.922 15.4629 169.861 15.376C169.831 15.3341 169.799 15.3206 169.76 15.3296C169.704 15.3446 169.647 15.3565 169.59 15.3655C169.575 15.367 169.556 15.3505 169.541 15.3371C169.509 15.3101 169.482 15.2652 169.447 15.2532C169.413 15.2412 169.372 15.2742 169.337 15.2667C169.29 15.2562 169.27 15.2158 169.283 15.1783C169.29 15.1574 169.304 15.1274 169.318 15.1229C169.53 15.0675 169.531 15.0675 169.59 15.1214C169.636 15.1634 169.678 15.2098 169.743 15.1843C169.798 15.1633 169.856 15.1588 169.912 15.1454C169.99 15.1274 169.99 15.1289 170.115 15.2232C170.147 15.2472 170.181 15.2457 170.222 15.2322C170.258 15.2218 170.292 15.2457 170.321 15.2861C170.302 15.3371 170.276 15.37 170.241 15.379C170.184 15.394 170.128 15.4045 170.057 15.4194Z" fill="#FFE492"/>
<path d="M167.84 14.9582C167.984 14.9267 168.129 14.8998 168.272 14.8638C168.332 14.8489 168.379 14.8653 168.42 14.9162C168.464 14.9716 168.514 14.9672 168.569 14.9567C168.603 14.9507 168.637 14.9746 168.659 15.0166C168.669 15.033 168.666 15.063 168.67 15.087C168.544 15.1139 168.417 15.1424 168.291 15.1663C168.276 15.1693 168.258 15.1543 168.244 15.1424C168.213 15.1169 168.187 15.072 168.154 15.063C168.083 15.042 168.012 15.0825 167.94 15.0899C167.906 15.0929 167.873 15.0705 167.85 15.0301C167.841 15.0106 167.843 14.9821 167.84 14.9582Z" fill="#FFE492"/>
<path d="M115.867 2.08292C116.017 2.04997 116.166 2.01854 116.316 1.9856C116.361 2.00656 116.381 2.03651 116.372 2.07394C116.366 2.09641 116.353 2.12786 116.339 2.13085C116.04 2.19824 115.741 2.26262 115.443 2.32702C115.398 2.30605 115.378 2.27611 115.387 2.23867C115.393 2.21621 115.406 2.18476 115.42 2.18176C115.568 2.14732 115.718 2.11587 115.867 2.08292Z" fill="#FFE492"/>
<path d="M92.777 10.4044C92.7097 10.4074 92.6389 10.4628 92.5636 10.4209C92.5488 10.4134 92.5282 10.3894 92.5293 10.3759C92.5316 10.3535 92.5453 10.325 92.5602 10.316C92.6252 10.2786 92.7063 10.2741 92.7394 10.1693C92.7554 10.1154 92.785 10.0974 92.825 10.0869C92.8672 10.0749 92.8969 10.0794 92.93 10.1109C92.9734 10.1513 93.0099 10.2262 93.0784 10.1872C93.0818 10.2112 93.0898 10.2382 93.0863 10.2606C93.0829 10.2831 93.0681 10.304 93.0544 10.3205C93.0419 10.3355 93.0247 10.349 93.0087 10.3535C92.9334 10.3714 92.8581 10.3864 92.777 10.4044Z" fill="#FFE492"/>
<path d="M152.134 10.1035C152.19 10.0916 152.248 10.0856 152.303 10.0646C152.346 10.0481 152.373 10.0586 152.408 10.0945C152.466 10.1574 152.469 10.1515 152.612 10.1604C152.628 10.1619 152.647 10.1844 152.656 10.2039C152.662 10.2143 152.654 10.2428 152.647 10.2578C152.637 10.2773 152.622 10.3027 152.609 10.3027C152.518 10.3072 152.427 10.3956 152.339 10.2937C152.295 10.2428 152.246 10.2188 152.185 10.2413C152.149 10.2548 152.11 10.2608 152.072 10.2668C152.036 10.2728 151.998 10.2563 151.975 10.2114C151.942 10.1455 151.961 10.12 152.021 10.1245C152.058 10.1275 152.096 10.111 152.134 10.1035Z" fill="#FFE492"/>
<path d="M172.813 20.4263C172.885 20.4113 172.957 20.3933 173.03 20.3813C173.045 20.3783 173.063 20.3948 173.077 20.4053C173.132 20.4502 173.124 20.5266 173.126 20.594C173.127 20.6644 173.001 20.7213 172.947 20.6733C172.888 20.6194 172.834 20.5581 172.752 20.591C172.72 20.603 172.682 20.576 172.662 20.5326C172.631 20.4697 172.648 20.4442 172.706 20.4487C172.74 20.4517 172.777 20.4352 172.813 20.4263Z" fill="#FFE492"/>
<path d="M136.575 0.043449C136.649 0.0269763 136.723 0.00153077 136.797 3.32475e-05C136.841 -0.00146428 136.862 0.0479445 136.852 0.0838851C136.846 0.106348 136.833 0.137797 136.819 0.140792C136.67 0.176732 136.522 0.206688 136.374 0.239633C136.33 0.218668 136.309 0.187225 136.319 0.151285C136.325 0.128822 136.338 0.0988706 136.352 0.094378C136.426 0.0734127 136.5 0.0599218 136.575 0.043449Z" fill="#FFE492"/>
<path d="M171.374 15.5517C171.446 15.5367 171.519 15.5143 171.591 15.5068C171.629 15.5038 171.658 15.5382 171.663 15.5772C171.665 15.5951 171.647 15.6266 171.632 15.6341C171.53 15.685 171.419 15.691 171.311 15.7164C171.277 15.7239 171.241 15.7 171.22 15.658C171.189 15.5936 171.206 15.5697 171.265 15.5742C171.301 15.5757 171.338 15.5592 171.374 15.5517Z" fill="#FFE492"/>
<path d="M154.028 10.3059C154.065 10.2984 154.103 10.279 154.138 10.2849C154.176 10.2924 154.2 10.3359 154.211 10.3793C154.224 10.4287 154.222 10.4751 154.211 10.5171C154.193 10.5889 154.174 10.586 154.132 10.538C154.067 10.4632 154.063 10.4721 153.934 10.4751C153.919 10.4751 153.9 10.4527 153.889 10.4332C153.872 10.4032 153.881 10.3568 153.921 10.3299C153.951 10.3104 153.992 10.3134 154.028 10.3059Z" fill="#FFE492"/>
<path d="M168.913 15.0605C168.966 15.0486 169.02 15.0291 169.074 15.0291C169.111 15.0276 169.141 15.062 169.144 15.0995C169.146 15.1174 169.128 15.1474 169.115 15.1564C169.05 15.1968 168.977 15.1998 168.906 15.2133C168.873 15.2193 168.836 15.1953 168.816 15.1534C168.785 15.0905 168.803 15.062 168.859 15.071C168.876 15.074 168.894 15.065 168.913 15.0605Z" fill="#FFE492"/>
<path d="M160.289 13.2229C160.209 13.2408 160.133 13.2184 160.139 13.1794C160.147 13.1285 160.18 13.0956 160.214 13.0866C160.269 13.0716 160.324 13.0596 160.38 13.0506C160.415 13.0447 160.447 13.0671 160.476 13.1061C160.459 13.154 160.432 13.1884 160.398 13.1989C160.363 13.2094 160.325 13.2154 160.289 13.2229Z" fill="#FFE492"/>
<path d="M159.768 13.0315C159.822 13.0195 159.875 13 159.929 13C159.967 12.9985 159.996 13.033 160 13.0704C160.001 13.0884 159.984 13.1183 159.97 13.1273C159.905 13.1678 159.832 13.1708 159.761 13.1842C159.728 13.1902 159.692 13.1663 159.671 13.1243C159.64 13.0614 159.659 13.033 159.715 13.042C159.732 13.045 159.75 13.036 159.768 13.0315Z" fill="#FFE492"/>
<path d="M153.51 10.2934C153.564 10.2814 153.618 10.2619 153.671 10.2604C153.709 10.2589 153.739 10.2934 153.742 10.3308C153.743 10.3488 153.726 10.3772 153.712 10.3877C153.647 10.4282 153.574 10.4312 153.504 10.4446C153.47 10.4506 153.434 10.4267 153.413 10.3847C153.383 10.3218 153.401 10.2934 153.457 10.3024C153.474 10.3054 153.492 10.2964 153.51 10.2934Z" fill="#FFE492"/>
<path d="M153.062 10.2056C153.119 10.1936 153.137 10.1862 153.155 10.1862C153.19 10.1862 153.225 10.2041 153.246 10.2476C153.276 10.3105 153.258 10.3284 153.202 10.3314C153.13 10.3344 153.06 10.3659 152.988 10.3719C152.95 10.3749 152.92 10.3389 152.918 10.3015C152.917 10.2835 152.934 10.2521 152.948 10.2461C152.996 10.2236 153.048 10.2101 153.062 10.2056Z" fill="#FFE492"/>
<path d="M159.339 1.39536C159.303 1.40285 159.264 1.42382 159.23 1.41633C159.184 1.40585 159.166 1.36542 159.177 1.32798C159.184 1.30702 159.197 1.27707 159.21 1.27257C159.283 1.25161 159.357 1.23812 159.431 1.22314C159.474 1.24561 159.493 1.27705 159.482 1.31449C159.475 1.33546 159.462 1.36391 159.449 1.3699C159.413 1.38487 159.376 1.38788 159.339 1.39536Z" fill="#FFE492"/>
<path d="M115.036 2.25997C115.071 2.25847 115.103 2.27794 115.13 2.31538C115.113 2.3633 115.088 2.39474 115.054 2.40822C115.037 2.41421 115.017 2.4187 114.999 2.4202C114.964 2.42319 114.932 2.40223 114.904 2.36479C114.921 2.31687 114.948 2.28542 114.981 2.27194C114.998 2.26595 115.017 2.26446 115.036 2.25997Z" fill="#FFE492"/>
<path d="M171.205 15.5455C171.204 15.5021 171.274 15.4526 171.336 15.4541C171.369 15.4556 171.404 15.4766 171.423 15.517C171.453 15.5784 171.436 15.6024 171.38 15.5979C171.345 15.5949 171.309 15.6204 171.275 15.6159C171.236 15.6144 171.213 15.5814 171.205 15.5455Z" fill="#FFE492"/>
<path d="M154.366 10.487C154.365 10.4705 154.359 10.4511 154.362 10.4361C154.384 10.3537 154.515 10.3283 154.55 10.4002C154.555 10.4136 154.558 10.4361 154.553 10.4496C154.546 10.4705 154.534 10.4975 154.52 10.5035C154.485 10.5185 154.448 10.5259 154.412 10.5274C154.396 10.5274 154.381 10.502 154.366 10.487Z" fill="#FFE492"/>
<path d="M93.3766 10.1646C93.2419 10.1961 93.2396 10.1931 93.2636 10.1182C93.2853 10.0508 93.3252 10.0104 93.3835 10.0104C93.4006 10.0104 93.4188 10.0074 93.4337 10.0134C93.4496 10.0209 93.4725 10.0358 93.4759 10.0538C93.4828 10.0882 93.4633 10.1257 93.4291 10.1511C93.4143 10.1631 93.3949 10.1601 93.3766 10.1646Z" fill="#FFE492"/>
<path d="M116.695 2.04857C116.655 2.07402 116.621 2.06505 116.595 2.01712C116.57 1.9692 116.61 1.91229 116.68 1.89881C116.698 1.89582 116.718 1.88385 116.735 1.88984C116.752 1.89433 116.769 1.91229 116.779 1.93026C116.797 1.96021 116.786 2.00065 116.75 2.03509C116.735 2.04857 116.713 2.04557 116.695 2.04857Z" fill="#FFE492"/>
<path d="M170.965 15.4335C170.976 15.414 170.986 15.3946 170.997 15.3766C171.039 15.402 171.058 15.432 171.046 15.4664C171.039 15.4874 171.026 15.5054 171.015 15.5248C170.973 15.4994 170.956 15.4679 170.965 15.4335Z" fill="#FFE492"/>
<path d="M95.1758 27.2127C95.1758 27.1947 95.1917 27.1663 95.2042 27.1603C95.2282 27.1498 95.2578 27.1707 95.2783 27.2127C95.3067 27.2726 95.2897 27.304 95.2373 27.2876C95.2008 27.2756 95.1758 27.2456 95.1758 27.2127Z" fill="#FFE492"/>
<path d="M154.913 9.09318C154.928 9.10666 154.943 9.12014 154.957 9.13512C154.937 9.19053 154.913 9.21448 154.888 9.1995C154.872 9.19052 154.859 9.17254 154.844 9.15907C154.863 9.10366 154.886 9.0827 154.913 9.09318Z" fill="#FFE492"/>
<path d="M154.636 9.02562C154.659 9.00315 154.686 9.01515 154.718 9.05858C154.708 9.07804 154.699 9.10051 154.686 9.11548C154.665 9.13944 154.636 9.12745 154.605 9.08252C154.615 9.06455 154.625 9.04508 154.636 9.02562Z" fill="#FFE492"/>
<path d="M154.192 9.09066C154.207 9.10414 154.222 9.11762 154.236 9.13259C154.216 9.188 154.194 9.21195 154.167 9.19698C154.152 9.18799 154.138 9.17002 154.123 9.15654C154.142 9.10113 154.165 9.07868 154.192 9.09066Z" fill="#FFE492"/>
<path d="M153.958 9.01154C153.975 9.04149 153.966 9.07742 153.933 9.11786C153.919 9.10438 153.901 9.09391 153.89 9.07594C153.872 9.04749 153.881 9.01004 153.915 8.9696C153.929 8.98458 153.944 8.99806 153.958 9.01154Z" fill="#FFE492"/>
</svg>
