<svg width="320" height="1172" viewBox="0 0 320 1172" fill="none" xmlns="http://www.w3.org/2000/svg">
<g opacity="0.3">
<path d="M-59.7286 824.787C-63.2876 822.783 -66.4709 820.334 -69.24 817.465C-75.0466 811.447 -79.0842 803.53 -81.2404 793.934C-83.5594 783.622 -83.7233 771.258 -81.7301 757.185C-77.7228 728.898 -66.6129 698.577 -55.8686 669.253C-53.7593 663.495 -51.5781 657.541 -49.5018 651.741C-35.3572 612.208 -25.3811 576.22 -19.0018 541.722C-6.27679 472.903 -6.3427 408.019 -19.1942 354.084C-34.0579 291.71 -63.3616 248.307 -101.709 231.871C-124.248 222.213 -164.646 228.306 -198.25 258.641C-218.192 276.644 -232.662 300.937 -240.092 328.89L-240.276 328.923C-236.378 314.263 -230.596 300.623 -223.088 288.381C-216.2 277.151 -207.859 267.08 -198.296 258.446C-183.085 244.715 -165.273 234.983 -146.783 230.303C-129.699 225.979 -113.645 226.447 -101.577 231.619C-81.5101 240.222 -63.953 256.094 -49.396 278.798C-36.2009 299.38 -25.9746 324.651 -19.0023 353.91C-6.14262 407.877 -6.07539 472.797 -18.8088 541.656C-25.1936 576.177 -35.1753 612.185 -49.3268 651.739C-51.4017 657.54 -53.5843 663.496 -55.695 669.254C-66.4323 698.556 -77.5339 728.856 -81.5343 757.101C-85.4048 784.42 -81.2128 804.65 -69.0756 817.228C-52.2682 834.647 -20.6151 835.834 15.5965 820.398C67.7794 798.155 120.804 752.867 172.083 709.073C181.072 701.397 190.365 693.459 199.429 685.845C222.964 666.071 254.011 640.758 285.464 620.343C317.614 599.477 345.595 586.601 371.008 580.978C386.562 577.536 401.033 577.465 414.018 580.766C426.012 583.815 437.129 589.845 447.062 598.685C464.1 613.851 478.292 637.582 490.454 671.231C514.397 737.492 533.467 812.291 547.131 893.554C560.118 970.791 568.348 1054.55 571.593 1142.5L571.397 1142.62C564.671 960.317 537.376 801.781 490.269 671.418C463.654 597.767 425.74 569.109 370.947 581.232C315.204 593.563 255.588 638.894 199.467 686.044C190.406 693.657 181.113 701.595 172.124 709.271C120.829 753.082 67.7873 798.383 15.5685 820.641C-1.30636 827.834 -17.8276 831.553 -32.2072 831.395C-39.8035 831.312 -46.7447 830.145 -52.8405 827.929C-55.2742 827.053 -57.5711 826.002 -59.7286 824.787Z" fill="#A1A1A1"/>
<path d="M-48.5058 812.996C-57.5816 807.886 -64.2532 800.07 -68.3417 789.758C-72.9008 778.259 -74.2129 763.68 -72.2443 746.427C-72.0693 744.899 -71.8667 743.331 -71.6406 741.764C-67.5936 713.633 -56.888 683.559 -46.5327 654.475C-44.4412 648.597 -42.2762 642.517 -40.2177 636.595C-27.9619 601.328 -19.0235 569.195 -12.8962 538.364C-12.1424 534.569 -11.4217 530.745 -10.7576 526.999C1.39771 458.513 0.754842 394.125 -12.6159 340.796C-28.1477 278.968 -58.0426 236.344 -96.7952 220.78C-119.464 211.711 -159.934 218.236 -193.429 248.253C-213.486 266.228 -228.238 290.427 -236.092 318.236L-236.274 318.263C-232.157 303.687 -226.196 290.115 -218.556 277.929C-211.539 266.736 -203.101 256.686 -193.476 248.059C-178.224 234.389 -160.43 224.625 -142.02 219.822C-125.004 215.383 -108.899 215.633 -96.6693 220.527C-76.3779 228.678 -58.554 244.128 -43.6931 266.447C-30.2328 286.664 -19.7137 311.621 -12.4282 340.624C0.950791 393.983 1.59222 458.409 -10.5686 526.934C-11.2341 530.682 -11.9549 534.509 -12.71 538.307C-18.8415 569.159 -27.7841 601.308 -40.0468 636.594C-42.1039 642.517 -44.2689 648.597 -46.3618 654.478C-56.7087 683.544 -67.4075 713.595 -71.4489 741.688C-71.6736 743.249 -71.8762 744.817 -72.0512 746.342C-76.1241 782.003 -66.0254 803.131 -48.4631 813.02C-48.3667 813.075 -48.2717 813.128 -48.1754 813.182C-48.2841 813.118 -48.3957 813.058 -48.5058 812.996ZM-44.6628 814.934C-27.4935 822.633 -4.34541 820.931 19.4805 812.426C70.958 793.932 124.719 750.87 176.711 709.226C178.853 707.509 180.992 705.797 183.131 704.085C187.828 700.327 193.391 695.879 199.029 691.413C224.316 671.384 254.234 648.359 284.402 629.458C316.501 609.345 344.374 596.703 369.613 590.805C385.116 587.191 399.64 586.674 412.782 589.269C424.958 591.672 436.351 596.83 446.644 604.595C464.423 618.012 479.586 639.459 492.998 670.166C506.09 700.077 515.702 726.707 523.247 753.97C533.922 792.617 541.305 834.376 547.12 870.128C560.546 953.41 568.723 1044 571.425 1139.38L571.23 1139.5C568.529 1044.14 560.353 953.557 546.928 870.285C541.114 834.537 533.733 792.785 523.059 754.149C515.515 726.893 505.906 700.271 492.816 670.367C463.598 603.474 424.43 578.272 369.552 591.061C312.574 604.372 251.671 649.948 199.058 691.623C193.418 696.089 187.858 700.534 183.16 704.295C181.022 706.005 178.881 707.719 176.739 709.437C124.731 751.093 70.9507 794.17 19.436 812.679C6.68385 817.23 -5.53254 819.671 -16.874 819.93C-27.4285 820.166 -36.7557 818.488 -44.6628 814.934Z" fill="#A1A1A1"/>
<path d="M-37.1021 801.719C-38.1939 801.104 -39.2553 800.451 -40.2836 799.759C-48.9487 793.939 -55.2512 785.504 -59.0122 774.684C-63.1256 762.85 -64.188 748.156 -62.1673 731.007C-61.9854 729.48 -61.7786 727.911 -61.5498 726.346C-57.4659 698.384 -47.1631 668.565 -37.1997 639.733C-35.1231 633.723 -32.9758 627.507 -30.9363 621.451C-19.0264 586.132 -10.3983 554.122 -4.5609 523.59C-3.84025 519.815 -3.15126 516.008 -2.51751 512.278C9.0666 444.127 7.84677 380.236 -6.04328 327.513C-22.2416 266.231 -52.7264 224.385 -91.8858 209.691C-113.962 201.467 -153.636 206.768 -188.576 237.837C-208.763 255.787 -223.812 279.907 -232.096 307.586L-232.275 307.605C-227.935 293.103 -221.789 279.597 -214.011 267.458C-206.858 256.294 -198.316 246.265 -188.621 237.644C-173.331 224.047 -155.564 214.261 -137.238 209.34C-120.296 204.791 -104.146 204.827 -91.7613 209.441C-71.2458 217.142 -53.1538 232.167 -37.9904 254.1C-24.2648 273.955 -13.453 298.596 -5.85555 327.341C8.04134 380.096 9.26111 444.023 -2.32859 512.213C-2.96369 515.946 -3.65133 519.753 -4.37474 523.533C-10.2163 554.082 -18.85 586.111 -30.7668 621.45C-32.8077 627.508 -34.955 633.724 -37.0316 639.734C-46.9881 668.551 -57.2839 698.347 -61.3636 726.276C-61.5925 727.841 -61.8006 729.406 -61.9797 730.928C-70.1901 800.611 -25.0296 818.063 23.3659 804.45C74.3554 789.865 129.258 748.82 182.353 709.127L182.898 708.72C188.043 704.871 193.361 700.894 198.632 696.977C254.236 655.658 313.135 614.182 368.224 600.626C383.679 596.839 398.257 595.878 411.552 597.766C423.918 599.523 435.586 603.808 446.232 610.501C464.793 622.168 480.924 641.335 495.55 669.096C510.951 698.216 521.084 722.716 528.404 748.54C538.807 785.381 544.976 828.006 550.419 865.614C562.361 949.662 569.374 1040.72 571.266 1136.24L571.072 1136.37C569.179 1040.85 562.166 949.804 550.227 865.765C544.784 828.163 538.616 785.545 528.216 748.716C520.9 722.901 510.77 698.408 495.374 669.298C463.672 609.123 423.252 587.381 368.167 600.875C313.114 614.422 254.24 655.88 198.656 697.185C193.386 701.102 188.066 705.081 182.922 708.927L182.377 709.335C155.918 729.115 128.559 749.568 101.876 766.573C71.8905 785.683 46.1928 798.153 23.3144 804.696C-0.545439 811.406 -21.8129 810.328 -37.1021 801.719Z" fill="#A1A1A1"/>
<path d="M570.917 1133.23C569.832 1037.56 563.982 946.05 553.528 861.246C553.074 857.673 552.625 854.085 552.172 850.487C547.577 813.873 542.825 776.014 533.377 743.284C524.179 711.588 510.3 687.558 497.935 668.233C463.894 614.728 422.221 596.446 366.786 610.69C309.82 625.418 247.961 668.296 198.257 702.751C195.273 704.819 192.29 706.893 189.303 708.969C187.098 710.502 184.891 712.034 182.686 713.563C154.369 733.209 128.849 750.659 103.269 765.29C74.0462 782.004 49.1628 792.284 27.1923 796.718C6.60188 800.875 -11.7628 798.867 -25.5321 791.117C-28.0406 789.704 -30.3944 788.104 -32.5839 786.312C-40.578 779.77 -46.3351 770.794 -49.6945 759.635C-53.3607 747.458 -54.168 732.639 -52.0964 715.587C-51.909 714.059 -51.6967 712.491 -51.4638 710.924C-47.343 683.141 -37.4458 653.596 -27.8743 625.024C-25.8126 618.871 -23.6802 612.504 -21.6556 606.3C-10.0915 570.919 -1.77369 539.029 3.77651 508.807C4.46679 505.047 5.12132 501.26 5.7247 497.548C16.7363 429.731 14.9409 366.337 0.534284 314.219C-16.3307 253.484 -47.4068 212.42 -86.9687 198.589C-114.063 189.22 -153.831 201.06 -183.676 227.376C-204.008 245.306 -219.365 269.355 -228.09 296.922L-228.268 296.935C-223.7 282.501 -217.365 269.049 -209.44 256.951C-202.143 245.813 -193.489 235.797 -183.719 227.18C-168.396 213.667 -150.659 203.864 -132.428 198.835C-115.566 194.182 -99.3778 194.004 -86.8456 198.338C-66.1046 205.587 -47.7473 220.19 -32.2814 241.737C-18.2919 261.23 -7.186 285.557 0.724783 314.042C15.141 366.191 16.9363 429.62 5.91775 497.479C5.31437 501.194 4.65851 504.984 3.9682 508.744C-1.58479 538.983 -9.90815 570.889 -21.4764 606.288C-23.5024 612.494 -25.6334 618.858 -27.6965 625.014C-37.2625 653.57 -47.1527 683.096 -51.2693 710.846C-51.5009 712.41 -51.7132 713.975 -51.9006 715.5C-60.812 788.849 -14.8264 804.955 27.2589 796.461C77.4715 786.326 133.361 747.553 182.674 713.343C184.88 711.811 187.085 710.278 189.291 708.749C192.277 706.672 195.261 704.599 198.245 702.531C226.616 682.864 254.394 663.869 282.298 647.665C314.388 629.028 342.043 616.852 366.844 610.438C382.258 606.477 396.888 605.069 410.329 606.257C422.892 607.365 434.834 610.779 445.828 616.4C465.215 626.315 482.316 643.201 498.109 668.021C510.476 687.354 524.362 711.394 533.564 743.109C543.018 775.851 547.77 813.72 552.367 850.341C552.818 853.939 553.269 857.527 553.723 861.1C564.178 945.911 570.028 1037.43 571.113 1133.11L570.917 1133.23Z" fill="#A1A1A1"/>
<path d="M570.763 1130.1C570.479 1032.45 565.793 940.475 556.832 856.729C556.295 851.718 555.763 846.564 555.247 841.582C551.55 805.894 547.728 768.992 538.54 737.854C529.326 706.831 514.141 684.712 500.499 667.167C464.297 620.274 421.37 605.447 365.407 620.507C311.959 634.994 256.356 670.726 202.584 705.281L196.68 709.074C192.017 712.071 187.196 715.168 182.455 718.199C128.816 752.457 76.8789 783.627 31.0772 788.738C19.9627 789.978 9.62067 789.351 0.332076 786.879C-9.64114 784.222 -18.1181 779.491 -24.8633 772.815C-32.1891 765.562 -37.4037 756.058 -40.3614 744.565C-43.5805 732.058 -44.1367 717.119 -42.0143 700.166C-41.82 698.633 -41.6023 697.064 -41.3665 695.502C-37.2144 667.915 -27.723 638.658 -18.5434 610.364C-16.4951 604.051 -14.3776 597.521 -12.3665 591.154C-1.15231 555.705 6.85794 523.936 12.1209 494.031C12.7781 490.295 13.4022 486.523 13.9739 482.825C24.4143 415.343 22.0433 352.447 7.1175 300.932C-10.4183 240.747 -42.0842 200.46 -82.0528 187.496C-109.233 178.804 -148.989 190.89 -178.731 216.889C-199.224 234.802 -214.908 258.793 -224.088 286.269L-224.264 286.276C-219.462 271.9 -212.93 258.494 -204.853 246.433C-197.406 235.315 -188.633 225.309 -178.777 216.695C-163.422 203.274 -145.727 193.467 -127.6 188.333C-110.823 183.581 -94.6058 183.196 -81.9339 187.246C-60.9689 194.046 -42.3448 208.223 -26.575 229.385C-12.3203 248.517 -0.921592 272.527 7.30248 300.755C22.2379 352.297 24.6088 415.233 14.1628 482.754C13.5898 486.454 12.9656 490.229 12.3084 493.966C7.04407 523.886 -0.970352 555.672 -12.1914 591.14C-14.2026 597.506 -16.3215 604.039 -18.3697 610.352C-27.5438 638.63 -37.031 667.873 -41.1776 695.428C-41.412 696.984 -41.6283 698.55 -41.824 700.082C-50.8616 772.271 -10.0539 793.08 31.1507 788.482C76.9152 783.376 128.832 752.216 182.447 717.975C187.188 714.943 192.009 711.847 196.673 708.849L202.576 705.057C228.971 688.096 256.264 670.555 283.714 655.398C314.803 638.232 341.543 626.736 365.46 620.252C380.84 616.113 395.525 614.261 409.104 614.748C421.872 615.205 434.091 617.745 445.421 622.298C465.694 630.445 483.762 645.05 500.665 666.943C514.312 684.498 529.507 706.626 538.725 737.674C547.919 768.825 551.743 805.738 555.44 841.435C555.956 846.418 556.49 851.569 557.025 856.582C565.988 940.336 570.675 1032.32 570.958 1129.97L570.763 1130.1Z" fill="#A1A1A1"/>
<path d="M570.608 1126.96C571.147 1028.7 567.623 936.258 560.133 852.214C559.569 845.898 559.03 839.356 558.508 833.031C555.631 798.168 552.655 762.117 543.697 732.429C534.389 701.795 517.932 681.712 503.059 666.106C464.917 625.739 420.737 614.372 364.023 630.328C314.454 644.386 263.058 674.927 213.354 704.461C208.123 707.569 202.715 710.781 197.46 713.885C191.289 717.531 186.587 720.294 182.218 722.839C158.824 736.461 131.419 751.882 105.531 762.968C78.0982 774.713 55.013 780.534 34.9547 780.764C24.4073 780.885 14.6872 779.234 6.06451 775.853C-3.19448 772.224 -11.0057 766.661 -17.1488 759.318C-23.805 751.363 -28.4756 741.331 -31.0344 729.5C-33.8091 716.671 -34.1115 701.612 -31.937 684.747C-31.7372 683.22 -31.5152 681.65 -31.2754 680.084C-27.0947 652.714 -18.009 623.762 -9.22408 595.763C-7.18655 589.269 -5.07971 582.556 -3.08068 576.008C7.78497 540.478 15.4849 508.832 20.4606 479.254C21.0861 475.535 21.6771 471.784 22.2184 468.101C32.0877 400.954 29.1397 338.554 13.696 287.643C-4.50645 228.007 -36.765 188.503 -77.1363 176.402C-100.164 169.618 -138.966 176.251 -173.739 206.361C-194.413 224.262 -210.44 248.209 -220.084 275.611L-220.256 275.611C-215.214 261.282 -208.479 247.917 -200.238 235.884C-192.631 224.778 -183.731 214.778 -173.78 206.163C-158.401 192.846 -140.754 183.045 -122.741 177.814C-106.054 172.969 -89.8165 172.379 -77.0159 176.15C-55.8268 182.5 -36.9346 196.252 -20.8636 217.028C-6.34507 235.797 5.34634 259.494 13.8823 287.464C29.3357 338.402 32.285 400.838 22.4101 468.025C21.8688 471.707 21.2764 475.464 20.6495 479.186C15.671 508.778 7.96694 540.442 -2.90286 575.988C-4.9019 582.539 -7.00874 589.253 -9.04627 595.747C-17.8284 623.731 -26.9072 652.667 -31.0837 680.008C-31.3222 681.572 -31.5441 683.138 -31.7425 684.662C-39.5562 745.242 -14.5885 781.071 35.0461 780.502C79.9948 779.988 132.401 751.617 182.226 722.604C186.595 720.058 191.295 717.295 197.466 713.649C202.721 710.545 208.129 707.333 213.36 704.225C237.829 689.685 263.13 674.651 288.487 661.51C317.162 646.649 341.89 636.365 364.08 630.072C379.436 625.752 394.173 623.453 407.882 623.244C420.867 623.044 433.36 624.714 445.016 628.202C466.237 634.557 485.277 646.879 503.222 665.871C518.102 681.487 534.573 701.582 543.888 732.242C552.851 761.95 555.827 798.01 558.705 832.884C559.227 839.209 559.767 845.751 560.33 852.066C567.819 936.119 571.345 1028.57 570.806 1126.84L570.608 1126.96Z" fill="#A1A1A1"/>
<path d="M570.445 1123.82C571.813 1024.94 569.452 932.029 563.428 847.692C562.914 840.518 562.455 833.032 562.009 825.793C559.885 791.308 557.69 755.652 548.852 726.994C539.399 696.584 521.692 678.609 505.616 665.036C466.357 631.555 419.586 623.412 362.635 640.14C317.213 653.594 270.256 679.368 224.845 704.295C215.673 709.33 206.188 714.538 197.053 719.447C191.464 722.454 186.532 725.08 181.974 727.474C160.79 738.589 133.083 752.534 106.651 761.797C80.0932 771.102 57.9064 774.696 38.8249 772.783C18.0127 770.697 1.32181 761.369 -9.44424 745.812C-15.4293 737.161 -19.5588 726.603 -21.7173 714.428C-24.0477 701.283 -24.0978 686.108 -21.8709 669.327C-21.6656 667.8 -21.4381 666.231 -21.1955 664.666C-16.9905 637.536 -8.31468 608.913 0.0755156 581.235C2.10511 574.539 4.20408 567.617 6.19247 560.863C16.7068 525.245 24.0992 493.717 28.7891 464.479C29.3828 460.778 29.9421 457.044 30.4517 453.379C39.7498 386.567 36.2276 324.662 20.2632 274.361C1.39279 215.276 -31.457 176.551 -72.2322 165.313C-99.9394 157.828 -138.711 170.079 -168.708 195.796C-189.582 213.692 -205.967 237.608 -216.092 264.959L-216.261 264.951C-210.971 250.659 -204.023 237.322 -195.613 225.313C-187.84 214.214 -178.8 204.215 -168.747 195.596C-153.349 182.393 -135.757 172.606 -117.873 167.29C-101.284 162.361 -85.0315 161.566 -72.1132 165.056C-50.7001 170.957 -31.5411 184.288 -15.1663 204.675C-0.382468 223.082 11.6017 246.465 20.451 274.175C36.4236 324.507 39.9485 386.446 30.6448 453.301C30.1352 456.965 29.5745 460.702 28.9808 464.406C24.2867 493.661 16.8916 525.204 6.37305 560.838C4.38467 567.593 2.28436 574.517 0.254726 581.213C-8.13129 608.877 -16.803 637.486 -21.0039 664.59C-21.2464 666.154 -21.4725 667.718 -21.6778 669.245C-29.6546 729.313 -6.99893 767.921 38.926 772.526C80.7942 776.722 132.428 753.239 181.987 727.239C186.543 724.844 191.475 722.221 197.063 719.214C206.197 714.303 215.681 709.098 224.852 704.063C270.273 679.132 317.239 653.35 362.682 639.892C378.031 635.383 392.821 632.642 406.644 631.74C419.864 630.88 432.632 631.677 444.595 634.109C466.841 638.632 486.85 648.673 505.764 664.802C521.85 678.385 539.575 696.372 549.035 726.816C557.88 755.494 560.076 791.164 562.2 825.661C562.646 832.901 563.107 840.384 563.621 847.558C569.646 931.902 572.007 1024.82 570.639 1123.71L570.445 1123.82Z" fill="#A1A1A1"/>
<path d="M570.291 1120.69C572.495 1021.17 571.296 927.805 566.73 843.177C566.311 835.4 565.976 827.227 565.654 819.324C564.247 784.962 562.795 749.429 554.012 721.566C544.383 691.27 525.439 675.451 508.178 663.972C467.625 636.687 419.566 632.102 361.254 649.959C320.287 662.61 278.053 684.036 237.21 704.754C223.166 711.88 209.9 718.609 196.655 725.014C191.266 727.623 186.387 729.946 181.74 732.112C151.768 746.068 128.267 755.129 107.783 760.623C82.0846 767.517 60.7976 768.886 42.7067 764.804C35.6891 763.22 29.201 760.747 23.3262 757.439C12.9122 751.574 4.41717 743.091 -1.72673 732.304C-12.8454 712.781 -16.2312 686.405 -11.7906 653.906C-11.577 652.367 -11.3454 650.8 -11.1 649.244C-6.87614 622.379 1.38693 594.119 9.3796 566.786C11.4041 559.861 13.4979 552.704 15.4812 545.713C25.6443 509.996 32.725 478.589 37.1331 449.7C37.6951 446.017 38.2227 442.301 38.7005 438.654C47.4275 372.176 43.3283 310.767 26.846 261.07C7.30617 202.54 -26.1321 164.593 -67.3113 154.217C-95.4605 147.282 -133.258 159.435 -163.603 185.182C-184.696 203.077 -201.459 226.978 -212.083 254.301L-212.251 254.287C-206.703 240.02 -199.535 226.704 -190.944 214.71C-182.991 203.607 -173.807 193.606 -163.641 184.982C-148.231 171.907 -130.706 162.146 -112.96 156.753C-96.4746 151.742 -80.2227 150.753 -67.1951 153.962C-45.5579 159.414 -26.1308 172.319 -9.45483 192.32C5.59288 210.368 17.8684 233.437 27.0338 260.885C43.5243 310.612 47.6261 372.055 38.895 438.572C38.4158 442.222 37.8882 445.938 37.3262 449.625C32.9167 478.529 25.8318 509.952 15.6646 545.684C13.6813 552.674 11.5874 559.835 9.56155 566.759C1.57304 594.078 -6.68725 622.327 -10.907 649.168C-11.1509 650.722 -11.3839 652.289 -11.5961 653.825C-19.891 714.515 -0.0567776 754.872 42.8216 764.546C83.639 773.754 135.962 753.195 181.765 731.867C186.411 729.701 191.288 727.38 196.678 724.772C209.921 718.366 223.185 711.639 237.229 704.513C278.08 683.789 320.322 662.361 361.304 649.705C376.666 645.001 391.509 641.814 405.423 640.233C418.899 638.702 431.944 638.626 444.192 640.009C467.55 642.649 488.528 650.407 508.323 663.727C525.6 675.215 544.56 691.049 554.2 721.381C562.991 749.265 564.443 784.813 565.85 819.188C566.173 827.093 566.507 835.265 566.926 843.039C571.492 927.673 572.69 1021.05 570.486 1120.57L570.291 1120.69Z" fill="#A1A1A1"/>
<path d="M570.129 1117.56C573.217 1016 573.183 924.767 570.025 838.659C569.723 830.443 569.553 822.13 569.372 813.329C568.666 778.925 567.934 743.353 559.164 716.137C549.278 685.705 528.088 671.704 510.732 662.907C469.342 641.631 419.992 640.607 359.862 659.778C323.72 671.399 286.555 688.865 250.612 705.759C231.722 714.638 213.882 723.021 196.246 730.582C191.009 732.83 186.183 734.846 181.495 736.75C152.454 748.518 129.39 755.728 108.906 759.444C84.0442 763.954 63.657 763.097 46.5789 756.824C37.8043 753.6 29.9572 748.858 23.2551 742.73C16.1594 736.241 10.3483 728.186 5.98248 718.791C-3.69368 697.966 -6.28592 670.95 -1.72128 638.489C-1.50213 636.95 -1.26504 635.382 -1.01694 633.827C3.21743 607.27 11.0663 579.403 18.6559 552.455C20.6809 545.265 22.7752 537.83 24.7576 530.571C34.5653 494.743 41.3385 463.458 45.4634 434.927C45.9923 431.26 46.4881 427.562 46.937 423.934C55.0928 357.791 50.4181 296.88 33.4179 247.787C17.6621 202.59 -6.49835 170.032 -36.0841 153.372C-44.4481 148.662 -53.2388 145.225 -62.4027 143.127C-90.5338 136.846 -128.235 149.173 -158.454 174.531C-179.784 192.433 -196.948 216.334 -208.089 243.65L-208.254 243.628C-202.442 229.374 -195.042 216.069 -186.262 204.084C-178.123 192.973 -168.779 182.962 -158.492 174.329C-143.076 161.392 -125.629 151.668 -108.033 146.207C-91.4219 141.051 -75.604 139.898 -62.292 142.873C-40.4307 147.875 -20.7369 160.358 -3.75702 179.97C11.556 197.654 24.1269 220.407 33.6043 247.598C50.614 296.718 55.2929 357.665 47.1329 423.847C46.6854 427.476 46.1895 431.177 45.6593 434.847C41.5316 463.392 34.7556 494.692 24.9437 530.536C22.9613 537.795 20.8684 545.232 18.842 552.424C11.2552 579.361 3.40907 607.216 -0.822515 633.753C-1.0692 635.305 -1.30631 636.872 -1.52543 638.408C-10.0601 699.109 7.52007 742.174 46.7075 756.57C86.3618 771.135 139.591 753.495 181.534 736.5C186.222 734.597 191.046 732.579 196.282 730.334C213.914 722.778 231.754 714.391 250.642 705.514C286.588 688.619 323.76 671.147 359.915 659.524C390.873 649.653 418.304 645.202 443.779 645.914C468.348 646.601 490.295 652.078 510.873 662.656C522.65 668.625 531.535 674.78 538.838 682.022C548.266 691.373 554.977 702.47 559.356 715.95C568.134 743.191 568.865 778.782 569.572 813.203C569.752 822.003 569.925 830.314 570.224 838.528C573.382 924.64 573.416 1015.87 570.328 1117.44L570.129 1117.56Z" fill="#A1A1A1"/>
<path d="M569.972 1114.42C573.92 1012.21 575.016 920.534 573.326 834.14C573.16 825.593 573.154 816.881 573.149 807.659C573.128 773.104 573.109 737.37 564.324 710.705C554.219 680.266 531.745 668.601 513.296 661.837C471.67 646.317 421.029 648.854 358.482 669.591C327.608 679.909 295.934 693.778 265.303 707.191C241.088 717.793 218.218 727.81 195.85 736.14C190.793 738.027 185.884 739.789 181.262 741.378C153.421 750.937 130.126 756.456 110.044 758.251C85.9981 760.4 66.508 757.322 50.4619 748.836C42.2985 744.518 35.0747 738.742 28.9986 731.67C22.6295 724.255 17.4842 715.372 13.7068 705.264C5.46202 683.201 3.66195 655.544 8.35896 623.06C8.58359 621.528 8.82483 619.959 9.07844 618.398C13.315 592.194 20.7427 564.773 27.9249 538.255C29.9574 530.752 32.0592 522.991 34.0463 515.414C43.4987 479.464 49.9615 448.302 53.8074 420.141C54.3045 416.492 54.7687 412.811 55.1858 409.201C62.7704 343.393 57.5187 282.978 40.0006 234.49C19.122 177.072 -15.5002 140.683 -57.4845 132.026C-85.5658 126.384 -123.149 138.865 -153.229 163.82C-174.82 181.733 -192.404 205.65 -204.085 232.988L-204.246 232.959C-198.158 218.708 -190.517 205.403 -181.535 193.415C-173.196 182.288 -163.685 172.261 -153.265 163.615C-137.855 150.83 -120.494 141.155 -103.06 135.634C-86.5708 130.413 -70.7731 129.077 -57.3725 131.769C-35.2871 136.325 -15.3251 148.381 1.95584 167.606C17.5313 184.933 30.3936 207.372 40.1856 234.299C57.7161 282.815 62.9691 343.266 55.3789 409.113C54.9631 412.724 54.499 416.408 54.0004 420.059C50.1532 448.235 43.6862 479.412 34.231 515.376C32.2453 522.954 30.1421 530.714 28.1097 538.22C20.9302 564.726 13.5052 592.136 9.27152 618.322C9.01927 619.881 8.77805 621.45 8.55342 622.979C-0.399673 684.902 14.5303 729.515 50.6002 748.584C79.8656 764.061 121.4 761.689 181.308 741.123C185.928 739.533 190.835 737.772 195.892 735.886C218.254 727.555 241.122 717.544 265.333 706.94C295.969 693.526 327.648 679.654 358.531 669.334C390.067 658.877 417.817 653.148 443.371 651.811C469.258 650.459 492.174 653.652 513.426 661.577C531.896 668.346 554.394 680.029 564.515 710.515C573.308 737.21 573.328 772.961 573.349 807.532C573.353 816.754 573.36 825.463 573.526 834.007C575.217 920.405 574.12 1012.09 570.171 1114.3L569.972 1114.42Z" fill="#A1A1A1"/>
<path d="M569.812 1111.28C574.625 1008.43 576.854 916.295 576.623 829.623C576.6 820.824 576.771 811.791 576.953 802.228C577.615 767.439 578.298 731.467 569.481 705.275C559.141 674.795 535.391 665.48 515.856 660.769C474.242 650.514 423.796 656.437 357.095 679.407C332.035 688.1 306.378 698.669 281.567 708.89C251.432 721.302 222.966 733.029 195.445 741.704C190.485 743.27 185.632 744.721 181.022 746.013C153.885 753.607 131.038 757.221 111.177 757.058C100.053 756.967 89.7641 755.646 80.5969 753.132C70.8194 750.45 61.9844 746.319 54.3371 740.855C38.8221 729.767 27.7491 713.242 21.4259 691.74C14.5973 668.518 13.5894 640.224 18.434 607.64C18.6669 606.099 18.9137 604.531 19.1659 602.978C23.3934 577.189 30.3917 550.277 37.1595 524.253C39.2078 516.374 41.3269 508.228 43.327 500.268C52.42 464.183 58.5739 433.141 62.142 405.364C62.6088 401.73 63.0399 398.067 63.4253 394.477C70.4401 329.002 64.6128 269.084 46.5741 221.204C25.026 164.344 -10.1861 128.735 -52.5744 120.935C-98.0754 112.785 -167.41 149.234 -200.087 222.334L-200.245 222.296C-192.071 204.01 -181.486 187.422 -168.783 172.986C-157.181 159.803 -144.042 148.646 -129.734 139.83C-116.429 131.631 -102.724 125.802 -88.9996 122.503C-75.9468 119.366 -63.3119 118.733 -52.465 120.676C-30.1556 124.782 -9.92692 136.416 7.65659 155.255C23.4959 172.223 36.651 194.348 46.7563 221.016C64.8033 268.926 70.6346 328.878 63.617 394.391C63.2316 397.984 62.8005 401.647 62.3337 405.284C58.7642 433.074 52.6061 464.133 43.5103 500.232C41.5102 508.193 39.3912 516.338 37.3415 524.219C30.5764 550.235 23.5809 577.136 19.3562 602.911C19.1026 604.462 18.8545 606.03 18.623 607.568C9.31445 670.191 22.0511 717.439 54.4822 740.616C81.9403 760.234 123.347 761.919 181.073 745.764C185.682 744.471 190.533 743.022 195.493 741.456C223.007 732.783 251.468 721.057 281.599 708.646C306.413 698.424 332.073 687.853 357.137 679.159C423.865 656.178 474.333 650.255 515.97 660.513C529.097 663.679 539.047 667.93 547.283 673.897C557.813 681.524 565.133 691.725 569.666 705.088C578.494 731.309 577.81 767.303 577.148 802.111C576.967 811.671 576.795 820.703 576.818 829.499C577.049 916.178 574.819 1008.31 570.005 1111.18L569.812 1111.28Z" fill="#A1A1A1"/>
<path d="M569.659 1108.15C575.348 1004.64 578.705 912.052 579.929 825.106C580.055 816.11 580.409 806.812 580.786 796.964C582.125 761.884 583.51 725.609 574.644 699.845C563.938 668.952 537.43 662.139 518.423 659.701C466.952 652.876 407.291 670.794 355.717 689.227C337.15 695.905 318.179 703.37 299.831 710.588C263.024 725.068 228.26 738.745 195.05 747.272C190.165 748.528 185.368 749.666 180.79 750.654C154.274 756.352 131.877 758.059 112.322 755.869C90.1533 753.388 71.9518 745.654 58.2219 732.878C44.1177 719.752 34.338 701.362 29.1575 678.217C23.7227 653.943 23.507 625.012 28.5147 592.225C28.7531 590.687 29.0039 589.118 29.2617 587.562C33.4621 562.275 40.021 535.963 46.3634 510.514C48.4428 502.175 50.5903 493.553 52.6161 485.125C61.4704 448.389 67.147 418.352 70.4863 390.592C70.9214 386.975 71.3207 383.333 71.6744 379.758C78.1139 314.618 71.7097 255.197 53.1544 207.919C30.9356 151.619 -4.86633 116.787 -47.6572 109.843C-93.8226 102.554 -161.962 138.652 -196.083 211.682L-196.237 211.637C-187.771 193.518 -176.999 177.058 -164.221 162.713C-152.512 149.571 -139.335 138.416 -125.055 129.564C-111.738 121.308 -98.0311 115.38 -84.3107 111.94C-71.2467 108.663 -58.5343 107.851 -47.5479 109.584C-25.013 113.242 -4.51896 124.452 13.3671 142.903C29.4703 159.512 42.9181 181.323 53.3381 207.728C71.9057 255.032 78.3126 314.487 71.8661 379.666C71.5111 383.243 71.1118 386.889 70.6781 390.506C67.3387 418.279 61.6565 448.332 52.7995 485.083C50.7736 493.511 48.6248 502.135 46.5454 510.474C40.2058 535.915 33.6496 562.219 29.4492 587.493C29.1915 589.049 28.9406 590.615 28.7022 592.153C18.9686 655.887 29.5065 705.781 58.3753 732.644C84.2667 756.738 124.329 762.543 180.852 750.398C185.428 749.412 190.223 748.277 195.106 747.019C228.307 738.493 263.066 724.82 299.867 710.34C318.215 703.122 337.189 695.655 355.758 688.976C390.438 676.583 418.017 668.53 442.547 663.629C471.425 657.862 496.277 656.493 518.527 659.443C532.121 661.186 542.911 664.585 551.514 669.837C562.591 676.598 570.218 686.352 574.829 699.658C583.708 725.455 582.321 761.752 580.981 796.854C580.605 806.699 580.249 815.996 580.124 824.987C578.902 911.937 575.542 1004.53 569.855 1108.04L569.659 1108.15Z" fill="#A1A1A1"/>
<path d="M569.503 1105.01C576.07 1000.84 580.56 907.802 583.229 820.584C583.509 811.438 584.051 801.916 584.626 791.833C586.642 756.414 588.728 719.789 579.803 694.413C568.838 663.432 540.985 659.153 520.986 658.631C471.692 657.168 416.347 676.067 354.334 699.042C343.133 703.215 331.711 707.6 320.663 711.843C278.175 728.159 234.243 745.03 194.649 752.834C189.838 753.786 185.094 754.61 180.551 755.286C154.949 759.082 132.378 758.873 113.463 754.667C92.0355 749.903 74.756 739.885 62.0981 724.893C49.3838 709.833 40.9001 689.576 36.8817 664.683C32.8157 639.492 33.3881 609.925 38.5838 576.803C38.8277 575.266 39.0842 573.696 39.3447 572.142C43.4985 547.476 49.5999 521.882 55.5 497.132C57.6259 488.214 59.8241 478.994 61.8909 469.981C70.3762 433.079 75.7535 403.158 78.8151 375.817C79.2171 372.227 79.5846 368.599 79.908 365.036C85.7846 300.226 78.8062 241.303 59.7289 194.63C36.8406 138.891 0.448796 104.839 -42.746 98.7477C-87.928 92.5464 -155.621 126.283 -192.084 201.023L-192.235 200.971C-183.476 183.018 -172.518 166.688 -159.666 152.433C-147.849 139.329 -134.633 128.18 -120.384 119.291C-94.0946 102.895 -65.7582 95.3129 -42.6395 98.4876C-19.8819 101.698 0.880274 112.484 19.0702 130.546C35.4359 146.798 49.1764 168.292 59.9111 194.435C78.9994 241.134 85.9805 300.094 80.1052 364.937C79.7819 368.503 79.4143 372.131 79.0123 375.724C75.948 403.08 70.5693 433.013 62.0798 469.929C60.0116 478.944 57.8148 488.165 55.6889 497.083C49.7902 521.827 43.6901 547.416 39.5377 572.07C39.2759 573.623 39.0208 575.19 38.7769 576.728C28.3814 642.994 36.5025 694.149 62.2611 724.665C86.1136 752.92 125.934 763.135 180.621 755.027C185.162 754.351 189.901 753.527 194.71 752.578C234.29 744.775 278.216 727.908 320.696 711.594C331.744 707.351 343.166 702.965 354.368 698.793C381.514 688.736 412.921 677.353 442.133 669.533C472.69 661.354 498.511 657.704 521.074 658.374C535.306 658.746 546.645 661.167 555.736 665.775C567.202 671.585 575.357 681.157 579.982 694.226C583.981 705.594 586.111 720.398 586.494 739.486C586.834 756.341 585.808 774.331 584.817 791.728C584.243 801.807 583.701 811.329 583.421 820.472C580.751 907.694 576.262 1000.73 569.694 1104.91L569.503 1105.01Z" fill="#A1A1A1"/>
<path d="M569.346 1101.88C576.799 997.039 582.42 903.549 586.529 816.068C586.963 806.805 587.695 797.092 588.47 786.812C591.167 751.016 593.956 714.001 584.96 688.986C576.529 665.654 556.439 655.377 523.545 657.566C477.624 660.504 426.986 680.157 373.372 700.966C366.696 703.558 359.795 706.236 352.947 708.864C350.264 709.898 347.576 710.936 344.891 711.972C293.886 731.658 241.146 752.015 194.248 758.403C189.506 759.051 184.818 759.564 180.314 759.925C155.205 761.932 133.098 759.761 114.612 753.471C93.9119 746.426 77.5488 734.127 65.9809 716.915C54.6287 700.023 47.4411 677.899 44.6182 651.157C41.882 625.237 43.2425 595.036 48.6638 561.389C48.9132 559.851 49.1751 558.281 49.4398 556.726C53.5122 532.861 59.1338 508.168 64.568 484.287C66.7696 474.616 69.045 464.615 71.1807 454.836C79.2928 417.753 84.3723 387.949 87.1602 361.042C87.5304 357.467 87.8662 353.86 88.1578 350.315C93.4578 285.839 85.9038 227.41 66.3072 181.344C42.7495 126.169 5.76648 92.8931 -37.8309 87.6552C-82.6535 82.4033 -150.546 116.616 -188.083 190.37L-188.231 190.312C-179.177 172.523 -168.034 156.322 -155.11 142.163C-143.185 129.097 -129.929 117.948 -115.711 109.029C-89.4495 92.5528 -61.0271 84.6697 -37.7285 87.3992C-14.7455 90.1612 6.28344 100.522 24.7745 118.197C41.4054 134.088 55.4401 155.269 66.4895 181.149C86.0957 227.243 93.6565 285.705 88.351 350.213C88.0594 353.758 87.7235 357.372 87.3533 360.947C84.5626 387.868 79.4845 417.683 71.3682 454.78C69.2339 464.56 66.9558 474.563 64.7555 484.234C59.3214 508.109 53.7025 532.797 49.6315 556.653C49.3669 558.208 49.105 559.774 48.8555 561.312C37.8332 629.728 43.8149 683.456 66.1535 716.692C88.2049 749.502 126.643 763.958 180.398 759.662C184.898 759.298 189.583 758.787 194.323 758.141C241.204 751.757 293.935 731.404 344.93 711.719C347.618 710.681 350.303 709.645 352.987 708.611C359.834 705.984 366.735 703.305 373.41 700.716C427.035 679.903 477.686 660.245 523.629 657.306C538.49 656.316 550.375 657.76 559.966 661.715C571.969 666.667 580.44 675.779 585.145 688.796C589.174 700 591.179 714.795 591.274 734.028C591.357 750.997 589.989 769.154 588.666 786.712C587.893 796.99 587.16 806.699 586.726 815.959C582.617 903.444 576.996 996.936 569.542 1101.78L569.346 1101.88Z" fill="#A1A1A1"/>
<path d="M569.186 1098.74C576.88 1001.47 583.825 904.844 589.826 811.549C590.412 802.094 591.342 792.105 592.326 781.531C595.528 747.136 599.156 708.152 590.114 683.557C581.478 660.142 560.54 651.291 526.104 656.496C485.199 662.612 441.706 680.981 395.658 700.427C381.238 706.516 366.325 712.816 351.56 718.678C325.764 728.953 298.11 739.622 270.663 748.068C241.269 757.114 216.141 762.312 193.84 763.964C189.155 764.31 184.523 764.512 180.071 764.557C155.447 764.8 133.82 760.651 115.791 752.225C95.8334 742.895 80.3771 728.332 69.855 708.928C50.5561 672.864 46.8132 618.036 58.7323 545.966C58.9873 544.428 59.2546 542.858 59.5221 541.305C63.4616 518.52 68.5602 495.013 73.492 472.279C75.8127 461.578 78.2139 450.513 80.4549 439.69C88.1939 402.407 92.9713 372.721 95.4897 346.267C95.8282 342.706 96.1323 339.117 96.3922 335.593C101.128 271.449 92.9955 213.519 72.881 168.057C48.6539 113.443 11.0795 80.9499 -32.9205 76.5622C-78.4859 72.1143 -145.042 106.119 -184.087 179.716L-184.23 179.649C-174.878 162.02 -163.548 145.951 -150.556 131.885C-138.519 118.856 -125.224 107.709 -111.041 98.7579C-97.6779 90.3238 -83.9608 84.0943 -70.27 80.2396C-56.9791 76.4994 -44.3789 75.174 -32.8194 76.3022C-9.61233 78.6179 11.6847 88.5538 30.4783 105.84C47.3704 121.377 61.6978 142.241 73.0619 167.858C93.1887 213.347 101.325 271.312 96.5894 335.487C96.3281 339.013 96.0254 342.607 95.6869 346.168C93.1658 372.636 88.3869 402.334 80.6466 439.63C78.4042 450.455 76.003 461.521 73.6809 472.223C68.7505 494.955 63.6519 518.459 59.7138 541.235C59.4436 542.79 59.179 544.358 58.9226 545.896C47.0132 617.909 50.7508 672.692 70.0317 708.721C90.0279 745.592 128.11 764.811 180.161 764.297C184.61 764.251 189.241 764.052 193.922 763.706C243.78 760.016 299.152 739.317 351.595 718.43C366.36 712.567 381.27 706.269 395.69 700.18C441.748 680.729 485.251 662.356 526.174 656.238C560.664 651.025 581.641 659.897 590.298 683.366C594.348 694.381 596.223 709.129 596.034 728.448C595.867 745.483 594.164 763.762 592.52 781.437C591.537 792.01 590.606 801.996 590.022 811.446C584.021 904.744 577.076 1001.37 569.38 1098.65L569.186 1098.74Z" fill="#A1A1A1"/>
<path d="M569.033 1095.61C577.514 998.218 585.622 901.126 593.13 807.031C593.875 797.559 594.992 787.49 596.172 776.83C600.037 741.964 604.417 702.443 595.278 678.123C586.429 654.621 564.641 647.196 528.672 655.421C491.003 664.006 450.112 683.051 410.565 701.473C390.736 710.709 370.231 720.259 350.182 728.492C318.524 741.509 292.923 750.622 269.612 757.172C240.868 765.25 215.953 769.29 193.446 769.525C188.825 769.575 184.247 769.461 179.84 769.188C156.881 767.762 136.676 762.205 119.726 752.664C118.784 752.134 117.856 751.592 116.935 751.038C97.6616 739.434 83.1299 722.578 73.7419 700.942C69.2292 690.465 65.7943 678.458 63.5342 665.253C61.4092 652.841 60.257 638.982 60.1087 624.062C59.8411 597.22 62.688 566.628 68.8123 530.544C69.0769 528.992 69.3443 527.438 69.6172 525.881C73.3363 504.65 77.8447 482.806 82.2058 461.681C84.7221 449.487 87.326 436.877 89.7447 424.537C97.2038 386.524 101.551 357.824 103.833 331.483C104.14 327.94 104.413 324.368 104.641 320.862C108.804 257.06 100.096 199.627 79.4635 154.769C54.567 100.718 16.4014 69.005 -28.0011 65.4674C-73.1713 61.918 -139.913 96.3611 -180.079 169.059L-180.218 168.984C-161.509 135.122 -135.969 107.287 -106.36 88.4893C-92.9763 79.9925 -79.2576 73.6636 -65.579 69.6728C-52.2699 65.7908 -39.5936 64.2883 -27.9 65.2074C-4.46892 67.0738 17.0949 76.5874 36.191 93.4847C53.3455 108.665 67.9656 129.215 79.6444 154.566C100.289 199.454 109.001 256.922 104.837 320.762C104.607 324.271 104.336 327.847 104.029 331.39C101.744 357.745 97.3969 386.455 89.9337 424.482C87.5136 436.824 84.9111 449.435 82.3934 461.628C78.0337 482.751 73.5252 504.591 69.8075 525.817C69.5346 527.374 69.2659 528.927 69.0026 530.476C55.9879 607.154 57.5972 662.85 73.9228 700.746C96.6256 753.073 144.104 766.709 179.937 768.932C184.341 769.204 188.915 769.318 193.535 769.268C245.301 768.726 304.459 747.061 350.214 728.248C370.259 720.019 390.763 710.468 410.589 701.234C450.144 682.81 491.045 663.758 528.731 655.17C544.827 651.489 557.809 650.974 568.416 653.597C581.497 656.83 590.596 665.019 595.459 677.937C599.552 688.828 601.306 703.617 600.823 723.149C600.397 740.359 598.348 758.856 596.364 776.747C595.183 787.404 594.067 797.469 593.324 806.936C585.815 901.031 577.708 998.123 569.227 1095.52L569.033 1095.61Z" fill="#A1A1A1"/>
<path d="M568.875 1092.47L596.429 802.515C597.33 793.046 598.628 782.921 600.002 772.205C604.537 736.84 609.677 696.757 600.435 672.697C591.496 649.432 568.213 643.26 531.231 654.356C495.678 665.021 457.771 684.483 421.111 703.304C397.215 715.573 372.507 728.257 348.795 738.314C277.527 768.543 223.765 779.826 179.602 773.827C161.283 771.337 144.827 766.01 130.502 757.943C126.159 755.498 122.016 752.802 118.073 749.857C99.4756 735.97 85.8659 716.827 77.6216 692.963C69.9819 670.843 66.7777 643.886 67.8323 610.551C68.6737 583.933 72.1858 553.611 78.8863 515.129C82.4218 494.819 86.5192 473.957 90.4817 453.781C99.447 408.124 108.718 360.912 112.173 316.712C117.469 248.916 108.432 188.323 86.0387 141.481C60.4727 87.9977 21.7173 57.0615 -23.0878 54.3741C-66.4667 51.7719 -132.845 83.2151 -176.08 158.405L-176.215 158.322C-156.89 124.714 -131.118 97.016 -101.686 78.2212C-75.0752 61.2274 -47.127 52.6666 -22.9895 54.1158C0.665652 55.5359 22.4976 64.6249 41.8948 81.1323C59.3132 95.9531 74.2247 116.192 86.2182 141.281C97.2986 164.459 105.167 191.187 109.606 220.724C114.081 250.508 115.012 282.768 112.368 316.608C108.914 360.826 99.6415 408.049 90.6734 453.718C86.7123 473.891 82.6162 494.751 79.0808 515.057C69.3028 571.206 60.324 642.147 77.8107 692.772C97.8655 750.828 144.293 768.752 179.71 773.565C223.849 779.564 277.588 768.283 348.829 738.065C372.531 728.012 397.238 715.327 421.13 703.062C457.797 684.238 495.713 664.773 531.284 654.101C568.33 642.986 591.659 649.177 600.62 672.504C604.757 683.277 606.39 698.118 605.609 717.879C604.921 735.274 602.519 754.007 600.196 772.121C598.822 782.837 597.525 792.956 596.625 802.422L569.071 1092.38L568.875 1092.47Z" fill="#A1A1A1"/>
<path d="M578.079 1074.18C588.203 994.821 595.196 929.741 600.088 869.369C602.472 840.046 604.422 810.96 605.883 782.918C606.326 774.436 607.036 765.549 607.789 756.139C609.682 732.489 611.639 708.034 609.426 687.822C608.246 676.955 606.034 668.405 602.664 661.682C592.381 640.936 568.587 637.426 531.941 651.252C512.987 658.388 493.996 667.96 477.92 676.383C460.9 685.299 443.191 695.729 426.065 705.814C401.448 720.312 375.994 735.303 351.34 746.605C336.32 753.517 321.883 759.121 308.429 763.264C281.512 771.552 255.12 776.009 229.987 776.512C214.501 776.746 199.894 775.289 186.574 772.18C175.1 769.49 164.29 765.578 154.442 760.554C139.702 753.036 126.943 742.867 116.523 730.321C105.444 716.982 96.9326 700.854 91.227 682.384C86.1392 665.915 83.1629 647.11 82.1304 624.891C80.1923 583.513 84.8244 539.539 89.0771 505.852C91.2016 489.24 93.6062 472.433 95.9313 456.179C102.63 409.372 108.957 365.162 109.508 322.919C109.86 288.639 106.164 256.804 98.5204 228.292C92.6472 206.381 84.1135 186.36 73.1582 168.786C70.5471 164.602 67.7857 160.518 64.9508 156.655C52.7382 140.035 37.0128 124.835 18.2136 111.478C-0.712071 97.962 -19.2012 90.0245 -38.3101 87.2192C-49.0983 85.6069 -60.6951 86.0778 -72.7807 88.6147C-115.448 97.5727 -157.465 129.285 -185.176 173.447L-185.333 173.323C-177.946 161.55 -169.547 150.586 -160.369 140.73C-151.65 131.369 -142.171 122.944 -132.195 115.688C-113.349 101.982 -92.7753 92.5091 -72.7002 88.2946C-60.5953 85.7524 -48.9806 85.2819 -38.1759 86.8971C-19.0477 89.7067 -0.543385 97.6495 18.3975 111.177C37.2077 124.541 52.9399 139.751 65.1608 156.382C67.9984 160.25 70.7612 164.335 73.3736 168.522C84.3386 186.109 92.8792 206.146 98.7565 228.075C106.405 256.607 110.104 288.469 109.749 322.77C109.198 365.039 102.869 409.261 96.1699 456.081C93.8434 472.333 91.4401 489.138 89.3156 505.747C85.0644 539.419 80.4351 583.372 82.3733 624.724C83.4045 646.919 86.3766 665.706 91.4589 682.156C102.626 718.302 123.872 744.575 154.609 760.244C164.449 765.264 175.252 769.171 186.716 771.859C200.028 774.964 214.624 776.421 230.098 776.186C255.216 775.685 281.591 771.231 308.491 762.947C321.936 758.808 336.364 753.206 351.372 746.3C376.012 735.003 401.461 720.016 426.069 705.522C443.199 695.436 460.912 685.002 477.939 676.083C494.023 667.655 513.022 658.081 531.99 650.94C548.306 644.784 562.284 642.055 573.54 642.828C587.365 643.777 597.24 650.035 602.887 661.429C606.266 668.173 608.485 676.747 609.668 687.639C611.884 707.881 609.926 732.352 608.033 756.017C607.28 765.424 606.57 774.311 606.127 782.787C604.667 810.833 602.718 839.922 600.332 869.251C595.439 929.629 588.444 994.715 578.32 1074.08L578.079 1074.18Z" fill="#A1A1A1"/>
<path d="M587.293 1055.87C599.943 976.503 608.053 908.692 612.086 848.567C614.073 819.208 615.171 790.528 615.346 763.324C615.392 756.106 615.6 748.695 615.818 740.85C616.47 717.355 617.145 693.061 613.384 673.872C611.501 664.155 608.727 656.566 604.902 650.667C590.26 628.077 557.537 636.827 532.663 648.144C515.062 656.122 497.325 666.361 479.191 677.03C463.318 686.37 447.33 697.028 430.405 708.31C405.283 725.059 379.305 742.377 353.896 754.893C338.78 762.385 324.23 768.03 310.65 771.668C285.353 778.449 260.514 780.79 234.712 778.827C220.274 777.727 206.424 774.937 193.55 770.53C182.7 766.791 172.518 761.905 163.291 756C149.558 747.226 137.701 735.867 128.046 722.239C117.908 707.925 110.099 690.955 104.839 671.801C100.228 655.022 97.4456 635.857 96.3298 613.213C94.2795 572.131 96.8244 529.3 99.2726 496.575C100.179 484.461 101.19 472.328 102.169 460.591C106.066 413.852 109.749 369.702 106.85 329.129C104.684 298.805 98.8038 270.885 89.3744 246.147C82.24 227.428 72.7254 211.056 60.2894 196.095C57.4179 192.645 54.4057 189.296 51.338 186.143C37.8497 172.316 21.6189 160.819 1.80437 147.223C-12.4407 137.355 -31.602 125.349 -53.5262 120.06C-63.8828 117.507 -74.9733 116.956 -86.4892 118.417C-127.037 123.566 -167.327 149.76 -194.268 188.49L-194.437 188.314C-187.293 178.043 -179.207 168.578 -170.405 160.176C-162.017 152.171 -152.928 145.085 -143.387 139.107C-125.259 127.753 -105.545 120.463 -86.3769 118.031C-74.8389 116.566 -63.7277 117.119 -53.3533 119.675C-31.407 124.967 -12.2319 136.984 2.02277 146.857C21.8442 160.457 38.0805 171.958 51.5784 185.793C54.6475 188.951 57.6625 192.301 60.538 195.754C72.9851 210.731 82.5093 227.118 89.6519 245.857C99.0909 270.62 104.977 298.562 107.145 328.917C110.046 369.52 106.364 413.683 102.464 460.44C101.486 472.174 100.474 484.307 99.5692 496.419C97.1237 529.132 94.5788 571.947 96.6264 613.008C97.7395 635.628 100.52 654.772 105.124 671.532C115.469 709.194 135.114 737.489 163.508 755.631C172.728 761.528 182.899 766.411 193.74 770.145C206.601 774.549 220.438 777.338 234.865 778.434C260.644 780.397 285.462 778.058 310.738 771.284C324.301 767.649 338.832 762.013 353.931 754.528C379.318 742.022 405.285 724.711 430.396 707.972C447.328 696.684 463.319 686.024 479.201 676.68C497.345 666.004 515.089 655.762 532.708 647.775C548.833 640.437 562.865 636.529 574.416 636.152C588.422 635.695 598.767 640.47 605.166 650.34C609.004 656.262 611.788 663.877 613.676 673.623C617.443 692.848 616.767 717.163 616.114 740.677C615.896 748.519 615.691 755.929 615.644 763.143C615.469 790.356 614.37 819.045 612.382 848.414C608.347 908.554 600.237 976.378 587.582 1055.77L587.293 1055.87Z" fill="#A1A1A1"/>
<path d="M596.509 1037.57C611.836 957.096 620.857 888.469 624.086 827.769C625.674 798.372 625.917 770.1 624.811 743.733C624.576 738.097 624.407 732.162 624.244 726.424C623.574 702.718 622.88 678.207 617.347 659.927C614.77 651.31 611.434 644.678 607.148 639.655C590.701 620.372 557.96 631.939 533.391 645.035C516.77 653.855 499.872 664.945 483.528 675.672L480.468 677.68C465.635 687.408 450.495 698.712 434.463 710.681C408.936 729.741 382.541 749.447 356.454 763.182C341.223 771.266 326.56 776.95 312.872 780.075C289.006 785.524 265.671 785.862 239.437 781.141C225.872 778.699 212.781 774.574 200.528 768.877C190.303 764.086 180.751 758.222 172.14 751.443C146.059 730.939 127.996 700.582 118.451 661.217C114.325 644.199 111.733 624.679 110.533 601.535C108.466 562.43 108.875 523.66 109.472 487.303C109.551 482.429 109.638 477.592 109.724 472.792C110.609 423.009 111.447 375.987 104.196 335.349C99.4627 308.818 91.3978 284.816 80.2291 264.007C72.0287 248.731 61.2972 235.451 47.424 223.409C44.2949 220.699 41.0333 218.083 37.7287 215.634C29.4044 209.491 20.0166 203.969 10.0766 198.123C2.09297 193.427 -6.16189 188.571 -14.6056 182.973C-30.854 172.054 -49.2705 159.682 -68.7457 152.906C-78.7947 149.411 -89.3776 147.837 -100.202 148.228C-138.62 149.619 -177.187 170.3 -203.368 203.55L-203.536 203.303C-196.633 194.536 -188.861 186.57 -180.437 179.624C-172.38 172.981 -163.679 167.229 -154.576 162.527C-137.166 153.536 -118.312 148.437 -100.053 147.776C-89.2031 147.382 -78.5981 148.959 -68.53 152.462C-49.0354 159.245 -30.6107 171.625 -14.3554 182.548C-5.91581 188.141 2.33767 192.999 10.3185 197.693C20.2626 203.542 29.6533 209.066 37.9844 215.215C41.2903 217.669 44.5561 220.287 47.6879 222.998C61.579 235.053 72.3229 248.35 80.5343 263.649C91.7168 284.481 99.7899 308.511 104.529 335.071C111.787 375.744 110.949 422.79 110.062 472.595C109.976 477.394 109.891 482.229 109.81 487.105C109.213 523.456 108.803 562.215 110.869 601.307C112.07 624.426 114.657 643.927 118.779 660.923C128.311 700.239 146.352 730.554 172.399 751.032C181 757.803 190.542 763.661 200.757 768.446C212.997 774.136 226.075 778.257 239.625 780.697C265.833 785.413 289.141 785.076 312.975 779.635C326.634 776.516 341.27 770.842 356.474 762.773C382.528 749.055 408.907 729.359 434.42 710.311C450.458 698.336 465.607 687.027 480.45 677.292L483.511 675.284C499.863 664.552 516.771 653.455 533.41 644.625C558.057 631.486 590.906 619.893 607.43 639.264C611.735 644.311 615.084 650.967 617.67 659.618C623.216 677.936 623.91 702.474 624.581 726.206C624.743 731.943 624.911 737.878 625.146 743.511C626.253 769.891 626.009 798.179 624.42 827.591C621.19 888.317 612.165 956.968 596.833 1037.47L596.509 1037.57Z" fill="#A1A1A1"/>
<path d="M605.72 1019.26C623.487 938.816 633.703 867.389 636.081 806.969C637.269 777.538 636.66 749.673 634.272 724.146C633.927 720.459 633.595 716.647 633.272 712.96C631.143 688.604 628.943 663.416 621.308 645.987C618.055 638.461 614.158 632.79 609.393 628.645C591.114 612.751 558.369 627.093 534.117 641.923C519.096 651.063 503.962 662.111 489.326 672.797C486.794 674.647 484.264 676.492 481.739 678.326C467.866 688.404 453.502 700.3 438.296 712.893C412.445 734.302 385.714 756.438 359.006 771.472C343.322 780.3 328.957 785.864 315.085 788.485C286.071 793.966 262.946 789.018 244.151 783.46C231.44 779.698 219.107 774.24 207.496 767.23C197.9 761.39 188.979 754.546 180.98 746.892C157.253 724.214 140.792 691.83 132.056 650.638C128.42 633.501 126.023 613.622 124.726 589.864C123.392 565.907 122.45 543.048 121.538 520.939C120.92 505.913 120.335 491.72 119.662 478.041C117.12 426.331 114 380.368 101.538 341.576C94.237 318.854 83.9904 298.765 71.081 281.869C61.8289 269.758 50.2217 259.862 34.5572 250.721C31.1732 248.757 27.6608 246.873 24.1179 245.124C18.7257 242.485 12.9678 240.074 6.87261 237.525C-4.82348 232.63 -18.0826 227.081 -31.0225 218.721C-35.9493 215.536 -40.9074 212.165 -45.7018 208.903C-58.0338 200.513 -70.7857 191.838 -83.9722 185.748C-93.6569 181.278 -103.735 178.681 -113.924 178.034C-150.199 175.733 -187.043 190.903 -212.482 218.614L-212.63 218.281C-205.969 211.025 -198.513 204.558 -190.468 199.06C-182.742 193.781 -174.431 189.364 -165.769 185.935C-149.077 179.327 -131.084 176.417 -113.732 177.518C-103.518 178.167 -93.4162 180.767 -83.7108 185.249C-70.5092 191.344 -57.7532 200.024 -45.4142 208.418C-40.6213 211.679 -35.6631 215.05 -30.7377 218.235C-17.8102 226.588 -4.56212 232.133 7.12846 237.025C13.2264 239.576 18.9857 241.988 24.3834 244.63C27.9304 246.381 31.4455 248.267 34.8337 250.233C50.5216 259.384 62.1439 269.298 71.4125 281.428C84.3371 298.346 94.5989 318.46 101.908 341.212C107.538 358.734 111.687 379.253 114.594 403.94C117.196 426.04 118.656 449.441 120.05 477.778C120.721 491.459 121.307 505.652 121.926 520.679C122.838 542.784 123.779 565.644 125.112 589.596C126.408 613.331 128.802 633.189 132.433 650.307C141.156 691.444 157.594 723.782 181.288 746.428C189.278 754.074 198.188 760.908 207.772 766.742C219.369 773.745 231.689 779.198 244.386 782.952C263.157 788.506 286.251 793.446 315.214 787.975C329.047 785.362 343.375 779.813 359.018 771.007C385.681 755.999 412.391 733.88 438.221 712.488C453.437 699.888 467.808 687.986 481.696 677.898C484.221 676.063 486.749 674.218 489.28 672.37C503.926 661.677 519.07 650.621 534.109 641.469C549.887 631.821 564.041 625.534 576.177 622.782C590.552 619.523 601.827 621.339 609.69 628.179C614.479 632.343 618.395 638.041 621.661 645.598C629.318 663.074 631.52 688.292 633.651 712.679C633.974 716.366 634.306 720.178 634.651 723.861C637.041 749.408 637.648 777.299 636.46 806.753C635.197 838.835 631.717 874.238 626.115 911.978C621.164 945.334 614.424 981.398 606.084 1019.16L605.72 1019.26Z" fill="#A1A1A1"/>
<path d="M614.932 1000.95C635.365 919.415 646.515 847.152 648.074 786.171C648.861 756.705 647.4 729.249 643.733 704.56C643.558 703.385 643.384 702.21 643.21 701.032C639.409 675.337 635.479 648.768 625.271 632.053C621.316 625.577 616.857 620.864 611.64 617.642C591.516 605.217 558.771 622.298 534.847 638.812C520.812 648.453 506.791 659.785 493.232 670.744C489.88 673.455 486.412 676.256 483.017 678.975C470.084 689.329 456.498 701.732 442.114 714.865C415.949 738.752 388.896 763.452 361.562 779.764C345.749 789.202 331.27 794.805 317.299 796.898C289.775 801.018 268.142 793.988 248.865 785.778C236.979 780.715 225.405 773.919 214.463 765.582C205.501 758.692 197.211 750.871 189.822 742.338C168.446 717.689 153.588 683.278 145.663 640.059C142.489 622.752 140.346 603.094 138.923 578.194C136.164 530.967 133.369 497.223 129.86 468.785C122.88 412.225 113.617 376.046 98.8896 347.813C89.0295 328.912 76.5997 312.738 61.9441 299.739C51.7755 290.721 39.3646 284.026 21.7002 278.041C18.0764 276.821 14.3147 275.67 10.5169 274.621C6.92303 273.642 3.21457 272.75 -0.711528 271.804C-15.2092 268.313 -31.6423 264.356 -47.4351 254.474C-55.7596 249.266 -63.8801 243.267 -71.7336 237.467C-80.6592 230.876 -89.8877 224.059 -99.1999 218.595C-108.537 213.118 -118.11 209.499 -127.648 207.847C-161.763 201.931 -196.889 211.595 -221.609 233.696L-221.711 233.26C-215.29 227.517 -208.149 222.551 -200.487 218.5C-193.09 214.587 -185.173 211.508 -176.951 209.343C-160.979 205.137 -143.844 204.418 -127.403 207.27C-117.84 208.93 -108.245 212.554 -98.8861 218.044C-89.5656 223.513 -80.3316 230.332 -71.4032 236.929C-63.5525 242.727 -55.4361 248.723 -47.1185 253.928C-31.3533 263.792 -14.938 267.745 -0.456928 271.233C3.47194 272.177 7.18175 273.073 10.7784 274.051C14.5803 275.102 18.3448 276.255 21.9727 277.473C39.6633 283.47 52.0962 290.174 62.2854 299.213C76.9617 312.231 89.4093 328.427 99.2832 347.356C114.031 375.626 123.304 411.843 130.291 468.452C133.801 496.901 136.598 530.655 139.356 577.895C140.78 602.775 142.919 622.412 146.09 639.7C154.005 682.859 168.84 717.222 190.184 741.833C197.564 750.355 205.845 758.164 214.794 765.047C225.723 773.374 237.282 780.161 249.153 785.219C268.401 793.416 289.995 800.437 317.456 796.327C331.375 794.243 345.803 788.657 361.562 779.253C388.836 762.975 415.862 738.302 441.997 714.44C456.391 701.3 469.987 688.887 482.94 678.518C486.333 675.801 489.8 673 493.153 670.289C506.723 659.32 520.753 647.98 534.812 638.324C550.425 627.545 564.64 620.07 577.063 616.103C591.615 611.456 603.354 611.796 611.953 617.1C617.199 620.339 621.681 625.078 625.655 631.584C635.896 648.356 639.833 674.962 643.638 700.694C643.812 701.873 643.986 703.051 644.161 704.223C647.832 728.939 649.295 756.429 648.507 785.927C646.946 846.961 635.787 919.281 615.341 1000.88L614.932 1000.95Z" fill="#A1A1A1"/>
<path d="M255.859 789.38C255.086 788.945 254.326 788.514 253.581 788.084C242.497 781.733 231.679 773.604 221.433 763.921C213.108 755.984 205.449 747.185 198.666 737.774C188.968 724.339 180.714 708.231 174.129 689.896C167.77 672.19 162.772 651.862 159.274 629.471C155.846 607.533 154.185 584.304 153.122 566.518C150.586 524.985 146.19 488.988 140.059 459.527C130.128 411.811 116.207 378.293 96.248 354.044C84.2069 339.415 69.4579 326.971 53.5533 318.015C53.3068 317.876 53.0617 317.738 52.8139 317.602C39.1037 309.992 23.5821 307.214 8.8528 305.349C5.01407 304.872 1.00157 304.453 -3.07583 304.107C-5.31503 303.926 -7.57082 303.768 -9.95752 303.601C-26.7967 302.433 -45.882 301.106 -63.845 290.218C-74.7841 283.586 -85.0046 275.121 -94.888 266.933C-101.269 261.645 -107.868 256.18 -114.423 251.431C-123.436 244.904 -132.5 240.265 -141.37 237.648C-173.304 228.215 -206.715 232.374 -230.745 248.774L-230.776 248.224C-218.451 239.813 -204.101 234.602 -188.125 232.733C-172.868 230.951 -156.596 232.43 -141.072 237.016C-132.181 239.643 -123.09 244.29 -114.059 250.834C-107.496 255.587 -100.895 261.057 -94.5107 266.346C-84.6342 274.53 -74.4206 282.992 -63.4952 289.613C-45.5791 300.474 -26.5255 301.797 -9.71521 302.965C-7.32576 303.13 -5.06995 303.288 -2.82937 303.469C1.25078 303.817 5.2674 304.235 9.10889 304.714C23.863 306.583 39.4108 309.366 53.1554 316.992C69.3701 325.99 84.4095 338.611 96.6556 353.491C106.956 366.008 115.499 380.704 122.77 398.419C129.772 415.482 135.583 435.337 140.531 459.12C146.668 488.604 151.066 524.628 153.603 566.188C154.664 583.963 156.323 607.175 159.749 629.088C166.847 674.523 180.081 710.908 199.082 737.236C205.855 746.635 213.505 755.421 221.817 763.349C232.051 773.018 242.852 781.137 253.923 787.478C271.245 797.4 292.032 807.728 319.701 804.666C333.706 803.116 348.231 797.497 364.107 787.49C391.987 769.914 419.297 742.584 445.712 716.153C459.299 702.558 472.132 689.716 484.183 679.13C488.044 675.739 491.991 672.228 495.807 668.831C508.703 657.356 522.035 645.493 535.508 635.175C550.965 623.279 565.245 614.611 577.948 609.412C592.678 603.384 604.877 602.24 614.207 606.013C619.966 608.341 625.015 612.118 629.641 617.562C642.012 632.115 648.065 657.565 653.666 684.574C658.549 708.124 660.93 735.965 660.55 765.091C660.167 797.372 656.564 833.465 649.838 872.367C643.845 907.025 635.351 944.107 624.592 982.584L624.139 982.651C647.245 900.021 659.333 826.921 660.062 765.382C660.442 736.298 658.066 708.498 653.188 684.987C647.597 658.025 641.556 632.625 629.232 618.124C624.631 612.71 619.61 608.955 613.886 606.64C596.74 599.712 568.928 610.03 535.572 635.702C522.123 646.002 508.803 657.855 495.92 669.318C492.102 672.717 488.152 676.23 484.291 679.621C472.262 690.187 459.438 703.018 445.865 716.602C432.905 729.57 419.503 742.981 405.793 755.407C390.25 769.495 376.618 780.174 364.115 788.057C348.17 798.109 333.58 803.753 319.509 805.311C307.099 806.685 295.24 805.534 283.252 801.798C273.106 798.623 263.805 793.854 255.859 789.38Z" fill="#A1A1A1"/>
<path d="M277.248 803.043C270.228 799.09 263.905 794.546 258.297 790.393C247.987 782.757 237.928 773.293 228.403 762.263C220.719 753.283 213.688 743.51 207.509 733.21C190.572 705.037 179.247 667.638 172.884 618.883C170.108 597.622 168.614 575.587 167.322 554.842C164.723 513.975 158.984 478.794 150.263 450.27C137.437 408.32 119.438 379.723 93.6182 360.275C78.9067 349.193 61.6438 340.614 43.6954 335.461C28.6728 331.148 11.9036 331.71 -3.9857 332.652C-7.96631 332.897 -12.2309 333.212 -16.6583 333.587C-17.7665 333.684 -18.8872 333.787 -20.0216 333.889C-38.6672 335.587 -59.7649 337.509 -79.2685 326.526C-79.5976 326.341 -79.9238 326.154 -80.2515 325.96C-93.3125 318.291 -104.893 307.347 -116.092 296.759C-120.532 292.561 -125.125 288.222 -129.644 284.258C-138.472 276.518 -146.793 271.014 -155.088 267.437C-185.256 254.426 -216.165 253.113 -239.89 263.841L-239.817 263.174C-228.089 257.871 -214.071 255.426 -199.283 256.103C-184.738 256.768 -169.333 260.45 -154.731 266.748C-146.413 270.336 -138.07 275.852 -129.222 283.609C-124.698 287.576 -120.105 291.918 -115.663 296.115C-104.473 306.691 -92.9034 317.626 -79.8671 325.28C-60.1621 336.855 -38.7183 334.899 -19.8026 333.175C-18.6695 333.072 -17.5475 332.97 -16.4379 332.871C-12.0064 332.494 -7.74037 332.18 -3.75702 331.937C12.1598 330.991 28.958 330.432 44.022 334.756C61.9979 339.918 79.2897 348.51 94.0259 359.609C106.822 369.246 117.557 381.034 126.847 395.644C136.415 410.691 144.243 428.393 150.776 449.767C159.507 478.328 165.254 513.553 167.858 554.461C169.148 575.199 170.641 597.221 173.416 618.461C179.77 667.15 191.078 704.494 207.987 732.623C214.158 742.905 221.179 752.666 228.852 761.633C238.364 772.649 248.407 782.101 258.704 789.723C276.029 802.551 295.183 814.915 321.958 812.992C336.047 811.978 350.67 806.326 366.661 795.711C395.147 776.805 423.957 745.359 449.378 717.615C462.167 703.655 474.248 690.47 485.434 679.73C489.469 675.854 493.602 671.828 497.599 667.934C510.103 655.75 523.032 643.153 536.214 632.01C551.528 619.006 565.872 609.146 578.846 602.702C593.748 595.302 606.408 592.679 616.47 594.907C622.761 596.299 628.376 599.118 633.638 603.517C648.338 615.814 656.526 640.287 663.184 664.903C669.333 687.633 672.59 715.065 672.607 744.237C672.666 776.614 669 813.054 661.711 852.538C655.193 887.848 645.823 925.438 633.859 964.272L633.369 964.316C658.801 881.772 672.184 805.783 672.073 744.564C672.057 715.448 668.805 688.066 662.669 665.383C656.027 640.824 647.861 616.412 633.224 604.166C627.993 599.792 622.412 596.992 616.163 595.607C597.583 591.493 569.23 604.615 536.324 632.558C523.169 643.676 510.254 656.262 497.762 668.433C493.764 672.329 489.631 676.356 485.591 680.235C474.431 690.951 462.362 704.124 449.585 718.068C424.125 745.854 395.267 777.351 366.687 796.321C350.608 806.993 335.904 812.676 321.735 813.697C309.44 814.58 297.844 812.572 286.288 807.548C283.155 806.204 280.144 804.674 277.248 803.043Z" fill="#A1A1A1"/>
<path d="M289.611 813.505C289.51 813.449 289.411 813.393 289.311 813.336C279.414 807.706 270.893 800.055 263.012 792.7C253.448 783.777 244.151 772.976 235.374 760.603C228.331 750.587 221.932 739.833 216.354 728.647C201.552 699.01 192.064 660.771 186.496 608.298C184.489 589.404 183.218 569.561 181.986 550.373C181.833 547.972 181.677 545.572 181.522 543.172C178.818 502.256 171.735 467.886 160.469 441.021C145.042 404.235 122.317 379.861 90.9939 366.508C73.8184 359.187 54.3116 354.629 34.5826 353.324C19.0152 352.296 2.78413 355.571 -16.8186 359.958C-20.7976 360.857 -25.062 361.845 -30.2379 363.069L-30.5274 363.139C-40.5359 365.542 -51.879 368.264 -63.1948 368.819C-76.1907 369.456 -87.1361 367.122 -96.6621 361.712C-111.509 353.264 -123.918 339.771 -135.915 326.719C-138.854 323.521 -141.895 320.214 -144.872 317.096C-153.412 308.158 -161.243 301.662 -168.815 297.24C-196.697 280.957 -225.944 274.28 -249.053 278.917L-248.859 278.153C-237.538 275.881 -224.255 276.343 -210.444 279.489C-196.608 282.64 -182.068 288.526 -168.398 296.508C-160.804 300.942 -152.952 307.453 -144.394 316.411C-141.414 319.531 -138.373 322.838 -135.432 326.037C-123.449 339.071 -111.057 352.549 -96.2459 360.976C-96.1798 361.014 -96.1124 361.052 -96.0463 361.089C-74.8066 373.049 -50.1639 367.135 -30.3497 362.379L-30.0588 362.31C-24.8802 361.084 -20.6157 360.096 -16.6353 359.197C3.00051 354.803 19.2605 351.522 34.8762 352.555C54.6396 353.859 74.178 358.426 91.3824 365.76C106.71 372.296 119.639 381.174 130.91 392.907C143.055 405.551 152.903 421.099 161.013 440.441C172.301 467.357 179.397 501.783 182.105 542.767C182.261 545.166 182.415 547.569 182.568 549.97C183.799 569.151 185.07 588.988 187.074 607.867C192.634 660.273 202.107 698.46 216.884 728.046C222.454 739.219 228.845 749.954 235.876 759.958C244.642 772.315 253.926 783.099 263.475 792.007C280.576 807.968 298.09 822.222 324.203 821.352C338.374 820.879 353.093 815.195 369.201 803.97C398.299 783.694 427.35 749.253 452.985 718.865C464.985 704.639 476.321 691.199 486.67 680.369C490.652 676.202 494.732 671.871 498.679 667.68C511.017 654.579 523.775 641.034 536.907 628.884C552.095 614.771 566.504 603.715 579.732 596.023C594.809 587.258 607.926 583.158 618.716 583.84C625.406 584.263 631.471 586.049 637.24 589.297C637.365 589.368 637.49 589.438 637.616 589.512C655.456 599.778 665.729 624.7 672.688 645.266C680.099 667.177 684.237 694.2 684.652 723.414C685.153 755.892 681.426 792.676 673.571 832.747C666.522 868.705 656.275 906.807 643.108 945.998L642.583 946.016C662.173 887.703 685.269 801.813 684.065 723.786C683.653 694.637 679.525 667.678 672.132 645.82C665.195 625.311 654.954 600.462 637.199 590.248C631.356 586.877 625.214 585.041 618.424 584.613C598.431 583.351 569.536 599.275 537.059 629.451C523.957 641.573 511.213 655.103 498.888 668.19C494.941 672.383 490.858 676.716 486.874 680.885C476.552 691.688 465.23 705.109 453.243 719.321C427.563 749.764 398.456 784.271 369.245 804.625C353.03 815.925 338.211 821.648 323.945 822.122C311.855 822.523 300.618 819.704 289.611 813.505Z" fill="#A1A1A1"/>
<path d="M298.682 823.168C296.546 821.964 294.431 820.612 292.334 819.107C283.151 812.524 275.453 803.949 267.724 795.005C258.764 784.636 250.46 772.84 242.34 758.942C235.943 747.895 230.175 736.168 225.196 724.08C212.551 693.444 204.813 654.469 200.106 597.711C198.937 583.616 198.05 569.024 197.194 554.911C196.726 547.23 196.246 539.286 195.722 531.498C192.899 490.249 184.472 456.698 170.677 431.771C152.451 398.836 125.531 379.525 88.3763 372.735C68.7465 369.148 46.9958 368.609 25.4779 371.177C8.19192 373.24 -9.55555 379.813 -28.3456 386.772L-29.6447 387.253C-32.5836 388.347 -35.5583 389.459 -38.5688 390.584C-40.3037 391.234 -42.0497 391.887 -43.8108 392.544C-54.8146 396.686 -66.5366 400.87 -78.2403 402.581C-91.8285 404.566 -103.22 402.892 -113.07 397.462C-129.465 388.417 -142.299 372.285 -154.705 356.677C-156.474 354.449 -158.307 352.146 -160.098 349.931C-168.49 339.546 -175.622 332.274 -182.542 327.039C-208.079 307.72 -235.66 295.669 -258.215 293.976L-257.895 293.141C-235.281 294.838 -207.641 306.91 -182.059 326.263C-175.12 331.512 -167.971 338.804 -159.562 349.208C-157.771 351.426 -155.938 353.729 -154.167 355.958C-141.913 371.373 -129.244 387.306 -113.145 396.372C-112.972 396.469 -112.798 396.567 -112.622 396.663C-91.6944 408.202 -68.0706 400.918 -43.6839 391.743C-41.9228 391.085 -40.1769 390.432 -38.442 389.782C-35.43 388.655 -32.4581 387.544 -29.5165 386.449L-28.2174 385.968C-9.3956 378.997 8.38221 372.412 25.7247 370.342C47.2826 367.768 69.0705 368.308 88.7348 371.902C125.983 378.709 152.974 398.073 171.25 431.098C185.078 456.088 193.526 489.716 196.356 531.056C196.878 538.846 197.361 546.789 197.827 554.473C198.682 568.581 199.569 583.17 200.738 597.255C205.439 653.948 213.165 692.868 225.787 723.453C230.76 735.521 236.519 747.233 242.908 758.262C251.016 772.141 259.306 783.92 268.254 794.272C281.836 809.988 298.737 829.549 326.459 829.689C340.71 829.763 355.525 824.044 371.749 812.206C401.468 790.524 430.734 752.97 456.554 719.841C467.77 705.448 478.365 691.853 487.91 680.994C491.629 676.763 495.444 672.369 499.132 668.118C511.505 653.862 524.299 639.121 537.603 625.742C552.685 610.515 567.159 598.264 580.621 589.327C595.877 579.2 609.449 573.626 620.963 572.759C628.352 572.202 635.101 573.095 641.596 575.488C650.295 578.692 658.008 584.847 665.183 594.293C671.252 602.29 676.818 612.532 682.198 625.609C690.875 646.699 695.889 673.314 696.701 702.574C697.647 735.151 693.856 772.283 685.435 812.937C677.853 849.546 666.727 888.159 652.364 927.708L651.807 927.692C682.13 844.196 697.849 764.394 696.066 702.986C695.257 673.805 690.256 647.266 681.604 626.238C670.012 598.064 657.172 582.196 641.188 576.306C634.737 573.928 628.035 573.042 620.698 573.593C593.307 575.654 560.501 603.404 537.806 626.319C524.535 639.665 511.756 654.388 499.399 668.627C495.707 672.88 491.892 677.276 488.171 681.51C478.655 692.336 468.072 705.915 456.87 720.29C430.994 753.492 401.667 791.124 371.813 812.905C355.46 824.836 340.527 830.6 326.161 830.527C316.424 830.477 307.371 828.06 298.682 823.168Z" fill="#A1A1A1"/>
<path d="M306.001 832.509C291.441 824.31 281.2 809.757 272.438 797.308C264.194 785.596 256.629 772.502 249.309 757.279C243.557 745.212 238.419 732.507 234.039 719.514C220.893 680.596 216.502 632.886 213.717 587.125C213.148 577.782 212.653 568.203 212.175 558.941C211.511 546.078 210.824 532.779 209.924 519.828C206.972 478.116 197.204 445.377 180.893 422.523C159.791 392.961 128.675 378.709 85.7665 378.956C63.6741 379.082 39.6808 382.565 16.3795 389.027C-1.59114 394.01 -19.4849 403 -38.4284 412.518C-39.7705 413.191 -41.1168 413.869 -42.4673 414.544L-43.2011 414.914C-47.8084 417.231 -52.5715 419.626 -57.3787 422.016C-68.9202 427.782 -81.2788 433.509 -93.4435 436.351C-107.565 439.649 -119.35 438.623 -129.477 433.212C-147.254 423.716 -160.191 404.838 -172.702 386.582C-173.579 385.302 -174.451 384.028 -175.323 382.764C-183.59 370.756 -190.05 362.759 -196.266 356.833C-219.369 334.814 -245.286 317.387 -267.373 309.021L-266.932 308.141C-244.808 316.519 -218.852 333.97 -195.719 356.019C-189.485 361.961 -183.011 369.976 -174.729 382.006C-173.857 383.269 -172.985 384.543 -172.108 385.826C-159.621 404.047 -146.705 422.883 -129 432.349C-107.008 444.099 -80.4657 432.745 -57.3138 421.179C-52.5066 418.79 -47.7435 416.395 -43.1376 414.08L-42.4038 413.71C-41.052 413.032 -39.707 412.357 -38.3649 411.684C-19.3883 402.149 -1.46419 393.143 16.5671 388.143C39.9112 381.669 63.9486 378.182 86.0796 378.055C106.422 377.94 123.738 381.01 139.018 387.441C156.061 394.616 170.347 406.163 181.481 421.762C197.845 444.687 207.643 477.52 210.604 519.348C211.506 532.306 212.193 545.608 212.856 558.474C213.334 567.736 213.829 577.312 214.398 586.651C217.181 632.363 221.564 680.019 234.686 718.867C239.061 731.84 244.191 744.527 249.935 756.577C257.243 771.778 264.796 784.852 273.028 796.547C285.666 814.503 301.395 836.852 328.706 838.034C343.038 838.654 357.948 832.902 374.289 820.451C404.643 797.319 434.089 756.542 460.07 720.564C470.509 706.108 480.368 692.455 489.143 681.625C492.389 677.619 495.721 673.467 498.943 669.451C511.548 653.745 524.585 637.501 538.291 622.606C553.284 606.255 567.825 592.803 581.505 582.627C596.94 571.143 610.969 564.096 623.202 561.681C631.146 560.113 638.46 560.044 645.567 561.469C655.141 563.39 664.067 568.533 672.1 576.756C679.134 583.957 685.728 593.779 691.699 605.953C701.639 626.222 707.534 652.427 708.745 681.734C710.135 714.412 706.284 751.889 697.296 793.129C689.177 830.386 677.172 869.513 661.614 909.421L661.028 909.369C693.995 824.808 710.7 744.128 708.064 682.191C706.855 652.979 700.981 626.86 691.075 606.659C678.233 580.475 663.22 565.983 645.177 562.365C638.122 560.95 630.859 561.019 622.973 562.574C593.868 568.32 560.999 598.706 538.549 623.188C524.877 638.045 511.859 654.265 499.27 669.952C496.048 673.968 492.713 678.121 489.465 682.132C480.719 692.927 470.872 706.562 460.447 720.999C447.947 738.308 433.782 757.925 419.284 775.631C402.672 795.918 387.983 810.819 374.377 821.189C366.509 827.185 358.797 831.715 351.453 834.655C343.555 837.817 335.789 839.258 328.372 838.936C319.885 838.571 312.51 836.174 306.001 832.509Z" fill="#A1A1A1"/>
<path d="M312.151 841.696C307.338 838.986 302.764 835.311 298.376 830.645C289.734 821.454 283.046 809.843 277.142 799.601C269.702 786.691 262.679 771.887 256.27 755.604C251.165 742.53 246.656 728.848 242.875 714.935C232.003 675.03 229.399 628.643 227.32 576.527C227.135 571.896 226.956 567.177 226.785 562.612C226.106 544.641 225.405 526.06 224.115 508.149C221.031 465.893 209.922 433.971 191.097 413.268C167.353 387.153 131.033 377.696 83.1484 385.165C58.577 388.998 32.341 396.499 7.27559 406.861C-11.5973 414.663 -29.9363 426.064 -49.3529 438.135C-51.3259 439.362 -53.3058 440.592 -55.2953 441.826C-60.2499 444.902 -65.5769 448.198 -70.9521 451.474C-82.2434 458.378 -95.555 465.993 -108.652 470.108C-123.315 474.715 -135.497 474.339 -145.891 468.955C-164.921 459.102 -177.712 437.386 -190.082 416.386L-190.553 415.587C-196.611 405.307 -203.159 394.68 -209.996 386.617C-230.835 362.041 -254.464 339.82 -276.528 324.049L-275.98 323.148C-253.892 338.936 -230.241 361.176 -209.384 385.775C-202.528 393.862 -195.968 404.506 -189.9 414.801L-189.429 415.6C-177.085 436.553 -164.317 458.22 -145.381 468.026C-123.512 479.351 -96.683 466.351 -70.9478 450.613C-65.574 447.34 -60.2497 444.042 -55.2965 440.968C-53.3084 439.737 -51.3271 438.505 -49.3555 437.28C-29.9058 425.188 -11.5336 413.767 7.4013 405.939C32.515 395.556 58.8006 388.041 83.4175 384.201C105.882 380.699 125.953 380.87 143.065 384.711C162.618 389.102 178.984 398.421 191.707 412.412C210.603 433.194 221.754 465.23 224.848 507.63C226.138 525.557 226.841 544.146 227.519 562.126C227.692 566.689 227.871 571.408 228.056 576.039C230.132 628.105 232.734 674.442 243.584 714.277C247.362 728.168 251.863 741.831 256.96 754.887C263.361 771.145 270.372 785.926 277.801 798.818C289.445 819.028 303.938 844.176 330.956 846.374C345.367 847.546 360.37 841.763 376.827 828.691C407.833 804.063 438.72 758.019 463.54 721.021C473.207 706.609 482.337 692.998 490.372 682.259C492.904 678.873 495.504 675.379 498.018 672C511.079 654.441 524.587 636.284 538.977 619.474C561.325 593.289 594.465 560.087 625.433 550.61C633.983 547.994 641.867 546.962 649.531 547.455C669.647 548.638 687.029 561.709 701.197 586.299C712.401 605.747 719.176 631.541 720.787 660.896C722.622 693.672 718.709 731.496 709.153 773.325C704.77 792.51 699.19 812.496 692.57 832.728C686.247 852.052 678.942 871.704 670.859 891.137L670.246 891.044C705.866 805.416 723.556 723.858 720.057 661.394C718.451 632.149 711.703 606.453 700.543 587.078C686.442 562.6 669.156 549.594 649.167 548.418C641.559 547.927 633.736 548.951 625.249 551.548C594.495 560.957 561.532 593.994 539.294 620.05C524.94 636.816 511.453 654.949 498.408 672.484C495.893 675.864 493.293 679.36 490.758 682.748C482.751 693.451 473.632 707.043 463.98 721.434C451.491 740.051 437.336 761.152 422.656 780.325C405.788 802.355 390.834 818.43 376.94 829.466C369.014 835.761 361.244 840.46 353.848 843.429C345.881 846.629 338.052 847.945 330.583 847.335C324.026 846.805 317.914 844.941 312.151 841.696Z" fill="#A1A1A1"/>
<path d="M317.496 850.757C311.727 847.509 306.394 842.75 301.401 836.417C293.309 826.159 287.224 813.27 281.855 801.898C275.096 787.582 268.832 771.446 263.239 753.935C258.778 739.863 254.902 725.204 251.718 710.363C242.948 669.545 242.039 622.791 241.074 573.295C241.027 570.846 240.98 568.394 240.931 565.941C240.471 542.942 239.998 519.16 238.315 496.481C235.095 453.635 222.646 422.527 201.315 404.021C174.522 380.775 133.887 376.524 80.5407 391.378C53.8571 398.808 24.6076 410.642 -1.81919 424.7C-21.7735 435.315 -40.7964 449.189 -60.9371 463.879C-63.3217 465.618 -65.7132 467.363 -68.1157 469.108C-72.9194 472.603 -78.6241 476.741 -84.5206 480.939C-95.4566 488.741 -109.81 498.399 -123.839 503.844C-139.037 509.745 -151.619 510.029 -162.302 504.709C-171.052 500.283 -179.149 492.629 -187.055 481.306C-193.843 471.585 -199.552 460.66 -205.784 448.42C-211.431 437.172 -217.469 425.439 -223.729 416.41C-242.271 389.664 -263.116 363.648 -285.68 339.081L-285.038 338.172C-262.459 362.751 -241.604 388.785 -223.051 415.543C-216.774 424.598 -210.728 436.348 -205.073 447.608C-194.629 468.128 -181.633 493.672 -161.764 503.719C-138.97 515.067 -111.2 499.058 -84.5865 480.067C-78.6943 475.873 -72.9923 471.737 -68.1913 468.244C-65.7888 466.499 -63.3973 464.755 -61.0155 463.017C-40.8417 448.303 -21.7856 434.405 -1.76652 423.757C24.7141 409.671 54.0201 397.813 80.7548 390.37C134.263 375.471 175.031 379.749 201.927 403.082C212.239 412.029 220.57 424.012 226.685 438.696C233.247 454.45 237.42 473.709 239.092 495.932C240.778 518.636 241.252 542.432 241.71 565.445C241.758 567.901 241.807 570.351 241.855 572.8C242.817 622.252 243.727 668.963 252.48 709.702C255.659 724.521 259.529 739.16 263.985 753.21C269.571 770.695 275.824 786.808 282.573 801.102C293.181 823.568 306.383 851.527 333.204 854.726C347.732 856.459 362.832 850.643 379.362 836.945C411.044 810.846 442.039 761.175 466.943 721.266C475.851 706.993 484.264 693.511 491.597 682.908C493.11 680.72 494.63 678.52 496.157 676.307C509.951 656.326 524.216 635.662 539.66 616.354C561.835 588.561 595.102 552.676 627.661 539.552C636.745 535.89 645.194 533.896 653.494 533.454C665.058 532.79 675.968 535.561 685.923 541.684C695.011 547.274 703.345 555.676 710.693 566.653C723.162 585.273 730.816 610.658 732.828 640.061C735.111 672.934 731.134 711.11 721.01 753.524C716.365 772.986 710.425 793.244 703.354 813.736C696.582 833.361 688.76 853.255 680.102 872.862L679.465 872.724C717.194 787.284 736.36 702.68 732.051 640.606C730.046 611.33 722.426 586.052 710.012 567.508C694.707 544.642 675.048 533.222 653.159 534.478C644.922 534.917 636.538 536.896 627.525 540.529C595.19 553.563 562.1 589.267 540.035 616.921C524.633 636.178 510.388 656.812 496.612 676.768C495.085 678.98 493.564 681.182 492.051 683.37C484.744 693.934 476.342 707.399 467.448 721.651C442.472 761.675 411.388 811.489 379.502 837.755C371.534 844.357 363.707 849.231 356.243 852.236C348.212 855.468 340.321 856.651 332.79 855.754C327.356 855.1 322.276 853.449 317.496 850.757Z" fill="#A1A1A1"/>
<path d="M322.255 859.734C315.683 856.033 309.786 850.216 304.424 842.185C296.838 830.821 291.38 816.672 286.565 804.191C280.479 788.418 274.976 770.945 270.204 752.263C266.384 737.21 263.14 721.572 260.557 705.788C254.192 666.93 254.338 623.799 254.492 578.135C254.518 570.67 254.543 562.952 254.539 555.347C254.518 528.624 254.164 506.4 252.511 484.808C249.153 441.34 235.366 411.047 211.532 394.767C181.583 374.31 136.633 375.257 77.9308 397.58C48.7681 408.671 17.2152 424.631 -10.9164 442.525C-32.1092 456.006 -52.0105 472.464 -73.0795 489.888C-75.6895 492.047 -78.3091 494.213 -80.9371 496.377C-85.6228 500.242 -91.8089 505.328 -98.0859 510.386C-124.538 531.734 -154.806 552.005 -178.712 540.451C-179.455 540.087 -180.189 539.7 -180.911 539.294C-198.941 529.141 -210.183 506.05 -221.014 481.237L-221.686 479.681C-227.016 467.328 -232.051 455.661 -237.459 446.187C-257.837 410.485 -278.82 378.219 -294.825 354.098L-294.098 353.185C-278.091 377.313 -257.101 409.586 -236.716 445.303C-231.293 454.801 -226.253 466.483 -220.916 478.851L-220.245 480.406C-209.017 506.127 -197.351 530.001 -178.146 539.399C-154.505 550.823 -124.48 530.703 -98.2249 509.515C-91.9521 504.462 -85.7715 499.379 -81.0871 495.517C-78.4578 493.35 -75.8409 491.185 -73.2309 489.027C-52.1288 471.576 -32.1958 455.09 -10.9353 441.567C17.2542 423.635 48.8705 407.642 78.0911 396.528C105.211 386.214 129.797 380.414 151.168 379.283C175.688 377.985 196.204 382.851 212.147 393.739C236.105 410.102 249.963 440.545 253.337 484.216C254.992 505.841 255.345 528.087 255.368 554.834C255.374 562.439 255.347 570.16 255.323 577.626C255.168 623.245 255.022 666.334 261.377 705.115C263.955 720.879 267.194 736.492 271.008 751.523C275.772 770.181 281.268 787.627 287.345 803.376C296.883 828.101 308.755 858.871 335.455 863.063C350.05 865.354 365.242 859.506 381.898 845.185C414.274 817.474 445.352 764.074 470.325 721.166C478.473 707.167 486.17 693.942 492.826 683.542L492.978 683.304C507.884 660.017 523.298 635.938 540.346 613.216C555.195 593.386 569.926 576.335 584.131 562.532C600.147 546.97 615.543 535.513 629.892 528.475C639.493 523.766 648.51 520.808 657.457 519.433C681.673 515.643 703.367 525.168 720.193 546.986C726.965 555.767 732.522 566.421 736.714 578.651C740.93 590.953 743.674 604.602 744.874 619.215C747.604 652.188 743.566 690.712 732.87 733.716C723.257 772.37 708.208 814.164 689.349 854.577L688.691 854.39C729.054 767.895 749.231 682.393 744.048 619.808C741.644 590.507 733.15 565.649 719.484 547.933C702.753 526.239 681.201 516.764 657.153 520.53C648.275 521.895 639.331 524.83 629.805 529.5C603.013 542.641 572.229 571.785 540.78 613.781C523.777 636.444 508.385 660.49 493.499 683.743L493.347 683.981C486.715 694.342 479.029 707.548 470.892 721.528C445.842 764.566 414.67 818.127 382.066 846.033C374.036 852.939 366.151 857.98 358.634 861.017C350.529 864.292 342.577 865.347 334.995 864.16C330.482 863.448 326.244 861.98 322.255 859.734Z" fill="#A1A1A1"/>
<path d="M-197.568 574.936C-205.631 570.396 -212.833 562.65 -219.521 551.35C-226.165 540.122 -231.483 526.792 -236.243 514.062C-237.1 511.748 -237.946 509.445 -238.787 507.157C-242.971 495.769 -246.924 485.013 -251.186 475.967C-268.183 439.908 -285.001 406.631 -301.268 374.453L-303.962 369.12L-303.162 368.209L-300.468 373.542C-284.202 405.726 -267.381 439.005 -250.381 475.072C-246.107 484.141 -242.148 494.91 -237.96 506.313C-237.121 508.6 -236.274 510.904 -235.417 513.214C-225.647 539.347 -214.444 565.65 -194.526 575.084C-169.993 586.596 -137.459 561.829 -111.86 538.968C-105.309 533.124 -98.8625 527.253 -93.9785 522.792C-91.2853 520.335 -88.6004 517.875 -85.9223 515.422C-63.718 495.087 -42.7451 475.878 -20.0998 459.384C9.78899 437.616 43.7156 417.482 75.4304 402.695C104.854 388.977 131.71 380.169 155.253 376.52C182.257 372.334 204.838 374.986 222.368 384.401C248.843 398.397 264.058 428.043 267.586 472.505C269.529 497.173 269.405 522.605 269.028 544.231C268.823 555.999 268.49 567.993 268.169 579.593C267.029 620.657 265.851 663.116 270.275 700.535C272.249 717.253 274.86 733.844 278.034 749.844C281.979 769.615 286.716 788.394 292.118 805.658C300.562 832.641 311.07 866.223 337.708 871.405C352.369 874.258 367.654 868.377 384.436 853.429C417.533 824.041 448.659 766.784 473.667 720.776C481.063 707.171 488.048 694.318 494.056 684.187C507.597 661.347 523.513 634.903 541.034 610.09C555.867 589.058 570.662 570.803 585.005 555.836C601.23 538.905 617.083 525.978 632.123 517.412C642.089 511.735 651.946 507.704 661.42 505.426C674.954 502.149 687.842 502.554 699.727 506.634C710.857 510.453 720.938 517.417 729.691 527.329C737.073 535.69 743.164 546.034 747.794 558.077C752.452 570.195 755.523 583.753 756.919 598.373C758.538 615.214 758.245 633.86 756.048 653.795C753.968 672.682 750.16 692.909 744.732 713.912C734.578 753.205 718.623 795.528 698.596 836.298L697.917 836.061C740.923 748.509 762.11 662.111 756.046 599.017C753.282 570.096 743.664 545 728.962 528.348C710.782 507.759 687.334 500.228 661.154 506.567C651.757 508.826 641.978 512.827 632.091 518.458C603.752 534.598 573.283 565.608 541.53 610.632C524.055 635.376 508.168 661.776 494.649 684.58C488.664 694.675 481.688 707.507 474.303 721.095C461.965 743.792 447.98 769.519 432.814 793.462C415.216 821.246 399.459 841.147 384.64 854.304C376.549 861.512 368.605 866.724 361.033 869.794C352.855 873.112 344.839 874.04 337.211 872.555C333.362 871.807 329.847 870.472 326.627 868.658C307.342 857.799 298.551 829.701 291.281 806.47C285.873 789.18 281.127 770.374 277.178 750.575C273.998 734.552 271.385 717.937 269.408 701.195C264.975 663.7 266.154 621.196 267.294 580.093C267.615 568.497 267.948 556.506 268.154 544.744C268.531 523.145 268.655 497.749 266.715 473.127C263.208 428.903 248.081 399.43 221.758 385.506C180.564 363.383 119.392 383.229 75.3265 403.775C43.6752 418.532 9.81888 438.622 -20.0078 460.347C-42.5855 476.793 -63.5267 495.97 -85.6964 516.274C-88.3745 518.727 -91.0608 521.185 -93.7554 523.646C-98.6421 528.108 -105.093 533.983 -111.65 539.834C-122.396 549.431 -138.502 563.14 -154.236 571.354C-161.877 575.343 -169.022 577.836 -175.474 578.766C-182.667 579.802 -189.278 578.938 -195.118 576.196C-195.947 575.81 -196.763 575.389 -197.568 574.936Z" fill="#A1A1A1"/>
<path d="M-214.225 610.574C-222.297 606.028 -229.359 598.077 -235.748 586.369C-242.364 574.249 -247.407 559.606 -251.465 546.879C-252.709 542.964 -253.929 539.018 -255.108 535.2C-258.407 524.531 -261.521 514.45 -264.908 505.746C-277.07 474.482 -289.332 443.741 -301.19 414.01C-305.113 404.176 -309.168 394.009 -313.092 384.141L-312.224 383.23C-308.3 393.097 -304.244 403.265 -300.322 413.099C-288.463 442.83 -276.2 473.575 -264.039 504.842C-260.643 513.57 -257.523 523.661 -254.222 534.344C-253.044 538.161 -251.823 542.105 -250.581 546.018C-242.161 572.407 -231.456 601.349 -210.902 610.766C-185.64 622.282 -151.987 594.184 -125.49 568.42C-118.7 561.821 -111.97 555.147 -106.866 550.069C-104.245 547.464 -101.632 544.858 -99.0236 542.258C-75.5708 518.874 -53.4199 496.788 -29.26 477.205C2.16244 451.735 38.3994 427.465 72.7726 408.866C120.545 383.137 187.049 356.39 232.588 375.071C261.6 386.861 278.17 415.704 281.834 460.802C283.477 481.072 283.74 503.533 282.687 533.638C282.155 548.851 281.335 564.467 280.543 579.566C278.482 618.851 276.349 659.472 279.17 695.969C280.535 713.653 282.515 731.219 285.057 748.178C288.141 768.701 292.123 788.812 296.887 807.955C304.272 837.243 313.46 873.697 339.955 879.763C354.439 883.165 370.256 877.083 386.968 861.691C420.821 830.556 453.274 766.705 476.968 720.084C483.618 707 489.898 694.642 495.279 684.85C507.237 663.088 523.32 634.571 541.715 606.981C573.578 559.164 604.745 525.311 634.349 506.368C644.752 499.679 655.192 494.657 665.377 491.438C679.873 486.846 693.744 486.078 706.605 489.158C718.721 492.061 729.682 498.295 739.184 507.688C747.17 515.671 753.787 525.715 758.854 537.539C763.969 549.481 767.369 562.94 768.963 577.545C770.808 594.423 770.611 613.188 768.372 633.319C766.252 652.397 762.287 672.853 756.589 694.124C745.889 734.057 729.031 776.906 707.837 818.037L707.141 817.746C752.801 729.137 774.999 641.839 768.042 578.24C764.895 549.391 754.381 524.724 738.436 508.787C718.699 489.281 693.359 483.694 665.152 492.63C655.05 495.821 644.695 500.804 634.374 507.439C604.966 526.257 573.981 559.922 542.277 607.505C523.931 635.019 507.881 663.48 495.946 685.2C490.585 694.958 484.312 707.3 477.67 720.366C465.422 744.465 451.538 771.781 436.223 797.458C418.388 827.356 402.355 848.663 387.205 862.597C379.041 870.117 371.038 875.506 363.415 878.612C355.151 881.982 347.076 882.777 339.414 880.978C327.496 878.248 318.031 869.341 310.476 853.746C303.91 840.189 299.701 823.5 295.989 808.778C291.216 789.608 287.231 769.468 284.14 748.917C281.595 731.933 279.611 714.343 278.244 696.634C275.417 660.063 277.551 619.397 279.614 580.072C280.408 564.977 281.225 549.369 281.757 534.169C282.807 504.117 282.544 481.698 280.905 461.476C277.267 416.638 260.805 387.972 231.978 376.257C186.634 357.659 120.343 384.33 72.7142 409.981C38.4099 428.542 2.24882 452.76 -29.1073 478.177C-53.1997 497.705 -75.3188 519.76 -98.7357 543.109C-101.345 545.711 -103.959 548.317 -106.579 550.922C-111.687 556.004 -118.423 562.685 -125.22 569.29C-151.952 595.284 -185.921 623.624 -211.53 611.949C-212.439 611.531 -213.339 611.072 -214.225 610.574Z" fill="#A1A1A1"/>
<path d="M-230.834 646.247C-252.89 633.827 -262.429 596.638 -270.885 563.669C-273.484 553.539 -275.938 543.969 -278.636 535.526L-322.226 399.166L-321.296 398.257L-277.706 534.617C-274.999 543.081 -272.542 552.662 -269.94 562.807C-261.158 597.05 -251.202 635.864 -227.284 646.454C-201.315 657.957 -166.529 626.536 -139.126 597.88C-130.164 588.508 -121.19 578.889 -112.51 569.587C-88.7723 544.149 -64.2269 517.843 -38.4252 495.025C-17.938 476.908 5.05894 458.758 28.0773 442.542C53.3296 424.75 78.2703 409.425 102.202 396.993C128.589 383.287 153.103 373.462 175.062 367.793C199.35 361.523 220.443 360.379 237.761 364.391C272.452 372.429 292.075 400.925 296.079 449.09C299.409 489.114 295.932 534.33 292.57 578.059C289.643 616.122 286.618 655.477 288.064 691.391C289.736 732.871 294.309 772.858 301.66 810.237C307.852 841.732 315.558 880.931 342.21 888.103C364.718 894.162 389.32 877.087 417.42 835.899C441.323 800.865 462.902 755.491 480.241 719.034C486.15 706.61 491.731 694.874 496.507 685.498C522.832 633.81 547.653 592.88 572.386 560.374C587.817 540.092 603.352 523.015 618.558 509.617C635.544 494.65 652.629 483.821 669.338 477.43C683.794 471.901 697.744 469.828 710.802 471.27C723.232 472.643 734.592 477.155 744.568 484.68C764.187 499.479 777.128 525.056 781.006 556.696C783.08 573.61 782.976 592.494 780.698 612.823C778.538 632.089 774.418 652.777 768.448 674.315C757.201 714.888 739.437 758.265 717.078 799.753L716.366 799.407C763.979 711.057 787.782 620.601 780.036 557.44C771.813 490.365 725.178 457.233 669.147 478.664C613.643 499.894 557.413 567.646 497.242 685.793C492.482 695.139 486.908 706.859 481.007 719.268C463.63 755.804 442.006 801.276 417.994 836.468C404.915 855.637 392.313 869.863 380.536 878.757C373.913 883.755 367.378 887.21 361.114 889.018C354.447 890.942 347.889 891.062 341.62 889.375C339.058 888.686 336.618 887.69 334.301 886.385C325.857 881.631 319.007 872.758 313.496 859.494C307.288 844.55 303.635 825.976 300.7 811.052C293.342 773.619 288.761 733.58 287.086 692.04C285.634 656.049 288.665 616.648 291.594 578.544C294.953 534.872 298.425 489.711 295.103 449.789C291.123 401.951 271.638 373.646 237.186 365.664C167.496 349.517 45.577 421.908 -38.2092 496C-63.9404 518.754 -88.4528 545.024 -112.159 570.429C-120.843 579.735 -129.822 589.36 -138.793 598.741C-156.986 617.765 -171.555 630.519 -184.641 638.873C-192.807 644.086 -200.424 647.532 -207.278 649.115C-214.898 650.874 -221.851 650.399 -227.945 647.702C-228.927 647.262 -229.892 646.777 -230.834 646.247Z" fill="#A1A1A1"/>
</g>
</svg>
