<svg width="229" height="30" viewBox="0 0 229 30" fill="none" xmlns="http://www.w3.org/2000/svg">
<path d="M215.243 12.2697C214.93 12.2986 214.613 12.3207 214.307 12.3604C214.107 12.3853 214.021 12.3274 213.887 12.2992C213.842 12.2893 213.794 12.2686 213.753 12.2723C213.443 12.3011 213.133 12.3326 212.823 12.3642C212.729 12.4194 212.67 12.4915 212.525 12.5206C212.383 12.5484 212.215 12.5522 212.057 12.568C211.848 12.5877 211.639 12.6075 211.43 12.6258C211.326 12.635 211.241 12.6628 211.207 12.7125C211.201 12.7208 211.271 12.7396 211.309 12.751C211.437 12.7889 211.562 12.8324 211.702 12.8605C211.836 12.8874 211.999 12.8347 212.143 12.8695C212.465 12.9479 212.468 12.9465 212.712 12.9246C212.921 12.9049 213.13 12.8838 213.339 12.8682C213.38 12.8645 213.428 12.8838 213.472 12.8937C213.606 12.9206 213.693 12.9867 213.889 12.9564C214.038 12.9326 214.202 12.9248 214.358 12.9103C214.488 12.9468 214.61 12.989 214.75 13.0171C214.881 13.044 214.919 13.0663 214.85 13.1073C214.788 13.1455 214.699 13.1625 214.582 13.1679C214.478 13.1716 214.373 13.1862 214.269 13.1954C214.215 13.2007 214.165 13.2046 214.114 13.2098C213.915 13.2293 213.915 13.2293 213.548 13.1505C213.405 13.1198 213.244 13.1711 213.107 13.1415C213.015 13.1218 212.935 13.091 212.845 13.0699C212.807 13.0613 212.747 13.0613 212.699 13.0651C212.541 13.0782 212.383 13.0886 212.231 13.1097C212.124 13.1244 212.061 13.1639 212.075 13.2017C212.078 13.2166 212.155 13.2367 212.199 13.237C212.301 13.2374 212.408 13.2159 212.506 13.2232C212.602 13.2306 212.701 13.2555 212.771 13.2839C212.915 13.3432 213.075 13.2838 213.212 13.297C213.355 13.3114 213.474 13.3632 213.611 13.3927C213.646 13.4001 213.712 13.385 213.766 13.3796C213.921 13.3666 214.076 13.3549 214.231 13.3419C214.362 13.3783 214.502 13.4105 214.621 13.4528C214.835 13.5295 215.064 13.5556 215.339 13.5099C215.493 13.4846 215.646 13.4893 215.771 13.5396C215.899 13.5911 216.044 13.5823 216.206 13.5678C216.354 13.5535 216.506 13.5201 216.659 13.5547C216.99 13.6316 216.994 13.6356 217.383 13.5941C217.5 13.5819 217.589 13.5772 217.678 13.6064C217.761 13.6331 217.85 13.6556 217.937 13.6808C218.092 13.6678 218.25 13.6547 218.405 13.6402C218.604 13.6207 218.716 13.6373 218.765 13.7123C218.795 13.7579 218.808 13.7998 218.879 13.8295C218.962 13.8657 219.051 13.8623 219.171 13.8487C219.285 13.8366 219.367 13.8198 219.413 13.7697C219.432 13.7489 219.47 13.729 219.504 13.7119C219.532 13.699 219.576 13.6789 219.602 13.6811C219.649 13.6854 219.713 13.699 219.729 13.7163C219.888 13.8773 219.888 13.8787 220.048 13.9227C220.224 13.9718 220.405 14.0152 220.565 14.0715C220.709 14.1213 220.851 14.0949 221.006 14.0914C221.124 14.0887 221.201 14.1224 221.192 14.158C221.186 14.1785 221.142 14.2094 221.104 14.213C220.794 14.2473 220.481 14.2775 220.168 14.3037C220.13 14.3073 220.082 14.2839 220.037 14.2726C219.948 14.2502 219.868 14.2139 219.772 14.2079C219.677 14.2019 219.567 14.2248 219.462 14.234C219.358 14.2432 219.247 14.2634 219.152 14.2547C219.057 14.246 218.98 14.2082 218.89 14.1844C218.849 14.1731 218.791 14.1567 218.756 14.1616C218.526 14.1995 218.354 14.1585 218.187 14.1024C218.152 14.091 218.092 14.0842 218.048 14.0879C217.68 14.1194 217.317 14.1549 216.949 14.1891C216.801 14.2033 216.679 14.1585 216.646 14.0789C216.629 14.0344 216.596 13.9903 216.595 13.9454C216.593 13.8638 216.418 13.8229 216.291 13.8353C216.082 13.8536 215.87 13.8693 215.665 13.8944C215.497 13.9145 215.354 13.9015 215.239 13.8551C215.104 13.8024 214.952 13.8167 214.801 13.8351C214.687 13.8486 214.656 13.8942 214.665 14.0069C214.674 14.0979 214.62 14.1277 214.415 14.1473C214.155 14.1723 213.892 14.1973 213.63 14.2183C213.589 14.2219 213.541 14.1999 213.499 14.1886C213.41 14.1661 213.33 14.1285 213.234 14.1225C213.139 14.1151 213.029 14.138 212.924 14.1486C212.82 14.1577 212.709 14.1793 212.614 14.1719C212.519 14.1646 212.438 14.1256 212.352 14.1017C212.311 14.0904 212.26 14.0739 212.218 14.0775C212.01 14.0932 211.801 14.1142 211.592 14.134C211.358 14.1556 211.358 14.1556 211.023 14.0788C210.87 14.0442 210.718 14.0776 210.57 14.0919C210.412 14.1064 210.263 14.1152 210.138 14.0636C210.055 14.0301 209.962 14.0104 209.864 14.0195C209.601 14.0418 209.342 14.0681 209.079 14.0904C209.035 14.0941 208.975 14.0887 208.939 14.0772C208.77 14.0239 208.604 13.9828 208.37 14.0167C208.168 14.0458 207.949 14.0521 207.747 14.0798C207.636 14.0946 207.587 14.1393 207.61 14.1728C207.623 14.1902 207.69 14.209 207.734 14.208C207.836 14.2071 207.946 14.1842 208.041 14.1902C208.238 14.202 208.339 14.314 208.595 14.2769C208.747 14.2544 208.905 14.244 209.064 14.235C209.105 14.2327 209.15 14.2575 209.194 14.2701C209.322 14.3039 209.434 14.349 209.617 14.3203C209.769 14.2978 209.931 14.2887 210.086 14.2743C210.332 14.251 210.332 14.2524 210.654 14.3281C210.808 14.3641 210.959 14.3293 211.108 14.3164C211.218 14.3071 211.323 14.2911 211.412 14.3081C211.549 14.3336 211.649 14.3966 211.817 14.3887C211.975 14.3811 212.13 14.3585 212.288 14.3481C212.386 14.3418 212.479 14.3614 212.559 14.3964C212.642 14.4312 212.731 14.4455 212.839 14.4349C212.994 14.4205 213.152 14.4033 213.31 14.3929C213.355 14.3905 213.406 14.4016 213.447 14.4116C213.536 14.434 213.623 14.4606 213.709 14.4845C213.864 14.4728 214.022 14.4665 214.174 14.4467C214.291 14.4318 214.374 14.4354 214.469 14.4604C214.591 14.4944 214.691 14.5575 214.886 14.5217C214.984 14.5045 215.098 14.506 215.196 14.4902C215.316 14.4698 215.399 14.4747 215.485 14.5135C215.649 14.5874 215.852 14.5841 216.06 14.5495C216.288 14.5116 216.46 14.5458 216.632 14.6018C216.814 14.6602 216.814 14.6589 216.957 14.8067C217 14.8493 217.117 14.867 217.215 14.8566C217.38 14.8393 217.523 14.8428 217.644 14.8918C217.772 14.9446 217.924 14.9344 218.079 14.9159C218.285 14.8908 218.491 14.8684 218.66 14.9435C218.744 14.9797 218.833 14.9872 218.943 14.9752C219.257 14.9435 219.573 14.9214 219.88 14.8845C220.067 14.8612 220.175 14.9023 220.303 14.9361C220.475 14.9825 220.663 15.0232 220.666 15.1306C220.666 15.1483 220.711 15.1677 220.749 15.1804C220.832 15.2071 220.922 15.2296 221.008 15.2548C221.136 15.2927 221.26 15.3239 221.434 15.2982C221.586 15.2771 221.747 15.268 221.902 15.2522C222.057 15.2364 222.2 15.2264 222.34 15.2749C222.503 15.3297 222.676 15.3816 222.861 15.4209C222.991 15.4492 223.161 15.3923 223.302 15.4313C223.388 15.4552 223.471 15.4832 223.563 15.5029C223.602 15.5116 223.662 15.5034 223.712 15.4995C223.817 15.4917 223.925 15.4852 224.026 15.4693C224.143 15.4517 224.231 15.4524 224.321 15.4816C224.404 15.5083 224.487 15.5459 224.583 15.5519C224.725 15.5609 224.883 15.5029 225.027 15.5622C225.1 15.5918 225.193 15.6196 225.288 15.627C225.384 15.6344 225.494 15.6114 225.596 15.6105C225.64 15.6095 225.694 15.63 225.72 15.6471C225.736 15.6563 225.715 15.6826 225.693 15.6967C225.665 15.7137 225.624 15.7364 225.583 15.7401C225.269 15.7717 224.956 15.7992 224.643 15.8295C224.456 15.8473 224.456 15.8473 224.077 15.7702C223.988 15.7518 223.89 15.7581 223.779 15.7702C223.63 15.7858 223.479 15.8124 223.323 15.7914C223.118 15.7036 222.867 15.7011 222.602 15.7425C222.491 15.76 222.39 15.7623 222.307 15.7383C222.131 15.6906 221.946 15.6472 221.79 15.5895C221.668 15.5446 221.611 15.5419 221.562 15.6083C221.546 15.6291 221.531 15.6512 221.534 15.6701C221.555 15.7377 221.591 15.8036 221.612 15.8711C221.619 15.89 221.594 15.9124 221.579 15.9331C221.529 15.9914 221.463 15.9888 221.351 15.9437C221.239 15.8987 221.105 15.8704 220.928 15.8962C220.776 15.9187 220.611 15.9197 220.459 15.9436C220.226 15.9789 220.06 15.9391 219.89 15.8844C219.855 15.873 219.795 15.8675 219.751 15.8713C219.279 15.9133 218.811 15.9593 218.339 16.0013C218.238 16.0104 218.145 15.9921 218.065 15.9572C217.982 15.9223 217.89 15.9054 217.788 15.9145C217.371 15.9526 216.953 15.9879 216.535 16.0328C216.365 16.0517 216.228 16.0371 216.11 15.9921C216.02 15.9588 215.937 15.9498 215.826 15.9564C215.706 15.9632 215.621 15.9787 215.562 16.0196C215.505 16.0589 215.547 16.0811 215.675 16.1082C215.812 16.1377 215.939 16.177 216.07 16.2121C216.175 16.2043 216.279 16.191 216.38 16.1901C216.425 16.1891 216.467 16.2126 216.511 16.2252C216.639 16.2618 216.757 16.2986 216.937 16.2727C217.089 16.2502 217.251 16.2424 217.406 16.2267C217.621 16.2068 217.621 16.2068 217.971 16.2846C218.061 16.3043 218.156 16.3008 218.27 16.2859C218.368 16.2742 218.47 16.2909 218.54 16.3301C218.569 16.3458 218.56 16.3732 218.502 16.4644C218.504 16.531 218.569 16.4996 218.591 16.4555C218.624 16.3922 218.557 16.3733 218.431 16.4102C218.343 16.4367 218.299 16.4731 218.322 16.5011C218.335 16.5158 218.396 16.5335 218.502 16.4644C218.779 16.3764 218.991 16.3621 219.194 16.3357C219.314 16.3207 219.39 16.3244 219.486 16.3576C219.601 16.3972 219.716 16.4395 219.903 16.4135C220.105 16.3844 220.32 16.3768 220.526 16.3517C220.716 16.3283 220.815 16.3859 220.937 16.4186C221.083 16.4574 221.244 16.4061 221.378 16.4276C221.518 16.4489 221.617 16.5065 221.779 16.5137C222.013 16.4716 222.163 16.5363 222.342 16.5771C222.482 16.6079 222.646 16.5743 222.795 16.5559C222.963 16.5358 223.102 16.5476 223.221 16.5939C223.355 16.6466 223.504 16.631 223.656 16.6153C224.01 16.58 224.023 16.5756 224.23 16.6458C224.381 16.6968 224.523 16.6691 224.672 16.6589C224.802 16.6926 224.93 16.7292 225.067 16.7587C225.102 16.7661 225.168 16.751 225.222 16.7457C225.377 16.7313 225.535 16.7168 225.691 16.7024C225.795 16.6932 225.905 16.6703 226.001 16.6763C226.096 16.6836 226.176 16.7213 226.262 16.7452C226.349 16.7691 226.438 16.7929 226.521 16.8182C226.649 16.8561 226.77 16.8874 226.947 16.863C227.099 16.8418 227.257 16.8328 227.415 16.817C227.615 16.7975 227.608 16.8017 227.981 16.8749C228.182 16.9152 228.386 16.8561 228.589 16.8461C228.691 16.841 228.789 16.8538 228.86 16.8916C228.889 16.9073 228.88 16.9347 228.89 16.9576C228.368 17.0062 227.842 17.0495 227.327 17.1061C227.127 17.1283 227.022 17.0817 226.913 17.0434C226.734 16.9821 226.502 17.0826 226.332 17.0021C226.229 16.9541 226.083 16.9289 225.909 16.9573C225.808 16.9732 225.7 16.9743 225.596 16.9889C225.33 17.0249 225.086 17.0318 224.872 16.9428C224.798 16.9118 224.693 16.8965 224.616 16.867C224.527 16.835 224.441 16.8179 224.336 16.8271C223.865 16.8704 223.396 16.9137 222.928 16.9598C222.887 16.9634 222.846 16.9848 222.812 17.0005C222.724 17.0406 222.753 17.0699 222.896 17.0911C222.944 17.0982 222.982 17.115 223.027 17.1276C223.113 17.1515 223.193 17.1905 223.289 17.1979C223.384 17.2052 223.494 17.1837 223.599 17.1745C223.703 17.1653 223.814 17.1424 223.909 17.1484C224.004 17.1557 224.085 17.1934 224.174 17.2159C224.215 17.2272 224.267 17.2464 224.308 17.2441C224.517 17.2312 224.722 17.2116 224.931 17.1946C225.062 17.2283 225.174 17.2788 225.33 17.2876C225.428 17.2935 225.533 17.2761 225.634 17.2766C225.678 17.2769 225.736 17.296 225.759 17.3132C225.771 17.3238 225.731 17.3519 225.7 17.3662C225.58 17.4207 225.415 17.4149 225.267 17.4346C225.105 17.4559 224.959 17.4538 224.835 17.4036C224.751 17.3701 224.659 17.3532 224.558 17.3623C224.295 17.3859 224.036 17.4122 223.773 17.4332C223.729 17.4369 223.674 17.4259 223.633 17.4173C223.298 17.3419 223.298 17.3392 223.064 17.3622C222.719 17.3959 222.719 17.3959 222.486 17.3291C222.442 17.3165 222.393 17.2917 222.355 17.2939C221.988 17.3241 221.624 17.3541 221.26 17.3937C221.14 17.4059 221.058 17.4078 220.968 17.3745C220.891 17.3463 220.802 17.3143 220.707 17.3083C220.608 17.3024 220.501 17.3252 220.396 17.3344C220.292 17.3436 220.181 17.3638 220.089 17.355C219.994 17.3462 219.911 17.3101 219.828 17.2847C219.741 17.2581 219.649 17.2615 219.532 17.2751C219.172 17.3146 219.169 17.3106 218.808 17.2344C218.767 17.2258 218.713 17.2162 218.669 17.2199C218.406 17.2422 218.146 17.2685 217.884 17.2908C217.783 17.2999 217.684 17.2845 217.613 17.2466C217.584 17.2309 217.593 17.2035 217.573 17.1509C217.55 17.1392 217.576 17.1604 217.583 17.1806C217.631 17.1768 217.688 17.1782 217.722 17.1666C217.81 17.1387 217.854 17.1037 217.831 17.0756C217.818 17.061 217.758 17.0433 217.72 17.0441C217.65 17.0457 217.59 17.077 217.573 17.1509C217.374 17.2003 217.162 17.2147 216.957 17.2411C216.836 17.2575 216.76 17.2524 216.664 17.2192C216.549 17.1783 216.431 17.1388 216.244 17.1648C216.042 17.1939 215.827 17.2028 215.618 17.2266C215.378 17.2539 215.27 17.1338 215.067 17.1412C214.858 17.1486 214.65 17.1765 214.441 17.1976C214.257 17.2154 214.257 17.2154 213.875 17.1356C213.735 17.1062 213.571 17.1575 213.434 17.1266C213.341 17.1069 213.261 17.0761 213.172 17.055C213.134 17.0463 213.074 17.0477 213.026 17.0515C212.763 17.0738 212.497 17.0907 212.245 17.1264C211.957 17.1683 211.737 17.1352 211.529 17.0597C211.27 17.0805 211.007 17.0947 210.751 17.1264C210.564 17.1496 210.456 17.1072 210.328 17.0734C210.283 17.0621 210.245 17.0426 210.197 17.0382C210.149 17.0339 210.093 17.0461 210.042 17.0513C209.833 17.071 209.618 17.0827 209.415 17.1118C209.166 17.1488 209.068 17.0394 208.874 17.0302C208.746 17.0998 208.678 17.1925 208.422 17.2051C208.213 17.2153 208.004 17.2419 207.795 17.2616C207.691 17.2708 207.586 17.2813 207.482 17.2905C207.314 17.3065 207.236 17.3614 207.273 17.4422C207.293 17.4866 207.31 17.5312 207.327 17.5757C207.36 17.6552 207.283 17.725 207.15 17.7376C206.783 17.7718 206.419 17.8072 206.052 17.8387C205.954 17.8477 205.858 17.8268 205.778 17.7919C205.695 17.757 205.602 17.7428 205.501 17.7519C205.134 17.7861 204.77 17.8216 204.403 17.8531C204.362 17.8567 204.308 17.8443 204.266 17.8344C204.177 17.8119 204.091 17.7853 204.004 17.7614C203.795 17.7784 203.59 17.7913 203.384 17.8123C203.052 17.8443 203.052 17.8457 202.806 17.7764C202.761 17.7638 202.716 17.739 202.675 17.7413C202.517 17.7503 202.362 17.7675 202.204 17.7833C201.738 17.8293 201.738 17.8293 201.601 17.7916C201.477 17.7563 201.365 17.7126 201.178 17.7386C200.976 17.7677 200.761 17.7807 200.552 17.7991C200.397 17.8121 200.242 17.8266 200.086 17.8328C200.045 17.8351 200 17.8103 199.955 17.7977C199.828 17.7584 199.703 17.7272 199.529 17.7543C199.428 17.7702 199.321 17.7754 199.216 17.7845C198.944 17.8098 198.944 17.8098 198.495 17.7383C198.451 17.7312 198.397 17.7229 198.352 17.728C197.985 17.7608 197.621 17.7963 197.254 17.8278C197.21 17.8315 197.156 17.8246 197.111 17.8188C196.609 17.7513 196.609 17.7513 196.077 17.8015C195.875 17.8197 195.868 17.8253 195.654 17.758C195.558 17.7289 195.479 17.7157 195.368 17.7278C194.951 17.7699 194.529 17.8013 194.115 17.8488C193.929 17.8694 193.82 17.831 193.692 17.7972C193.647 17.7859 193.599 17.7598 193.561 17.762C193.144 17.7974 192.726 17.8382 192.308 17.8735C192.27 17.8771 192.222 17.851 192.177 17.8398C192.091 17.8172 192.008 17.7824 191.913 17.7764C191.814 17.7705 191.707 17.7933 191.599 17.8026C191.337 17.8262 191.336 17.8249 191.03 17.7515C190.989 17.7416 190.935 17.7278 190.894 17.7315C190.476 17.7682 190.055 17.8009 189.64 17.8498C189.403 17.877 189.241 17.8412 189.071 17.7879C189.036 17.7764 188.976 17.7724 188.932 17.7761C188.46 17.8181 187.992 17.8641 187.52 17.9062C187.422 17.9152 187.326 17.8942 187.246 17.8607C187.118 17.8078 186.969 17.818 186.811 17.8338C186.447 17.8707 186.444 17.8694 186.227 17.809C186.182 17.7964 186.144 17.7796 186.096 17.7739C186.052 17.7681 185.995 17.7735 185.947 17.7773C185.739 17.7956 185.53 17.8153 185.321 17.835C185.112 17.8548 184.9 17.8678 184.694 17.8956C184.441 17.9299 184.319 17.8442 184.14 17.8074C183.881 17.831 183.615 17.848 183.359 17.8824C183.163 17.9086 183.07 17.8508 182.939 17.8225C182.894 17.8126 182.846 17.7906 182.805 17.7943C182.333 17.8349 181.862 17.8783 181.394 17.9257C181.28 17.9364 181.203 17.9273 181.108 17.8968C180.894 17.8282 180.884 17.8311 180.53 17.8664C180.375 17.8822 180.226 17.8964 180.091 17.8437C179.973 17.796 179.83 17.787 179.663 17.8072C179.457 17.8323 179.245 17.848 179.036 17.8663C178.827 17.886 178.618 17.9112 178.409 17.9227C178.242 17.9334 178.139 17.8718 178.005 17.8421C177.963 17.8336 177.906 17.8335 177.859 17.8373C177.65 17.8543 177.435 17.8687 177.232 17.8964C176.986 17.9306 176.848 17.8589 176.672 17.8194C176.634 17.8107 176.571 17.8176 176.523 17.8227C176.156 17.8556 175.792 17.8911 175.425 17.9253C175.294 17.8915 175.161 17.8592 175.03 17.8254C174.821 17.8438 174.612 17.8635 174.403 17.8818C174.245 17.8963 174.083 17.9041 173.935 17.9279C173.742 17.9594 173.646 17.8977 173.515 17.8694C173.47 17.8595 173.422 17.8374 173.381 17.8411C173.118 17.862 172.856 17.8844 172.596 17.9134C172.35 17.9421 172.248 17.8219 172.046 17.8279C171.836 17.834 171.621 17.8566 171.419 17.8857C171.185 17.9196 171.019 17.8798 170.85 17.8252C170.815 17.8137 170.754 17.8083 170.71 17.812C170.447 17.8343 170.188 17.8606 169.925 17.8829C169.881 17.8866 169.827 17.8811 169.782 17.8739C169.28 17.8051 169.28 17.8037 169.061 17.825C168.906 17.8394 168.748 17.8566 168.59 17.867C168.546 17.8707 168.491 17.8597 168.45 17.8498C168.118 17.7743 168.118 17.7729 167.881 17.7947C167.672 17.8144 167.463 17.8341 167.254 17.8538C167.124 17.82 166.99 17.7877 166.859 17.754C166.599 17.7775 166.333 17.7972 166.077 17.8275C165.957 17.8411 165.878 17.8388 165.785 17.8069C165.67 17.7687 165.555 17.7237 165.365 17.7512C165.163 17.7803 164.947 17.7879 164.742 17.813C164.495 17.8431 164.391 17.7216 164.191 17.7275C163.982 17.7336 163.767 17.7562 163.565 17.7853C163.331 17.8192 163.165 17.7794 162.995 17.7247C162.96 17.7133 162.9 17.7079 162.856 17.7116C162.28 17.7642 161.707 17.8166 161.131 17.8719C160.777 17.9058 160.777 17.9072 160.1 17.8477C160.052 17.8434 160.001 17.8391 159.954 17.8429C159.745 17.8599 159.53 17.8743 159.327 17.902C159.081 17.9362 158.943 17.8658 158.767 17.8249C158.729 17.8163 158.669 17.8231 158.618 17.827C158.46 17.8401 158.305 17.8559 158.147 17.8703C157.938 17.8901 157.729 17.9098 157.52 17.9295C157.389 17.8971 157.255 17.8634 157.125 17.831C156.865 17.8546 156.599 17.8701 156.343 17.9045C156.147 17.9308 156.054 17.8757 155.923 17.846C155.879 17.8362 155.83 17.8141 155.789 17.8164C155.318 17.8571 154.846 17.8991 154.378 17.9478C154.185 17.9686 154.095 17.9094 153.964 17.881C153.92 17.8725 153.868 17.856 153.827 17.8597C153.514 17.8858 153.201 17.9161 152.887 17.9463C152.71 17.964 152.71 17.964 152.322 17.8884C152.277 17.8799 152.226 17.8716 152.182 17.8753C151.188 17.9659 150.198 18.0606 149.204 18.1512C149.103 18.1603 149.01 18.142 148.93 18.1071C148.847 18.0722 148.755 18.0553 148.653 18.0644C148.236 18.1024 147.815 18.1379 147.4 18.1827C147.229 18.2015 147.093 18.1869 146.974 18.142C146.885 18.1086 146.802 18.0969 146.691 18.1076C146.482 18.1287 146.274 18.147 146.065 18.1667C145.856 18.1865 145.647 18.2062 145.438 18.2259C145.229 18.2456 145.017 18.2586 144.812 18.2864C144.559 18.3207 144.433 18.2392 144.258 18.201C143.945 18.2286 143.631 18.2561 143.321 18.2849C142.903 18.323 142.486 18.3638 142.068 18.4005C142.03 18.4041 141.982 18.3807 141.937 18.3694C141.806 18.3384 141.71 18.293 141.517 18.3123C140.581 18.4057 139.638 18.4884 138.698 18.5805C138.502 18.5999 138.415 18.5434 138.281 18.5151C138.236 18.5066 138.185 18.4888 138.144 18.4924C137.622 18.5383 137.1 18.5883 136.578 18.6369C136.366 18.6567 136.366 18.6567 136.009 18.5804C135.967 18.5718 135.913 18.5608 135.869 18.5645C135.188 18.6263 134.511 18.6906 133.831 18.7537C133.729 18.7628 133.637 18.7459 133.554 18.711C133.474 18.6761 133.378 18.6579 133.28 18.6669C132.653 18.7247 132.024 18.7812 131.4 18.843C131.233 18.8604 131.093 18.8514 130.971 18.8051C130.885 18.7717 130.799 18.7587 130.692 18.7693C129.752 18.8573 128.812 18.9427 127.872 19.0348C127.692 19.0525 127.564 19.0295 127.449 18.9873C127.356 18.954 127.277 18.949 127.163 18.957C127.043 18.9666 126.97 18.9832 126.905 19.0255C126.82 19.0805 126.768 19.1483 126.565 19.157C126.356 19.1659 126.144 19.187 125.939 19.2148C125.743 19.2424 125.649 19.1833 125.525 19.1494C125.432 19.1256 125.347 19.1235 125.23 19.1384C125.122 19.1517 125.056 19.1764 124.994 19.2213C124.856 19.317 124.844 19.3173 124.671 19.2627C124.578 19.2335 124.495 19.2109 124.394 19.2186C123.976 19.2553 123.559 19.2948 123.141 19.3356C122.901 19.3587 122.897 19.3615 122.715 19.2976C122.626 19.2656 122.54 19.2513 122.435 19.2618C121.287 19.3695 120.138 19.4746 118.989 19.5864C118.812 19.6041 118.691 19.5782 118.563 19.5403C118.522 19.5277 118.48 19.5095 118.432 19.5052C118.385 19.5008 118.331 19.5075 118.28 19.5114C117.445 19.5889 116.606 19.6637 115.774 19.748C115.584 19.7673 115.482 19.726 115.351 19.6936C115.306 19.6824 115.268 19.6642 115.22 19.6599C115.173 19.6569 115.116 19.6677 115.065 19.6729C114.23 19.7504 113.391 19.8253 112.559 19.9095C112.36 19.929 112.273 19.8738 112.142 19.8469C112.097 19.837 112.05 19.8177 112.008 19.8213C111.746 19.8423 111.486 19.8686 111.224 19.8922C110.597 19.9514 109.97 20.0078 109.344 20.0683C109.103 20.0915 108.996 19.9728 108.793 19.9828C108.53 19.9956 108.271 20.0287 108.008 20.0538C107.8 20.0735 107.591 20.0918 107.382 20.1129C107.176 20.1326 107.176 20.1326 106.661 20.0653C106.616 20.0595 106.562 20.0513 106.518 20.055C105.787 20.1219 105.053 20.189 104.325 20.26C104.157 20.276 104.018 20.2724 103.896 20.2248C103.81 20.1914 103.72 20.1757 103.616 20.1863C102.518 20.2888 101.423 20.3912 100.325 20.4924C100.284 20.4961 100.23 20.4837 100.188 20.4737C100.099 20.4513 100.013 20.4247 99.9264 20.4008C99.8637 20.4335 99.782 20.4639 99.7416 20.5002C99.6857 20.5491 99.6099 20.5645 99.4897 20.5754C99.3694 20.5863 99.2933 20.5853 99.1974 20.5521C99.0823 20.5111 98.9642 20.4798 98.7775 20.4976C97.6289 20.6095 96.4801 20.7132 95.3315 20.8236C95.1416 20.8416 95.0515 20.7837 94.9177 20.7555C94.8731 20.747 94.822 20.7332 94.7808 20.7368C94.3093 20.7788 93.841 20.8235 93.3694 20.8669C92.0625 20.9891 90.7555 21.1073 89.4519 21.2349C89.2146 21.258 89.0522 21.2276 88.8828 21.173C88.8477 21.1615 88.7873 21.1561 88.743 21.1598C86.9139 21.3293 85.0848 21.5002 83.2589 21.6709C83.1608 21.68 83.0652 21.6604 82.9851 21.6268C82.9019 21.592 82.8096 21.5764 82.7083 21.5855C81.8729 21.663 81.0375 21.7405 80.2021 21.8194C79.9933 21.8391 79.9901 21.8405 79.773 21.7801C79.7283 21.7675 79.6802 21.7428 79.6454 21.7463C79.5727 21.7548 79.5037 21.7903 79.4541 21.8377C79.4045 21.8878 79.3255 21.9032 79.2085 21.9154C79.0883 21.9277 79.009 21.9254 78.9163 21.8949C78.7981 21.8567 78.6894 21.8197 78.4995 21.8377C76.0978 22.0664 73.6959 22.2884 71.2941 22.5158C71.1011 22.5338 71.011 22.4787 70.8772 22.4504C70.8326 22.4419 70.7879 22.4293 70.7403 22.4277C70.6895 22.4261 70.6358 22.4355 70.5852 22.4408C66.6676 22.806 62.75 23.1727 58.8324 23.538C58.5982 23.5596 58.6014 23.5596 58.3476 23.6905C58.3162 23.7062 58.2754 23.7275 58.2311 23.7313C57.0318 23.8456 55.8294 23.9573 54.6269 24.069C54.1047 24.1176 53.5826 24.1676 53.0605 24.2149C52.8737 24.2313 52.8737 24.2314 52.4302 24.3884C52.3925 24.4015 52.3484 24.4188 52.3041 24.4226C50.2156 24.6184 48.127 24.8142 46.0353 25.0073C45.8707 25.0219 45.7382 25.0494 45.6636 25.1165C45.6108 25.1639 45.5417 25.1927 45.4373 25.2032C43.9753 25.3399 42.5134 25.4779 41.0482 25.6119C40.8741 25.6281 40.7704 25.6686 40.6861 25.7276C40.658 25.7473 40.6332 25.7697 40.5923 25.7842C40.5545 25.7973 40.4976 25.8027 40.4501 25.8078C39.197 25.9248 37.944 26.0444 36.6876 26.1574C36.5008 26.1739 36.4259 26.2259 36.3352 26.281C36.3039 26.2994 36.2823 26.3244 36.2413 26.3376C36.2004 26.3494 36.1402 26.3508 36.0895 26.3547C35.0452 26.4519 34.001 26.5505 32.9568 26.6477C32.7537 26.6455 32.7112 26.7254 32.614 26.7752C32.5795 26.7923 32.5547 26.8147 32.5138 26.8265C32.4696 26.8384 32.4125 26.8383 32.3587 26.8423C31.5232 26.9198 30.6879 27.0013 29.8492 27.0748C29.6562 27.0915 29.6197 27.1617 29.5162 27.2117C29.4817 27.2274 29.4474 27.2514 29.4063 27.2564C28.8842 27.3077 28.3621 27.3563 27.8399 27.4036C27.6659 27.4198 27.6658 27.4184 27.3615 27.56C27.327 27.5758 27.2861 27.5931 27.2418 27.5981C26.4602 27.6731 25.6755 27.7453 24.8907 27.819C24.7894 27.8281 24.7204 27.8623 24.6708 27.9097C24.6212 27.9571 24.549 27.9887 24.4477 27.9978C23.8211 28.0569 23.1946 28.1174 22.5679 28.1725C22.3938 28.1873 22.2806 28.2239 22.2059 28.2869C22.1499 28.3344 22.0807 28.3591 21.97 28.3698C21.3434 28.4276 20.7169 28.4894 20.087 28.5419C19.9035 28.5569 19.8094 28.6053 19.7346 28.6642C19.6755 28.7118 19.6061 28.7297 19.489 28.7405C18.3403 28.8456 17.1884 28.9507 16.043 29.0638C15.85 29.0831 15.7506 29.0378 15.6231 29.0066C15.4413 28.9632 15.2721 28.9153 15.2697 28.8092C15.2693 28.7929 15.215 28.7751 15.1766 28.7623C14.8922 28.6667 14.8922 28.6668 14.8453 28.559C14.8184 28.4929 14.7883 28.4255 14.7645 28.358C14.7207 28.2474 14.6186 28.2212 14.3275 28.2482C14.223 28.2574 14.1187 28.2693 14.0142 28.2771C13.8591 28.2902 13.7408 28.2479 13.7104 28.167C13.6935 28.1225 13.6735 28.078 13.6566 28.0335C13.8148 28.019 13.8116 28.0177 14.0867 27.8468C14.2024 27.7748 14.2024 27.7748 13.9758 27.7105C13.8896 27.6867 13.8065 27.66 13.714 27.6376C13.6726 27.6276 13.6185 27.622 13.5742 27.6258C13.3115 27.6481 13.0521 27.673 12.7926 27.698C12.3749 27.7374 12.3749 27.7374 11.9469 27.6083C11.9118 27.5982 11.8574 27.5791 11.8635 27.568C11.8972 27.5169 11.9823 27.4932 12.0899 27.4853C12.2482 27.4736 12.4032 27.4564 12.5583 27.442C12.6627 27.4328 12.7671 27.4223 12.8716 27.4131C12.9686 27.3592 13.069 27.3066 13.1596 27.2515C13.3036 27.1665 13.3034 27.1638 13.1024 27.1112C12.9748 27.076 12.8377 27.0451 12.7069 27.0127C12.5519 27.0271 12.3937 27.043 12.2386 27.056C12.0424 27.0727 11.9625 27.0487 11.9097 26.9614C11.8636 26.8849 11.9159 26.8171 12.0677 26.7973C12.2226 26.7774 12.3682 26.7633 12.4459 26.6921C12.5204 26.6237 12.6529 26.5948 12.8176 26.5856C12.9221 26.5792 13.0265 26.5673 13.1309 26.5568C13.2669 26.5428 13.3383 26.4718 13.3079 26.3949C13.2909 26.3449 13.2582 26.3035 13.1344 26.2954C12.5849 26.2603 12.5786 26.2618 12.3039 26.1755C12.2783 26.1679 12.2588 26.1439 12.268 26.1314C12.2834 26.1106 12.3176 26.0799 12.3555 26.075C12.7193 26.0368 13.0832 26.0013 13.4472 25.9726C13.5675 25.9631 13.656 25.9515 13.6961 25.9003C13.7515 25.8296 13.7247 25.7663 13.6127 25.7212C13.5775 25.707 13.5199 25.6893 13.4819 25.6915C13.0641 25.7255 12.6496 25.7662 12.2318 25.8002C12.1938 25.8038 12.1236 25.7823 12.1073 25.7649C12.0749 25.733 12.1214 25.6884 12.232 25.6709C12.3773 25.6472 12.5262 25.6425 12.6229 25.5722C12.757 25.4726 12.9229 25.3803 13.0729 25.2844C13.0979 25.2675 13.1384 25.2353 13.1289 25.2328C13.0489 25.2046 12.9565 25.1836 12.8734 25.1569C12.7328 25.1125 12.7313 25.0459 12.7615 24.9812C12.7856 24.929 12.8803 24.9064 12.9975 24.9037C13.0482 24.9026 13.1116 24.9011 13.1526 24.888C13.2596 24.8556 13.2936 24.8167 13.2391 24.7894C13.207 24.7738 13.1495 24.752 13.1115 24.7555C12.4342 24.8158 11.7537 24.8749 11.0799 24.946C10.8805 24.9668 10.7875 24.9172 10.6662 24.8832C10.5736 24.8568 10.4877 24.8478 10.3741 24.8708C10.2668 24.8923 10.162 24.8838 10.0944 24.8405C10.0396 24.805 10.134 24.7715 10.3899 24.7303C10.4373 24.7224 10.4911 24.7171 10.5256 24.7027C10.8899 24.5475 10.8898 24.5461 11.143 24.5213C11.3898 24.498 11.3898 24.4967 11.518 24.4148C11.5773 24.3767 11.643 24.3385 11.6992 24.2991C11.721 24.2837 11.7585 24.2556 11.7456 24.2477C11.6749 24.2071 11.5795 24.1998 11.4688 24.2118C11.2221 24.2406 10.9301 24.2282 10.8032 24.3603C10.7536 24.4104 10.6746 24.4258 10.5607 24.4366C9.41514 24.5416 8.26965 24.652 7.12083 24.7543C6.93411 24.7708 6.84974 24.823 6.77813 24.8805C6.71581 24.9281 6.64637 24.9433 6.52612 24.9542C6.40586 24.9651 6.31082 24.9714 6.24005 24.9281C6.19821 24.9018 6.23221 24.8629 6.32642 24.8227C6.46145 24.7652 6.43451 24.6978 6.38866 24.6348C6.35599 24.5934 6.25704 24.5657 6.15251 24.5708C5.99732 24.5798 5.84874 24.5981 5.71752 24.5467C5.64073 24.5171 5.54512 24.4975 5.45891 24.4723C5.2928 24.4203 5.12665 24.3669 4.89612 24.4089C4.73732 24.3989 4.62526 24.3524 4.49759 24.3172C4.28378 24.2595 4.26454 24.2504 4.41514 24.1803C4.58457 24.1016 4.44916 24.0067 4.54255 23.9311C4.64216 23.8499 4.78006 23.7774 4.90198 23.7011C4.93324 23.6814 4.96137 23.663 4.99262 23.6433C4.91909 23.6177 4.85176 23.5853 4.76574 23.5682C4.65424 23.5462 4.59649 23.5176 4.60088 23.4331C4.57841 23.4214 4.58857 23.4524 4.61412 23.46C4.64283 23.4675 4.71246 23.4591 4.74711 23.4488C4.83526 23.421 4.8788 23.386 4.85596 23.3579C4.84293 23.3432 4.78231 23.3256 4.74428 23.3264C4.67455 23.328 4.61503 23.3593 4.5977 23.4332C4.244 23.497 3.87689 23.5326 3.50971 23.5627C3.47174 23.5663 3.4236 23.5401 3.37891 23.5276C3.23204 23.4846 3.23205 23.486 2.80383 23.4821C2.75943 23.4818 2.6988 23.4641 2.67617 23.4456C2.58233 23.3647 2.58342 23.2735 2.537 23.1861C2.61809 23.1271 2.69915 23.0695 2.78344 23.0117C2.95199 22.895 3.17162 22.7906 3.30188 22.6639C3.27182 22.5979 3.23223 22.5321 3.37044 22.4745C3.76507 22.3975 3.76193 22.3976 3.86818 22.3298C4.17136 22.1379 4.47132 21.9446 4.78724 21.7551C4.87172 21.7056 4.87114 21.6797 4.71852 21.6628C4.67085 21.6584 4.62004 21.6582 4.56939 21.6621C4.41113 21.6752 4.25321 21.7033 4.09778 21.7014C3.94237 21.7008 3.82688 21.6436 3.69925 21.6097C3.56841 21.5746 3.43755 21.5381 3.30668 21.5016C3.15781 21.5091 3.00974 21.5506 2.85935 21.4928C2.74415 21.4477 2.60074 21.417 2.46987 21.3805C2.56574 21.2749 2.74778 21.1918 2.88831 21.0975C3.01635 21.0116 3.01948 21.0129 3.36666 20.941C3.53079 20.9073 3.58429 20.7523 3.44379 20.7106C3.27454 20.66 3.09592 20.6138 2.92356 20.566C2.77469 20.5734 2.62342 20.6136 2.47938 20.5557C2.36737 20.5119 2.23984 20.4835 2.05641 20.5054C1.74647 20.5424 1.42987 20.5645 1.11664 20.5962C1.00906 20.6068 0.891625 20.604 0.843012 20.5588C0.810561 20.5269 0.901449 20.4799 1.00583 20.468C1.16399 20.4508 1.30623 20.4313 1.3839 20.3615C1.4584 20.2918 1.59738 20.2682 1.76198 20.2549C1.80629 20.2512 1.85667 20.2337 1.87848 20.2169C1.99076 20.1354 2.11598 20.0645 2.36011 20.0617C2.4609 20.0322 2.51397 19.9969 2.48152 19.965C2.46209 19.9478 2.39503 19.9262 2.35706 19.9298C2.09429 19.9493 1.83154 19.9689 1.57536 19.9992C1.45517 20.0129 1.36326 20.0177 1.28625 19.9786C1.23174 19.9526 1.25941 19.9152 1.35993 19.8735C1.44789 19.8375 1.47236 19.7975 1.46496 19.7514C1.44662 19.6443 1.35079 19.6152 1.04667 19.6289C0.828087 19.6393 0.773792 19.6228 0.72411 19.5314C0.710928 19.51 0.678596 19.4808 0.700438 19.4653C0.834594 19.3697 0.920709 19.2535 1.17644 19.2041C1.27749 19.1855 1.38522 19.183 1.44779 19.1462C1.51037 19.1094 1.56651 19.0673 1.63228 19.0318C1.71375 18.9891 1.76987 18.9498 1.73123 18.9248C1.66677 18.88 1.56528 18.8782 1.44839 18.8972C1.34727 18.9131 1.23954 18.9169 1.13513 18.9274C0.948468 18.9466 0.795542 18.9147 0.771972 18.8554C0.708102 18.699 0.641076 18.544 0.583545 18.3875C0.576766 18.3686 0.592005 18.3438 0.616984 18.3269C0.704414 18.2677 0.798282 18.2112 0.888913 18.1533C0.995202 18.0869 1.16667 18.0953 1.31219 18.0797C1.51781 18.0574 1.51777 18.0587 1.79051 17.9219C1.89708 17.8678 2.08457 17.8839 2.19444 17.8351C2.22896 17.8194 2.28228 17.7937 2.27245 17.7803C2.25937 17.7629 2.19569 17.7507 2.14796 17.7437C2.1034 17.7365 2.04943 17.7337 2.00198 17.7388C1.42602 17.7914 0.853309 17.8466 0.277317 17.8978C0.179216 17.9068 0.0707538 17.8793 0.0349134 17.838C-0.000864215 17.7993 0.00751313 17.7515 0.000136463 17.7068C0.0907668 17.6489 0.19413 17.5948 0.271987 17.5332C0.331141 17.4856 0.400414 17.4636 0.520797 17.4581C0.679184 17.4505 0.834134 17.4306 1.01135 17.4143C1.3364 17.2083 1.65487 16.9928 2.00528 16.7862C2.14606 16.7027 2.10936 16.6219 2.13591 16.5356C2.16261 16.456 2.37525 16.4635 2.51735 16.4371C2.63101 16.4155 2.66799 16.3711 2.62293 16.3422C2.59716 16.3251 2.53967 16.3059 2.49529 16.307C2.39069 16.3093 2.28638 16.324 2.18194 16.3331C2.0775 16.3423 1.95697 16.341 1.87192 16.366C1.79002 16.3897 1.73717 16.4371 1.6842 16.4778C1.62498 16.5227 1.54614 16.5395 1.42576 16.5449C1.27051 16.5512 1.11549 16.5669 0.960398 16.58C0.788012 16.5308 0.609281 16.4832 0.443172 16.4312C0.411224 16.421 0.404128 16.3899 0.406826 16.3694C0.411939 16.3162 0.363652 16.2847 0.258457 16.2612C0.169205 16.2414 0.0955742 16.2118 0.0125351 16.1865C0.0750789 16.1483 0.144018 16.1114 0.19382 16.0708C0.30284 15.9853 0.440936 15.9223 0.68189 15.9195C0.775753 15.8643 0.850294 15.7973 0.97306 15.7578C1.08952 15.7198 1.29003 15.7506 1.37693 15.6683C1.42039 15.6279 1.48595 15.5815 1.57115 15.5632C1.70685 15.5343 1.88466 15.5438 1.96214 15.4659C2.00868 15.4213 2.07747 15.3802 2.16914 15.3673C2.27346 15.3527 2.38113 15.3475 2.45661 15.3199C2.4975 15.3054 2.54137 15.2826 2.54093 15.2636C2.54065 15.2513 2.47687 15.2337 2.4323 15.2266C2.39088 15.218 2.33678 15.2124 2.2893 15.2162C2.131 15.228 1.97604 15.2465 1.81775 15.2582C1.77344 15.262 1.72252 15.2536 1.67478 15.2465C1.53482 15.2279 1.54368 15.2005 1.65348 15.149C1.76332 15.0989 1.84119 15.0359 1.93182 14.978C2.03303 14.9662 2.15989 14.9674 2.22902 14.94C2.34532 14.8952 2.4263 14.8321 2.52016 14.7769C2.62457 14.7663 2.73227 14.7612 2.83018 14.744C2.87126 14.7376 2.8896 14.7073 2.92406 14.6888C2.98667 14.6533 3.03946 14.6032 3.12466 14.5849C3.26356 14.5572 3.43494 14.5629 3.51562 14.4862C3.56216 14.4416 3.63396 14.3937 3.72265 14.389C3.96976 14.3779 4.07263 14.3007 4.19778 14.2271C4.29164 14.1719 4.49513 14.1945 4.5985 14.1391C4.66745 14.1035 4.71722 14.0602 4.7862 14.0259C4.81441 14.0117 4.87445 14.0035 4.9219 13.9984C5.18134 13.9721 5.44407 13.9511 5.70347 13.9234C5.74458 13.9184 5.78218 13.8972 5.8135 13.8801C5.87924 13.8433 5.91927 13.7933 6.00114 13.7684C6.08302 13.7434 6.20028 13.7407 6.30155 13.7316C6.62755 13.7038 6.65306 13.7086 6.79936 13.5896C6.91764 13.4931 7.21399 13.553 7.30986 13.4474C7.36553 13.3863 7.46895 13.3349 7.6558 13.3239C7.91866 13.3084 8.17797 13.2766 8.44064 13.253C8.67481 13.2313 8.67165 13.2314 8.9223 13.0991C9.03508 13.0394 9.2033 13.0438 9.35202 13.0295C9.51025 13.015 9.65566 12.9954 9.73016 12.9256C9.80469 12.8573 9.94363 12.8323 10.1051 12.8191C10.2538 12.8062 10.422 12.8092 10.538 12.7522C10.8203 12.6151 10.8171 12.6138 11.0164 12.5957C11.3297 12.5668 11.643 12.5379 11.9563 12.5076C12.1651 12.4879 12.3838 12.4802 12.5796 12.4458C12.7217 12.4208 12.7833 12.3432 12.874 12.2881C13.1335 12.2618 13.3929 12.2355 13.6523 12.2105C14.0162 12.175 14.3833 12.1422 14.7504 12.108C14.9077 12.0527 14.9273 11.938 15.1934 11.9265C15.3518 11.9202 15.5067 11.8989 15.665 11.8845C15.9276 11.8594 16.1869 11.829 16.4498 11.8135C16.6493 11.8022 16.6824 11.728 16.786 11.6793C16.8205 11.6622 16.8516 11.6384 16.8928 11.6334C17.3039 11.5859 17.7284 11.5681 18.1297 11.5032C18.1708 11.4968 18.2082 11.4674 18.2172 11.4468C18.2233 11.4358 18.1689 11.4166 18.1338 11.4079C18.0924 11.3979 18.0383 11.3883 17.994 11.392C16.687 11.5129 15.3801 11.6351 14.0732 11.756C13.8896 11.7738 13.8896 11.7724 13.4462 11.9322C13.4084 11.9453 13.3643 11.9599 13.3168 11.965C13.108 11.9861 12.8959 12.0005 12.6903 12.0256C12.5227 12.0457 12.3829 12.0325 12.2614 11.9863C12.175 11.9529 12.0859 11.944 11.9782 11.9492C11.8579 11.956 11.779 11.9728 11.7101 12.0111C11.6194 12.0635 11.5733 12.1299 11.3803 12.1479C10.491 12.2266 9.60176 12.3121 8.71571 12.3949C8.59165 12.3786 8.53078 12.3514 8.56169 12.3167C8.58023 12.2959 8.61766 12.2678 8.65563 12.2642C9.01948 12.2274 9.38657 12.1946 9.75045 12.1591C9.80107 12.1538 9.87086 12.155 9.89907 12.1407C10.0371 12.0763 10.0856 11.9759 10.3485 11.9631C10.5006 11.9556 10.6554 11.9317 10.8007 11.9093C10.8418 11.9029 10.8792 11.8735 10.8882 11.8529C10.8912 11.8419 10.84 11.8227 10.8017 11.814C10.6613 11.7777 10.5008 11.829 10.3607 11.805C10.313 11.7966 10.246 11.7845 10.2362 11.7684C10.2295 11.7536 10.2828 11.7278 10.3205 11.712C10.355 11.6976 10.4023 11.6843 10.4497 11.6791C10.8674 11.6384 11.2851 11.5962 11.7029 11.5622C11.8739 11.5488 11.9935 11.5121 12.0681 11.4478C12.1241 11.4002 12.1933 11.3742 12.3009 11.3649C13.0319 11.2979 13.7628 11.2255 14.4971 11.1626C14.6806 11.1475 14.7747 11.1005 14.8495 11.0403C14.9086 10.9927 14.978 10.9748 15.0951 10.9639C16.1426 10.8694 17.1835 10.7668 18.2311 10.6749C18.4242 10.6583 18.4799 10.5985 18.577 10.5459C18.6115 10.5275 18.6331 10.5052 18.6772 10.4933C18.7213 10.4814 18.7784 10.4815 18.8322 10.4775C19.6677 10.4 20.503 10.3185 21.3417 10.245C21.538 10.2283 21.5744 10.1594 21.6747 10.1095C21.7092 10.0937 21.7404 10.0685 21.7815 10.0635C22.408 10.003 23.0346 9.94522 23.6611 9.88607C24.0788 9.84664 24.4965 9.8072 24.9142 9.76913C25.12 9.75085 25.1199 9.74948 25.3959 9.61393C25.4272 9.59825 25.4712 9.57956 25.5123 9.57454C26.7148 9.46012 27.9141 9.34987 29.1166 9.2368C29.2179 9.2277 29.29 9.19474 29.3397 9.14735C29.3893 9.09995 29.4616 9.06701 29.5597 9.05798C30.4995 8.96858 31.4393 8.88054 32.3824 8.79515C32.5533 8.78038 32.6729 8.745 32.7476 8.68207C32.8036 8.63453 32.8727 8.60847 32.9804 8.59922C33.9202 8.51254 34.86 8.42176 35.8032 8.33773C35.9835 8.32138 36.0712 8.27313 36.1587 8.21671C36.1899 8.19695 36.2146 8.16509 36.2526 8.1615C36.7208 8.11276 37.1858 8.06272 37.6575 8.02615C37.8537 8.0108 37.919 7.95216 37.997 7.89596C38.0594 7.851 38.1319 7.83438 38.2523 7.8262C38.5151 7.80798 38.7744 7.77896 39.0306 7.75001C39.0686 7.74506 39.1154 7.71406 39.1182 7.69494C39.1237 7.65944 39.0502 7.63661 38.9294 7.62711C37.6763 7.74404 36.4201 7.86104 35.1669 7.97798C34.9612 7.99762 34.9612 7.99763 34.6853 8.13318C34.6539 8.14886 34.6099 8.16755 34.5657 8.17264C33.3632 8.2857 32.1639 8.39733 30.9614 8.5104C30.8601 8.5195 30.788 8.55244 30.7383 8.59983C30.6887 8.64723 30.6164 8.68017 30.5183 8.6892C29.3696 8.79696 28.221 8.90608 27.0691 9.00983C26.8982 9.0246 26.7785 9.05861 26.7038 9.1229C26.6478 9.17044 26.5787 9.19651 26.4711 9.20576C25.373 9.30693 24.2781 9.41209 23.1768 9.51061C23.066 9.51993 22.9827 9.48236 22.9882 9.44549C22.9909 9.42638 23.0377 9.39404 23.0756 9.39045C23.6483 9.33253 24.2178 9.27331 24.7939 9.22619C24.987 9.21092 25.0426 9.14978 25.1397 9.09722C25.171 9.07882 25.1959 9.05512 25.2368 9.04467C25.281 9.03278 25.3381 9.03285 25.3919 9.0289C26.7494 8.90143 28.107 8.7726 29.4678 8.65049C29.664 8.63242 29.7004 8.56491 29.8008 8.515C29.8352 8.49789 29.8664 8.47269 29.9075 8.46904C30.3252 8.42688 30.7429 8.38881 31.1606 8.35074C31.8916 8.28241 32.6226 8.21408 33.3568 8.14569C33.5688 8.1259 33.5688 8.12589 33.8384 7.99185C33.8698 7.97617 33.9137 7.95613 33.9549 7.95248C35.8883 7.77109 37.8218 7.5897 39.7553 7.40967C39.8566 7.40056 39.9288 7.36762 39.9784 7.32023C40.0281 7.27419 40.1002 7.2399 40.1983 7.2295C42.8121 6.98502 45.4228 6.7406 48.0367 6.49884C48.2076 6.48271 48.3273 6.45141 48.4019 6.38576C48.4548 6.33829 48.5271 6.31216 48.6347 6.30155C51.508 6.03348 54.3813 5.76541 57.2578 5.49591C59.1913 5.31588 61.1248 5.13313 63.0583 4.95582C63.2356 4.93955 63.3296 4.89522 63.4171 4.83744C63.4452 4.81775 63.473 4.78582 63.511 4.78223C63.9254 4.73879 64.3399 4.69808 64.7544 4.65736C64.8852 4.69113 65.016 4.72354 65.1468 4.75731C65.2438 4.70339 65.3377 4.64818 65.4348 4.59427C66.0615 4.54056 66.6781 4.46531 67.3116 4.43186C67.3528 4.42956 67.3977 4.4544 67.4424 4.46699C67.7392 4.54597 67.907 4.53535 68.0914 4.41686C68.157 4.37454 68.2132 4.33652 68.3145 4.32742C68.6277 4.2958 68.9443 4.27228 69.2543 4.23665C69.422 4.21787 69.5617 4.2283 69.6833 4.27453C69.7697 4.30794 69.8588 4.32089 69.9632 4.31035C70.5391 4.25644 71.1119 4.20395 71.6878 4.14732C71.7289 4.14366 71.7664 4.11967 71.7977 4.10263C71.8634 4.06575 71.9196 4.02638 71.9822 3.98822C72.0683 4.0094 72.1638 4.02492 72.2342 4.05325C72.3238 4.0866 72.4062 4.08472 72.5264 4.07246C74.8238 3.85558 77.1244 3.64272 79.4217 3.42448C79.6179 3.40642 79.7048 3.4616 79.8386 3.48849C79.8833 3.49836 79.9279 3.51095 79.9755 3.51259C80.0263 3.51416 80.08 3.50478 80.1306 3.49955C81.8552 3.33787 83.5799 3.17755 85.3045 3.01588C85.5324 2.99437 85.5324 2.99437 85.8735 3.07098C85.9149 3.08093 85.9691 3.09195 86.0134 3.08686C86.7982 3.01595 87.5829 2.94096 88.3646 2.86876C88.4658 2.85966 88.552 2.87947 88.6446 2.90866C88.8267 2.96576 88.8393 2.96547 88.9704 2.87268C89.0328 2.82908 89.0987 2.80172 89.203 2.7871C89.3168 2.7709 89.4089 2.77291 89.4982 2.79537C89.6258 2.82649 89.719 2.88151 89.9121 2.86216C90.7474 2.77921 91.5861 2.70708 92.4182 2.62285C92.608 2.60357 92.7105 2.6475 92.8381 2.67862C92.8827 2.68985 92.9244 2.70796 92.972 2.71096C93.0196 2.71396 93.0765 2.70313 93.1271 2.6979C94.1714 2.60068 95.2188 2.50476 96.2598 2.40217C96.456 2.38275 96.5429 2.43927 96.6767 2.46617C96.7214 2.47604 96.7725 2.49394 96.8136 2.49028C97.4402 2.43385 98.07 2.37462 98.6966 2.31547C98.9212 2.29403 98.9212 2.2954 99.2655 2.37058C99.3069 2.38052 99.3611 2.39018 99.4054 2.38645C100.136 2.31948 100.871 2.25109 101.602 2.18276C101.826 2.16132 101.826 2.16133 102.478 2.21728C102.525 2.22164 102.576 2.22866 102.624 2.22486C103.459 2.14735 104.298 2.07113 105.133 1.98955C105.301 1.97349 105.441 1.98119 105.562 2.02742C105.648 2.06083 105.738 2.07379 105.842 2.06325C106.782 1.97521 107.725 1.88981 108.661 1.79776C108.842 1.78006 108.96 1.8073 109.087 1.84386C109.129 1.85653 109.171 1.87463 109.218 1.87899C109.266 1.88335 109.32 1.87668 109.37 1.87145C110.31 1.78341 111.253 1.69938 112.19 1.60597C112.38 1.58668 112.482 1.63062 112.61 1.66174C112.654 1.67297 112.703 1.69637 112.741 1.69415C113.108 1.66267 113.475 1.63392 113.839 1.59163C114.035 1.56812 114.122 1.62873 114.256 1.65562C114.3 1.66413 114.351 1.68339 114.392 1.67974C115.177 1.60882 115.962 1.5352 116.744 1.46028C116.854 1.4496 116.937 1.45995 117.027 1.4933C117.145 1.53823 117.282 1.55418 117.453 1.53532C117.816 1.49576 118.184 1.46564 118.551 1.43145C118.766 1.41159 118.766 1.41159 119.427 1.46733C119.474 1.47169 119.525 1.47869 119.573 1.47489C120.199 1.4171 120.829 1.3606 121.452 1.29881C121.62 1.28139 121.76 1.29045 121.881 1.33668C121.968 1.37009 122.054 1.38312 122.161 1.37251C122.737 1.31859 123.31 1.26475 123.886 1.21083C124.095 1.19112 124.303 1.16051 124.513 1.15576C124.665 1.15366 124.777 1.21642 124.914 1.24596C124.953 1.25462 125.016 1.24231 125.066 1.23843C125.797 1.17011 126.532 1.10579 127.259 1.03073C127.449 1.01145 127.552 1.05538 127.679 1.0865C127.724 1.09773 127.772 1.12114 127.81 1.11891C128.073 1.09797 128.332 1.07166 128.595 1.048C128.908 1.01911 129.225 0.99558 129.535 0.958598C129.788 0.928353 129.885 1.04451 130.088 1.04398C130.244 1.04453 130.402 1.01781 130.557 1.0034C130.87 0.974507 131.183 0.942896 131.497 0.916722C131.607 0.9074 131.693 0.883683 131.726 0.833928C131.732 0.824264 131.678 0.805097 131.643 0.793649C131.218 0.664505 131.218 0.6645 130.794 0.704076C130.531 0.729097 130.272 0.754049 130.009 0.77635C129.965 0.780079 129.914 0.770351 129.869 0.7632C129.742 0.742961 129.754 0.715474 129.861 0.664062C129.967 0.61265 130.048 0.550941 130.139 0.493089C130.27 0.525496 130.397 0.557961 130.528 0.590369C130.633 0.581191 130.737 0.570665 130.841 0.561487C131.364 0.514237 131.886 0.465625 132.408 0.421096C132.446 0.417511 132.494 0.443636 132.539 0.456228C132.667 0.492788 132.781 0.524185 132.965 0.505046C133.433 0.454941 133.905 0.415644 134.373 0.37098C134.579 0.351336 134.579 0.351337 134.942 0.427447C134.983 0.43603 135.038 0.445687 135.082 0.441959C135.553 0.399942 136.022 0.355281 136.493 0.311904C136.595 0.302798 136.693 0.318244 136.767 0.356029C136.796 0.371701 136.79 0.399041 136.916 0.619353C137.294 0.791739 137.55 0.766871 137.81 0.744642C137.921 0.73532 138.019 0.72628 138.091 0.697422C138.129 0.681597 138.176 0.658751 138.175 0.641071C138.175 0.62747 138.105 0.607289 138.06 0.605578C137.746 0.58551 137.449 0.649414 137.142 0.668643C137 0.677326 136.875 0.632532 136.848 0.555585C136.841 0.533969 136.831 0.511066 136.821 0.489521C136.811 0.467976 136.804 0.445 136.794 0.423455C136.67 0.419464 136.598 0.445599 136.545 0.493066C136.502 0.532156 136.439 0.577119 136.354 0.599466C136.269 0.623172 136.152 0.621765 136.047 0.630943C135.946 0.640049 135.835 0.660249 135.74 0.65289C135.645 0.644171 135.568 0.606452 135.478 0.583989C135.437 0.572685 135.386 0.556163 135.345 0.55982C134.981 0.591227 134.62 0.622552 134.259 0.660687C134.069 0.681331 133.973 0.626378 133.852 0.593755C133.756 0.568715 133.661 0.57767 133.647 0.640593C133.609 0.791136 133.756 0.85038 134.079 0.814469C134.345 0.783936 134.585 0.774393 134.797 0.862122C134.825 0.873714 134.892 0.877639 134.933 0.873982C135.193 0.851754 135.449 0.825515 135.709 0.803286C135.756 0.799486 135.807 0.803763 135.852 0.808194C136.5 0.866939 136.5 0.868307 136.718 0.847015C136.823 0.836477 136.924 0.827371 136.91 0.620859C137.104 0.39463 137.421 0.372466 137.727 0.332836C137.927 0.307896 138.014 0.365797 138.144 0.394124C138.189 0.403996 138.237 0.424671 138.278 0.421014C138.959 0.360642 139.636 0.297615 140.313 0.231874C140.427 0.22112 140.509 0.227409 140.599 0.260753C140.714 0.303041 140.841 0.328726 141.022 0.308298C141.382 0.267443 141.75 0.23869 142.117 0.203131C142.303 0.185279 142.303 0.185265 142.682 0.261015C142.724 0.269599 142.778 0.279255 142.822 0.275526C143.189 0.244048 143.553 0.207208 143.917 0.174441C144.019 0.165335 144.111 0.182286 144.191 0.217206C144.271 0.252126 144.367 0.269003 144.465 0.259969C144.832 0.22713 145.196 0.191652 145.56 0.158885C145.604 0.155157 145.658 0.163452 145.699 0.172036C146.088 0.247569 146.088 0.247555 146.265 0.22992C146.525 0.203611 146.791 0.188049 147.047 0.155012C147.297 0.122118 147.428 0.198041 147.601 0.237672C148.069 0.195728 148.541 0.159158 149.006 0.110485C149.195 0.0898415 149.298 0.132413 149.426 0.164893C149.47 0.176125 149.515 0.200961 149.556 0.198664C149.715 0.189621 149.87 0.171131 150.025 0.15672C150.18 0.142309 150.338 0.127828 150.493 0.113417C150.672 0.148824 150.791 0.238641 151.044 0.201595C151.196 0.179096 151.357 0.171342 151.512 0.156931C151.667 0.14252 151.825 0.128038 151.98 0.113627C152.085 0.104449 152.193 0.0979137 152.294 0.0833675C152.48 0.0587158 152.574 0.123277 152.708 0.150172C152.752 0.158684 152.803 0.173841 152.844 0.170185C153.158 0.144011 153.474 0.120487 153.781 0.0822168C154.018 0.052332 154.181 0.0894643 154.35 0.142768C154.385 0.154216 154.446 0.159647 154.49 0.155918C154.857 0.124439 155.221 0.0875846 155.585 0.0548181C155.683 0.0457842 155.779 0.065382 155.859 0.0989424C155.942 0.133791 156.034 0.149396 156.135 0.14029C156.499 0.107524 156.866 0.0719551 157.23 0.0391882C157.275 0.0354597 157.329 0.0451177 157.37 0.0550615C157.727 0.131315 157.727 0.132677 157.936 0.111601C157.987 0.106367 158.041 0.102412 158.091 0.0971791C158.351 0.0722303 158.62 0.0593153 158.873 0.0209098C159.163 -0.0224404 159.377 0.0189765 159.585 0.0918166C159.844 0.0695876 160.11 0.0540133 160.363 0.0210484C160.553 -0.00367573 160.656 0.0456978 160.783 0.0768172C160.828 0.0880493 160.876 0.11145 160.914 0.107866C161.281 0.0763866 161.648 0.0476354 162.009 0.00542024C162.205 -0.0180874 162.292 0.0411582 162.426 0.0694133C162.47 0.0792849 162.518 0.0972555 162.559 0.0935988C162.768 0.077963 162.977 0.0568776 163.186 0.0371617C163.43 0.0139332 163.43 0.0152933 163.755 0.0909077C163.908 0.126891 164.059 0.0921486 164.208 0.0792419C164.366 0.0647592 164.515 0.0532159 164.643 0.106096C164.723 0.139657 164.819 0.159256 164.917 0.151582C165.126 0.134586 165.338 0.117524 165.544 0.0924404C165.708 0.0723731 165.851 0.0800063 165.973 0.127591C166.059 0.161007 166.148 0.17668 166.253 0.166142C166.721 0.122837 167.192 0.0780879 167.661 0.0361432C167.702 0.0324865 167.759 0.0434354 167.797 0.0548111C167.887 0.077275 167.973 0.102524 168.059 0.12778C168.265 0.110856 168.477 0.100603 168.68 0.0769508C168.895 0.0530108 169.091 0.0417407 169.261 0.112726C169.296 0.128254 169.347 0.15021 169.388 0.147913C169.547 0.13887 169.702 0.121744 169.857 0.107333C170.012 0.0929216 170.17 0.0784402 170.325 0.0640292C170.507 0.0939239 170.623 0.189251 170.876 0.152206C171.028 0.129707 171.189 0.121952 171.344 0.107541C171.499 0.0931303 171.658 0.0772888 171.813 0.0642379C171.863 0.0603651 171.92 0.0522643 171.965 0.0566957C172.012 0.061055 172.054 0.0791639 172.095 0.0918279C172.223 0.128388 172.341 0.165167 172.522 0.13794C172.673 0.11544 172.835 0.107685 172.99 0.0919135C173.202 0.0721254 173.202 0.0721281 173.556 0.149814C173.699 0.181933 173.86 0.13202 173.997 0.158843C174.089 0.177154 174.169 0.209347 174.258 0.23045C174.297 0.239106 174.357 0.241811 174.401 0.238083C174.61 0.221087 174.822 0.204025 175.028 0.178941C175.195 0.158802 175.335 0.17195 175.454 0.218246C175.54 0.251662 175.626 0.264686 175.733 0.254076C176.256 0.204106 176.778 0.159565 177.297 0.105587C177.474 0.0865912 177.617 0.106477 177.716 0.153206C177.886 0.233711 178.122 0.129024 178.298 0.193065C178.406 0.232776 178.515 0.279291 178.711 0.254423C179.072 0.210848 179.439 0.183439 179.803 0.150672C179.934 0.18444 180.065 0.218216 180.199 0.251911C180.408 0.232195 180.616 0.21247 180.825 0.194114C180.98 0.179703 181.138 0.163862 181.294 0.150811C181.344 0.146938 181.398 0.140272 181.446 0.145991C181.493 0.151711 181.532 0.16853 181.577 0.181122C181.797 0.242793 181.797 0.244161 182.158 0.208746C182.313 0.192975 182.461 0.181428 182.593 0.232876C182.714 0.28046 182.857 0.286733 183.021 0.268026C183.331 0.233764 183.645 0.20623 183.961 0.179984C184.059 0.170951 184.152 0.191984 184.235 0.225472C184.36 0.278424 184.512 0.269526 184.667 0.251035C184.873 0.227311 185.075 0.203664 185.251 0.275865C185.286 0.291393 185.341 0.313275 185.379 0.311051C185.638 0.294262 185.901 0.280128 186.154 0.248523C186.407 0.216918 186.533 0.298429 186.708 0.335268C186.968 0.311679 187.23 0.288016 187.49 0.264427C187.54 0.259195 187.6 0.245592 187.645 0.251384C187.833 0.275694 187.943 0.375246 188.199 0.338129C188.347 0.317062 188.509 0.307954 188.664 0.300344C188.705 0.298047 188.76 0.319931 188.789 0.336963C188.805 0.346123 188.789 0.372323 188.771 0.386356C188.714 0.425734 188.645 0.462692 188.596 0.503286C188.589 0.508871 188.65 0.531973 188.685 0.542061C188.772 0.564596 188.87 0.558292 188.984 0.544818C189.082 0.533064 189.183 0.549798 189.254 0.589015C189.283 0.604687 189.274 0.632102 189.216 0.723235C189.218 0.789878 189.283 0.758437 189.305 0.714411C189.338 0.651056 189.271 0.63217 189.145 0.669053C189.057 0.695552 189.013 0.731924 189.036 0.759981C189.049 0.774653 189.11 0.792328 189.216 0.723235C189.493 0.635291 189.702 0.615581 189.911 0.595865C189.965 0.59056 190.028 0.575509 190.066 0.582805C190.203 0.612349 190.331 0.648915 190.465 0.68261C190.617 0.670992 190.759 0.64734 190.909 0.696996C191.12 0.767044 191.129 0.760029 191.332 0.740457C191.436 0.729919 191.541 0.720753 191.645 0.711575C191.749 0.702397 191.832 0.72092 191.925 0.750111C192.113 0.809783 192.129 0.809417 192.251 0.719563C192.323 0.664864 192.373 0.646035 192.465 0.668427C192.772 0.744474 192.775 0.749838 193.034 0.719449C193.249 0.694148 193.452 0.684097 193.612 0.758018C193.721 0.809971 193.756 0.79694 193.84 0.737872C194.065 0.581718 194.169 0.582056 194.6 0.681134C194.801 0.728276 195.006 0.667836 195.208 0.656424C195.379 0.647093 195.5 0.676991 195.515 0.762387C195.526 0.815213 195.555 0.852653 195.67 0.86774C195.714 0.873531 195.768 0.881824 195.813 0.878095C196.075 0.855794 196.335 0.830842 196.598 0.805821C196.73 0.793275 196.802 0.727706 196.775 0.643959C196.744 0.554844 196.794 0.521038 196.983 0.490874C197.097 0.47332 197.189 0.473961 197.282 0.496352C197.384 0.521248 197.356 0.546376 197.268 0.597356C197.059 0.721869 197.086 0.794723 197.36 0.87149C197.456 0.89789 197.533 0.922014 197.556 0.963671C197.569 0.985144 197.557 1.01399 197.586 1.02966C197.743 1.11726 197.96 1.17085 198.202 1.20889C198.433 1.16691 198.592 1.2245 198.771 1.26943C198.911 1.30434 199.075 1.26796 199.224 1.25097C199.392 1.23219 199.531 1.2399 199.653 1.28748C199.74 1.3209 199.829 1.3352 199.933 1.32602C200.142 1.3063 200.354 1.29196 200.56 1.26552C200.737 1.24244 200.87 1.26662 200.982 1.31034C201.123 1.36565 201.278 1.32267 201.424 1.32752C201.62 1.33257 201.721 1.45138 201.977 1.4129C202.129 1.3904 202.287 1.38 202.446 1.37096C202.487 1.36866 202.538 1.39064 202.573 1.40616C202.743 1.47715 202.94 1.4686 203.155 1.44194C203.303 1.42359 203.449 1.40668 203.596 1.45505C203.839 1.53662 204.107 1.60673 204.362 1.68121C204.398 1.74298 204.375 1.81699 204.556 1.8496C204.652 1.86648 204.741 1.89304 204.815 1.92266C204.904 1.95737 204.987 1.96502 205.101 1.9529C205.306 1.92918 205.522 1.92018 205.724 1.89109C205.911 1.86508 206.029 1.90731 206.144 1.94688C206.237 1.97879 206.323 1.99316 206.433 1.96615C206.547 1.94044 206.629 1.95352 206.722 1.98816C206.853 2.03552 206.863 2.02988 207.294 2.03504C207.339 2.03539 207.393 2.05455 207.419 2.07166C207.432 2.08089 207.404 2.10876 207.382 2.12286C207.354 2.13983 207.31 2.15987 207.269 2.16488C206.8 2.21091 206.329 2.25293 205.861 2.29895C205.813 2.30411 205.763 2.31479 205.728 2.32919C205.69 2.34501 205.643 2.36648 205.644 2.38552C205.644 2.39912 205.708 2.41401 205.752 2.42252C205.893 2.45063 206.056 2.39928 206.193 2.43155C206.286 2.45258 206.363 2.48349 206.455 2.50316C206.493 2.51181 206.554 2.50909 206.601 2.50529C206.759 2.49216 206.914 2.47504 207.073 2.46327C207.117 2.4609 207.168 2.47336 207.209 2.4833C207.516 2.55799 207.516 2.55798 207.778 2.53432C207.883 2.52515 207.993 2.50222 208.092 2.50815C208.187 2.51415 208.27 2.54899 208.356 2.57017C208.535 2.6151 208.704 2.65888 208.719 2.76468C208.726 2.80533 208.832 2.83831 208.936 2.83865C209.038 2.83907 209.145 2.82167 209.25 2.81113C209.497 2.78919 209.497 2.78919 209.819 2.86488C209.908 2.88598 210.003 2.88654 210.117 2.87034C210.161 2.86389 210.215 2.86811 210.263 2.87383C210.419 2.8907 210.419 2.91654 210.319 2.96781C210.178 3.04313 210.191 3.04965 210.592 3.10177C210.744 3.12144 210.863 3.16229 210.99 3.19749C211.198 3.25401 211.195 3.25407 211.06 3.33741C211.029 3.35582 211.001 3.37551 210.969 3.39527C210.879 3.4504 210.807 3.50918 210.617 3.51894C210.408 3.52914 210.199 3.55566 209.99 3.57538C209.788 3.59495 209.735 3.6288 209.756 3.72086C209.781 3.83188 209.822 3.84318 210.187 3.83354C210.291 3.83116 210.383 3.83995 210.464 3.87487C210.427 3.91926 210.358 3.95484 210.256 3.96531C209.997 3.99162 209.734 4.01528 209.475 4.03887C209.266 4.05859 209.057 4.0783 208.848 4.09801C208.719 4.11049 208.638 4.18309 208.674 4.26118C208.694 4.30563 208.711 4.35015 208.728 4.39467C208.765 4.48364 208.832 4.50526 209.045 4.49635C209.098 4.49377 209.149 4.48172 209.2 4.48329C209.406 4.48813 209.507 4.59878 209.753 4.57004C209.959 4.54631 210.175 4.53733 210.377 4.50824C210.563 4.48223 210.669 4.52883 210.8 4.5626C210.844 4.57383 210.893 4.59857 210.931 4.59635C211.193 4.57541 211.456 4.55448 211.712 4.5228C211.832 4.50918 211.905 4.51568 212.001 4.54616C212.231 4.61986 212.238 4.61563 212.576 4.58344C212.823 4.55878 212.826 4.56143 213.145 4.63719C213.234 4.65829 213.329 4.65613 213.443 4.64265C213.592 4.62566 213.747 4.60038 213.903 4.61725C213.95 4.62161 214.011 4.63656 214.027 4.65388C214.037 4.66591 213.993 4.69684 213.955 4.70722C213.678 4.78429 213.351 4.77947 213.048 4.81495C212.953 4.82527 212.857 4.80159 212.777 4.76667C212.694 4.73182 212.605 4.71888 212.497 4.72813C212.288 4.74785 212.076 4.76219 211.871 4.78863C211.694 4.81171 211.569 4.78323 211.445 4.74388C211.403 4.73122 211.355 4.70645 211.314 4.70875C210.845 4.74661 210.374 4.78456 209.909 4.83323C209.722 4.8538 209.613 4.81273 209.486 4.7789C209.441 4.76766 209.396 4.74283 209.355 4.74512C209.196 4.75417 209.041 4.77266 208.883 4.78714C208.307 4.84105 207.734 4.8949 207.158 4.94609C207.121 4.94968 207.072 4.92219 207.028 4.91096C206.942 4.88843 206.852 4.86732 206.763 4.84622C206.605 4.8607 206.45 4.87783 206.291 4.88959C206.177 4.89763 206.076 4.91898 206.062 4.97102C206.053 5.00524 206.158 5.03414 206.269 5.0289C206.377 5.02373 206.484 5.00495 206.574 5.02062C207.016 5.09765 207.016 5.09901 207.292 5.07506C207.532 5.05326 207.506 5.04023 207.72 5.11021C207.813 5.14076 207.896 5.15794 208 5.1474C208.26 5.12245 208.523 5.09743 208.785 5.07513C208.826 5.07147 208.881 5.08385 208.922 5.09379C209.234 5.16834 209.235 5.17105 209.491 5.14482C209.826 5.1127 209.839 5.10561 210.066 5.18346C210.222 5.23705 210.364 5.19436 210.513 5.18826C210.685 5.23741 210.874 5.28077 211.03 5.33708C211.216 5.40362 211.409 5.38698 211.617 5.36182C211.772 5.34333 211.924 5.33443 212.053 5.38731C212.174 5.43625 212.32 5.43839 212.485 5.42104C212.633 5.40542 212.785 5.37611 212.941 5.4025C212.982 5.40972 213.046 5.42869 213.043 5.441C213.04 5.46012 213 5.48826 212.959 5.49735C212.669 5.55975 212.348 5.56566 212.042 5.59849C212 5.6035 211.946 5.58976 211.905 5.57982C211.815 5.55735 211.729 5.53075 211.643 5.50685C211.488 5.51854 211.329 5.52486 211.178 5.54464C211.061 5.55954 210.972 5.56021 210.886 5.52952C210.806 5.5014 210.719 5.46661 210.624 5.45925C210.529 5.45189 210.418 5.47482 210.314 5.48536C210.209 5.49589 210.089 5.49454 210.007 5.51818C209.925 5.54181 209.875 5.59057 209.822 5.62988C209.763 5.67341 209.681 5.68889 209.561 5.69571C209.45 5.70231 209.361 5.69888 209.278 5.66268C209.242 5.64715 209.195 5.63598 209.147 5.62618C209.102 5.61767 209.051 5.60386 209.01 5.60752C208.538 5.64953 208.07 5.69421 207.599 5.73759C207.364 5.75924 207.368 5.75915 206.878 5.69001C206.833 5.68421 206.779 5.67592 206.735 5.67965C206.472 5.70195 206.212 5.7269 205.95 5.75192C205.684 5.77702 205.687 5.77422 205.232 5.69884C205.149 5.6844 205.029 5.7089 204.931 5.70841C204.725 5.70629 204.621 5.59436 204.38 5.62159C204.175 5.64532 203.959 5.6543 203.754 5.68346C203.567 5.70947 203.458 5.66432 203.331 5.63048C203.286 5.61925 203.238 5.59313 203.2 5.59671C202.728 5.63737 202.26 5.68204 201.632 5.70038C201.477 5.70391 201.548 5.73089 201.649 5.73811C201.795 5.74975 201.842 5.72011 201.762 5.66751C201.704 5.63072 201.621 5.61355 201.555 5.62458C201.52 5.63081 201.476 5.65767 201.632 5.70038C201.799 5.74832 201.79 5.77709 201.819 5.79276C201.889 5.83062 201.988 5.8447 202.089 5.83696C202.247 5.82384 202.402 5.80671 202.561 5.79494C202.605 5.79122 202.659 5.79951 202.701 5.80946C203.051 5.88585 203.055 5.89123 203.425 5.85016C203.542 5.83797 203.627 5.83602 203.72 5.85978C203.847 5.89226 203.941 5.95 204.134 5.92656C204.39 5.89489 204.652 5.87396 204.915 5.85302C204.956 5.84936 205.001 5.87283 205.049 5.88263C205.18 5.91232 205.276 5.97136 205.469 5.94112C205.618 5.91734 205.779 5.90821 205.937 5.90053C205.979 5.89823 206.042 5.91855 206.062 5.9358C206.101 5.96622 206.054 6.00403 205.947 6.03232C205.903 6.04421 205.842 6.04285 205.792 6.04809C205.583 6.0678 205.374 6.08887 205.165 6.10587C205.054 6.11519 204.95 6.13798 204.939 6.18859C204.93 6.22281 205.045 6.25013 205.153 6.24496C205.311 6.23727 205.469 6.22279 205.621 6.20165C205.89 6.16561 206.124 6.16843 206.345 6.24914C206.502 6.30546 206.492 6.28392 206.661 6.45698C206.703 6.50093 206.827 6.50219 206.934 6.49702C207.194 6.48432 207.315 6.50198 207.294 6.54465C207.266 6.59698 207.175 6.61538 207.058 6.62485C206.849 6.64048 206.64 6.66293 206.431 6.68264C206.381 6.68788 206.324 6.69733 206.276 6.69569C206.228 6.69405 206.184 6.67874 206.142 6.66743C206.053 6.64361 205.976 6.60589 205.881 6.59853C205.785 6.59117 205.675 6.6141 205.57 6.62464C205.466 6.63381 205.356 6.65674 205.26 6.64938C205.165 6.64202 205.085 6.60303 204.999 6.58049C204.957 6.56919 204.906 6.55129 204.865 6.55359C204.656 6.56922 204.447 6.59167 204.238 6.61002C203.982 6.63354 203.982 6.63354 203.669 6.55628C203.58 6.53381 203.488 6.53727 203.371 6.55081C203.118 6.57834 203.115 6.57432 202.65 6.50596C202.606 6.4988 202.551 6.49051 202.507 6.4956C202.036 6.53762 201.567 6.58228 201.099 6.62558C200.697 6.6633 200.697 6.66331 200.478 6.80436C200.316 6.90875 200.313 6.90881 200.475 6.95138C200.606 6.98651 200.725 7.0396 200.868 7.05676C201.001 7.07277 201.165 7.00783 201.312 7.06708C201.386 7.0967 201.482 7.12854 201.574 7.13189C201.72 7.13538 201.874 7.0924 202.015 7.14907C202.085 7.17741 202.191 7.20632 202.279 7.20567C202.435 7.20486 202.593 7.17948 202.748 7.16643C202.795 7.16263 202.849 7.16141 202.894 7.1672C202.941 7.17428 202.983 7.18967 203.025 7.20233C203.152 7.24569 203.289 7.26435 203.454 7.23748C203.722 7.19327 203.963 7.20684 204.175 7.28913C204.203 7.30072 204.273 7.3005 204.317 7.29406C204.431 7.27786 204.529 7.27426 204.616 7.29816C204.651 7.30824 204.702 7.32612 204.696 7.33851C204.687 7.35913 204.649 7.3872 204.608 7.39493C204.311 7.44795 203.991 7.46067 203.685 7.49214C203.643 7.4958 203.592 7.47926 203.551 7.46796C203.462 7.44549 203.384 7.40643 203.289 7.39907C203.194 7.39171 203.083 7.41191 202.979 7.42109C202.874 7.43027 202.764 7.45319 202.669 7.44719C202.573 7.43984 202.484 7.40785 202.407 7.37965C202.318 7.34767 202.232 7.34554 202.115 7.36181C201.963 7.38295 201.805 7.38927 201.65 7.40232C201.564 7.37842 201.477 7.3518 201.388 7.32933C201.346 7.31803 201.295 7.30423 201.251 7.3066C201.042 7.32223 200.833 7.3433 200.624 7.36302C200.416 7.38273 200.416 7.38275 200.059 7.3065C200.017 7.29791 199.963 7.28826 199.919 7.29198C199.656 7.31429 199.397 7.34058 199.134 7.36288C199.033 7.37199 198.94 7.35504 198.857 7.32019C198.777 7.28527 198.681 7.26703 198.583 7.27606C198.166 7.31414 197.748 7.35085 197.33 7.39436C197.162 7.41178 197.02 7.40279 196.904 7.35642C196.77 7.30368 196.621 7.32067 196.466 7.33508C196.115 7.37028 196.112 7.36899 195.885 7.30474C195.84 7.29215 195.796 7.26731 195.754 7.26961C195.39 7.29829 195.023 7.32569 194.662 7.36655C194.473 7.38855 194.37 7.34326 194.243 7.31078C194.198 7.29955 194.15 7.27479 194.112 7.27837C193.849 7.29931 193.586 7.3189 193.33 7.35194C193.074 7.38497 192.973 7.26072 192.78 7.26648C192.517 7.27382 192.257 7.31101 191.998 7.33596C191.789 7.35568 191.58 7.37539 191.371 7.3951C191.162 7.41482 190.954 7.43181 190.745 7.45424C190.634 7.46628 190.551 7.45591 190.459 7.424C190.34 7.38179 190.2 7.34961 190.072 7.31169C189.878 7.2576 189.878 7.25759 189.643 7.27925C189.593 7.28448 189.539 7.28842 189.488 7.29365C189.106 7.33229 189.106 7.32958 188.615 7.25499C188.593 7.25142 188.536 7.26768 188.514 7.27906C188.449 7.31594 188.389 7.35538 188.33 7.39347C188.244 7.37365 188.139 7.36379 188.081 7.33381C187.918 7.24908 187.667 7.37589 187.5 7.29259C187.439 7.26132 187.334 7.23513 187.238 7.22913C187.14 7.22321 187.03 7.24477 186.928 7.25524C186.666 7.28162 186.666 7.28026 186.443 7.40642C186.331 7.46886 186.166 7.46172 186.017 7.47871C185.862 7.4972 185.713 7.50875 185.582 7.45594C185.463 7.40828 185.321 7.39929 185.153 7.41943C184.947 7.44451 184.735 7.46157 184.526 7.47857C184.482 7.4823 184.428 7.47673 184.383 7.46958C183.897 7.40036 183.897 7.399 183.663 7.42201C183.558 7.43255 183.45 7.43771 183.349 7.45226C183.179 7.47791 183.048 7.4523 182.923 7.41159C182.882 7.39892 182.834 7.37418 182.793 7.37647C182.583 7.38803 182.378 7.40495 182.172 7.42187C182.014 7.435 181.855 7.44404 181.704 7.46654C181.451 7.50358 181.325 7.41798 181.15 7.38114C180.89 7.40473 180.628 7.42295 180.368 7.45334C180.248 7.46696 180.169 7.46469 180.076 7.43414C179.958 7.396 179.849 7.35221 179.659 7.37693C179.406 7.4099 179.14 7.42547 178.881 7.4477C178.706 7.4095 178.577 7.32669 178.327 7.36366C178.175 7.38616 178.014 7.39392 177.859 7.40833C177.65 7.42804 177.441 7.44641 177.232 7.46749C177.008 7.48892 177.011 7.48477 176.663 7.41238C176.463 7.36932 176.258 7.42704 176.055 7.43981C175.897 7.45021 175.819 7.51457 175.859 7.59395C175.899 7.67333 175.815 7.73784 175.669 7.75204C175.305 7.78616 174.938 7.82171 174.574 7.85312C174.53 7.85685 174.476 7.84855 174.434 7.83997C174.042 7.76315 174.042 7.76452 173.868 7.78072C173.609 7.80703 173.343 7.82396 173.087 7.85563C172.91 7.87735 172.779 7.85175 172.664 7.8081C172.574 7.77476 172.492 7.76847 172.378 7.77922C171.125 7.89888 169.872 8.01173 168.622 8.13404C168.435 8.15189 168.326 8.1149 168.199 8.08106C168.154 8.06983 168.112 8.04492 168.068 8.04593C167.963 8.04831 167.859 8.06293 167.755 8.07347C167.286 8.11677 166.818 8.16687 166.346 8.20209C166.147 8.21751 166.094 8.2813 166.01 8.33493C165.944 8.37588 165.869 8.39393 165.752 8.40203C165.638 8.41007 165.555 8.40514 165.465 8.37179C165.35 8.32814 165.22 8.30253 165.043 8.32561C164.837 8.35205 164.628 8.36634 164.416 8.38613C164.308 8.39538 164.227 8.42173 164.193 8.47148C164.187 8.47979 164.254 8.49868 164.292 8.51006C164.42 8.54798 164.541 8.59284 164.685 8.61816C164.831 8.64341 164.989 8.60715 165.141 8.59553C165.195 8.59159 165.245 8.58228 165.296 8.58249C165.343 8.58277 165.401 8.58827 165.436 8.59972C165.602 8.65718 165.777 8.69538 166.005 8.65347C166.202 8.66668 166.306 8.77726 166.555 8.74164C166.707 8.7205 166.865 8.70874 167.024 8.69834C167.065 8.69604 167.11 8.71952 167.154 8.73075C167.282 8.76187 167.385 8.81396 167.574 8.78652C167.777 8.75743 167.992 8.74845 168.198 8.72473C168.312 8.71125 168.394 8.7189 168.484 8.75224C168.599 8.79453 168.73 8.82557 168.907 8.79977C169.058 8.77727 169.22 8.76952 169.375 8.75375C169.577 8.73417 169.577 8.73554 169.941 8.81165C169.982 8.82023 170.036 8.82989 170.081 8.82616C170.343 8.80386 170.603 8.77755 170.865 8.75525C170.967 8.74614 171.065 8.76159 171.136 8.79944C171.165 8.81511 171.156 8.84255 171.166 8.86545C170.644 8.91406 170.122 8.95723 169.603 9.01392C169.407 9.03607 169.317 8.98233 169.186 8.954C169.141 8.94413 169.093 8.92209 169.052 8.92575C168.685 8.95723 168.321 8.98998 167.957 9.02819C167.843 9.04031 167.758 9.03681 167.671 8.99931C167.45 8.89956 167.185 8.96274 166.938 8.98332C166.748 8.99852 166.689 9.04206 166.713 9.13132C166.744 9.23675 166.859 9.2668 167.15 9.24113C167.255 9.23195 167.359 9.22005 167.464 9.21223C167.565 9.20449 167.657 9.22008 167.741 9.25492C167.821 9.28984 167.916 9.30672 168.014 9.29905C168.223 9.28205 168.435 9.26499 168.638 9.23998C168.805 9.21984 168.945 9.23027 169.064 9.27792C169.195 9.33073 169.347 9.31503 169.499 9.29933C169.853 9.26406 169.856 9.26536 170.08 9.32832C170.124 9.34091 170.169 9.36574 170.21 9.36345C170.574 9.33476 170.942 9.30872 171.299 9.26794C171.486 9.24737 171.595 9.28843 171.719 9.32098C171.764 9.33222 171.809 9.35841 171.85 9.35475C172.112 9.33381 172.375 9.31287 172.631 9.28119C172.752 9.26621 172.825 9.27271 172.924 9.30312C173.16 9.37803 173.166 9.37517 173.498 9.34176C173.6 9.33129 173.71 9.31382 173.806 9.32254C173.901 9.33126 173.978 9.36897 174.067 9.39144C174.109 9.40138 174.16 9.41518 174.204 9.41145C174.413 9.39581 174.622 9.37475 174.831 9.35503C175.027 9.3356 175.027 9.33697 175.397 9.41293C175.546 9.44491 175.701 9.41145 175.85 9.39718C176.011 9.38127 176.157 9.37796 176.282 9.42819C176.407 9.47843 176.556 9.47231 176.714 9.45782C176.862 9.44356 177.014 9.41019 177.167 9.44345C177.517 9.51985 177.518 9.5212 177.733 9.49998C178.046 9.46972 178.356 9.4409 178.673 9.4133C178.714 9.40964 178.768 9.42474 178.809 9.43469C178.899 9.45715 178.976 9.49621 179.071 9.50357C179.166 9.51229 179.277 9.49345 179.378 9.48299C179.704 9.44972 179.726 9.4397 179.947 9.5245C180.132 9.59376 180.358 9.48249 180.531 9.56292C180.631 9.60829 180.765 9.64334 180.948 9.61604C181.1 9.59354 181.258 9.5845 181.416 9.57001C181.666 9.54664 181.666 9.54802 181.985 9.62241C182.026 9.63236 182.081 9.64472 182.122 9.64106C182.331 9.62543 182.543 9.61109 182.745 9.58199C182.982 9.54803 183.136 9.59626 183.314 9.64255C183.455 9.67882 183.619 9.64242 183.767 9.62544C183.929 9.60816 184.075 9.60892 184.196 9.65922C184.324 9.71074 184.473 9.70056 184.631 9.68608C184.78 9.67317 184.932 9.63843 185.085 9.67305C185.413 9.74995 185.413 9.74995 185.65 9.72823C185.859 9.70851 186.068 9.68745 186.277 9.67181C186.318 9.66815 186.369 9.68468 186.411 9.69598C186.5 9.71844 186.577 9.75752 186.672 9.76488C186.768 9.77224 186.878 9.75204 186.983 9.74286C187.087 9.73368 187.197 9.71076 187.293 9.71676C187.388 9.72276 187.478 9.75474 187.554 9.78294C187.644 9.81628 187.726 9.81848 187.847 9.80214C187.998 9.781 188.157 9.77332 188.312 9.76027C188.398 9.78417 188.487 9.80799 188.57 9.83467C188.657 9.86265 188.748 9.85784 188.866 9.84566C189.255 9.80415 189.258 9.80816 189.586 9.88507C189.736 9.91976 189.891 9.88495 190.04 9.87204C190.198 9.85756 190.347 9.84873 190.471 9.90033C190.593 9.94927 190.742 9.95268 190.9 9.93275C191.002 9.91957 191.109 9.91033 191.214 9.90387C191.261 9.90143 191.318 9.90557 191.353 9.91566C191.523 9.96896 191.689 10.0169 191.919 9.97492C192.122 9.98119 192.226 10.0904 192.47 10.0631C192.676 10.0394 192.891 10.0304 193.093 10.0013C193.28 9.97528 193.414 10.0103 193.51 10.0558C193.683 10.1362 193.921 10.0165 194.095 10.0956C194.194 10.1409 194.321 10.1761 194.511 10.1514C194.72 10.1249 194.787 10.1519 194.849 10.2363C194.885 10.2844 194.88 10.324 194.817 10.3635C194.755 10.4044 194.685 10.3992 194.583 10.3566C194.464 10.309 194.324 10.3026 194.157 10.3173C193.992 10.3319 193.889 10.2635 193.752 10.2394C193.615 10.214 193.455 10.2652 193.311 10.2318C192.973 10.1537 192.973 10.1537 192.745 10.1752C192.59 10.1896 192.429 10.1988 192.277 10.2213C192.097 10.2485 191.979 10.209 191.854 10.1737C191.809 10.1611 191.764 10.1363 191.726 10.1385C191.362 10.1672 190.995 10.1946 190.635 10.2368C190.445 10.2588 190.342 10.2122 190.215 10.181C190.17 10.1698 190.122 10.1464 190.084 10.15C189.771 10.1762 189.461 10.2077 189.147 10.238C189.088 10.2761 189.022 10.3129 188.966 10.3537C188.907 10.3958 188.825 10.4154 188.704 10.4168C188.505 10.4213 188.309 10.4829 188.108 10.4154C187.9 10.3466 187.885 10.351 187.685 10.3733C187.432 10.4021 187.163 10.4028 186.926 10.4613C186.885 10.4717 186.842 10.4986 186.842 10.5176C186.839 10.5299 186.906 10.5461 186.948 10.556C187.088 10.5855 187.248 10.5342 187.388 10.5651C187.481 10.5847 187.558 10.6156 187.65 10.6367C187.688 10.6453 187.745 10.6427 187.796 10.6402C187.85 10.6376 187.9 10.6269 187.951 10.6271C187.999 10.6274 188.05 10.6344 188.088 10.6458C188.264 10.6935 188.449 10.7369 188.605 10.7946C188.759 10.851 188.9 10.8069 189.053 10.8008C189.663 10.8821 189.663 10.8835 190.072 10.8443C190.173 10.8352 190.277 10.8246 190.382 10.8236C190.426 10.8226 190.468 10.8461 190.513 10.8587C190.64 10.8966 190.762 10.9306 190.939 10.9048C191.09 10.8823 191.252 10.8746 191.407 10.8588C191.616 10.8391 191.616 10.8391 191.973 10.9167C192.062 10.9365 192.157 10.9316 192.271 10.9181C192.369 10.9064 192.471 10.9244 192.542 10.9623C192.57 10.978 192.562 11.0054 192.572 11.0283C192.258 11.0572 191.942 11.0794 191.638 11.1189C191.442 11.1438 191.352 11.0873 191.221 11.059C191.177 11.0491 191.129 11.0271 191.088 11.0307C190.777 11.0582 190.467 11.0884 190.157 11.1226C190.119 11.1262 190.072 11.1586 190.07 11.1777C190.064 11.2132 190.144 11.2454 190.258 11.2414C190.41 11.2366 190.559 11.2101 190.696 11.2628C190.812 11.3091 190.955 11.3277 191.122 11.3021C191.223 11.2876 191.331 11.2851 191.432 11.2719C191.701 11.2331 191.945 11.2344 192.15 11.3223C192.306 11.3432 192.458 11.3166 192.606 11.301C192.717 11.289 192.825 11.277 192.905 11.301C193.074 11.3516 193.24 11.4023 193.47 11.3603C193.722 11.3927 193.914 11.4686 194.124 11.5291C194.223 11.5582 194.3 11.5741 194.414 11.5512C194.461 11.5419 194.518 11.5406 194.569 11.5354C194.673 11.5262 194.783 11.5033 194.879 11.5093C194.974 11.5166 195.054 11.5543 195.14 11.5768C195.182 11.5881 195.23 11.6074 195.271 11.6051C195.429 11.5947 195.584 11.5776 195.739 11.5632C195.894 11.5501 196.05 11.5371 196.205 11.524C196.335 11.5565 196.469 11.5888 196.6 11.6212C196.809 11.6015 197.018 11.5818 197.224 11.5635C197.455 11.5419 197.455 11.5433 197.789 11.62C197.939 11.6547 198.097 11.6266 198.239 11.6057C198.476 11.5717 198.636 11.6198 198.805 11.6704C198.84 11.6805 198.904 11.6858 198.945 11.6795C199.109 11.6567 199.252 11.6684 199.374 11.716C199.46 11.7494 199.546 11.7638 199.651 11.7546C200.015 11.7205 200.379 11.685 200.743 11.6536C200.787 11.6498 200.838 11.6609 200.879 11.6709C201.205 11.7465 201.208 11.7505 201.445 11.7233C201.657 11.6995 201.853 11.6868 202.023 11.7578C202.058 11.7734 202.113 11.7953 202.151 11.793C202.41 11.7735 202.673 11.7526 202.929 11.7236C203.046 11.7101 203.129 11.7123 203.221 11.7415C203.34 11.7783 203.445 11.8235 203.638 11.8014C204.173 11.7389 204.176 11.747 204.812 11.8264C204.857 11.8322 204.917 11.82 204.967 11.8134C205.075 11.7973 205.154 11.8146 205.25 11.8437C205.464 11.9096 205.47 11.9054 205.673 11.8858C205.828 11.87 205.99 11.8636 206.141 11.8398C206.375 11.8045 206.532 11.854 206.707 11.9004C206.848 11.9367 207.008 11.9003 207.157 11.8847C207.318 11.8674 207.464 11.8682 207.586 11.9171C207.669 11.9506 207.758 11.9677 207.863 11.9585C208.227 11.9257 208.591 11.8902 208.955 11.8574C208.999 11.8537 209.053 11.8634 209.095 11.872C209.458 11.9481 209.458 11.9522 209.815 11.9127C209.929 11.9006 210.024 11.8957 210.11 11.9224C210.194 11.9477 210.283 11.9715 210.369 11.9954C210.524 11.9823 210.683 11.976 210.834 11.9562C210.951 11.9413 211.034 11.9449 211.126 11.9714C211.248 12.0054 211.351 12.067 211.54 12.0314C211.638 12.0142 211.752 12.0157 211.85 11.9998C211.967 11.9795 212.047 11.9886 212.139 12.0218C212.254 12.0614 212.373 12.1023 212.556 12.0763C212.758 12.0472 212.974 12.0382 213.179 12.0145C213.293 12.001 213.373 12.0101 213.465 12.0434C213.581 12.0857 213.711 12.1113 213.888 12.0896C214.249 12.0474 214.252 12.0541 214.606 12.1318C214.695 12.1515 214.79 12.1466 214.904 12.1332C215.002 12.1214 215.104 12.1395 215.175 12.1774C215.242 12.2194 215.236 12.2467 215.243 12.2697ZM186.715 0.645365C186.611 0.654543 186.506 0.665081 186.351 0.550214C186.342 0.530029 186.347 0.505408 186.325 0.488232C186.273 0.452663 186.193 0.428624 186.098 0.426706C185.927 0.425156 185.722 0.476074 185.726 0.511363C185.73 0.541213 185.784 0.565824 185.889 0.587928C185.934 0.596439 185.969 0.611969 186.011 0.621913C186.132 0.650456 186.228 0.709508 186.402 0.674263C186.368 0.590661 186.385 0.632462 186.402 0.674263C186.387 0.726306 186.436 0.761948 186.55 0.774316C186.582 0.777675 186.629 0.773867 186.655 0.76513C186.752 0.732976 186.767 0.691823 186.692 0.586035C186.679 0.604004 186.69 0.635058 186.718 0.64257C186.747 0.650082 186.817 0.641706 186.851 0.631393C186.939 0.603535 186.983 0.56852 186.96 0.540463C186.947 0.525791 186.886 0.50812 186.848 0.508984C186.782 0.510498 186.722 0.541785 186.715 0.645365ZM212.709 15.8354C212.479 15.8665 212.212 15.863 211.982 15.9213C211.941 15.9318 211.9 15.9572 211.898 15.9763C211.895 15.9886 211.959 16.0048 211.997 16.0135C212.083 16.0333 212.178 16.0243 212.289 16.015C212.456 16.0017 212.556 16.062 212.687 16.0903C212.728 16.0989 212.782 16.1045 212.827 16.1008C213.083 16.0786 213.336 16.0552 213.592 16.0303C213.637 16.0252 213.684 16.0146 213.722 16.0015C213.848 15.9592 213.834 15.9336 213.71 15.9065C213.573 15.877 213.464 15.825 213.324 15.8023C213.123 15.7702 212.922 15.8237 212.709 15.8354ZM194.732 17.2374C194.577 17.2518 194.425 17.2661 194.27 17.2805C194.219 17.2858 194.166 17.2884 194.118 17.2949C194.02 17.3066 193.948 17.3368 193.901 17.3828C193.975 17.4165 194.064 17.4349 194.162 17.4286C194.318 17.4169 194.469 17.3958 194.625 17.3881C194.792 17.3789 194.892 17.4379 195.023 17.4662C195.064 17.4748 195.115 17.475 195.162 17.4753C195.397 17.4754 195.538 17.4014 195.492 17.3031C195.458 17.2263 195.337 17.1828 195.191 17.1957C195.039 17.2086 194.884 17.223 194.732 17.2374ZM213.747 13.8005C213.784 13.7766 213.825 13.7593 213.844 13.7385C213.899 13.6678 213.876 13.6166 213.77 13.5646C213.642 13.5009 213.487 13.5493 213.345 13.5593C213.31 13.5615 213.273 13.5909 213.254 13.609C213.242 13.6215 213.242 13.6474 213.262 13.6537C213.418 13.7046 213.584 13.7512 213.747 13.8005ZM186.158 10.408C186.006 10.4223 185.851 10.434 185.699 10.4524C185.661 10.4574 185.627 10.484 185.605 10.5022C185.564 10.5358 185.61 10.5796 185.74 10.5808C185.889 10.5828 186.044 10.5562 186.199 10.5418C186.395 10.5237 186.511 10.4707 186.437 10.4288C186.366 10.3883 186.271 10.3823 186.158 10.408ZM19.2443 11.2942C19.3456 11.2851 19.4501 11.2772 19.5513 11.2654C19.6462 11.2537 19.7184 11.2222 19.7649 11.1762C19.6849 11.1426 19.5956 11.1256 19.4975 11.1319C19.3424 11.1436 19.1905 11.158 19.0387 11.175C18.9438 11.1853 18.8526 11.2173 18.8314 11.2641C18.8101 11.3 19.0228 11.3155 19.2443 11.2942ZM172.681 7.59678C172.723 7.60809 172.764 7.63163 172.806 7.6307C172.907 7.62839 173.012 7.61785 173.106 7.60209C173.147 7.59571 173.178 7.57051 173.197 7.55104C173.209 7.53851 173.206 7.51683 173.187 7.50638C173.093 7.44318 172.726 7.47466 172.667 7.55083C172.661 7.56458 172.678 7.58189 172.681 7.59678ZM162.509 0.37642C162.519 0.397965 162.523 0.41965 162.536 0.441123C162.562 0.481349 162.632 0.509692 162.734 0.527787C162.813 0.491984 162.853 0.452971 162.849 0.412241C162.845 0.390553 162.835 0.368995 162.822 0.347522C162.796 0.307296 162.725 0.27897 162.624 0.260875C162.545 0.295317 162.508 0.334258 162.509 0.37642ZM221.147 16.8737C221.119 16.892 221.091 16.9104 221.059 16.9274C221.146 16.9649 221.225 16.9753 221.285 16.9522C221.323 16.9377 221.345 16.9168 221.373 16.8985C221.286 16.861 221.21 16.8519 221.147 16.8737ZM219.18 17.1035C219.221 17.1148 219.26 17.1303 219.304 17.1374C219.377 17.1493 219.443 17.1247 219.493 17.0746C219.451 17.0633 219.413 17.0478 219.368 17.0407C219.295 17.0287 219.229 17.0534 219.18 17.1035ZM220.423 16.8262C220.401 16.8594 220.446 16.8856 220.564 16.906C220.592 16.8877 220.63 16.8705 220.648 16.851C220.679 16.819 220.625 16.7917 220.51 16.7725C220.479 16.7896 220.451 16.8079 220.423 16.8262ZM213.698 15.5122C213.676 15.5453 213.721 15.5715 213.839 15.592C213.867 15.5736 213.905 15.5564 213.923 15.537C213.954 15.505 213.9 15.4776 213.785 15.4585C213.754 15.4755 213.726 15.4938 213.698 15.5122ZM204.359 6.09561C204.331 6.11394 204.303 6.13227 204.272 6.14931C204.358 6.18681 204.438 6.19724 204.498 6.17412C204.535 6.15965 204.557 6.13874 204.585 6.12041C204.499 6.08292 204.422 6.07377 204.359 6.09561ZM195.509 1.18845C195.585 1.19624 195.648 1.17576 195.701 1.12422C195.66 1.11291 195.621 1.09745 195.577 1.0903C195.503 1.07836 195.437 1.103 195.388 1.15311C195.429 1.16578 195.471 1.17707 195.509 1.18845ZM190.865 0.974244C190.836 0.992573 190.808 1.0109 190.777 1.02794C190.864 1.06544 190.943 1.07588 191.003 1.05275C191.04 1.03828 191.062 1.01737 191.09 0.999046C191.004 0.961549 190.928 0.953762 190.865 0.974244ZM159.39 0.445955C159.362 0.464284 159.334 0.482614 159.302 0.499655C159.389 0.537151 159.468 0.547587 159.528 0.524457C159.566 0.509992 159.588 0.489086 159.616 0.470757C159.529 0.43326 159.453 0.425473 159.39 0.445955ZM3.06923 15.0706C3.02774 15.0593 2.98629 15.048 2.94794 15.0352C2.85687 15.0741 2.82914 15.1087 2.88045 15.1334C2.91252 15.149 2.96025 15.1574 3.00174 15.1687C3.09598 15.1299 3.1174 15.0967 3.06923 15.0706Z" fill="#FFE492"/>
</svg>
