<svg width="120" height="26" viewBox="0 0 120 26" fill="none" xmlns="http://www.w3.org/2000/svg">
<path d="M111.943 13.6517C111.78 13.6733 111.615 13.6882 111.455 13.7206C111.351 13.7409 111.307 13.6814 111.238 13.6504C111.215 13.6396 111.19 13.6179 111.168 13.6206C111.007 13.6423 110.845 13.6666 110.684 13.6909C110.634 13.7436 110.603 13.8138 110.527 13.8395C110.453 13.8638 110.366 13.8638 110.283 13.876C110.174 13.8909 110.066 13.9057 109.957 13.9192C109.903 13.926 109.858 13.9517 109.84 14.0003C109.837 14.0084 109.873 14.0287 109.893 14.0408C109.959 14.0814 110.023 14.1273 110.095 14.1584C110.165 14.1881 110.25 14.1395 110.324 14.1773C110.491 14.2624 110.493 14.2611 110.62 14.2449C110.728 14.23 110.837 14.2138 110.946 14.203C110.967 14.2003 110.992 14.2205 111.015 14.2313C111.084 14.2611 111.129 14.3286 111.231 14.303C111.309 14.2827 111.394 14.2786 111.475 14.2678C111.543 14.307 111.605 14.3516 111.678 14.3827C111.745 14.4124 111.765 14.4354 111.729 14.4746C111.696 14.511 111.65 14.5259 111.589 14.5286C111.534 14.5299 111.48 14.5421 111.426 14.5489C111.398 14.5529 111.371 14.5556 111.345 14.5597C111.241 14.5745 111.241 14.5745 111.051 14.4881C110.977 14.4543 110.893 14.5016 110.822 14.4691C110.774 14.4475 110.733 14.4151 110.687 14.3921C110.667 14.3827 110.636 14.3813 110.611 14.384C110.529 14.3935 110.446 14.4002 110.367 14.4178C110.311 14.43 110.278 14.4678 110.285 14.5056C110.287 14.5205 110.326 14.5421 110.349 14.5435C110.402 14.5462 110.458 14.5272 110.509 14.5367C110.559 14.5462 110.61 14.5732 110.646 14.6029C110.72 14.6651 110.804 14.6097 110.875 14.6259C110.949 14.6434 111.01 14.6975 111.081 14.7299C111.099 14.738 111.134 14.7245 111.162 14.7204C111.243 14.711 111.323 14.7029 111.404 14.6934C111.472 14.7326 111.544 14.7677 111.605 14.8123C111.716 14.8934 111.834 14.9245 111.978 14.8853C112.059 14.8637 112.138 14.8718 112.202 14.9245C112.268 14.9785 112.344 14.9731 112.428 14.9623C112.505 14.9515 112.584 14.9218 112.663 14.9596C112.835 15.0434 112.837 15.0474 113.039 15.015C113.1 15.0055 113.146 15.0028 113.193 15.0339C113.235 15.0623 113.282 15.0866 113.326 15.1136C113.407 15.1042 113.489 15.0947 113.57 15.0839C113.674 15.069 113.732 15.088 113.756 15.1636C113.771 15.2096 113.778 15.2514 113.814 15.2825C113.857 15.3203 113.903 15.319 113.966 15.3082C114.025 15.2987 114.068 15.2839 114.093 15.2352C114.102 15.215 114.122 15.196 114.14 15.1798C114.155 15.1677 114.178 15.1488 114.192 15.1515C114.216 15.1569 114.249 15.1717 114.257 15.1893C114.338 15.3528 114.338 15.3541 114.421 15.4014C114.511 15.4541 114.605 15.5014 114.688 15.5608C114.762 15.6135 114.836 15.5906 114.917 15.5906C114.978 15.5906 115.017 15.6257 115.012 15.6608C115.009 15.6811 114.986 15.7108 114.966 15.7135C114.805 15.7405 114.642 15.7635 114.478 15.7824C114.459 15.7851 114.434 15.7608 114.411 15.7486C114.365 15.7243 114.323 15.6865 114.274 15.6784C114.224 15.6703 114.167 15.6905 114.112 15.6973C114.058 15.7041 114 15.7216 113.951 15.7108C113.901 15.7 113.862 15.6608 113.816 15.6352C113.794 15.623 113.765 15.6054 113.746 15.6095C113.626 15.6419 113.537 15.5973 113.451 15.5379C113.433 15.5257 113.402 15.5176 113.379 15.5203C113.188 15.5433 112.998 15.5703 112.807 15.596C112.729 15.6068 112.667 15.5595 112.65 15.4798C112.642 15.4352 112.626 15.3906 112.626 15.346C112.626 15.2649 112.535 15.2204 112.469 15.2298C112.36 15.2433 112.25 15.2541 112.143 15.2744C112.055 15.2906 111.981 15.2744 111.922 15.2258C111.852 15.1704 111.773 15.1812 111.694 15.196C111.635 15.2069 111.618 15.2514 111.622 15.3636C111.625 15.4541 111.597 15.4825 111.49 15.4973C111.355 15.5163 111.218 15.5352 111.081 15.55C111.06 15.5527 111.035 15.5298 111.013 15.5176C110.967 15.4933 110.926 15.4541 110.877 15.446C110.827 15.4365 110.77 15.4568 110.715 15.4649C110.661 15.4717 110.603 15.4906 110.554 15.4811C110.504 15.4717 110.463 15.4311 110.418 15.4055C110.397 15.3933 110.371 15.3757 110.349 15.3784C110.24 15.3892 110.132 15.4055 110.023 15.4203C109.901 15.4365 109.901 15.4365 109.728 15.3528C109.649 15.3149 109.57 15.3447 109.492 15.3555C109.41 15.3663 109.332 15.3717 109.268 15.3176C109.225 15.2825 109.177 15.2609 109.126 15.2677C108.989 15.2839 108.854 15.3041 108.717 15.3203C108.694 15.3231 108.663 15.3163 108.645 15.3041C108.557 15.2474 108.472 15.2028 108.35 15.2312C108.244 15.2555 108.131 15.2568 108.025 15.2798C107.967 15.292 107.941 15.3352 107.952 15.369C107.959 15.3866 107.994 15.4068 108.017 15.4068C108.07 15.4082 108.127 15.3879 108.177 15.396C108.279 15.4122 108.33 15.5257 108.463 15.4946C108.543 15.4757 108.625 15.469 108.707 15.4636C108.729 15.4622 108.752 15.4879 108.775 15.5014C108.841 15.5379 108.899 15.5852 108.994 15.5608C109.073 15.5419 109.157 15.5365 109.238 15.5257C109.367 15.5082 109.367 15.5095 109.533 15.5919C109.612 15.6311 109.691 15.6 109.769 15.5906C109.827 15.5838 109.881 15.5703 109.927 15.5892C109.998 15.6176 110.049 15.6824 110.137 15.6784C110.219 15.6743 110.3 15.6554 110.382 15.6487C110.433 15.6446 110.481 15.6662 110.522 15.7027C110.565 15.7392 110.611 15.7554 110.667 15.7473C110.748 15.7365 110.83 15.723 110.913 15.7162C110.936 15.7149 110.962 15.727 110.984 15.7378C111.03 15.7622 111.074 15.7905 111.119 15.8162C111.2 15.8081 111.282 15.8054 111.361 15.7892C111.422 15.777 111.465 15.7824 111.515 15.8095C111.577 15.8459 111.628 15.9108 111.731 15.8797C111.782 15.8649 111.841 15.8689 111.892 15.8554C111.955 15.8378 111.998 15.8446 112.042 15.8851C112.126 15.9621 112.232 15.9635 112.34 15.9337C112.459 15.9013 112.548 15.9392 112.637 15.9986C112.731 16.0608 112.731 16.0594 112.804 16.2094C112.825 16.2526 112.886 16.2729 112.937 16.2648C113.023 16.2513 113.097 16.258 113.16 16.3094C113.226 16.3648 113.305 16.358 113.385 16.3431C113.493 16.3229 113.6 16.3053 113.687 16.3837C113.73 16.4215 113.776 16.431 113.834 16.4215C113.997 16.3972 114.162 16.3823 114.322 16.3526C114.419 16.3337 114.475 16.3769 114.541 16.4134C114.63 16.4634 114.727 16.508 114.727 16.6147C114.727 16.6323 114.75 16.6525 114.77 16.6661C114.813 16.6944 114.859 16.7187 114.904 16.7458C114.97 16.7863 115.034 16.8201 115.124 16.7985C115.204 16.7809 115.288 16.7755 115.368 16.7633C115.449 16.7512 115.523 16.7444 115.596 16.7958C115.68 16.8539 115.769 16.9093 115.865 16.9525C115.932 16.9836 116.021 16.9309 116.094 16.9728C116.138 16.9984 116.181 17.0281 116.229 17.0498C116.249 17.0592 116.28 17.0525 116.306 17.0498C116.361 17.0444 116.417 17.0403 116.47 17.0268C116.531 17.0119 116.577 17.0146 116.623 17.0457C116.666 17.0741 116.709 17.1133 116.758 17.1214C116.832 17.1335 116.915 17.0795 116.989 17.1416C117.027 17.1727 117.074 17.2025 117.124 17.2119C117.173 17.2214 117.231 17.2011 117.284 17.2024C117.307 17.2024 117.335 17.2241 117.348 17.2416C117.356 17.2511 117.345 17.2768 117.333 17.2903C117.318 17.3065 117.297 17.3281 117.276 17.3308C117.112 17.3551 116.949 17.3754 116.786 17.3984C116.689 17.4119 116.689 17.4119 116.493 17.3268C116.446 17.3065 116.395 17.3105 116.338 17.32C116.26 17.3321 116.181 17.3551 116.1 17.3308C115.995 17.2389 115.865 17.2308 115.726 17.2659C115.668 17.2808 115.616 17.2808 115.573 17.2551C115.482 17.2038 115.387 17.1565 115.306 17.0957C115.243 17.0484 115.214 17.0444 115.187 17.1092C115.179 17.1295 115.171 17.1511 115.172 17.17C115.182 17.2376 115.2 17.3038 115.21 17.3713C115.213 17.3902 115.2 17.4119 115.192 17.4321C115.166 17.4889 115.131 17.4848 115.073 17.4375C115.016 17.3902 114.946 17.3592 114.854 17.3808C114.775 17.3997 114.689 17.397 114.61 17.4173C114.488 17.447 114.403 17.4038 114.315 17.3457C114.297 17.3335 114.266 17.3268 114.243 17.3295C113.997 17.3605 113.753 17.3957 113.507 17.4267C113.455 17.4335 113.407 17.4132 113.366 17.3767C113.323 17.3403 113.275 17.3213 113.222 17.3281C113.005 17.3565 112.787 17.3822 112.57 17.4173C112.481 17.4321 112.41 17.4146 112.349 17.3673C112.303 17.3321 112.26 17.3213 112.202 17.3254C112.139 17.3295 112.095 17.343 112.064 17.3822C112.034 17.42 112.055 17.4429 112.121 17.4727C112.192 17.5051 112.258 17.547 112.326 17.5848C112.38 17.5794 112.434 17.5686 112.487 17.5699C112.51 17.5699 112.532 17.5943 112.555 17.6078C112.621 17.647 112.682 17.6861 112.776 17.6645C112.855 17.6456 112.939 17.6416 113.02 17.6294C113.132 17.6145 113.132 17.6145 113.313 17.6997C113.359 17.7213 113.409 17.7199 113.468 17.7078C113.519 17.6983 113.572 17.7172 113.608 17.7577C113.623 17.774 113.618 17.801 113.587 17.8902C113.587 17.9564 113.621 17.9266 113.633 17.8834C113.651 17.8213 113.616 17.801 113.55 17.8348C113.504 17.8591 113.481 17.8942 113.493 17.9226C113.499 17.9375 113.531 17.9564 113.587 17.8902C113.732 17.8091 113.842 17.7996 113.948 17.778C114.01 17.7659 114.05 17.7713 114.099 17.8064C114.159 17.8483 114.218 17.8929 114.315 17.8713C114.421 17.8469 114.533 17.8442 114.64 17.824C114.739 17.805 114.79 17.8645 114.853 17.8996C114.928 17.9415 115.012 17.8942 115.082 17.9185C115.154 17.9429 115.205 18.0023 115.289 18.0131C115.411 17.9766 115.489 18.0442 115.581 18.0888C115.654 18.1226 115.739 18.0928 115.817 18.078C115.904 18.0617 115.977 18.0766 116.038 18.1253C116.107 18.1807 116.184 18.1685 116.264 18.1563C116.448 18.1293 116.455 18.1253 116.562 18.1996C116.639 18.2536 116.714 18.2293 116.791 18.2225C116.859 18.259 116.924 18.2982 116.995 18.3306C117.014 18.3387 117.048 18.3252 117.076 18.3212C117.157 18.3104 117.239 18.2996 117.32 18.2887C117.374 18.282 117.432 18.2617 117.482 18.2698C117.531 18.2793 117.572 18.3185 117.617 18.3441C117.661 18.3698 117.707 18.3955 117.75 18.4225C117.816 18.463 117.879 18.4968 117.971 18.4766C118.05 18.459 118.133 18.4536 118.215 18.4414C118.319 18.4266 118.316 18.4306 118.509 18.5117C118.612 18.5563 118.72 18.5022 118.825 18.4968C118.878 18.4941 118.929 18.509 118.965 18.5482C118.98 18.5644 118.975 18.5914 118.98 18.6144C118.708 18.6508 118.434 18.6819 118.166 18.7265C118.062 18.7441 118.007 18.6954 117.951 18.6549C117.859 18.59 117.737 18.6846 117.65 18.6008C117.597 18.5509 117.521 18.5225 117.431 18.5468C117.378 18.5603 117.322 18.559 117.267 18.5711C117.129 18.6008 117.002 18.6022 116.892 18.509C116.854 18.4765 116.799 18.459 116.76 18.4279C116.714 18.3941 116.669 18.3752 116.615 18.382C116.369 18.4144 116.125 18.4468 115.881 18.4819C115.86 18.4846 115.838 18.5049 115.82 18.5198C115.774 18.5576 115.789 18.5873 115.863 18.6117C115.888 18.6198 115.907 18.6373 115.931 18.6508C115.975 18.6765 116.016 18.717 116.066 18.7265C116.115 18.736 116.173 18.717 116.227 18.7103C116.282 18.7035 116.339 18.6833 116.389 18.6914C116.438 18.7008 116.479 18.74 116.526 18.7643C116.547 18.7765 116.573 18.7968 116.595 18.7954C116.704 18.7873 116.811 18.7724 116.92 18.7603C116.987 18.7968 117.045 18.8495 117.126 18.8616C117.177 18.8697 117.231 18.8549 117.284 18.8576C117.307 18.8589 117.337 18.8792 117.348 18.8967C117.355 18.9076 117.333 18.9346 117.317 18.9481C117.254 18.9994 117.168 18.99 117.091 19.0062C117.007 19.0237 116.931 19.0183 116.867 18.9657C116.824 18.9305 116.776 18.9116 116.723 18.9184C116.587 18.9359 116.451 18.9562 116.315 18.9711C116.291 18.9738 116.263 18.9616 116.242 18.9521C116.069 18.8697 116.069 18.867 115.947 18.8846C115.767 18.9103 115.767 18.9102 115.647 18.8386C115.624 18.8251 115.599 18.7995 115.579 18.8008C115.388 18.8224 115.199 18.844 115.009 18.8751C114.946 18.8846 114.904 18.8846 114.857 18.8495C114.818 18.8197 114.772 18.786 114.722 18.7778C114.671 18.7697 114.615 18.79 114.561 18.7968C114.506 18.8035 114.449 18.8211 114.401 18.8103C114.351 18.7995 114.309 18.7616 114.266 18.7346C114.221 18.7062 114.173 18.7076 114.112 18.7184C113.924 18.7495 113.923 18.7454 113.737 18.6617C113.715 18.6522 113.687 18.6414 113.664 18.6441C113.527 18.6603 113.392 18.6806 113.255 18.6968C113.203 18.7035 113.151 18.686 113.115 18.6468C113.1 18.6306 113.105 18.6035 113.095 18.5509C113.084 18.5387 113.097 18.5603 113.1 18.5806C113.125 18.5779 113.155 18.5806 113.173 18.5698C113.219 18.5441 113.242 18.5103 113.231 18.4819C113.224 18.4671 113.193 18.4482 113.173 18.4482C113.137 18.4482 113.105 18.4779 113.095 18.5509C112.992 18.5954 112.881 18.6049 112.774 18.6265C112.711 18.64 112.672 18.6333 112.622 18.5982C112.563 18.5549 112.502 18.513 112.405 18.5346C112.299 18.559 112.187 18.563 112.078 18.5819C111.953 18.6036 111.899 18.4819 111.793 18.4846C111.684 18.4874 111.576 18.5103 111.467 18.5265C111.371 18.5401 111.371 18.54 111.173 18.4522C111.101 18.4198 111.015 18.4671 110.944 18.4333C110.896 18.4117 110.855 18.3793 110.809 18.3563C110.789 18.3468 110.758 18.3468 110.733 18.3495C110.596 18.3658 110.458 18.3766 110.326 18.4063C110.176 18.4414 110.062 18.4036 109.955 18.3239C109.82 18.3387 109.683 18.3468 109.55 18.3725C109.453 18.3914 109.396 18.3468 109.331 18.3104C109.307 18.2982 109.288 18.2779 109.263 18.2725C109.238 18.2671 109.209 18.2779 109.182 18.282C109.073 18.2968 108.961 18.3036 108.856 18.3279C108.726 18.359 108.676 18.2482 108.576 18.2347C108.508 18.3009 108.472 18.3914 108.338 18.3982C108.229 18.4036 108.121 18.4252 108.012 18.4401C107.957 18.4468 107.903 18.4549 107.849 18.4617C107.761 18.4739 107.72 18.5265 107.738 18.6076C107.748 18.6522 107.756 18.6968 107.765 18.7414C107.781 18.8211 107.74 18.8886 107.671 18.8981C107.479 18.9238 107.29 18.9508 107.099 18.9738C107.048 18.9805 106.998 18.9575 106.957 18.9211C106.914 18.8846 106.866 18.8684 106.813 18.8751C106.622 18.9008 106.433 18.9278 106.241 18.9508C106.22 18.9535 106.192 18.94 106.171 18.9292C106.124 18.9049 106.08 18.8765 106.035 18.8508C105.927 18.863 105.82 18.8711 105.712 18.8873C105.539 18.9116 105.539 18.913 105.412 18.8386C105.389 18.8251 105.366 18.7995 105.345 18.8008C105.262 18.8062 105.182 18.8197 105.099 18.8319C104.857 18.867 104.857 18.867 104.786 18.8265C104.722 18.7887 104.664 18.7427 104.567 18.7643C104.461 18.7887 104.349 18.7968 104.24 18.8103C104.16 18.8197 104.079 18.8305 103.998 18.8332C103.977 18.8346 103.954 18.8089 103.93 18.7954C103.865 18.7535 103.8 18.7197 103.71 18.7427C103.657 18.7562 103.601 18.7589 103.546 18.7657C103.405 18.7846 103.405 18.7846 103.172 18.7035C103.149 18.6954 103.121 18.686 103.098 18.69C102.907 18.7143 102.717 18.7414 102.526 18.7643C102.503 18.767 102.475 18.7589 102.452 18.7522C102.191 18.6738 102.191 18.6738 101.915 18.7116C101.809 18.7252 101.806 18.7306 101.695 18.6589C101.646 18.6279 101.605 18.613 101.547 18.6225C101.329 18.6549 101.11 18.6765 100.894 18.7143C100.797 18.7306 100.741 18.69 100.675 18.6535C100.652 18.6414 100.627 18.6144 100.607 18.6157C100.39 18.6414 100.172 18.6725 99.9546 18.6981C99.9349 18.7008 99.9102 18.6738 99.8871 18.6617C99.8426 18.6373 99.7997 18.6009 99.7502 18.5927C99.6991 18.5846 99.6431 18.6049 99.5871 18.6117C99.4502 18.6292 99.4502 18.6279 99.292 18.5482C99.2706 18.5374 99.2426 18.5225 99.2211 18.5252C99.0035 18.5522 98.7843 18.5752 98.5684 18.6144C98.4448 18.636 98.3607 18.5968 98.2733 18.54C98.2552 18.5279 98.2239 18.5225 98.2008 18.5252C97.9552 18.5563 97.7113 18.5914 97.4656 18.6225C97.4146 18.6292 97.3651 18.6063 97.3239 18.5711C97.2579 18.5157 97.1805 18.5225 97.0981 18.5346C96.9085 18.563 96.9068 18.5617 96.7948 18.4968C96.7717 18.4833 96.7519 18.4657 96.7272 18.459C96.7041 18.4522 96.6744 18.4563 96.6497 18.459C96.5409 18.4725 96.4321 18.4874 96.3234 18.5022C96.2146 18.5171 96.1041 18.5252 95.9969 18.5482C95.8651 18.5765 95.8024 18.4887 95.7101 18.4482C95.575 18.4657 95.4365 18.4765 95.303 18.5049C95.2008 18.5265 95.153 18.4671 95.0854 18.436C95.0624 18.4252 95.0376 18.4022 95.0162 18.4049C94.7706 18.4347 94.525 18.4671 94.281 18.5036C94.2217 18.5117 94.1821 18.5009 94.1327 18.4684C94.0222 18.3955 94.0173 18.3982 93.8327 18.4252C93.7519 18.4374 93.6744 18.4482 93.6052 18.3928C93.5442 18.3428 93.47 18.3306 93.3827 18.3468C93.2755 18.3671 93.1651 18.3779 93.0563 18.3914C92.9475 18.4063 92.8387 18.4266 92.7299 18.4333C92.6426 18.4401 92.5898 18.3766 92.5206 18.3441C92.4992 18.3347 92.4695 18.3333 92.4448 18.336C92.336 18.3482 92.2239 18.3576 92.1184 18.3806C91.9898 18.409 91.9189 18.3347 91.8283 18.2914C91.8085 18.282 91.7755 18.2874 91.7508 18.2914C91.5596 18.3158 91.37 18.3428 91.1788 18.3685C91.1112 18.332 91.042 18.2969 90.9744 18.2604C90.8656 18.2739 90.7568 18.2887 90.648 18.3023C90.5656 18.3131 90.4816 18.3171 90.4041 18.3374C90.3035 18.3644 90.2541 18.3009 90.1865 18.2698C90.1634 18.259 90.1387 18.2361 90.1173 18.2388C89.9805 18.2536 89.8436 18.2698 89.7085 18.2928C89.5799 18.3158 89.5288 18.1942 89.4233 18.1955C89.3145 18.1969 89.2024 18.2144 89.0969 18.2388C88.975 18.2671 88.8892 18.2239 88.8019 18.1658C88.7837 18.1536 88.7524 18.1469 88.7294 18.1496C88.5925 18.1658 88.4574 18.1861 88.3206 18.2023C88.2975 18.205 88.2695 18.1982 88.2464 18.1901C87.986 18.1104 87.986 18.1091 87.8722 18.1253C87.7915 18.1361 87.709 18.1496 87.6266 18.1563C87.6035 18.159 87.5755 18.1469 87.5541 18.1361C87.3826 18.0536 87.3826 18.0523 87.259 18.0685C87.1502 18.0834 87.0414 18.0982 86.9326 18.1131C86.865 18.0766 86.7958 18.0415 86.7282 18.005C86.5931 18.0226 86.4546 18.0361 86.3211 18.0604C86.2585 18.0712 86.2173 18.0672 86.1695 18.0334C86.1101 17.9928 86.0508 17.9456 85.9519 17.9685C85.8464 17.9929 85.7343 17.9955 85.6271 18.0158C85.4986 18.0401 85.4458 17.9172 85.342 17.9185C85.2332 17.9199 85.1211 17.9374 85.0156 17.9618C84.8936 17.9901 84.8079 17.9469 84.7205 17.8888C84.7024 17.8767 84.6711 17.8699 84.648 17.8726C84.348 17.9118 84.0497 17.951 83.7497 17.9928C83.5651 18.0185 83.5651 18.0199 83.214 17.9456C83.1892 17.9402 83.1628 17.9348 83.1381 17.9375C83.0293 17.9496 82.9172 17.9591 82.8117 17.982C82.6832 18.0104 82.6123 17.9374 82.5216 17.8929C82.5018 17.8834 82.4705 17.8888 82.4442 17.8915C82.3617 17.901 82.281 17.9131 82.1986 17.9239C82.0898 17.9388 81.981 17.9537 81.8722 17.9685C81.8046 17.9334 81.7354 17.8969 81.6678 17.8618C81.5326 17.8794 81.3942 17.8888 81.2607 17.9172C81.1585 17.9388 81.1106 17.8821 81.0431 17.8496C81.02 17.8388 80.9953 17.8159 80.9738 17.8172C80.7282 17.8469 80.4826 17.878 80.2387 17.9158C80.1381 17.932 80.092 17.8712 80.0244 17.8402C80.0013 17.8307 79.9749 17.8132 79.9535 17.8159C79.7903 17.8348 79.6271 17.8577 79.464 17.8807C79.3717 17.8942 79.3716 17.8942 79.1705 17.8104C79.1475 17.801 79.1211 17.7915 79.098 17.7942C78.5804 17.8618 78.0645 17.9334 77.5469 18.001C77.4942 18.0077 77.4464 17.9874 77.4052 17.951C77.3623 17.9145 77.3145 17.8956 77.2617 17.9023C77.0442 17.9307 76.8249 17.9564 76.609 17.9915C76.52 18.0064 76.4491 17.9888 76.3881 17.9415C76.3419 17.9064 76.2991 17.8929 76.2414 17.901C76.1326 17.9172 76.0238 17.9307 75.915 17.9456C75.8063 17.9604 75.6975 17.9753 75.5887 17.9902C75.4799 18.005 75.3694 18.0131 75.2623 18.0361C75.1304 18.0645 75.0661 17.9807 74.9755 17.9388C74.8123 17.9591 74.6491 17.9793 74.4875 18.001C74.27 18.0293 74.0524 18.0604 73.8348 18.0874C73.815 18.0901 73.7903 18.0658 73.7672 18.0537C73.6996 18.0199 73.6502 17.9726 73.5496 17.9874C73.0617 18.0591 72.5705 18.1199 72.081 18.1901C71.9788 18.205 71.9343 18.1469 71.865 18.1158C71.8419 18.1063 71.8156 18.0874 71.7942 18.0901C71.5222 18.1239 71.2502 18.1617 70.9782 18.1982C70.8678 18.2131 70.8678 18.2131 70.6832 18.1293C70.6617 18.1198 70.6337 18.1077 70.6106 18.1104C70.2562 18.1563 69.9035 18.205 69.5491 18.2523C69.4963 18.259 69.4485 18.2401 69.4057 18.2036C69.3645 18.1671 69.315 18.1469 69.2639 18.1536C68.9375 18.1969 68.6095 18.2388 68.2848 18.286C68.1974 18.2996 68.1249 18.2874 68.0623 18.2388C68.0177 18.2036 67.9733 18.1888 67.9172 18.1969C67.4277 18.2631 66.9381 18.3266 66.4485 18.3968C66.3546 18.4104 66.2886 18.3847 66.2293 18.3401C66.1815 18.305 66.1403 18.2982 66.0809 18.3036C66.0183 18.3104 65.9804 18.3252 65.9458 18.3658C65.9013 18.4184 65.8733 18.4847 65.7678 18.4887C65.659 18.4928 65.5485 18.509 65.4414 18.532C65.3392 18.5549 65.2914 18.4941 65.2271 18.4576C65.1793 18.432 65.1348 18.4279 65.0738 18.4401C65.0178 18.4509 64.9831 18.4738 64.9502 18.5171C64.8776 18.609 64.8711 18.609 64.782 18.5509C64.7342 18.5198 64.6914 18.4955 64.6386 18.5009C64.421 18.5279 64.2035 18.5576 63.9859 18.5887C63.8606 18.6063 63.859 18.609 63.765 18.5414C63.7189 18.5076 63.6743 18.4914 63.6199 18.4995C63.0216 18.5806 62.4233 18.6589 61.8249 18.7441C61.7326 18.7576 61.6699 18.7292 61.604 18.6887C61.5826 18.6752 61.5612 18.6562 61.5364 18.6508C61.5117 18.6454 61.4837 18.6508 61.4573 18.6535C61.0222 18.7116 60.5853 18.767 60.1518 18.8319C60.0529 18.8468 60.0002 18.8035 59.9326 18.7684C59.9095 18.7562 59.8897 18.7373 59.865 18.7319C59.8403 18.7279 59.8106 18.7373 59.7842 18.7414C59.349 18.7995 58.9122 18.8549 58.4787 18.9197C58.3749 18.9346 58.3304 18.8778 58.2628 18.8481C58.2397 18.8373 58.215 18.817 58.1936 18.8197C58.0568 18.8346 57.9216 18.8549 57.7848 18.8724C57.4584 18.917 57.132 18.9589 56.8056 19.0048C56.6803 19.0224 56.626 18.9021 56.5205 18.9075C56.3836 18.9143 56.2485 18.9413 56.1117 18.9602C56.0029 18.9751 55.8941 18.9886 55.7853 19.0048C55.6782 19.0197 55.6782 19.0197 55.4111 18.9413C55.388 18.9346 55.36 18.9251 55.337 18.9278C54.9562 18.9778 54.5738 19.0278 54.1947 19.0818C54.1073 19.094 54.0347 19.0873 53.9721 19.0373C53.9276 19.0021 53.8815 18.9846 53.8271 18.9927C53.2551 19.0697 52.6847 19.1467 52.1128 19.2224C52.0913 19.2251 52.0633 19.2116 52.0419 19.2007C51.9957 19.1764 51.9512 19.1481 51.9067 19.1224C51.8737 19.1535 51.8309 19.1818 51.8095 19.217C51.7798 19.2642 51.7402 19.2778 51.6776 19.2859C51.615 19.294 51.5754 19.2913 51.526 19.2561C51.4666 19.2129 51.4056 19.1791 51.3084 19.1926C50.71 19.2778 50.1117 19.3548 49.5133 19.4385C49.4144 19.4521 49.3683 19.3926 49.299 19.3615C49.276 19.3521 49.2496 19.3372 49.2281 19.3399C48.9825 19.371 48.7386 19.4048 48.493 19.4372C47.8122 19.5291 47.1315 19.6169 46.4523 19.7142C46.3287 19.7317 46.2446 19.698 46.1573 19.6399C46.1391 19.6277 46.1078 19.6209 46.0848 19.6236C45.132 19.7507 44.1792 19.879 43.2281 20.0074C43.177 20.0141 43.1276 19.9925 43.0864 19.9574C43.0435 19.9209 42.9957 19.9033 42.943 19.9101C42.5078 19.9682 42.0727 20.0263 41.6375 20.0857C41.5287 20.1006 41.527 20.1019 41.4149 20.0371C41.3919 20.0236 41.3672 19.9979 41.349 20.0006C41.3111 20.0074 41.2748 20.0411 41.2485 20.0871C41.2221 20.1357 41.1809 20.1492 41.1199 20.1587C41.0572 20.1681 41.016 20.1641 40.9682 20.1317C40.9073 20.0911 40.8512 20.052 40.7523 20.0655C39.5012 20.2384 38.2501 20.4046 36.999 20.5762C36.8984 20.5897 36.8523 20.5329 36.783 20.5019C36.76 20.4924 36.7369 20.4789 36.7122 20.4762C36.6858 20.4735 36.6578 20.4816 36.6314 20.4857C34.5907 20.7599 32.5501 21.0356 30.5094 21.3098C30.3875 21.326 30.3891 21.3261 30.2556 21.4504C30.2391 21.4652 30.2177 21.4855 30.1946 21.4882C29.5698 21.5746 28.9435 21.6584 28.3171 21.7422C28.0451 21.7787 27.7732 21.8165 27.5012 21.8516C27.4039 21.8638 27.4039 21.8638 27.1715 22.0097C27.1517 22.0219 27.1286 22.0381 27.1056 22.0408C26.0176 22.1881 24.9297 22.3353 23.8402 22.4799C23.7544 22.4907 23.6852 22.515 23.6457 22.5799C23.6176 22.6258 23.5814 22.6528 23.527 22.6609C22.7654 22.7636 22.0039 22.8677 21.2407 22.9677C21.1501 22.9798 21.0957 23.0177 21.0511 23.0744C21.0363 23.0933 21.0231 23.1149 21.0017 23.1284C20.9819 23.1406 20.9522 23.1446 20.9275 23.1487C20.2748 23.2365 19.622 23.3271 18.9676 23.4108C18.8704 23.423 18.8308 23.473 18.783 23.5257C18.7665 23.5432 18.755 23.5676 18.7336 23.5797C18.7121 23.5905 18.6808 23.5905 18.6544 23.5932C18.1105 23.6662 17.5665 23.7405 17.0226 23.8135C16.9171 23.8067 16.894 23.8851 16.8429 23.9324C16.8248 23.9486 16.8116 23.9702 16.7902 23.981C16.7671 23.9918 16.7374 23.9904 16.7094 23.9931C16.2742 24.0512 15.839 24.1134 15.4022 24.1674C15.3017 24.1796 15.2819 24.2485 15.2275 24.2958C15.2094 24.3107 15.1913 24.3336 15.1698 24.3377C14.8978 24.3769 14.6259 24.4133 14.3539 24.4485C14.2632 24.4606 14.2632 24.4593 14.1033 24.593C14.0852 24.6079 14.0638 24.6241 14.0407 24.6282C13.6335 24.6849 13.2248 24.739 12.816 24.7944C12.7632 24.8011 12.727 24.8335 12.7006 24.8795C12.6742 24.9254 12.6363 24.9551 12.5836 24.9619C12.2572 25.0065 11.9308 25.0524 11.6044 25.093C11.5138 25.1038 11.4544 25.1375 11.4149 25.1983C11.3852 25.2443 11.3489 25.2672 11.2912 25.2754C10.9649 25.3186 10.6385 25.3659 10.3105 25.4037C10.2149 25.4145 10.1654 25.4605 10.1258 25.5172C10.0945 25.5631 10.0583 25.5794 9.99726 25.5875C9.39891 25.6658 8.79893 25.7442 8.20222 25.8307C8.10167 25.8455 8.05056 25.7982 7.98463 25.7645C7.89067 25.7172 7.80333 25.6658 7.80333 25.5604C7.80333 25.5442 7.7753 25.5253 7.75552 25.5118C7.60882 25.4105 7.60881 25.4105 7.58574 25.3024C7.57255 25.2362 7.55772 25.1686 7.54618 25.1011C7.52475 24.9903 7.47198 24.9619 7.32033 24.9822C7.26594 24.9889 7.21154 24.9984 7.15715 25.0038C7.07638 25.0132 7.0154 24.9686 7.00056 24.8876C6.99232 24.843 6.98245 24.7984 6.9742 24.7538C7.05662 24.743 7.05495 24.7417 7.20001 24.5782C7.261 24.5093 7.26102 24.5093 7.14399 24.4404C7.09948 24.4147 7.05662 24.3863 7.00881 24.362C6.98738 24.3512 6.95937 24.3444 6.9363 24.3471C6.79948 24.3633 6.66432 24.3823 6.52916 24.4012C6.31157 24.4309 6.31155 24.4309 6.09067 24.2931C6.07254 24.2823 6.04451 24.262 6.04781 24.2512C6.06594 24.2012 6.11044 24.1796 6.16649 24.1742C6.2489 24.1661 6.32967 24.1526 6.41044 24.1418C6.46483 24.135 6.51923 24.1269 6.57362 24.1202C6.62472 24.0688 6.6775 24.0188 6.7253 23.9661C6.80112 23.8851 6.8011 23.8824 6.69725 23.8256C6.63132 23.7878 6.56044 23.754 6.49286 23.7189C6.41209 23.7297 6.32967 23.7418 6.2489 23.7513C6.14671 23.7635 6.10549 23.7378 6.07912 23.65C6.05604 23.5729 6.08406 23.5067 6.16319 23.4905C6.24395 23.4743 6.31981 23.4635 6.36102 23.3946C6.40058 23.3284 6.4698 23.3027 6.55552 23.2973C6.60991 23.2933 6.6643 23.2838 6.7187 23.2757C6.78958 23.2649 6.8275 23.196 6.81267 23.119C6.80443 23.069 6.78794 23.0271 6.72365 23.0163C6.43849 22.969 6.43517 22.9704 6.29341 22.8785C6.28023 22.8704 6.27036 22.8461 6.2753 22.8339C6.28354 22.8136 6.30168 22.7839 6.32146 22.7798C6.51102 22.7501 6.70058 22.7231 6.89014 22.7028C6.95277 22.6961 6.99893 22.6866 7.02036 22.6366C7.05003 22.5677 7.03685 22.5042 6.97915 22.4569C6.96102 22.4421 6.93133 22.4232 6.91155 22.4245C6.69396 22.4488 6.47804 22.4799 6.26045 22.5042C6.24067 22.5069 6.20443 22.484 6.19618 22.4664C6.1797 22.434 6.20441 22.3907 6.2621 22.3759C6.33793 22.3556 6.4154 22.3542 6.4665 22.2867C6.53738 22.1908 6.62473 22.1029 6.70385 22.0111C6.71704 21.9949 6.7385 21.9638 6.73355 21.9611C6.69234 21.9313 6.64453 21.9084 6.60167 21.88C6.52915 21.8327 6.52913 21.7665 6.54562 21.703C6.5588 21.6517 6.60825 21.6314 6.66924 21.6314C6.69562 21.6314 6.72858 21.6314 6.75001 21.6192C6.80605 21.5895 6.82419 21.5517 6.79617 21.5233C6.77969 21.5071 6.75003 21.4841 6.73025 21.4868C6.3775 21.5314 6.02308 21.5747 5.67198 21.63C5.56813 21.6463 5.52036 21.5949 5.45772 21.5584C5.40992 21.5301 5.36539 21.5192 5.30605 21.5395C5.25 21.5584 5.19563 21.5476 5.16101 21.5031C5.13299 21.4666 5.18243 21.4355 5.31595 21.4004C5.34067 21.3936 5.36868 21.3895 5.38682 21.376C5.57803 21.2301 5.57802 21.2288 5.70989 21.2099C5.83846 21.1923 5.83849 21.1909 5.90607 21.1126C5.93739 21.0761 5.97198 21.0396 6.00165 21.0018C6.01319 20.9869 6.03299 20.9599 6.0264 20.9518C5.99014 20.9099 5.94067 20.9005 5.88297 20.9099C5.7544 20.9329 5.60277 20.914 5.53519 21.0423C5.50882 21.091 5.46761 21.1045 5.40827 21.1126C4.81156 21.1909 4.21484 21.2747 3.61648 21.3504C3.51923 21.3625 3.47475 21.4125 3.43684 21.4679C3.40387 21.5139 3.3676 21.5274 3.30496 21.5355C3.24232 21.5436 3.19285 21.5476 3.15659 21.5031C3.13516 21.476 3.15329 21.4382 3.20274 21.4004C3.27362 21.3463 3.26043 21.2788 3.23735 21.2153C3.22087 21.1734 3.16977 21.1437 3.11538 21.1464C3.03461 21.1518 2.95716 21.1666 2.88957 21.1126C2.85001 21.0815 2.80055 21.0599 2.75605 21.0328C2.67033 20.9775 2.58461 20.9207 2.46428 20.9572C2.38187 20.9437 2.32417 20.895 2.25824 20.8572C2.1478 20.7951 2.13791 20.7856 2.21703 20.7194C2.30604 20.6451 2.2368 20.5478 2.28625 20.4748C2.339 20.3965 2.41155 20.3276 2.47583 20.2546C2.49232 20.2357 2.50716 20.2181 2.52364 20.1992C2.48573 20.1722 2.45112 20.1384 2.40662 20.1195C2.34892 20.0952 2.31925 20.0655 2.32255 19.9817C2.31101 19.9695 2.31592 20.0006 2.32911 20.0087C2.34394 20.0168 2.38023 20.0101 2.39837 20.0006C2.44452 19.9749 2.46757 19.9412 2.45603 19.9128C2.44944 19.8979 2.41815 19.879 2.39837 19.879C2.3621 19.879 2.33079 19.9087 2.3209 19.9817C2.13628 20.0371 1.94504 20.0641 1.75383 20.0857C1.73405 20.0884 1.70934 20.0614 1.68626 20.0479C1.61044 20.002 1.61043 20.0033 1.3879 19.9898C1.36483 19.9884 1.33352 19.9695 1.32198 19.9506C1.27418 19.8682 1.27584 19.7777 1.25277 19.6898C1.29562 19.6331 1.33845 19.5777 1.38295 19.5223C1.47196 19.4102 1.58737 19.3115 1.65661 19.1886C1.64177 19.1224 1.62199 19.0562 1.69451 19.0021C1.90056 18.9346 1.89892 18.9346 1.95497 18.8697C2.11486 18.686 2.27309 18.5009 2.43957 18.3198C2.48408 18.2725 2.48409 18.2469 2.40497 18.2266C2.38024 18.2212 2.35383 18.2198 2.32746 18.2225C2.24504 18.232 2.16262 18.2563 2.08185 18.2509C2.00108 18.2469 1.94174 18.1874 1.87581 18.1509C1.80823 18.1131 1.74065 18.0739 1.67307 18.0347C1.59559 18.0388 1.51813 18.0766 1.44066 18.0158C1.38132 17.9685 1.30715 17.9347 1.23957 17.8956C1.29067 17.7929 1.38629 17.7145 1.46046 17.624C1.52804 17.5416 1.52966 17.5429 1.71097 17.4794C1.79669 17.4497 1.82636 17.297 1.75383 17.2524C1.66647 17.1984 1.57418 17.1484 1.48517 17.0971C1.4077 17.1011 1.32859 17.1376 1.25442 17.0768C1.19672 17.0309 1.13078 16.9998 1.03517 17.0173C0.873634 17.0471 0.708803 17.0619 0.545616 17.0862C0.489571 17.0944 0.428565 17.089 0.403839 17.043C0.387356 17.0106 0.435161 16.966 0.489557 16.9565C0.571975 16.943 0.646143 16.9268 0.687352 16.8593C0.726912 16.7917 0.799432 16.7714 0.885146 16.762C0.908223 16.7593 0.934616 16.7431 0.946155 16.7268C1.0055 16.6485 1.07143 16.5809 1.19836 16.5836C1.25111 16.5566 1.27911 16.5228 1.26263 16.4904C1.25274 16.4728 1.21814 16.4499 1.19836 16.4526C1.06154 16.4661 0.924736 16.4796 0.791219 16.5039C0.728581 16.5147 0.680753 16.5174 0.641193 16.4769C0.613171 16.4499 0.628004 16.4134 0.680752 16.3742C0.726906 16.3404 0.740107 16.3012 0.73681 16.2553C0.728569 16.1486 0.679108 16.1175 0.520866 16.1243C0.407129 16.1297 0.379106 16.1121 0.35438 16.0202C0.347787 15.9986 0.331332 15.9689 0.342871 15.954C0.41375 15.8621 0.459907 15.7486 0.593424 15.7054C0.646172 15.6892 0.702193 15.6892 0.73516 15.6541C0.768127 15.6189 0.797812 15.5784 0.832428 15.5446C0.875285 15.5041 0.904927 15.4663 0.885146 15.4406C0.852179 15.3947 0.799449 15.3906 0.73846 15.4068C0.685713 15.4203 0.62967 15.4217 0.575275 15.4298C0.478022 15.4446 0.398918 15.4095 0.38738 15.3501C0.356061 15.1933 0.323084 15.038 0.295062 14.8812C0.291765 14.8623 0.299985 14.838 0.313172 14.8218C0.359326 14.765 0.408796 14.711 0.456598 14.6556C0.512642 14.5921 0.601668 14.6043 0.677492 14.5921C0.784635 14.5745 0.784598 14.5759 0.928005 14.4462C0.984049 14.3948 1.08131 14.4151 1.139 14.3692C1.15713 14.3543 1.18515 14.33 1.18021 14.3165C1.17361 14.2989 1.14067 14.2854 1.11594 14.2773C1.09286 14.2692 1.06485 14.2651 1.04012 14.2692C0.740122 14.3084 0.441777 14.3502 0.141776 14.3881C0.0906773 14.3948 0.0346316 14.3651 0.0164997 14.3232C-0.00163226 14.284 0.00329671 14.2367 0 14.1922C0.0478023 14.1368 0.102177 14.0854 0.143386 14.026C0.174705 13.98 0.210975 13.9598 0.273613 13.9571C0.35603 13.953 0.436808 13.9368 0.529116 13.9246C0.700545 13.7274 0.868666 13.5207 1.05328 13.3234C1.12746 13.2437 1.10935 13.1626 1.12419 13.0775C1.13903 12.9991 1.24946 13.0113 1.32363 12.9883C1.38298 12.9694 1.40273 12.9262 1.37965 12.8964C1.36647 12.8789 1.33681 12.8586 1.31373 12.8586C1.25934 12.8586 1.20495 12.8708 1.15055 12.8775C1.09615 12.8843 1.03352 12.8802 0.989014 12.9032C0.946156 12.9248 0.918118 12.9707 0.890096 13.0099C0.858777 13.0532 0.817597 13.068 0.75496 13.0707C0.67419 13.0734 0.593426 13.0856 0.512656 13.0951C0.423645 13.0424 0.331318 12.991 0.245603 12.9356C0.22912 12.9248 0.225805 12.8938 0.227454 12.8735C0.230751 12.8208 0.206032 12.7884 0.151636 12.7627C0.105482 12.7411 0.0675665 12.71 0.0247092 12.683C0.0576764 12.6465 0.0939531 12.6114 0.120327 12.5722C0.178019 12.4898 0.250555 12.4303 0.37583 12.433C0.425281 12.3803 0.46483 12.3155 0.529116 12.279C0.590105 12.2439 0.693956 12.279 0.74011 12.1993C0.763187 12.1601 0.797822 12.1155 0.842328 12.0993C0.913207 12.0736 1.00551 12.0871 1.04672 12.0115C1.07145 11.9682 1.1077 11.929 1.1555 11.9182C1.20989 11.9061 1.26592 11.9034 1.30549 11.8777C1.32691 11.8642 1.34999 11.8426 1.34999 11.8237C1.34999 11.8115 1.31705 11.7926 1.29398 11.7845C1.27255 11.775 1.24449 11.7683 1.21977 11.771C1.13735 11.7791 1.05658 11.7939 0.974164 11.802C0.951087 11.8047 0.924721 11.7953 0.899996 11.7872C0.827468 11.7656 0.832404 11.7385 0.890096 11.6899C0.947789 11.6426 0.98902 11.5818 1.03682 11.5264C1.08957 11.517 1.15549 11.521 1.19176 11.4953C1.25275 11.4535 1.29559 11.3926 1.34504 11.34C1.39944 11.3318 1.45548 11.3292 1.50658 11.3143C1.52801 11.3089 1.53791 11.2792 1.55604 11.2616C1.58901 11.2278 1.61705 11.1792 1.66156 11.163C1.73408 11.1386 1.82309 11.1481 1.86595 11.0738C1.89068 11.0306 1.92857 10.9846 1.97473 10.9819C2.1033 10.9765 2.1577 10.9022 2.22363 10.8319C2.27308 10.7792 2.37858 10.8063 2.43298 10.7536C2.46924 10.7198 2.49563 10.6779 2.53189 10.6455C2.54673 10.632 2.57804 10.6252 2.60276 10.6212C2.73793 10.6009 2.87473 10.586 3.0099 10.5644C3.03133 10.5604 3.05112 10.5401 3.06761 10.5239C3.10222 10.4888 3.12363 10.4401 3.16649 10.4172C3.20934 10.3942 3.27032 10.3942 3.32307 10.3874C3.49285 10.3672 3.50605 10.3726 3.58352 10.2577C3.64616 10.1645 3.79948 10.2307 3.85058 10.128C3.88025 10.0686 3.93462 10.0199 4.03187 10.0132C4.16869 10.0037 4.30385 9.97804 4.44066 9.96047C4.56264 9.94426 4.561 9.94425 4.69286 9.8186C4.75221 9.76185 4.83959 9.76997 4.91706 9.75916C4.99948 9.74835 5.07529 9.73214 5.11485 9.66459C5.15441 9.59838 5.22693 9.57675 5.311 9.56729C5.38847 9.55784 5.47585 9.5646 5.53684 9.51056C5.68519 9.38085 5.68355 9.37949 5.7874 9.36598C5.95058 9.34436 6.11377 9.32275 6.27695 9.29978C6.38574 9.28491 6.49948 9.28221 6.60167 9.25249C6.67585 9.23087 6.70881 9.15521 6.75661 9.10252C6.89177 9.08225 7.02693 9.06198 7.1621 9.04306C7.35166 9.01604 7.54286 8.99173 7.73407 8.96605C7.81649 8.91471 7.82806 8.80122 7.96652 8.79581C8.04894 8.79311 8.1297 8.77555 8.21212 8.76474C8.34893 8.74582 8.4841 8.7215 8.62091 8.71204C8.72476 8.70529 8.74286 8.63232 8.79726 8.58638C8.81539 8.57017 8.83189 8.54721 8.85331 8.54316C9.0676 8.50532 9.28847 8.49722 9.49781 8.44182C9.51924 8.43642 9.53902 8.40804 9.54397 8.38777C9.54726 8.37697 9.51924 8.35671 9.50111 8.34725C9.47968 8.33644 9.45167 8.32563 9.42859 8.32833C8.74782 8.41886 8.06706 8.51074 7.38629 8.60126C7.29069 8.61477 7.29069 8.61341 7.05827 8.76204C7.03849 8.7742 7.01539 8.7877 6.99066 8.79176C6.88187 8.80797 6.77144 8.81744 6.66429 8.83771C6.57693 8.85392 6.50443 8.83769 6.44179 8.78905C6.39728 8.75392 6.35111 8.74312 6.29506 8.74582C6.23242 8.74988 6.19124 8.76474 6.15498 8.80122C6.10717 8.85121 6.08244 8.91606 5.98189 8.92957C5.5187 8.98767 5.05549 9.05252 4.59395 9.11467C4.52966 9.09576 4.49835 9.06739 4.51483 9.03361C4.52472 9.01334 4.54451 8.98632 4.56429 8.98362C4.75385 8.95525 4.94505 8.93093 5.13461 8.90391C5.16099 8.89986 5.19725 8.90254 5.21208 8.88903C5.28461 8.82823 5.31101 8.7296 5.44782 8.72285C5.52695 8.71879 5.6077 8.69853 5.68353 8.67962C5.70496 8.67421 5.72474 8.64584 5.72969 8.62557C5.73134 8.61476 5.70496 8.59449 5.68518 8.58503C5.61265 8.54585 5.5286 8.59315 5.45607 8.56613C5.43135 8.55667 5.39671 8.54316 5.39177 8.52694C5.38847 8.51208 5.41649 8.48776 5.43627 8.4729C5.45441 8.45938 5.47912 8.44723 5.50384 8.44317C5.72143 8.4121 5.93904 8.37967 6.15663 8.35535C6.24564 8.34589 6.30826 8.31211 6.34782 8.24996C6.37749 8.20402 6.41375 8.17971 6.4698 8.17295C6.85057 8.12296 7.23133 8.06757 7.61375 8.02163C7.70935 8.01082 7.75882 7.96624 7.79838 7.90814C7.8297 7.8622 7.86597 7.84598 7.92696 7.83788C8.47256 7.76762 9.01486 7.68926 9.56046 7.6217C9.66101 7.60954 9.6907 7.55144 9.7418 7.50145C9.75993 7.48389 9.77144 7.46227 9.79452 7.45146C9.8176 7.44065 9.84726 7.44199 9.87529 7.43929C10.3105 7.38119 10.7456 7.31905 11.1825 7.26501C11.2847 7.25285 11.3044 7.18528 11.3572 7.13799C11.3753 7.12313 11.3918 7.09882 11.4132 7.09477C11.7396 7.04883 12.066 7.00559 12.3923 6.96101C12.6099 6.93128 12.8275 6.90155 13.0451 6.87318C13.1522 6.85967 13.1522 6.85831 13.2973 6.72995C13.3138 6.71509 13.3369 6.69753 13.3583 6.69347C13.9847 6.607 14.6094 6.5246 15.2357 6.43948C15.2885 6.43272 15.3264 6.40163 15.3528 6.35569C15.3791 6.30976 15.4171 6.27868 15.4682 6.27192C15.9577 6.20437 16.4473 6.13817 16.9385 6.07467C17.0275 6.06386 17.0901 6.03143 17.1297 5.97063C17.1594 5.92469 17.1956 5.90038 17.2517 5.89362C17.7412 5.82877 18.2308 5.75985 18.722 5.6977C18.816 5.68554 18.8621 5.63961 18.9083 5.58556C18.9248 5.56665 18.938 5.53557 18.9577 5.53287C19.2017 5.49504 19.444 5.45585 19.6896 5.43018C19.7918 5.41937 19.8264 5.36262 19.8676 5.30858C19.9006 5.26534 19.9385 5.25049 20.0012 5.24508C20.138 5.23292 20.2731 5.20996 20.4067 5.18699C20.4264 5.18294 20.4512 5.15321 20.4528 5.1343C20.4561 5.09917 20.4182 5.07484 20.3555 5.06268C19.7028 5.15051 19.0484 5.23832 18.3957 5.32614C18.2885 5.34101 18.2885 5.34101 18.1435 5.46937C18.127 5.48423 18.1039 5.5018 18.0808 5.50585C17.4544 5.59097 16.8297 5.67474 16.2033 5.75986C16.1506 5.76662 16.1127 5.79769 16.0863 5.84363C16.0599 5.88957 16.022 5.92064 15.9709 5.9274C15.3726 6.00847 14.7742 6.09089 14.1742 6.1679C14.0852 6.17871 14.0226 6.20977 13.983 6.27192C13.9533 6.31786 13.9171 6.34219 13.861 6.34895C13.2891 6.42461 12.7187 6.50432 12.1451 6.57728C12.0874 6.58403 12.0446 6.54485 12.0478 6.50837C12.0495 6.48945 12.0742 6.45839 12.094 6.45569C12.3923 6.4111 12.6891 6.36516 12.9891 6.33138C13.0896 6.32057 13.1192 6.26112 13.1703 6.21113C13.1868 6.19357 13.2 6.1706 13.2215 6.16114C13.2445 6.15033 13.2742 6.15169 13.3022 6.14899C14.0094 6.05306 14.7165 5.95578 15.4253 5.86525C15.5275 5.85174 15.5473 5.78553 15.6 5.73824C15.6182 5.72203 15.6347 5.69771 15.6561 5.69501C15.8737 5.66259 16.0912 5.63421 16.3088 5.60583C16.6896 5.55449 17.0704 5.50315 17.4528 5.45181C17.5632 5.43694 17.5632 5.43694 17.705 5.30993C17.7215 5.29507 17.7446 5.27617 17.766 5.27347C18.7731 5.137 19.7803 5.00054 20.7874 4.86543C20.8402 4.85867 20.8781 4.8276 20.9045 4.78166C20.9308 4.73707 20.9687 4.70464 21.0198 4.69654C22.3814 4.51279 23.7413 4.32903 25.1028 4.14798C25.1918 4.13582 25.2545 4.10744 25.294 4.04394C25.322 3.998 25.3599 3.97369 25.416 3.96558C26.9127 3.76426 28.4094 3.56295 29.9078 3.36028C30.9149 3.22517 31.9221 3.08736 32.9292 2.95495C33.0215 2.94279 33.071 2.9009 33.1171 2.8455C33.1319 2.82659 33.1468 2.79551 33.1666 2.79281C33.3825 2.75903 33.5984 2.72796 33.8144 2.69688C33.8819 2.73336 33.9495 2.7685 34.0171 2.80498C34.0682 2.75363 34.1177 2.70094 34.1688 2.6496C34.4952 2.61041 34.8166 2.54961 35.1462 2.5307C35.1677 2.52935 35.1907 2.55502 35.2138 2.56853C35.3671 2.65365 35.4545 2.6469 35.5517 2.5334C35.5863 2.49287 35.616 2.45639 35.6688 2.44963C35.8319 2.42531 35.9968 2.4091 36.1584 2.38073C36.2457 2.36586 36.3182 2.37937 36.3809 2.42801C36.4254 2.46314 36.4715 2.47801 36.5259 2.4699C36.8259 2.42937 37.1243 2.39018 37.4243 2.34695C37.4457 2.34425 37.4655 2.32127 37.4819 2.30505C37.5166 2.26993 37.5463 2.2321 37.5792 2.19562C37.6237 2.21859 37.6732 2.23616 37.7094 2.26588C37.7556 2.30101 37.7984 2.301 37.8611 2.29155C39.0578 2.12806 40.2561 1.96863 41.4529 1.8038C41.5551 1.79029 41.5996 1.84704 41.6688 1.87676C41.6919 1.88757 41.7149 1.90108 41.7397 1.90378C41.766 1.90648 41.7941 1.89838 41.8204 1.89433C42.7188 1.77273 43.6172 1.65247 44.5155 1.53087C44.6342 1.51466 44.6342 1.51466 44.8106 1.59842C44.832 1.60923 44.86 1.6214 44.8831 1.61734C45.2919 1.56465 45.7007 1.50791 46.1078 1.45386C46.1606 1.44711 46.2051 1.46872 46.2529 1.4998C46.3468 1.5606 46.3534 1.5606 46.4226 1.47143C46.4556 1.42954 46.4902 1.40386 46.5446 1.3917C46.6039 1.37819 46.6518 1.38226 46.6979 1.40658C46.7639 1.44035 46.8117 1.49709 46.9122 1.48223C47.3474 1.41873 47.7842 1.36604 48.2177 1.30119C48.3166 1.28632 48.3694 1.33226 48.4353 1.36604C48.4584 1.3782 48.4798 1.39711 48.5045 1.40117C48.5293 1.40522 48.5589 1.39575 48.5853 1.3917C49.1293 1.31874 49.6748 1.24714 50.2172 1.16878C50.3193 1.15392 50.3639 1.212 50.4331 1.24173C50.4562 1.25254 50.4825 1.27146 50.504 1.26876C50.8303 1.22688 51.1584 1.18228 51.4848 1.13769C51.6018 1.12148 51.6018 1.12283 51.7798 1.20525C51.8012 1.21605 51.8293 1.22687 51.8523 1.22416C52.2331 1.17417 52.6155 1.12283 52.9963 1.07149C53.1133 1.05527 53.1133 1.05528 53.4512 1.12553C53.476 1.13094 53.5023 1.13906 53.5271 1.13635C53.9622 1.07826 54.399 1.0215 54.8342 0.95935C54.9216 0.94719 54.9941 0.957996 55.0567 1.00664C55.1012 1.04176 55.1474 1.05664 55.2018 1.04853C55.6913 0.982324 56.1826 0.918824 56.6705 0.848566C56.7644 0.835055 56.8254 0.864768 56.8913 0.90395C56.9128 0.917461 56.9342 0.936381 56.959 0.941785C56.9837 0.94719 57.0117 0.941781 57.0381 0.937728C57.5276 0.871523 58.0188 0.809375 58.5067 0.737766C58.6056 0.722903 58.6584 0.768839 58.7243 0.802616C58.7474 0.814776 58.7721 0.839098 58.7919 0.837747C58.9831 0.814778 59.1743 0.794518 59.3639 0.76074C59.4661 0.741825 59.5106 0.803965 59.5798 0.833689C59.6029 0.843147 59.6293 0.863424 59.6507 0.860722C60.0595 0.808028 60.4683 0.752636 60.8754 0.69589C60.9331 0.687783 60.976 0.699932 61.0221 0.735061C61.0831 0.78235 61.154 0.801266 61.243 0.786404C61.4326 0.755328 61.6238 0.733716 61.815 0.708045C61.9271 0.693183 61.9271 0.693187 62.2699 0.763445C62.2947 0.76885 62.321 0.77695 62.3458 0.774248C62.6721 0.731013 63.0002 0.689131 63.3249 0.641842C63.4122 0.628331 63.4848 0.640487 63.5474 0.689127C63.5919 0.724256 63.6364 0.739127 63.6925 0.73102C63.9925 0.690486 64.2908 0.64995 64.5908 0.609416C64.6996 0.594554 64.8084 0.568876 64.9172 0.568876C64.9963 0.570227 65.054 0.635078 65.1249 0.667505C65.1447 0.676963 65.1777 0.666166 65.204 0.663464C65.5848 0.612122 65.9672 0.564828 66.3463 0.50673C66.4452 0.491868 66.498 0.537803 66.5639 0.571581C66.587 0.583741 66.6117 0.608063 66.6315 0.606711C66.7683 0.591849 66.9035 0.57158 67.0403 0.554016C67.2035 0.532398 67.3683 0.516185 67.5298 0.48646C67.6617 0.46214 67.7112 0.579683 67.8167 0.583737C67.8974 0.58779 67.9798 0.564825 68.0606 0.554016C68.2238 0.532398 68.387 0.508081 68.5502 0.489165C68.6079 0.482409 68.6524 0.460782 68.6705 0.412142C68.6738 0.402685 68.6458 0.382426 68.6277 0.370266C68.4084 0.232453 68.4084 0.232446 68.1875 0.262171C68.0507 0.281086 67.9156 0.300005 67.7787 0.316218C67.7557 0.318921 67.7293 0.308112 67.7062 0.300006C67.6403 0.277037 67.6469 0.250017 67.7029 0.201377C67.759 0.152737 67.8018 0.0932932 67.8496 0.0378975C67.9172 0.0730265 67.9832 0.108143 68.0507 0.143272C68.1051 0.136516 68.1595 0.128422 68.2139 0.121666C68.4859 0.086537 68.7579 0.0500542 69.0299 0.0176275C69.0496 0.0149253 69.0743 0.0419515 69.0974 0.0554626C69.1634 0.094645 69.2227 0.128414 69.3183 0.113551C69.5623 0.074369 69.8079 0.0459956 70.0518 0.0122177C70.159 -0.00264451 70.159 -0.00264319 70.3469 0.0811259C70.3683 0.0905837 70.3963 0.101393 70.4194 0.098691C70.665 0.0676154 70.909 0.0338415 71.1546 0.00141477C71.2073 -0.0053408 71.2584 0.012223 71.2963 0.0514053C71.3112 0.0676187 71.3079 0.0946357 71.3705 0.316218C71.565 0.495917 71.6985 0.47701 71.8337 0.460797C71.8914 0.454041 71.9425 0.447279 71.9804 0.420257C72.0002 0.405395 72.0249 0.383774 72.0249 0.366209C72.0249 0.352698 71.9887 0.331076 71.9656 0.328374C71.8024 0.301352 71.6474 0.358106 71.4875 0.370266C71.4134 0.375671 71.3491 0.328381 71.3359 0.251368C71.3326 0.22975 71.3277 0.206782 71.3227 0.185164C71.3178 0.163547 71.3145 0.140579 71.3095 0.118961C71.2453 0.112205 71.2073 0.136522 71.1793 0.182459C71.1562 0.220291 71.1233 0.263526 71.0788 0.283793C71.0342 0.305411 70.9733 0.301365 70.9189 0.30812C70.8661 0.314876 70.8084 0.332438 70.759 0.322981C70.7095 0.312172 70.67 0.272983 70.6238 0.248663C70.6024 0.236503 70.576 0.218945 70.5546 0.221647C70.365 0.244616 70.1771 0.267576 69.9892 0.297301C69.8903 0.313514 69.8409 0.256776 69.7782 0.221647C69.7288 0.194625 69.6793 0.201372 69.6711 0.263523C69.6496 0.412146 69.7255 0.474294 69.8936 0.44592C70.0321 0.4216 70.1573 0.417559 70.2661 0.509435C70.281 0.521595 70.3156 0.526998 70.337 0.524295C70.4722 0.508082 70.6057 0.487813 70.7408 0.4716C70.7656 0.468898 70.792 0.474294 70.815 0.479698C71.1513 0.552658 71.1513 0.554017 71.265 0.537803C71.3194 0.529697 71.3722 0.52294 71.3672 0.317571C71.4711 0.0973393 71.6359 0.0824797 71.7958 0.0500529C71.8997 0.0297862 71.9441 0.0892379 72.0117 0.120313C72.0348 0.131122 72.0595 0.152736 72.081 0.150034C72.4354 0.105447 72.7881 0.0581517 73.1408 0.00816045C73.2002 5.37606e-05 73.243 0.00816177 73.2892 0.0432907C73.3485 0.0878775 73.4145 0.116257 73.5084 0.100043C73.6963 0.0676167 73.8875 0.0473546 74.0788 0.0203324C74.176 0.00682121 74.176 0.00680736 74.3722 0.0905764C74.3936 0.100034 74.4216 0.110844 74.4447 0.108142C74.6359 0.0851726 74.8255 0.0568078 75.015 0.0324878C75.0678 0.0257322 75.1156 0.0446458 75.1568 0.0811259C75.198 0.117606 75.2475 0.13652 75.2986 0.129764C75.4898 0.105444 75.6793 0.0784303 75.8689 0.0541102C75.892 0.051408 75.92 0.0608651 75.9414 0.0703229C76.1425 0.154092 76.1425 0.154078 76.2348 0.140567C76.37 0.1203 76.5084 0.110853 76.642 0.0838308C76.7722 0.0568085 76.8398 0.135167 76.9288 0.178402C77.1727 0.147327 77.4183 0.121662 77.6606 0.0838308C77.7595 0.0676174 77.8123 0.1122 77.8782 0.147329C77.9013 0.159489 77.9244 0.185163 77.9458 0.183812C78.0282 0.178407 78.109 0.163548 78.1898 0.152739C78.2706 0.14193 78.353 0.131122 78.4337 0.120313C78.526 0.159496 78.587 0.25137 78.7189 0.220295C78.798 0.201379 78.8821 0.197326 78.9629 0.186517C79.0436 0.175708 79.126 0.1649 79.2068 0.154091C79.2612 0.147336 79.3172 0.143277 79.37 0.131116C79.4672 0.11085 79.5151 0.177062 79.5843 0.206787C79.6074 0.216245 79.6337 0.232447 79.6552 0.229745C79.8183 0.21083 79.9832 0.194618 80.1431 0.163542C80.2667 0.139222 80.3508 0.179761 80.4381 0.236507C80.4563 0.248667 80.4876 0.255422 80.5106 0.25272C80.7019 0.229751 80.8914 0.20137 81.081 0.17705C81.1321 0.170294 81.1815 0.191911 81.2227 0.22704C81.2656 0.26352 81.3134 0.281098 81.3661 0.274343C81.5557 0.250022 81.7469 0.222992 81.9365 0.198672C81.9596 0.19597 81.9876 0.206781 82.009 0.21759C82.1936 0.301359 82.1936 0.302711 82.3024 0.286498C82.3288 0.282445 82.3568 0.279732 82.3832 0.275678C82.5184 0.256763 82.6585 0.250017 82.7903 0.21759C82.942 0.18111 83.0524 0.22705 83.1596 0.304063C83.2947 0.28785 83.4332 0.27839 83.5651 0.251368C83.664 0.231101 83.7167 0.282441 83.7826 0.316218C83.8057 0.328379 83.8304 0.352699 83.8502 0.349996C84.0414 0.327027 84.2326 0.306768 84.4205 0.27299C84.5227 0.254074 84.5673 0.314863 84.6365 0.345939C84.6596 0.356748 84.6843 0.375673 84.7057 0.372971C84.8145 0.362162 84.9233 0.345941 85.0321 0.331079C85.159 0.313514 85.159 0.314864 85.3271 0.397282C85.4063 0.436464 85.4854 0.405387 85.5629 0.39593C85.6453 0.385121 85.7227 0.377017 85.7887 0.432412C85.8299 0.467541 85.8794 0.48916 85.9305 0.483755C86.0392 0.471595 86.1497 0.459441 86.2568 0.439175C86.3425 0.422961 86.4167 0.433764 86.4793 0.483755C86.5238 0.518884 86.57 0.536459 86.6244 0.528353C86.8684 0.495926 87.114 0.462136 87.3579 0.43106C87.3793 0.428358 87.409 0.440522 87.4288 0.452682C87.4749 0.477002 87.5195 0.504019 87.564 0.531041C87.6711 0.518881 87.7815 0.51349 87.887 0.494575C87.9991 0.475659 88.1013 0.468902 88.1887 0.543213C88.2068 0.559426 88.2332 0.582383 88.2546 0.581032C88.337 0.575627 88.4178 0.56212 88.4986 0.551311C88.5793 0.540502 88.6618 0.529695 88.7425 0.518886C88.8365 0.552663 88.8959 0.649942 89.0277 0.618867C89.1068 0.599951 89.1909 0.595898 89.2717 0.585089C89.3524 0.57428 89.4349 0.562121 89.5156 0.552664C89.542 0.549961 89.5717 0.543202 89.5947 0.548606C89.6195 0.554011 89.6409 0.57293 89.6623 0.586441C89.7283 0.625624 89.7893 0.664811 89.8832 0.641842C89.9623 0.622926 90.0464 0.618871 90.1272 0.606711C90.2376 0.591849 90.2376 0.591852 90.4206 0.676972C90.4948 0.712101 90.5788 0.666165 90.6497 0.69589C90.6975 0.716156 90.7387 0.749927 90.7849 0.772896C90.8046 0.782354 90.8359 0.786401 90.859 0.783699C90.9678 0.771539 91.0783 0.759385 91.1854 0.739118C91.2728 0.722905 91.3453 0.739116 91.4063 0.787756C91.4508 0.822885 91.4953 0.837755 91.5513 0.829649C91.8233 0.791817 92.0953 0.75938 92.3656 0.717496C92.458 0.702633 92.5321 0.725608 92.5832 0.774248C92.6706 0.858017 92.7942 0.759388 92.8849 0.826944C92.9409 0.868828 92.997 0.917471 93.0992 0.897204C93.2871 0.862075 93.4783 0.843149 93.6678 0.818829C93.7354 0.855309 93.803 0.891797 93.8722 0.928277C93.981 0.913415 94.0898 0.898544 94.1986 0.885032C94.2794 0.874223 94.3618 0.862065 94.4426 0.852607C94.4689 0.849905 94.4969 0.844499 94.5217 0.851255C94.5464 0.85801 94.5662 0.875579 94.5893 0.88909C94.703 0.955294 94.703 0.956652 94.8909 0.92963C94.9717 0.91747 95.0492 0.909363 95.1167 0.963408C95.1794 1.0134 95.2535 1.02285 95.3392 1.00799C95.5008 0.980966 95.664 0.960701 95.8288 0.941785C95.8799 0.93503 95.9277 0.957999 95.9706 0.993128C96.0349 1.04852 96.114 1.04312 96.1948 1.02826C96.3019 1.00934 96.4074 0.990431 96.498 1.06609C96.5162 1.08231 96.5442 1.10526 96.564 1.10391C96.6992 1.0931 96.836 1.085 96.9678 1.05933C97.0997 1.03366 97.164 1.11743 97.2547 1.15796C97.3898 1.1404 97.5266 1.12283 97.6618 1.10526C97.6882 1.10121 97.7195 1.08906 97.7426 1.09581C97.8398 1.12419 97.8959 1.22552 98.0294 1.19444C98.1068 1.17688 98.1909 1.17148 98.2717 1.16743C98.2931 1.16608 98.3212 1.18903 98.336 1.2066C98.3442 1.21606 98.336 1.24173 98.3261 1.25524C98.2964 1.29307 98.2601 1.32821 98.2338 1.36739C98.2305 1.37279 98.2618 1.3971 98.2799 1.40791C98.3244 1.43223 98.3755 1.42819 98.4349 1.41738C98.486 1.40792 98.5387 1.42684 98.575 1.46737C98.5898 1.48358 98.5849 1.5106 98.5535 1.59978C98.5535 1.66598 98.5882 1.63625 98.5997 1.59301C98.6178 1.53086 98.5832 1.5106 98.5173 1.54438C98.4711 1.5687 98.4481 1.60383 98.4596 1.6322C98.4662 1.64706 98.4975 1.66598 98.5535 1.59978C98.6986 1.51871 98.8074 1.50386 98.9162 1.48899C98.9442 1.48494 98.9772 1.47142 98.997 1.47953C99.0679 1.51195 99.1338 1.55114 99.203 1.58762C99.2821 1.57952 99.3563 1.55924 99.4338 1.61193C99.5426 1.68624 99.5475 1.67949 99.653 1.66463C99.7074 1.65652 99.7618 1.64978 99.8162 1.64302C99.8706 1.63627 99.9134 1.65653 99.9612 1.6876C100.058 1.75111 100.067 1.7511 100.131 1.66463C100.169 1.61193 100.195 1.59437 100.243 1.61869C100.401 1.70111 100.403 1.70651 100.538 1.68219C100.65 1.66193 100.756 1.65652 100.838 1.73354C100.894 1.78758 100.912 1.77542 100.957 1.71868C101.076 1.5687 101.13 1.5714 101.352 1.67949C101.456 1.73083 101.563 1.67544 101.669 1.66869C101.758 1.66328 101.821 1.6957 101.827 1.78082C101.832 1.83352 101.847 1.87135 101.906 1.88892C101.929 1.89567 101.957 1.90513 101.98 1.90243C102.117 1.88621 102.252 1.86729 102.389 1.84838C102.458 1.83892 102.496 1.77543 102.483 1.69166C102.468 1.60249 102.495 1.57005 102.594 1.54438C102.653 1.52951 102.701 1.53223 102.749 1.55655C102.801 1.58357 102.787 1.60789 102.74 1.65653C102.63 1.77543 102.643 1.84838 102.785 1.93079C102.834 1.95917 102.874 1.98485 102.885 2.02673C102.892 2.04835 102.885 2.07672 102.9 2.09294C102.981 2.18346 103.093 2.24157 103.218 2.2848C103.339 2.24832 103.421 2.30911 103.513 2.35775C103.586 2.39558 103.672 2.36316 103.749 2.34965C103.837 2.33479 103.909 2.34559 103.972 2.39559C104.016 2.43071 104.062 2.44692 104.117 2.44017C104.226 2.4253 104.336 2.41585 104.443 2.39423C104.535 2.37532 104.605 2.40234 104.662 2.44828C104.735 2.50638 104.816 2.46719 104.892 2.4753C104.994 2.48475 105.045 2.605 105.178 2.57257C105.257 2.55366 105.34 2.5469 105.422 2.5415C105.444 2.54015 105.47 2.56312 105.488 2.57934C105.576 2.65365 105.678 2.64959 105.79 2.62797C105.867 2.61311 105.943 2.59961 106.019 2.65095C106.144 2.73742 106.283 2.81309 106.415 2.8928C106.433 2.95495 106.42 3.0279 106.513 3.06438C106.563 3.0833 106.609 3.11168 106.647 3.14276C106.693 3.17924 106.736 3.1887 106.795 3.17924C106.902 3.16032 107.015 3.15626 107.12 3.13194C107.217 3.11032 107.278 3.15492 107.338 3.1968C107.385 3.23058 107.43 3.24679 107.488 3.22247C107.547 3.1995 107.59 3.21435 107.638 3.25083C107.705 3.30083 107.71 3.29543 107.934 3.31029C107.957 3.31164 107.985 3.3319 107.999 3.34946C108.005 3.35892 107.99 3.38596 107.979 3.39947C107.964 3.41568 107.941 3.43459 107.92 3.43864C107.676 3.47377 107.43 3.50485 107.186 3.53998C107.161 3.54403 107.135 3.5535 107.117 3.56701C107.097 3.58187 107.072 3.60212 107.072 3.62104C107.072 3.63455 107.105 3.65077 107.128 3.66023C107.201 3.6913 107.287 3.64402 107.357 3.67914C107.405 3.70211 107.445 3.73453 107.493 3.75615C107.512 3.76561 107.544 3.76426 107.568 3.76156C107.651 3.7521 107.732 3.73859 107.814 3.73049C107.837 3.72914 107.863 3.74265 107.885 3.75346C108.043 3.83453 108.043 3.83452 108.18 3.81696C108.234 3.8102 108.292 3.78994 108.343 3.79804C108.393 3.80615 108.435 3.84263 108.48 3.8656C108.572 3.91424 108.66 3.96153 108.666 4.06691C108.67 4.10745 108.724 4.14257 108.778 4.14527C108.831 4.14797 108.887 4.13313 108.941 4.12502C109.07 4.10881 109.07 4.1088 109.237 4.19122C109.283 4.21419 109.332 4.21689 109.391 4.20338C109.415 4.19797 109.443 4.20338 109.467 4.21014C109.548 4.23041 109.548 4.25607 109.495 4.30471C109.421 4.37632 109.428 4.38308 109.635 4.44388C109.715 4.46685 109.776 4.51009 109.841 4.54792C109.949 4.60872 109.947 4.60871 109.876 4.68842C109.86 4.70599 109.845 4.72491 109.828 4.74382C109.781 4.79652 109.743 4.85326 109.644 4.85866C109.535 4.86407 109.426 4.88569 109.317 4.90056C109.212 4.91542 109.184 4.94783 109.194 5.03971C109.205 5.1505 109.227 5.16266 109.416 5.16131C109.471 5.16131 109.518 5.17212 109.56 5.2086C109.54 5.25183 109.504 5.28561 109.451 5.29372C109.316 5.31399 109.179 5.33156 109.044 5.34912C108.935 5.36398 108.826 5.37884 108.717 5.3937C108.65 5.40316 108.607 5.47342 108.625 5.55179C108.635 5.59637 108.643 5.64096 108.651 5.68555C108.67 5.77472 108.704 5.79769 108.815 5.79364C108.843 5.79229 108.869 5.78147 108.895 5.78417C109.002 5.79363 109.054 5.90577 109.182 5.8828C109.289 5.86389 109.401 5.85984 109.507 5.83552C109.604 5.8139 109.659 5.86255 109.726 5.89903C109.749 5.91119 109.774 5.93685 109.794 5.9355C109.931 5.92064 110.067 5.90579 110.201 5.88011C110.263 5.86931 110.301 5.87741 110.351 5.90984C110.47 5.9882 110.473 5.98415 110.649 5.95983C110.778 5.94091 110.779 5.94361 110.944 6.02603C110.99 6.049 111.04 6.04899 111.099 6.03818C111.177 6.02467 111.257 6.00306 111.338 6.02332C111.363 6.02873 111.394 6.04495 111.403 6.06251C111.407 6.07467 111.384 6.1044 111.365 6.11385C111.22 6.18411 111.05 6.17195 110.892 6.20033C110.842 6.20843 110.793 6.18276 110.751 6.14628C110.709 6.1098 110.662 6.09494 110.606 6.1017C110.498 6.11656 110.387 6.12601 110.28 6.14763C110.188 6.16655 110.123 6.13547 110.059 6.09358C110.038 6.08007 110.013 6.0544 109.992 6.05575C109.748 6.08277 109.502 6.1098 109.26 6.14763C109.162 6.16385 109.106 6.12061 109.04 6.08413C109.017 6.07197 108.994 6.0463 108.973 6.04765C108.89 6.05306 108.81 6.06792 108.727 6.07872C108.427 6.11926 108.129 6.15979 107.829 6.19762C107.809 6.20033 107.784 6.17195 107.761 6.15979C107.717 6.13547 107.671 6.1125 107.624 6.08953C107.542 6.10034 107.461 6.11385 107.379 6.12195C107.32 6.12736 107.267 6.14628 107.259 6.19762C107.254 6.2314 107.308 6.26247 107.366 6.25977C107.422 6.25707 107.478 6.24085 107.524 6.25842C107.753 6.34489 107.753 6.34624 107.896 6.32868C108.022 6.31246 108.009 6.29895 108.119 6.37326C108.167 6.40569 108.21 6.42461 108.264 6.4165C108.399 6.39759 108.536 6.37867 108.673 6.36246C108.694 6.35975 108.722 6.37327 108.744 6.38408C108.905 6.46514 108.905 6.46784 109.039 6.44758C109.213 6.42326 109.22 6.4165 109.337 6.49892C109.418 6.55567 109.492 6.51648 109.57 6.51378C109.659 6.56647 109.756 6.61377 109.837 6.67322C109.932 6.74348 110.033 6.7313 110.141 6.71104C110.222 6.69617 110.301 6.69077 110.367 6.74617C110.43 6.79751 110.506 6.80292 110.591 6.78941C110.669 6.77725 110.748 6.75157 110.829 6.7813C110.85 6.7894 110.883 6.80968 110.882 6.82184C110.88 6.84075 110.859 6.86778 110.837 6.87589C110.685 6.93128 110.519 6.92993 110.359 6.9556C110.338 6.95965 110.31 6.94478 110.288 6.93397C110.242 6.90965 110.198 6.88129 110.153 6.85562C110.072 6.86372 109.99 6.86642 109.911 6.88263C109.85 6.89479 109.804 6.89345 109.759 6.86103C109.718 6.8313 109.673 6.79481 109.624 6.78535C109.574 6.7759 109.517 6.79617 109.462 6.80427C109.408 6.81238 109.345 6.80832 109.303 6.82994C109.26 6.85155 109.233 6.89885 109.205 6.93668C109.174 6.97856 109.131 6.99208 109.068 6.99614C109.011 7.00019 108.965 6.99478 108.922 6.95695C108.904 6.94074 108.879 6.92857 108.854 6.91776C108.831 6.9083 108.805 6.89344 108.783 6.89614C108.538 6.92721 108.294 6.961 108.048 6.99343C107.926 7.00964 107.928 7.00963 107.674 6.92992C107.651 6.92316 107.623 6.91371 107.6 6.91641C107.463 6.93262 107.328 6.95154 107.191 6.97046C107.052 6.98937 107.054 6.98667 106.818 6.90155C106.776 6.88534 106.713 6.90696 106.662 6.90425C106.555 6.8975 106.502 6.78401 106.377 6.80562C106.27 6.82454 106.157 6.82859 106.05 6.85291C105.953 6.87453 105.897 6.82724 105.831 6.79076C105.808 6.7786 105.783 6.75158 105.763 6.75428C105.518 6.78401 105.274 6.81778 104.948 6.82184C104.867 6.82184 104.903 6.85021 104.956 6.85967C105.032 6.87453 105.056 6.84616 105.015 6.79212C104.985 6.75429 104.943 6.73536 104.908 6.74481C104.89 6.75022 104.867 6.7759 104.948 6.82184C105.033 6.87318 105.028 6.90155 105.043 6.91776C105.079 6.95694 105.131 6.97316 105.183 6.96775C105.266 6.95829 105.346 6.94479 105.429 6.93668C105.452 6.93398 105.48 6.94344 105.501 6.95424C105.683 7.03801 105.684 7.04342 105.877 7.011C105.938 7.00154 105.983 7.00154 106.031 7.02721C106.096 7.06234 106.144 7.12178 106.245 7.10286C106.378 7.07719 106.515 7.06234 106.652 7.04748C106.673 7.04478 106.696 7.0691 106.721 7.0799C106.789 7.11233 106.838 7.17313 106.939 7.14746C107.016 7.12719 107.1 7.12178 107.183 7.11772C107.204 7.11637 107.237 7.13799 107.247 7.15556C107.267 7.18663 107.242 7.22312 107.186 7.24879C107.163 7.2596 107.132 7.2569 107.105 7.26095C106.996 7.27581 106.888 7.29202 106.779 7.30418C106.721 7.31093 106.667 7.33121 106.66 7.3812C106.655 7.41498 106.715 7.4447 106.771 7.44199C106.853 7.43794 106.935 7.42713 107.015 7.40957C107.155 7.37984 107.277 7.38795 107.39 7.47307C107.471 7.53252 107.466 7.51091 107.552 7.68655C107.573 7.73114 107.638 7.73519 107.694 7.73249C107.829 7.72573 107.891 7.746 107.88 7.78789C107.865 7.83923 107.817 7.85543 107.756 7.86219C107.648 7.873 107.539 7.89057 107.43 7.90543C107.404 7.90949 107.374 7.91759 107.349 7.91488C107.324 7.91218 107.301 7.89597 107.28 7.88381C107.234 7.85814 107.194 7.81895 107.145 7.80949C107.095 7.80004 107.038 7.8203 106.983 7.82841C106.929 7.83517 106.871 7.85543 106.822 7.84598C106.772 7.83652 106.731 7.79599 106.687 7.77167C106.665 7.75951 106.639 7.74059 106.617 7.74194C106.509 7.75275 106.4 7.77032 106.291 7.78383C106.157 7.80139 106.157 7.8014 105.996 7.71763C105.95 7.69331 105.902 7.69466 105.841 7.70547C105.709 7.72709 105.707 7.72303 105.467 7.64466C105.444 7.63655 105.416 7.6271 105.393 7.63115C105.147 7.66223 104.903 7.696 104.659 7.72843C104.45 7.7568 104.45 7.75681 104.334 7.89193C104.249 7.99191 104.247 7.9919 104.331 8.03784C104.399 8.07567 104.46 8.13106 104.534 8.15133C104.603 8.17024 104.689 8.10945 104.765 8.1716C104.802 8.20268 104.852 8.23646 104.9 8.24186C104.976 8.24862 105.056 8.20943 105.129 8.26888C105.165 8.2986 105.22 8.32969 105.266 8.33104C105.346 8.33374 105.429 8.31211 105.51 8.30265C105.534 8.29995 105.562 8.29996 105.585 8.30671C105.61 8.31482 105.632 8.33103 105.653 8.34455C105.719 8.39048 105.79 8.4121 105.876 8.38913C106.016 8.3513 106.141 8.37021 106.25 8.45668C106.265 8.46884 106.301 8.4702 106.324 8.4648C106.383 8.45129 106.434 8.44993 106.479 8.4756C106.497 8.48641 106.523 8.50532 106.52 8.51748C106.515 8.53774 106.495 8.56477 106.474 8.57152C106.319 8.61746 106.152 8.62287 105.993 8.64719C105.971 8.6499 105.945 8.63232 105.923 8.62016C105.877 8.59584 105.838 8.55532 105.788 8.54586C105.739 8.5364 105.681 8.55397 105.627 8.56072C105.572 8.56748 105.515 8.58775 105.465 8.57964C105.416 8.57018 105.37 8.5364 105.33 8.50667C105.284 8.4729 105.239 8.46885 105.178 8.48236C105.099 8.49993 105.017 8.50263 104.936 8.51208C104.892 8.48641 104.847 8.45803 104.801 8.43371C104.779 8.42155 104.753 8.40669 104.73 8.40804C104.621 8.41885 104.512 8.43506 104.404 8.44992C104.295 8.46478 104.295 8.4648 104.11 8.38103C104.089 8.37157 104.061 8.36076 104.038 8.36346C103.901 8.37968 103.766 8.39993 103.629 8.41614C103.576 8.4229 103.528 8.40398 103.485 8.3675C103.444 8.33102 103.395 8.31076 103.344 8.31751C103.126 8.34589 102.909 8.37291 102.691 8.40669C102.604 8.4202 102.529 8.40805 102.47 8.35941C102.401 8.30401 102.323 8.31752 102.243 8.32833C102.06 8.35536 102.058 8.354 101.941 8.28509C101.918 8.27158 101.895 8.2459 101.873 8.24725C101.684 8.26752 101.493 8.28644 101.305 8.31887C101.206 8.33643 101.153 8.28914 101.087 8.25402C101.064 8.24186 101.039 8.21618 101.02 8.21889C100.883 8.23375 100.746 8.24726 100.612 8.27429C100.479 8.30131 100.428 8.17566 100.327 8.17701C100.19 8.17836 100.055 8.20944 99.92 8.22835C99.8112 8.24321 99.7025 8.25807 99.5937 8.27293C99.4849 8.2878 99.3761 8.29995 99.2673 8.31751C99.2096 8.32697 99.1668 8.31481 99.119 8.28103C99.058 8.23644 98.9854 8.20133 98.9195 8.1608C98.819 8.1027 98.8189 8.10269 98.697 8.1189C98.6706 8.12296 98.6426 8.12565 98.6162 8.12971C98.4167 8.15943 98.4167 8.15674 98.1629 8.07162C98.1514 8.06756 98.1217 8.08243 98.1101 8.09324C98.0755 8.12837 98.0442 8.16619 98.0129 8.20267C97.9684 8.18105 97.914 8.1689 97.8843 8.13782C97.8003 8.05 97.6684 8.17024 97.5827 8.08377C97.5514 8.05135 97.497 8.02297 97.4475 8.01487C97.3964 8.00676 97.3387 8.02568 97.286 8.03378C97.1492 8.05405 97.1491 8.0527 97.0321 8.17295C96.9728 8.2324 96.8871 8.22159 96.8096 8.2351C96.7288 8.24996 96.6513 8.25807 96.5838 8.20267C96.5228 8.15268 96.4486 8.14053 96.3613 8.15674C96.2541 8.17701 96.1437 8.18916 96.0349 8.20132C96.0118 8.20402 95.9838 8.19727 95.9607 8.18916C95.7085 8.10945 95.7085 8.1081 95.5865 8.12567C95.5321 8.13377 95.4761 8.13646 95.4233 8.14862C95.3343 8.17024 95.2667 8.14187 95.2025 8.09863C95.181 8.08512 95.1563 8.05946 95.1349 8.06082C95.0261 8.06757 94.9189 8.07973 94.8118 8.09189C94.7294 8.10135 94.6469 8.10675 94.5678 8.12567C94.436 8.15674 94.3717 8.06891 94.281 8.02837C94.1458 8.04594 94.009 8.0581 93.8739 8.08242C93.8112 8.09323 93.77 8.08918 93.7222 8.05676C93.6613 8.01622 93.6052 7.97029 93.5063 7.99055C93.3744 8.01758 93.236 8.02704 93.1008 8.04325C93.0101 8.00137 92.9442 7.91623 92.814 7.94731C92.7349 7.96623 92.6508 7.97028 92.57 7.98109C92.4612 7.99595 92.3525 8.00947 92.2437 8.02568C92.1266 8.0419 92.1283 8.03785 91.9486 7.95813C91.8448 7.91084 91.7376 7.96353 91.6321 7.97164C91.5497 7.97839 91.5085 8.04054 91.5283 8.12026C91.548 8.19997 91.5035 8.26212 91.4277 8.27293C91.2381 8.2986 91.0469 8.32562 90.8574 8.34859C90.8343 8.35129 90.8063 8.34183 90.7849 8.33237C90.5821 8.24725 90.5821 8.24862 90.4914 8.26078C90.3563 8.28104 90.2178 8.29184 90.0843 8.31751C89.992 8.33508 89.9244 8.30672 89.8651 8.26078C89.8189 8.22565 89.7761 8.21754 89.7167 8.22565C89.064 8.31617 88.4112 8.39994 87.7601 8.49317C87.6629 8.50668 87.6068 8.4675 87.5409 8.43102C87.5178 8.41886 87.4964 8.39318 87.4733 8.39318C87.4189 8.39318 87.3645 8.40535 87.3101 8.41345C87.0662 8.44588 86.8222 8.48506 86.5766 8.50938C86.4728 8.52019 86.4447 8.58234 86.4002 8.63369C86.3656 8.67287 86.3261 8.68908 86.2651 8.69448C86.2057 8.69988 86.1629 8.69313 86.1167 8.658C86.0574 8.61206 85.9898 8.58368 85.8975 8.6026C85.7904 8.62421 85.6815 8.63368 85.5711 8.64855C85.515 8.6553 85.4722 8.67962 85.4541 8.72826C85.4508 8.73636 85.4854 8.75664 85.5052 8.7688C85.5711 8.80933 85.6337 8.85662 85.7079 8.88499C85.7837 8.91336 85.8661 8.88093 85.9453 8.87282C85.9733 8.87012 85.9997 8.86202 86.026 8.86337C86.0508 8.86472 86.0805 8.87148 86.0986 8.88364C86.1843 8.94444 86.2749 8.98632 86.3936 8.94984C86.4958 8.96741 86.5486 9.07955 86.6788 9.04982C86.7579 9.03226 86.8404 9.02415 86.9228 9.0174C86.9442 9.01605 86.9673 9.04037 86.9903 9.05253C87.0563 9.08631 87.109 9.14035 87.2079 9.11738C87.3134 9.09306 87.4255 9.08901 87.5327 9.07009C87.592 9.05928 87.6348 9.06874 87.681 9.10387C87.7403 9.14846 87.8079 9.18223 87.9002 9.16061C87.9794 9.14169 88.0634 9.13764 88.1442 9.12548C88.2497 9.11061 88.2497 9.11197 88.4376 9.19574C88.459 9.2052 88.487 9.216 88.5101 9.2133C88.6469 9.19709 88.7821 9.17682 88.9189 9.16061C88.9717 9.15385 89.0228 9.17142 89.059 9.2106C89.0739 9.22681 89.0689 9.25385 89.0738 9.27682C88.8019 9.3133 88.5299 9.34437 88.2596 9.38895C88.1574 9.40652 88.1112 9.35112 88.0436 9.32005C88.0205 9.30924 87.9958 9.28627 87.9744 9.28897C87.7832 9.31194 87.5936 9.33625 87.4041 9.36598C87.3447 9.37544 87.3002 9.37003 87.2557 9.33085C87.142 9.22681 87.0035 9.28356 86.875 9.29842C86.7761 9.30923 86.7447 9.35112 86.7563 9.4403C86.7711 9.54568 86.8304 9.57811 86.9821 9.5592C87.0365 9.55244 87.0909 9.54298 87.1453 9.53757C87.198 9.53217 87.2458 9.54973 87.2887 9.58621C87.3299 9.62269 87.3793 9.64161 87.4304 9.6362C87.5392 9.62404 87.6497 9.61189 87.7552 9.59162C87.8425 9.57541 87.9151 9.58892 87.9761 9.63891C88.0436 9.6943 88.1228 9.68214 88.2019 9.66998C88.3865 9.64296 88.3881 9.64432 88.5035 9.71187C88.5266 9.72538 88.5497 9.75106 88.5711 9.74971C88.7607 9.72944 88.9519 9.71187 89.1382 9.67945C89.2354 9.66323 89.2915 9.70646 89.3557 9.74159C89.3788 9.75375 89.4019 9.78078 89.4233 9.77808C89.5601 9.76321 89.6969 9.74835 89.8305 9.72268C89.8931 9.71052 89.931 9.71862 89.9821 9.75104C90.1041 9.83076 90.1074 9.82806 90.2805 9.80239C90.3332 9.79428 90.3909 9.77942 90.4403 9.79023C90.4898 9.80104 90.5294 9.84023 90.5755 9.86455C90.5969 9.87536 90.6233 9.89021 90.6464 9.88751C90.7552 9.8767 90.864 9.86049 90.9728 9.84563C91.075 9.83077 91.075 9.83212 91.2662 9.91589C91.3436 9.95102 91.4244 9.92129 91.5019 9.91048C91.586 9.89832 91.6618 9.89833 91.7261 9.95102C91.7903 10.0037 91.8678 10.001 91.9503 9.99019C92.0277 9.97938 92.1068 9.94967 92.186 9.98615C92.3673 10.0699 92.3673 10.0713 92.4794 10.055C92.6426 10.0321 92.8041 10.0105 92.9689 9.99019C92.9904 9.98749 93.0184 10.0037 93.0398 10.0145C93.086 10.0388 93.1255 10.0794 93.175 10.0888C93.2244 10.0996 93.2821 10.0834 93.3349 10.0753C93.5046 10.0496 93.5162 10.0402 93.6299 10.1294C93.7255 10.2023 93.8442 10.0969 93.9332 10.1807C93.9843 10.228 94.0535 10.2658 94.1491 10.2429C94.2283 10.2239 94.3107 10.2185 94.3931 10.2077C94.5233 10.1902 94.5233 10.1915 94.6882 10.2726C94.7096 10.2834 94.7376 10.2969 94.759 10.2942C94.8678 10.2834 94.9783 10.2739 95.0838 10.2496C95.2074 10.2212 95.2865 10.2726 95.3788 10.3226C95.4513 10.3618 95.5371 10.3293 95.6145 10.3158C95.6986 10.3023 95.7744 10.3064 95.8371 10.359C95.903 10.4131 95.9805 10.4063 96.0629 10.3955C96.1404 10.3861 96.2195 10.355 96.2986 10.3928C96.4684 10.4766 96.4684 10.4766 96.592 10.4604C96.7008 10.4455 96.8096 10.4293 96.9184 10.4185C96.9398 10.4158 96.9662 10.4334 96.9876 10.4455C97.0338 10.4698 97.0733 10.5104 97.1228 10.5198C97.1722 10.5293 97.2299 10.5117 97.2843 10.505C97.3387 10.4982 97.3964 10.478 97.4458 10.4861C97.4953 10.4942 97.5415 10.5279 97.581 10.5577C97.6272 10.5928 97.67 10.5968 97.7327 10.5833C97.8118 10.5658 97.8942 10.5617 97.975 10.5523C98.0195 10.5779 98.0656 10.6036 98.1085 10.632C98.153 10.6617 98.2008 10.659 98.2618 10.6495C98.4645 10.6171 98.4662 10.6212 98.636 10.7049C98.7134 10.7428 98.7942 10.7117 98.8717 10.7022C98.9541 10.6914 99.0316 10.686 99.0959 10.7401C99.1585 10.7914 99.236 10.7982 99.3184 10.7819C99.3711 10.7711 99.4272 10.7644 99.4816 10.7603C99.5063 10.759 99.536 10.7644 99.5541 10.7752C99.6415 10.8319 99.7272 10.8833 99.8475 10.8468C99.953 10.8576 100.006 10.9684 100.133 10.9468C100.24 10.9279 100.352 10.9238 100.457 10.8995C100.555 10.8779 100.624 10.9157 100.673 10.963C100.762 11.0468 100.888 10.9333 100.977 11.0157C101.028 11.063 101.094 11.1008 101.193 11.0806C101.301 11.0589 101.336 11.0873 101.367 11.1724C101.385 11.2211 101.382 11.2602 101.349 11.2981C101.316 11.3373 101.28 11.3305 101.227 11.2859C101.166 11.2359 101.094 11.2265 101.006 11.2373C100.921 11.2481 100.868 11.1778 100.797 11.1508C100.726 11.1224 100.642 11.1697 100.568 11.1332C100.393 11.0481 100.393 11.0481 100.274 11.0643C100.194 11.0751 100.11 11.0806 100.031 11.0995C99.9365 11.1224 99.8755 11.0805 99.8113 11.0427C99.7882 11.0292 99.7651 11.0035 99.7453 11.0049C99.5557 11.0251 99.3645 11.0441 99.1766 11.0778C99.0777 11.0954 99.025 11.0468 98.9591 11.013C98.936 11.0008 98.9112 10.9765 98.8915 10.9792C98.7283 10.9981 98.5667 11.0225 98.4036 11.0454C98.3722 11.0819 98.3376 11.117 98.3079 11.1562C98.2766 11.1967 98.2338 11.2143 98.1712 11.213C98.0673 11.213 97.9651 11.2697 97.8612 11.1981C97.7541 11.1251 97.7459 11.1292 97.642 11.1468C97.5102 11.1697 97.37 11.1643 97.2464 11.217C97.225 11.2265 97.2019 11.2521 97.2019 11.271C97.2002 11.2832 97.2349 11.3008 97.2563 11.3116C97.3288 11.344 97.4129 11.2967 97.4854 11.3305C97.5332 11.3521 97.5728 11.3845 97.6206 11.4075C97.6404 11.417 97.67 11.4156 97.6964 11.4143C97.7244 11.4129 97.7508 11.4035 97.7772 11.4048C97.8019 11.4062 97.8283 11.4143 97.8481 11.4264C97.9387 11.4778 98.0343 11.5251 98.1151 11.5859C98.1942 11.6453 98.2684 11.6048 98.3475 11.6021C98.664 11.6967 98.664 11.698 98.8767 11.6683C98.9294 11.6615 98.9838 11.6534 99.0382 11.6548C99.0613 11.6548 99.0827 11.6791 99.1058 11.6926C99.1717 11.7331 99.2343 11.7696 99.3266 11.748C99.4058 11.7291 99.4898 11.725 99.5706 11.7129C99.6794 11.698 99.6794 11.698 99.864 11.7831C99.9102 11.8047 99.9596 11.802 100.019 11.7912C100.07 11.7818 100.123 11.802 100.159 11.8412C100.174 11.8574 100.169 11.8845 100.174 11.9074C100.011 11.9291 99.8459 11.9439 99.6876 11.9763C99.5854 11.9966 99.5393 11.9385 99.4717 11.9074C99.4486 11.8966 99.4239 11.8737 99.4025 11.8764C99.2409 11.8966 99.0794 11.9196 98.9179 11.9466C98.8981 11.9493 98.8734 11.9804 98.8717 11.9993C98.8684 12.0344 98.9096 12.0682 98.9689 12.0669C99.0481 12.0655 99.1255 12.0425 99.1964 12.0979C99.2558 12.1466 99.3299 12.1682 99.4173 12.1466C99.47 12.1344 99.5261 12.1344 99.5789 12.1236C99.719 12.0912 99.8458 12.0979 99.9513 12.1898C100.032 12.2141 100.111 12.1912 100.189 12.179C100.246 12.1696 100.302 12.1601 100.344 12.1858C100.431 12.2398 100.517 12.2938 100.637 12.2574C100.767 12.2952 100.866 12.3749 100.975 12.4398C101.026 12.4708 101.066 12.4884 101.125 12.4681C101.15 12.46 101.179 12.46 101.206 12.456C101.26 12.4492 101.318 12.429 101.367 12.4371C101.417 12.4465 101.458 12.4857 101.502 12.51C101.524 12.5222 101.549 12.5424 101.57 12.5411C101.652 12.5343 101.733 12.5208 101.814 12.51C101.895 12.5006 101.976 12.4911 102.056 12.4817C102.124 12.5168 102.193 12.5519 102.261 12.587C102.369 12.5722 102.478 12.5573 102.585 12.5438C102.706 12.5276 102.706 12.5289 102.879 12.6127C102.956 12.6505 103.039 12.6262 103.113 12.6087C103.237 12.5803 103.319 12.6316 103.406 12.6857C103.424 12.6965 103.457 12.7032 103.479 12.6978C103.565 12.6789 103.639 12.6938 103.701 12.7438C103.746 12.7789 103.79 12.7951 103.845 12.7884C104.034 12.7627 104.224 12.7357 104.413 12.7127C104.437 12.71 104.463 12.7222 104.484 12.733C104.652 12.8154 104.654 12.8194 104.778 12.7978C104.888 12.7789 104.99 12.7708 105.078 12.8451C105.096 12.8613 105.124 12.8843 105.144 12.8829C105.279 12.8694 105.416 12.8546 105.549 12.8316C105.61 12.8208 105.653 12.8248 105.701 12.8559C105.762 12.8951 105.816 12.9424 105.917 12.9248C106.195 12.8748 106.197 12.8829 106.527 12.9762C106.55 12.9829 106.581 12.9721 106.607 12.9667C106.663 12.9532 106.705 12.9721 106.754 13.0032C106.865 13.0734 106.868 13.0694 106.973 13.0545C107.054 13.0424 107.138 13.0397 107.217 13.0194C107.339 12.9897 107.42 13.0424 107.511 13.0924C107.583 13.1315 107.667 13.0991 107.745 13.087C107.829 13.0734 107.905 13.0775 107.967 13.1288C108.01 13.164 108.056 13.1829 108.111 13.1761C108.3 13.1518 108.49 13.1248 108.679 13.1005C108.702 13.0978 108.731 13.1086 108.752 13.118C108.94 13.2018 108.94 13.2059 109.126 13.1748C109.185 13.1653 109.235 13.1626 109.279 13.191C109.322 13.218 109.368 13.2437 109.413 13.2694C109.494 13.2599 109.576 13.2572 109.655 13.241C109.716 13.2288 109.759 13.2342 109.807 13.2626C109.87 13.2991 109.922 13.3626 110.021 13.3315C110.072 13.3166 110.132 13.3207 110.183 13.3072C110.244 13.2896 110.285 13.3004 110.333 13.3356C110.392 13.3774 110.453 13.4207 110.549 13.3991C110.654 13.3747 110.766 13.3707 110.873 13.3518C110.933 13.341 110.974 13.3518 111.022 13.3869C111.081 13.4315 111.149 13.4599 111.241 13.4423C111.429 13.4085 111.43 13.4153 111.613 13.5004C111.66 13.522 111.709 13.5193 111.768 13.5085C111.82 13.499 111.872 13.5193 111.909 13.5585C111.943 13.6017 111.94 13.6287 111.943 13.6517ZM97.2547 1.46602C97.2003 1.47277 97.1458 1.48088 97.0667 1.36333C97.0618 1.34307 97.0651 1.31875 97.0536 1.30119C97.0272 1.26471 96.986 1.23904 96.9365 1.23498C96.8475 1.22958 96.7404 1.27551 96.742 1.31064C96.7436 1.34036 96.7717 1.36603 96.8261 1.39035C96.8491 1.39981 96.8673 1.41602 96.8887 1.42683C96.9514 1.45791 97.0008 1.51872 97.0915 1.48764C97.0832 1.44576 97.075 1.40387 97.0915 1.48764C97.0832 1.53898 97.1079 1.57546 97.1673 1.59033C97.1838 1.59438 97.2085 1.59167 97.2217 1.58356C97.2728 1.55384 97.281 1.51332 97.2431 1.40658C97.2365 1.42414 97.2415 1.45521 97.2563 1.46331C97.2711 1.47142 97.3074 1.46467 97.3255 1.45522C97.3717 1.42954 97.3948 1.39576 97.3832 1.36739C97.3766 1.35253 97.3453 1.33361 97.3255 1.33361C97.2909 1.33361 97.2596 1.36333 97.2547 1.46602ZM110.583 17.1349C110.463 17.1606 110.324 17.1511 110.204 17.2038C110.183 17.2133 110.161 17.2376 110.16 17.2565C110.158 17.2687 110.191 17.2862 110.211 17.2957C110.255 17.3173 110.305 17.3105 110.362 17.3038C110.45 17.2943 110.501 17.3565 110.568 17.3875C110.59 17.397 110.618 17.4038 110.641 17.4011C110.774 17.3848 110.906 17.3673 111.04 17.3484C111.063 17.3443 111.088 17.3349 111.107 17.3227C111.173 17.2835 111.167 17.2578 111.102 17.2281C111.032 17.1957 110.976 17.1416 110.903 17.116C110.799 17.0795 110.694 17.1281 110.583 17.1349ZM101.222 18.1212C101.141 18.132 101.062 18.1428 100.982 18.1536C100.955 18.1577 100.927 18.159 100.902 18.1644C100.851 18.1739 100.813 18.2023 100.789 18.2469C100.827 18.282 100.873 18.3022 100.924 18.2982C101.005 18.2901 101.084 18.2725 101.165 18.2685C101.252 18.2631 101.303 18.3239 101.371 18.3549C101.392 18.3644 101.418 18.3658 101.443 18.3671C101.565 18.3725 101.639 18.3023 101.616 18.2036C101.6 18.1266 101.537 18.0807 101.461 18.0901C101.382 18.0996 101.301 18.1104 101.222 18.1212ZM111.147 15.1379C111.167 15.115 111.188 15.0988 111.198 15.0785C111.228 15.0096 111.216 14.9582 111.162 14.9042C111.096 14.838 111.015 14.8826 110.941 14.8893C110.923 14.8907 110.903 14.9191 110.893 14.9366C110.887 14.9488 110.887 14.9745 110.896 14.9812C110.977 15.0353 111.063 15.0852 111.147 15.1379ZM96.8475 11.1468C96.7684 11.1576 96.6876 11.1657 96.6085 11.1805C96.5887 11.1846 96.5706 11.2103 96.5591 11.2278C96.5376 11.2602 96.5607 11.3048 96.6283 11.3089C96.7057 11.3143 96.7865 11.2913 96.8673 11.2805C96.9695 11.267 97.0305 11.217 96.9926 11.1738C96.9563 11.1319 96.9069 11.1238 96.8475 11.1468ZM10.0797 8.25943C10.1324 8.25267 10.1868 8.24726 10.2396 8.2378C10.289 8.22834 10.327 8.19862 10.3517 8.15403C10.3105 8.11891 10.2643 8.09999 10.2132 8.10404C10.1324 8.11215 10.0533 8.12296 9.9742 8.13647C9.92475 8.14458 9.87697 8.1743 9.86543 8.22024C9.85389 8.25537 9.9643 8.27564 10.0797 8.25943ZM89.8766 8.05135C89.898 8.06351 89.9195 8.08783 89.9409 8.08783C89.9936 8.08783 90.0481 8.07972 90.0975 8.06621C90.1189 8.0608 90.1354 8.03649 90.1453 8.01757C90.1519 8.00541 90.1503 7.9838 90.1404 7.97299C90.0926 7.90814 89.9013 7.9311 89.87 8.00541C89.8667 8.01893 89.875 8.03649 89.8766 8.05135ZM84.676 0.652645C84.681 0.674262 84.6826 0.695878 84.6892 0.717496C84.7024 0.758029 84.7387 0.787759 84.7914 0.808026C84.8326 0.774248 84.8541 0.736423 84.8524 0.69589C84.8508 0.674272 84.8458 0.65264 84.8392 0.631022C84.826 0.590489 84.7898 0.560775 84.737 0.540508C84.6958 0.572935 84.676 0.61076 84.676 0.652645ZM114.956 18.3563C114.941 18.3739 114.927 18.3914 114.91 18.4076C114.955 18.4468 114.996 18.459 115.027 18.4374C115.047 18.4239 115.059 18.4036 115.073 18.386C115.029 18.3468 114.989 18.336 114.956 18.3563ZM113.931 18.54C113.952 18.5522 113.972 18.5684 113.995 18.5765C114.033 18.59 114.068 18.5671 114.094 18.5184C114.073 18.5063 114.053 18.4901 114.03 18.4819C113.992 18.4684 113.957 18.4914 113.931 18.54ZM114.581 18.2928C114.569 18.3252 114.592 18.3522 114.653 18.3752C114.668 18.3577 114.688 18.3414 114.698 18.3225C114.714 18.2914 114.686 18.2631 114.627 18.2415C114.61 18.2577 114.595 18.2752 114.581 18.2928ZM111.101 16.8363C111.089 16.8687 111.112 16.8957 111.173 16.9187C111.188 16.9011 111.208 16.8849 111.218 16.866C111.234 16.8349 111.206 16.8066 111.147 16.785C111.131 16.8012 111.116 16.8187 111.101 16.8363ZM106.36 7.27581C106.345 7.29337 106.33 7.31094 106.314 7.32715C106.359 7.36634 106.4 7.37849 106.431 7.35687C106.451 7.34336 106.462 7.32309 106.477 7.30553C106.433 7.26635 106.393 7.25554 106.36 7.27581ZM101.819 2.20372C101.859 2.21318 101.891 2.19427 101.92 2.14428C101.898 2.13212 101.878 2.1159 101.855 2.1078C101.817 2.09429 101.783 2.11726 101.756 2.1659C101.778 2.17941 101.799 2.19156 101.819 2.20372ZM99.4074 1.88621C99.3926 1.90378 99.3777 1.92134 99.3613 1.93756C99.4058 1.97674 99.447 1.98889 99.4783 1.96728C99.4981 1.95377 99.5096 1.9335 99.5244 1.91593C99.4799 1.87675 99.4404 1.8673 99.4074 1.88621ZM83.0541 0.651292C83.0392 0.668857 83.0244 0.686422 83.0079 0.702635C83.0524 0.741818 83.0936 0.753974 83.125 0.732356C83.1447 0.718845 83.1563 0.698577 83.1711 0.681013C83.1266 0.64183 83.0871 0.632377 83.0541 0.651292ZM1.62691 11.644C1.60548 11.6318 1.58407 11.6196 1.56429 11.6061C1.51649 11.6426 1.50166 11.6764 1.52803 11.7021C1.54451 11.7183 1.56922 11.7277 1.59065 11.7399C1.6401 11.7034 1.65163 11.671 1.62691 11.644Z" fill="#FFE492"/>
<path d="M11.1903 6.87415C11.0008 6.89981 10.8129 6.93221 10.6233 6.94841C10.5228 6.95651 10.4865 7.01458 10.4453 7.0686C10.4123 7.11181 10.3744 7.12531 10.3134 7.13342C9.79915 7.19959 9.28649 7.26981 8.77385 7.33868C8.70957 7.32112 8.67825 7.29277 8.69309 7.25901C8.70133 7.23875 8.72111 7.2104 8.7409 7.20769C9.09199 7.15773 9.44143 7.10641 9.79418 7.06725C9.89473 7.05644 9.92276 6.99703 9.97386 6.94841C9.99035 6.93221 10.0035 6.9079 10.025 6.89845C10.0464 6.88765 10.0777 6.889 10.1057 6.8863C10.6728 6.80933 11.2398 6.73371 11.8069 6.65674C11.8711 6.67429 11.9025 6.70265 11.8876 6.73641C11.8794 6.75666 11.8596 6.78502 11.8398 6.78772C11.6222 6.81608 11.4063 6.84444 11.1903 6.87415Z" fill="#FFE492"/>
<path d="M114.978 14.0677C114.893 14.0839 114.784 14.1069 114.695 14.0285C114.652 13.9907 114.606 13.9786 114.55 13.9867C114.469 14.0002 114.387 14.011 114.304 14.0191C114.283 14.0205 114.255 14.0056 114.233 13.9934C114.187 13.9691 114.148 13.9286 114.098 13.9178C114.049 13.907 113.989 13.9367 113.938 13.93C113.871 13.9205 113.843 13.8841 113.861 13.8503C113.871 13.8314 113.891 13.8044 113.912 13.8003C114.217 13.7504 114.219 13.7504 114.304 13.799C114.37 13.8368 114.431 13.8787 114.525 13.8557C114.604 13.8368 114.688 13.8327 114.769 13.8206C114.881 13.8044 114.881 13.8057 115.063 13.8908C115.109 13.9124 115.158 13.9111 115.217 13.8989C115.269 13.8895 115.318 13.9111 115.359 13.9475C115.333 13.9934 115.295 14.0232 115.244 14.0313C115.161 14.0448 115.081 14.0542 114.978 14.0677Z" fill="#FFE492"/>
<path d="M111.943 13.6514C112.151 13.623 112.36 13.5987 112.568 13.5663C112.654 13.5528 112.721 13.5677 112.781 13.6136C112.845 13.6635 112.918 13.6595 112.997 13.65C113.046 13.6446 113.094 13.6662 113.127 13.704C113.14 13.7189 113.137 13.7459 113.142 13.7675C112.96 13.7918 112.777 13.8175 112.594 13.8391C112.573 13.8418 112.547 13.8283 112.527 13.8175C112.482 13.7945 112.444 13.754 112.397 13.7459C112.294 13.727 112.192 13.7635 112.088 13.7702C112.039 13.7729 111.991 13.7527 111.958 13.7162C111.945 13.6986 111.948 13.673 111.943 13.6514Z" fill="#FFE492"/>
<path d="M36.8865 2.03308C37.1024 2.00337 37.3183 1.97502 37.5343 1.94531C37.5986 1.96422 37.6282 1.99122 37.615 2.02498C37.6068 2.04524 37.587 2.0736 37.5672 2.0763C37.1354 2.13707 36.7035 2.19512 36.2733 2.25319C36.209 2.23429 36.1793 2.20728 36.1925 2.17352C36.2008 2.15327 36.2206 2.12491 36.2403 2.12221C36.4546 2.09115 36.6705 2.06278 36.8865 2.03308Z" fill="#FFE492"/>
<path d="M3.6097 9.54374C3.51245 9.54644 3.41027 9.59641 3.30148 9.55859C3.28005 9.55184 3.25037 9.53023 3.25202 9.51808C3.25532 9.49782 3.2751 9.47216 3.29653 9.46406C3.39048 9.4303 3.50753 9.42625 3.55533 9.33172C3.57841 9.28311 3.62127 9.26691 3.67896 9.25746C3.73995 9.24666 3.78279 9.25069 3.83059 9.27905C3.89323 9.31551 3.94599 9.38304 4.04489 9.34792C4.04983 9.36953 4.06134 9.39384 4.0564 9.41409C4.05145 9.43435 4.03006 9.45326 4.01028 9.46811C3.99215 9.48162 3.9674 9.49377 3.94432 9.49782C3.83553 9.51402 3.72673 9.52754 3.6097 9.54374Z" fill="#FFE492"/>
<path d="M89.3383 9.27048C89.419 9.25967 89.5031 9.25427 89.5822 9.23536C89.6448 9.22051 89.6844 9.22996 89.7338 9.26237C89.8179 9.31908 89.8229 9.31369 90.0289 9.32179C90.052 9.32314 90.08 9.34339 90.0932 9.36094C90.1015 9.37039 90.0899 9.39607 90.08 9.40957C90.0652 9.42713 90.0437 9.45007 90.024 9.45007C89.8937 9.45412 89.7619 9.53381 89.635 9.44198C89.5707 9.39607 89.4998 9.37445 89.4124 9.3947C89.3597 9.40686 89.3036 9.41226 89.2492 9.41766C89.1965 9.42307 89.1421 9.40821 89.1091 9.3677C89.0613 9.30828 89.0894 9.28533 89.1751 9.28938C89.2295 9.29208 89.2839 9.27723 89.3383 9.27048Z" fill="#FFE492"/>
<path d="M119.216 18.5843C119.319 18.5708 119.423 18.5546 119.529 18.5438C119.55 18.5411 119.577 18.5559 119.596 18.5654C119.676 18.6059 119.664 18.6748 119.667 18.7355C119.669 18.799 119.486 18.8503 119.408 18.8071C119.323 18.7585 119.245 18.7031 119.127 18.7328C119.08 18.7436 119.026 18.7193 118.996 18.6802C118.952 18.6235 118.977 18.6005 119.061 18.6045C119.11 18.6072 119.163 18.5924 119.216 18.5843Z" fill="#FFE492"/>
<path d="M66.8826 0.196407C66.9898 0.181553 67.0969 0.158607 67.2041 0.157257C67.2667 0.155906 67.298 0.200461 67.2832 0.23287C67.2749 0.253126 67.2551 0.281485 67.2354 0.284186C67.0211 0.316596 66.8068 0.343608 66.5925 0.373317C66.5299 0.354411 66.4986 0.326058 66.5134 0.293648C66.5216 0.273392 66.5414 0.246383 66.5612 0.242332C66.6684 0.223427 66.7755 0.211261 66.8826 0.196407Z" fill="#FFE492"/>
<path d="M117.158 14.1867C117.262 14.1732 117.368 14.1529 117.472 14.1462C117.526 14.1435 117.569 14.1745 117.575 14.2096C117.579 14.2258 117.552 14.2542 117.531 14.2609C117.383 14.3069 117.223 14.3123 117.068 14.3352C117.018 14.342 116.966 14.3204 116.936 14.2826C116.891 14.2245 116.916 14.2029 117 14.2069C117.053 14.2083 117.106 14.1934 117.158 14.1867Z" fill="#FFE492"/>
<path d="M92.0606 9.45401C92.1134 9.44725 92.1678 9.4297 92.2189 9.4351C92.2733 9.44185 92.3079 9.48101 92.3244 9.52017C92.3425 9.56474 92.3409 9.60661 92.3244 9.64442C92.298 9.70924 92.2716 9.70654 92.2106 9.66332C92.1167 9.5958 92.1101 9.6039 91.9238 9.6066C91.9024 9.6066 91.876 9.58634 91.8595 9.56879C91.8348 9.54178 91.848 9.49992 91.9057 9.47562C91.9485 9.45806 92.0079 9.46076 92.0606 9.45401Z" fill="#FFE492"/>
<path d="M113.294 13.7437C113.372 13.7329 113.449 13.7154 113.527 13.7154C113.581 13.714 113.624 13.7451 113.629 13.7788C113.631 13.795 113.606 13.8221 113.586 13.8302C113.492 13.8666 113.387 13.8693 113.285 13.8815C113.237 13.8869 113.184 13.8653 113.154 13.8275C113.11 13.7707 113.136 13.7451 113.217 13.7532C113.242 13.7559 113.268 13.7478 113.294 13.7437Z" fill="#FFE492"/>
<path d="M101.103 12.0854C100.988 12.1016 100.879 12.0813 100.887 12.0462C100.899 12.0003 100.946 11.9706 100.996 11.9625C101.075 11.949 101.154 11.9382 101.235 11.9301C101.286 11.9247 101.332 11.9449 101.373 11.98C101.349 12.0232 101.311 12.0543 101.261 12.0638C101.21 12.0732 101.156 12.0786 101.103 12.0854Z" fill="#FFE492"/>
<path d="M100.347 11.9127C100.425 11.9019 100.502 11.8843 100.58 11.8843C100.634 11.883 100.677 11.914 100.682 11.9478C100.683 11.964 100.659 11.991 100.639 11.9991C100.545 12.0356 100.439 12.0383 100.337 12.0504C100.289 12.0558 100.237 12.0342 100.207 11.9964C100.163 11.9397 100.189 11.914 100.27 11.9221C100.294 11.9248 100.321 11.9167 100.347 11.9127Z" fill="#FFE492"/>
<path d="M91.1284 9.44285C91.2059 9.43205 91.2834 9.41448 91.3608 9.41313C91.4152 9.41178 91.4581 9.44285 91.463 9.47661C91.4647 9.49281 91.44 9.51847 91.4202 9.52793C91.3262 9.56439 91.2207 9.56709 91.1185 9.57924C91.0707 9.58464 91.018 9.56303 90.9883 9.52522C90.9438 9.46851 90.9701 9.44284 91.0509 9.45094C91.0756 9.45364 91.1021 9.44555 91.1284 9.44285Z" fill="#FFE492"/>
<path d="M90.6941 9.36326C90.7765 9.35246 90.8029 9.3457 90.8293 9.3457C90.8787 9.3457 90.9298 9.36191 90.9595 9.40107C91.004 9.45779 90.9776 9.474 90.8968 9.4767C90.793 9.47941 90.6908 9.50777 90.587 9.51317C90.5326 9.51587 90.4897 9.48345 90.4864 9.44969C90.4848 9.43348 90.5095 9.40512 90.5293 9.39972C90.5985 9.37947 90.6743 9.36731 90.6941 9.36326Z" fill="#FFE492"/>
<path d="M99.6763 1.4136C99.6236 1.42035 99.5675 1.43926 99.5181 1.43251C99.4522 1.42305 99.4258 1.3866 99.4423 1.35284C99.4522 1.33393 99.4703 1.30693 99.4901 1.30287C99.5956 1.28397 99.7027 1.2718 99.8082 1.2583C99.8708 1.27856 99.8989 1.30691 99.8824 1.34067C99.8725 1.35958 99.8543 1.38524 99.8346 1.39064C99.7835 1.40414 99.7291 1.40685 99.6763 1.4136Z" fill="#FFE492"/>
<path d="M35.7033 2.1949C35.7544 2.19355 35.8005 2.2111 35.84 2.24486C35.8153 2.28807 35.7791 2.31643 35.7296 2.32858C35.7049 2.33399 35.6769 2.33803 35.6505 2.33938C35.5994 2.34208 35.5532 2.32318 35.5137 2.28942C35.5384 2.24621 35.5763 2.21785 35.6241 2.20569C35.6488 2.20029 35.6769 2.19895 35.7033 2.1949Z" fill="#FFE492"/>
<path d="M116.596 14.1825C116.594 14.1433 116.695 14.0988 116.785 14.1001C116.833 14.1015 116.883 14.1204 116.911 14.1569C116.953 14.2122 116.929 14.2338 116.848 14.2298C116.798 14.2271 116.746 14.25 116.696 14.246C116.64 14.2446 116.607 14.2149 116.596 14.1825Z" fill="#FFE492"/>
<path d="M92.5397 9.61826C92.5381 9.6034 92.5298 9.58585 92.5348 9.57235C92.5661 9.49808 92.7557 9.47512 92.8051 9.53994C92.8134 9.55209 92.8167 9.57234 92.8101 9.5845C92.8002 9.6034 92.782 9.62771 92.7623 9.63311C92.7112 9.64661 92.6584 9.65337 92.6057 9.65472C92.5826 9.65472 92.5611 9.63176 92.5397 9.61826Z" fill="#FFE492"/>
<path d="M4.19758 9.32629C4.00307 9.35465 3.99978 9.35194 4.03439 9.28442C4.06571 9.22365 4.12341 9.1872 4.20748 9.1872C4.2322 9.1872 4.25857 9.1845 4.27999 9.1899C4.30307 9.19665 4.33606 9.21014 4.341 9.22635C4.35089 9.25741 4.32284 9.29117 4.27339 9.31413C4.25197 9.32493 4.22395 9.32224 4.19758 9.32629Z" fill="#FFE492"/>
<path d="M38.1387 2.00351C38.081 2.02647 38.0315 2.01837 37.9953 1.97516C37.959 1.93195 38.0167 1.88063 38.1172 1.86847C38.1436 1.86577 38.1716 1.85498 38.1964 1.86038C38.2211 1.86443 38.2458 1.88062 38.2607 1.89683C38.287 1.92383 38.2706 1.9603 38.2178 1.99136C38.1964 2.00352 38.165 2.00081 38.1387 2.00351Z" fill="#FFE492"/>
<path d="M116.253 14.0806C116.268 14.0631 116.283 14.0455 116.3 14.0293C116.361 14.0523 116.387 14.0793 116.371 14.1103C116.361 14.1292 116.341 14.1454 116.326 14.163C116.265 14.14 116.24 14.1117 116.253 14.0806Z" fill="#FFE492"/>
<path d="M6.81055 24.7084C6.81055 24.6922 6.83368 24.6665 6.85186 24.6611C6.88657 24.6516 6.92952 24.6706 6.95927 24.7084C7.00058 24.7624 6.97581 24.7907 6.89979 24.7759C6.84691 24.7651 6.81055 24.7381 6.81055 24.7084Z" fill="#FFE492"/>
<path d="M93.2122 8.35977C93.2336 8.37193 93.2551 8.38408 93.275 8.39759C93.2469 8.44755 93.2122 8.46915 93.1758 8.45565C93.1527 8.44754 93.1328 8.43134 93.1113 8.41918C93.1394 8.36922 93.1725 8.35032 93.2122 8.35977Z" fill="#FFE492"/>
<path d="M92.6403 8.29955C92.6734 8.2793 92.713 8.29011 92.7593 8.32927C92.7444 8.34683 92.7312 8.36708 92.713 8.38059C92.6816 8.40219 92.6403 8.39138 92.5957 8.35087C92.6089 8.33466 92.6238 8.31711 92.6403 8.29955Z" fill="#FFE492"/>
<path d="M92.2043 8.35829C92.2258 8.37045 92.2473 8.38261 92.2671 8.39611C92.239 8.44607 92.206 8.46767 92.1679 8.45417C92.1448 8.44607 92.125 8.42986 92.1035 8.4177C92.1316 8.36774 92.1646 8.34749 92.2043 8.35829Z" fill="#FFE492"/>
<path d="M91.882 8.28635C91.9068 8.31336 91.8936 8.34576 91.8457 8.38222C91.8242 8.37007 91.7994 8.36063 91.7829 8.34442C91.7564 8.31877 91.7697 8.285 91.8192 8.24854C91.8391 8.26204 91.8605 8.2742 91.882 8.28635Z" fill="#FFE492"/>
</svg>
