<svg width="170" height="26" viewBox="0 0 170 26" fill="none" xmlns="http://www.w3.org/2000/svg">
<path d="M138.018 10.7873C137.816 10.8044 137.613 10.8161 137.416 10.8418C137.288 10.8578 137.233 10.8108 137.148 10.7863C137.119 10.7777 137.089 10.7606 137.062 10.7628C136.863 10.7798 136.664 10.7991 136.465 10.8183C136.404 10.8599 136.365 10.9154 136.272 10.9357C136.18 10.9549 136.073 10.9549 135.971 10.9645C135.837 10.9763 135.703 10.988 135.569 10.9987C135.502 11.0041 135.447 11.0243 135.424 11.0628C135.42 11.0692 135.465 11.0852 135.489 11.0948C135.571 11.1268 135.65 11.1631 135.739 11.1877C135.825 11.2112 135.93 11.1727 136.022 11.2026C136.227 11.2699 136.229 11.2688 136.386 11.256C136.52 11.2443 136.654 11.2315 136.788 11.2229C136.814 11.2208 136.845 11.2368 136.873 11.2453C136.959 11.2688 137.014 11.3222 137.14 11.3019C137.235 11.2859 137.341 11.2827 137.44 11.2742C137.524 11.3051 137.601 11.3403 137.69 11.3649C137.774 11.3884 137.798 11.4065 137.753 11.4375C137.713 11.4663 137.656 11.4781 137.581 11.4802C137.514 11.4813 137.447 11.4909 137.379 11.4962C137.345 11.4994 137.312 11.5016 137.28 11.5048C137.152 11.5165 137.152 11.5165 136.918 11.4482C136.827 11.4215 136.723 11.4589 136.636 11.4332C136.577 11.4162 136.526 11.3905 136.469 11.3724C136.445 11.3649 136.406 11.3638 136.376 11.366C136.274 11.3734 136.172 11.3788 136.075 11.3927C136.006 11.4023 135.965 11.4322 135.973 11.4621C135.975 11.4738 136.024 11.4909 136.052 11.492C136.117 11.4941 136.186 11.4791 136.249 11.4866C136.31 11.4941 136.373 11.5154 136.418 11.5389C136.51 11.588 136.613 11.5443 136.701 11.5571C136.792 11.571 136.867 11.6137 136.955 11.6393C136.977 11.6457 137.02 11.635 137.054 11.6318C137.154 11.6243 137.253 11.6179 137.353 11.6105C137.436 11.6414 137.526 11.6692 137.601 11.7044C137.737 11.7685 137.883 11.793 138.06 11.7621C138.16 11.745 138.257 11.7514 138.337 11.793C138.418 11.8357 138.511 11.8315 138.615 11.8229C138.711 11.8144 138.808 11.7909 138.906 11.8208C139.117 11.887 139.119 11.8902 139.369 11.8646C139.444 11.8571 139.501 11.855 139.558 11.8795C139.611 11.9019 139.668 11.9211 139.723 11.9425C139.822 11.935 139.924 11.9276 140.023 11.919C140.152 11.9073 140.223 11.9222 140.253 11.982C140.271 12.0183 140.28 12.0514 140.324 12.0759C140.377 12.1058 140.434 12.1048 140.511 12.0962C140.584 12.0888 140.637 12.077 140.668 12.0386C140.68 12.0226 140.704 12.0076 140.727 11.9948C140.745 11.9852 140.773 11.9703 140.79 11.9724C140.82 11.9767 140.861 11.9884 140.871 12.0023C140.971 12.1315 140.971 12.1325 141.072 12.1699C141.184 12.2115 141.3 12.2489 141.401 12.2959C141.493 12.3375 141.584 12.3194 141.684 12.3194C141.759 12.3194 141.808 12.3471 141.802 12.3749C141.798 12.3909 141.769 12.4144 141.745 12.4165C141.546 12.4379 141.344 12.456 141.143 12.471C141.119 12.4731 141.088 12.4539 141.06 12.4443C141.003 12.4251 140.952 12.3952 140.891 12.3888C140.83 12.3823 140.759 12.3984 140.692 12.4037C140.625 12.409 140.554 12.4229 140.493 12.4144C140.432 12.4058 140.383 12.3749 140.326 12.3546C140.3 12.345 140.263 12.3311 140.241 12.3343C140.093 12.3599 139.983 12.3247 139.877 12.2777C139.855 12.2681 139.816 12.2617 139.788 12.2638C139.552 12.282 139.318 12.3033 139.083 12.3236C138.987 12.3322 138.91 12.2948 138.889 12.2318C138.879 12.1966 138.859 12.1614 138.859 12.1261C138.859 12.0621 138.747 12.0268 138.666 12.0343C138.532 12.045 138.396 12.0535 138.264 12.0695C138.156 12.0823 138.064 12.0695 137.991 12.0311C137.906 11.9873 137.808 11.9959 137.711 12.0076C137.638 12.0162 137.617 12.0514 137.621 12.14C137.625 12.2115 137.591 12.234 137.459 12.2457C137.292 12.2606 137.123 12.2756 136.955 12.2873C136.928 12.2895 136.898 12.2713 136.871 12.2617C136.814 12.2425 136.764 12.2115 136.703 12.2051C136.642 12.1977 136.571 12.2137 136.504 12.2201C136.436 12.2254 136.365 12.2404 136.304 12.2329C136.243 12.2254 136.193 12.1934 136.138 12.1731C136.111 12.1635 136.079 12.1496 136.052 12.1517C135.918 12.1603 135.784 12.1731 135.65 12.1848C135.5 12.1977 135.5 12.1977 135.286 12.1315C135.189 12.1016 135.091 12.1251 134.996 12.1336C134.894 12.1421 134.798 12.1464 134.719 12.1037C134.666 12.0759 134.607 12.0589 134.544 12.0642C134.376 12.077 134.209 12.093 134.04 12.1058C134.012 12.108 133.973 12.1026 133.951 12.093C133.843 12.0482 133.738 12.013 133.587 12.0354C133.457 12.0546 133.317 12.0557 133.187 12.0738C133.116 12.0834 133.083 12.1176 133.097 12.1443C133.106 12.1582 133.148 12.1742 133.177 12.1742C133.242 12.1752 133.313 12.1592 133.374 12.1656C133.5 12.1784 133.563 12.2681 133.727 12.2436C133.825 12.2286 133.927 12.2233 134.028 12.219C134.055 12.2179 134.083 12.2382 134.111 12.2489C134.193 12.2777 134.264 12.3151 134.382 12.2959C134.479 12.2809 134.583 12.2767 134.683 12.2681C134.841 12.2542 134.841 12.2553 135.046 12.3204C135.144 12.3514 135.241 12.3268 135.337 12.3194C135.408 12.314 135.475 12.3034 135.532 12.3183C135.619 12.3407 135.682 12.392 135.79 12.3888C135.892 12.3856 135.991 12.3706 136.093 12.3653C136.156 12.3621 136.215 12.3792 136.266 12.408C136.319 12.4368 136.375 12.4496 136.445 12.4432C136.544 12.4347 136.646 12.424 136.747 12.4187C136.776 12.4176 136.808 12.4272 136.835 12.4357C136.892 12.455 136.947 12.4774 137.001 12.4977C137.101 12.4912 137.203 12.4891 137.3 12.4763C137.375 12.4667 137.428 12.471 137.489 12.4923C137.566 12.5211 137.629 12.5724 137.755 12.5478C137.818 12.5361 137.892 12.5393 137.955 12.5286C138.032 12.5147 138.085 12.5201 138.14 12.5521C138.243 12.613 138.373 12.614 138.507 12.5905C138.654 12.5649 138.763 12.5948 138.873 12.6418C138.989 12.6909 138.989 12.6898 139.078 12.8083C139.105 12.8425 139.18 12.8585 139.243 12.8521C139.349 12.8414 139.44 12.8468 139.517 12.8873C139.599 12.9311 139.696 12.9258 139.796 12.914C139.928 12.898 140.06 12.8841 140.168 12.9461C140.221 12.976 140.278 12.9834 140.349 12.9759C140.55 12.9567 140.753 12.945 140.95 12.9215C141.07 12.9066 141.139 12.9407 141.22 12.9695C141.33 13.009 141.45 13.0443 141.45 13.1286C141.45 13.1425 141.479 13.1585 141.503 13.1692C141.556 13.1916 141.613 13.2108 141.668 13.2322C141.749 13.2642 141.828 13.2909 141.94 13.2738C142.037 13.2599 142.141 13.2557 142.241 13.2461C142.34 13.2365 142.432 13.2311 142.521 13.2717C142.625 13.3176 142.735 13.3614 142.852 13.3955C142.936 13.4201 143.046 13.3784 143.135 13.4115C143.19 13.4318 143.243 13.4553 143.302 13.4724C143.326 13.4799 143.365 13.4745 143.397 13.4724C143.464 13.4681 143.533 13.4649 143.598 13.4543C143.674 13.4425 143.73 13.4446 143.787 13.4692C143.84 13.4916 143.893 13.5226 143.954 13.529C144.045 13.5386 144.147 13.4959 144.238 13.545C144.285 13.5696 144.344 13.593 144.405 13.6005C144.466 13.608 144.537 13.592 144.602 13.593C144.631 13.593 144.665 13.6101 144.681 13.624C144.692 13.6315 144.677 13.6518 144.663 13.6624C144.645 13.6752 144.618 13.6923 144.592 13.6945C144.391 13.7137 144.19 13.7297 143.988 13.7479C143.869 13.7585 143.869 13.7585 143.627 13.6913C143.57 13.6752 143.507 13.6784 143.436 13.6859C143.34 13.6955 143.243 13.7137 143.143 13.6945C143.013 13.6219 142.852 13.6155 142.682 13.6432C142.611 13.655 142.546 13.655 142.493 13.6347C142.381 13.5941 142.263 13.5567 142.163 13.5087C142.086 13.4713 142.05 13.4681 142.017 13.5194C142.007 13.5354 141.997 13.5525 141.999 13.5674C142.011 13.6208 142.033 13.6731 142.046 13.7265C142.05 13.7414 142.033 13.7585 142.023 13.7745C141.991 13.8194 141.948 13.8162 141.877 13.7788C141.806 13.7414 141.72 13.7169 141.607 13.734C141.509 13.7489 141.403 13.7468 141.306 13.7628C141.155 13.7863 141.05 13.7521 140.942 13.7062C140.92 13.6966 140.881 13.6913 140.853 13.6934C140.55 13.718 140.249 13.7457 139.946 13.7703C139.881 13.7756 139.822 13.7596 139.771 13.7308C139.719 13.7019 139.66 13.687 139.595 13.6923C139.326 13.7148 139.058 13.735 138.79 13.7628C138.68 13.7745 138.593 13.7607 138.518 13.7233C138.461 13.6955 138.408 13.687 138.337 13.6902C138.259 13.6934 138.205 13.7041 138.166 13.735C138.129 13.7649 138.156 13.7831 138.237 13.8066C138.324 13.8322 138.406 13.8653 138.489 13.8952C138.556 13.8909 138.623 13.8824 138.688 13.8834C138.717 13.8834 138.743 13.9026 138.772 13.9133C138.853 13.9443 138.928 13.9753 139.044 13.9582C139.141 13.9432 139.245 13.94 139.345 13.9304C139.483 13.9187 139.483 13.9187 139.706 13.9859C139.763 14.003 139.824 14.0019 139.897 13.9923C139.96 13.9849 140.026 13.9998 140.07 14.0318C140.089 14.0446 140.082 14.066 140.044 14.1365C140.044 14.1888 140.086 14.1653 140.101 14.1311C140.123 14.082 140.08 14.066 139.999 14.0927C139.942 14.1119 139.914 14.1397 139.928 14.1621C139.936 14.1738 139.975 14.1888 140.044 14.1365C140.223 14.0724 140.359 14.0649 140.489 14.0478C140.566 14.0382 140.615 14.0425 140.676 14.0703C140.749 14.1034 140.822 14.1386 140.942 14.1215C141.072 14.1023 141.21 14.1002 141.342 14.0841C141.464 14.0692 141.527 14.1162 141.605 14.1439C141.698 14.177 141.802 14.1397 141.887 14.1589C141.976 14.1781 142.04 14.2251 142.143 14.2336C142.294 14.2048 142.389 14.2582 142.503 14.2934C142.592 14.3201 142.698 14.2966 142.793 14.2849C142.901 14.272 142.991 14.2838 143.066 14.3222C143.151 14.366 143.247 14.3564 143.344 14.3468C143.572 14.3254 143.58 14.3222 143.712 14.3809C143.808 14.4236 143.899 14.4044 143.995 14.3991C144.078 14.4279 144.159 14.4589 144.247 14.4845C144.269 14.4909 144.312 14.4802 144.346 14.477C144.446 14.4685 144.547 14.46 144.647 14.4514C144.714 14.4461 144.785 14.4301 144.846 14.4365C144.907 14.4439 144.958 14.4749 145.013 14.4952C145.068 14.5155 145.125 14.5358 145.177 14.5571C145.259 14.5891 145.336 14.6158 145.45 14.5998C145.547 14.5859 145.649 14.5817 145.75 14.5721C145.879 14.5603 145.874 14.5635 146.112 14.6276C146.24 14.6628 146.372 14.6201 146.502 14.6158C146.567 14.6137 146.63 14.6254 146.675 14.6564C146.693 14.6692 146.687 14.6906 146.693 14.7087C146.358 14.7375 146.021 14.7621 145.69 14.7973C145.561 14.8112 145.494 14.7728 145.425 14.7407C145.312 14.6895 145.161 14.7642 145.053 14.698C144.988 14.6585 144.895 14.6361 144.783 14.6553C144.718 14.666 144.649 14.6649 144.582 14.6745C144.411 14.698 144.255 14.6991 144.119 14.6254C144.072 14.5998 144.005 14.5859 143.956 14.5614C143.899 14.5347 143.844 14.5197 143.777 14.5251C143.474 14.5507 143.174 14.5763 142.873 14.6041C142.846 14.6062 142.82 14.6222 142.798 14.634C142.741 14.6639 142.759 14.6874 142.85 14.7066C142.881 14.713 142.905 14.7269 142.934 14.7375C142.989 14.7578 143.039 14.7898 143.1 14.7973C143.161 14.8048 143.232 14.7898 143.3 14.7845C143.367 14.7792 143.438 14.7632 143.499 14.7696C143.56 14.777 143.61 14.808 143.667 14.8272C143.694 14.8368 143.726 14.8528 143.753 14.8518C143.887 14.8454 144.019 14.8336 144.153 14.824C144.236 14.8528 144.308 14.8945 144.407 14.9041C144.47 14.9105 144.537 14.8987 144.602 14.9009C144.631 14.9019 144.667 14.918 144.681 14.9318C144.69 14.9404 144.663 14.9617 144.643 14.9724C144.566 15.013 144.46 15.0055 144.364 15.0183C144.261 15.0322 144.167 15.0279 144.088 14.9863C144.035 14.9585 143.976 14.9436 143.911 14.9489C143.743 14.9628 143.576 14.9788 143.407 14.9906C143.379 14.9927 143.344 14.9831 143.318 14.9756C143.104 14.9105 143.104 14.9084 142.954 14.9222C142.733 14.9425 142.733 14.9425 142.584 14.8859C142.556 14.8753 142.525 14.855 142.501 14.856C142.265 14.8731 142.031 14.8902 141.798 14.9148C141.72 14.9222 141.668 14.9222 141.611 14.8945C141.562 14.871 141.505 14.8443 141.444 14.8379C141.381 14.8315 141.312 14.8475 141.245 14.8528C141.178 14.8582 141.107 14.8721 141.048 14.8635C140.987 14.855 140.934 14.8251 140.881 14.8037C140.826 14.7813 140.767 14.7824 140.692 14.7909C140.46 14.8155 140.458 14.8123 140.229 14.7461C140.202 14.7386 140.168 14.7301 140.139 14.7322C139.971 14.745 139.804 14.761 139.635 14.7738C139.57 14.7792 139.507 14.7653 139.463 14.7343C139.444 14.7215 139.45 14.7002 139.438 14.6585C139.424 14.6489 139.44 14.666 139.444 14.682C139.475 14.6799 139.511 14.682 139.534 14.6735C139.591 14.6532 139.619 14.6265 139.605 14.6041C139.597 14.5923 139.558 14.5774 139.534 14.5774C139.489 14.5774 139.45 14.6009 139.438 14.6585C139.31 14.6938 139.174 14.7012 139.042 14.7183C138.965 14.729 138.916 14.7237 138.855 14.6959C138.782 14.6617 138.707 14.6286 138.587 14.6457C138.457 14.6649 138.318 14.6681 138.184 14.6831C138.03 14.7002 137.963 14.6041 137.833 14.6062C137.699 14.6083 137.564 14.6265 137.43 14.6393C137.312 14.65 137.312 14.65 137.068 14.5806C136.979 14.555 136.873 14.5923 136.786 14.5656C136.727 14.5486 136.676 14.5229 136.619 14.5048C136.595 14.4973 136.556 14.4973 136.526 14.4994C136.357 14.5123 136.187 14.5208 136.024 14.5443C135.839 14.5721 135.699 14.5422 135.567 14.4792C135.4 14.4909 135.231 14.4973 135.067 14.5176C134.947 14.5325 134.878 14.4973 134.796 14.4685C134.768 14.4589 134.744 14.4429 134.713 14.4386C134.683 14.4343 134.646 14.4429 134.613 14.4461C134.479 14.4578 134.341 14.4632 134.211 14.4824C134.051 14.5069 133.99 14.4194 133.866 14.4087C133.782 14.461 133.738 14.5325 133.573 14.5379C133.439 14.5422 133.305 14.5592 133.171 14.571C133.103 14.5763 133.036 14.5827 132.969 14.5881C132.862 14.5977 132.811 14.6393 132.833 14.7034C132.845 14.7386 132.856 14.7738 132.866 14.8091C132.886 14.8721 132.835 14.9254 132.75 14.9329C132.514 14.9532 132.28 14.9745 132.045 14.9927C131.982 14.998 131.921 14.9799 131.87 14.9511C131.817 14.9222 131.758 14.9094 131.693 14.9148C131.457 14.935 131.224 14.9564 130.988 14.9745C130.961 14.9767 130.927 14.966 130.9 14.9575C130.844 14.9382 130.789 14.9158 130.734 14.8955C130.6 14.9052 130.468 14.9115 130.336 14.9244C130.122 14.9436 130.122 14.9446 129.966 14.8859C129.937 14.8753 129.909 14.855 129.882 14.856C129.781 14.8603 129.681 14.871 129.58 14.8806C129.281 14.9084 129.281 14.9084 129.193 14.8763C129.114 14.8464 129.043 14.8101 128.923 14.8272C128.793 14.8464 128.655 14.8528 128.521 14.8635C128.421 14.871 128.321 14.8795 128.222 14.8817C128.195 14.8827 128.167 14.8624 128.139 14.8518C128.057 14.8187 127.978 14.792 127.866 14.8101C127.801 14.8208 127.732 14.8229 127.665 14.8283C127.49 14.8432 127.49 14.8432 127.204 14.7792C127.175 14.7728 127.141 14.7653 127.112 14.7685C126.877 14.7877 126.643 14.8091 126.407 14.8272C126.379 14.8294 126.344 14.8229 126.316 14.8176C125.995 14.7557 125.995 14.7557 125.653 14.7856C125.523 14.7963 125.519 14.8005 125.383 14.7439C125.322 14.7194 125.271 14.7076 125.2 14.7151C124.932 14.7407 124.661 14.7578 124.395 14.7877C124.275 14.8005 124.206 14.7685 124.125 14.7397C124.096 14.7301 124.066 14.7087 124.041 14.7098C123.773 14.7301 123.505 14.7546 123.237 14.7749C123.212 14.777 123.182 14.7557 123.153 14.7461C123.098 14.7269 123.046 14.698 122.985 14.6916C122.922 14.6852 122.853 14.7012 122.783 14.7066C122.615 14.7205 122.615 14.7194 122.42 14.6564C122.393 14.6479 122.359 14.6361 122.332 14.6382C122.064 14.6596 121.794 14.6778 121.528 14.7087C121.375 14.7258 121.271 14.6948 121.164 14.65C121.141 14.6404 121.103 14.6361 121.074 14.6382C120.771 14.6628 120.471 14.6906 120.168 14.7151C120.105 14.7204 120.044 14.7023 119.993 14.6745C119.912 14.6308 119.816 14.6361 119.715 14.6457C119.481 14.6681 119.479 14.6671 119.341 14.6158C119.312 14.6052 119.288 14.5913 119.257 14.5859C119.229 14.5806 119.192 14.5838 119.162 14.5859C119.028 14.5966 118.894 14.6083 118.76 14.6201C118.625 14.6318 118.489 14.6383 118.357 14.6564C118.195 14.6788 118.117 14.6094 118.003 14.5774C117.837 14.5913 117.666 14.5998 117.502 14.6222C117.376 14.6393 117.317 14.5923 117.233 14.5678C117.205 14.5592 117.174 14.5411 117.148 14.5432C116.845 14.5667 116.542 14.5923 116.241 14.6212C116.168 14.6276 116.12 14.619 116.059 14.5934C115.922 14.5357 115.916 14.5379 115.689 14.5592C115.589 14.5689 115.494 14.5774 115.408 14.5336C115.333 14.4941 115.242 14.4845 115.134 14.4973C115.002 14.5133 114.866 14.5219 114.732 14.5326C114.597 14.5443 114.463 14.5603 114.329 14.5656C114.221 14.571 114.156 14.5208 114.071 14.4952C114.045 14.4877 114.008 14.4866 113.978 14.4888C113.843 14.4984 113.705 14.5059 113.575 14.524C113.417 14.5464 113.329 14.4877 113.217 14.4535C113.193 14.4461 113.152 14.4503 113.122 14.4535C112.886 14.4728 112.652 14.4941 112.417 14.5144C112.333 14.4856 112.248 14.4578 112.165 14.429C112.031 14.4397 111.896 14.4514 111.762 14.4621C111.661 14.4706 111.557 14.4738 111.462 14.4898C111.338 14.5112 111.277 14.461 111.193 14.4365C111.165 14.4279 111.134 14.4098 111.108 14.4119C110.939 14.4237 110.771 14.4365 110.604 14.4546C110.445 14.4728 110.382 14.3767 110.252 14.3777C110.118 14.3788 109.98 14.3927 109.85 14.4119C109.7 14.4343 109.594 14.4002 109.486 14.3543C109.464 14.3446 109.425 14.3393 109.397 14.3414C109.228 14.3543 109.061 14.3703 108.893 14.3831C108.864 14.3852 108.83 14.3799 108.801 14.3735C108.48 14.3105 108.48 14.3094 108.34 14.3222C108.24 14.3308 108.139 14.3414 108.037 14.3468C108.009 14.3489 107.974 14.3393 107.948 14.3308C107.736 14.2656 107.736 14.2646 107.584 14.2774C107.45 14.2891 107.316 14.3009 107.181 14.3126C107.098 14.2838 107.013 14.256 106.929 14.2272C106.763 14.2411 106.592 14.2518 106.428 14.271C106.35 14.2795 106.299 14.2763 106.241 14.2496C106.167 14.2176 106.094 14.1802 105.972 14.1984C105.842 14.2176 105.704 14.2197 105.572 14.2357C105.413 14.255 105.348 14.1578 105.22 14.1589C105.086 14.16 104.948 14.1738 104.818 14.193C104.668 14.2155 104.562 14.1813 104.454 14.1354C104.432 14.1258 104.393 14.1205 104.365 14.1226C103.995 14.1535 103.627 14.1845 103.257 14.2176C103.03 14.2379 103.03 14.2389 102.597 14.1802C102.566 14.176 102.534 14.1717 102.503 14.1738C102.369 14.1834 102.231 14.1909 102.101 14.2091C101.942 14.2315 101.855 14.1738 101.743 14.1386C101.719 14.1311 101.68 14.1354 101.648 14.1375C101.546 14.145 101.446 14.1546 101.345 14.1632C101.211 14.1749 101.076 14.1866 100.942 14.1984C100.859 14.1706 100.774 14.1418 100.69 14.114C100.524 14.1279 100.353 14.1354 100.188 14.1578C100.062 14.1749 100.003 14.1301 99.9201 14.1044C99.8916 14.0959 99.8611 14.0777 99.8347 14.0788C99.5319 14.1023 99.2291 14.1269 98.9283 14.1567C98.8044 14.1696 98.7474 14.1215 98.6641 14.097C98.6357 14.0895 98.6032 14.0756 98.5767 14.0777C98.3755 14.0927 98.1744 14.1108 97.9732 14.129C97.8594 14.1397 97.8593 14.1397 97.6114 14.0735C97.583 14.066 97.5504 14.0585 97.522 14.0607C96.8839 14.114 96.2477 14.1706 95.6096 14.224C95.5445 14.2293 95.4856 14.2133 95.4348 14.1845C95.382 14.1557 95.323 14.1407 95.258 14.1461C94.9897 14.1685 94.7194 14.1888 94.4532 14.2165C94.3435 14.2283 94.2561 14.2144 94.1809 14.177C94.124 14.1493 94.0711 14.1386 94 14.145C93.8659 14.1578 93.7317 14.1685 93.5976 14.1802C93.4635 14.192 93.3294 14.2037 93.1952 14.2155C93.0611 14.2272 92.9249 14.2336 92.7928 14.2518C92.6302 14.2742 92.551 14.208 92.4392 14.1749C92.238 14.1909 92.0368 14.2069 91.8376 14.224C91.5693 14.2464 91.3011 14.271 91.0328 14.2923C91.0084 14.2945 90.978 14.2753 90.9495 14.2656C90.8662 14.239 90.8052 14.2016 90.6812 14.2133C90.0797 14.2699 89.4741 14.318 88.8705 14.3735C88.7445 14.3852 88.6896 14.3393 88.6042 14.3148C88.5758 14.3073 88.5433 14.2923 88.5169 14.2945C88.1815 14.3212 87.8462 14.351 87.5109 14.3799C87.3747 14.3916 87.3747 14.3916 87.1471 14.3254C87.1207 14.318 87.0861 14.3083 87.0576 14.3105C86.6207 14.3468 86.1858 14.3852 85.7488 14.4226C85.6838 14.4279 85.6249 14.413 85.5721 14.3842C85.5213 14.3553 85.4603 14.3393 85.3973 14.3446C84.9949 14.3788 84.5904 14.4119 84.1901 14.4493C84.0824 14.4599 83.9929 14.4503 83.9157 14.4119C83.8608 14.3842 83.806 14.3724 83.7369 14.3788C83.1333 14.4311 82.5297 14.4813 81.9261 14.5368C81.8102 14.5475 81.729 14.5272 81.6558 14.492C81.5969 14.4642 81.546 14.4589 81.4729 14.4632C81.3956 14.4685 81.3489 14.4802 81.3063 14.5123C81.2514 14.5539 81.2168 14.6062 81.0868 14.6094C80.9526 14.6126 80.8165 14.6254 80.6844 14.6436C80.5584 14.6617 80.4994 14.6137 80.4202 14.5849C80.3612 14.5646 80.3064 14.5614 80.2312 14.571C80.1621 14.5795 80.1194 14.5977 80.0787 14.6318C79.9893 14.7044 79.9812 14.7044 79.8714 14.6585C79.8125 14.634 79.7596 14.6148 79.6946 14.619C79.4263 14.6404 79.1581 14.6639 78.8898 14.6884C78.7354 14.7023 78.7334 14.7044 78.6175 14.6511C78.5606 14.6244 78.5057 14.6115 78.4387 14.618C77.7009 14.682 76.9632 14.7439 76.2255 14.8112C76.1117 14.8219 76.0345 14.7995 75.9532 14.7674C75.9267 14.7567 75.9003 14.7418 75.8699 14.7375C75.8394 14.7333 75.8048 14.7375 75.7723 14.7397C75.2358 14.7856 74.6972 14.8294 74.1627 14.8806C74.0408 14.8923 73.9758 14.8582 73.8924 14.8304C73.864 14.8208 73.8396 14.8059 73.8091 14.8016C73.7786 14.7984 73.742 14.8059 73.7095 14.8091C73.173 14.855 72.6344 14.8988 72.0999 14.95C71.9719 14.9617 71.917 14.9169 71.8337 14.8934C71.8052 14.8849 71.7748 14.8688 71.7483 14.871C71.5797 14.8827 71.413 14.8987 71.2443 14.9126C70.8419 14.9479 70.4395 14.981 70.0371 15.0173C69.8827 15.0311 69.8156 14.9361 69.6855 14.9404C69.5169 14.9457 69.3502 14.9671 69.1815 14.982C69.0474 14.9938 68.9133 15.0044 68.7791 15.0173C68.647 15.029 68.647 15.029 68.3178 14.9671C68.2893 14.9617 68.2548 14.9543 68.2264 14.9564C67.7569 14.9959 67.2854 15.0354 66.818 15.0781C66.7103 15.0877 66.6208 15.0824 66.5436 15.0429C66.4887 15.0151 66.4318 15.0012 66.3648 15.0076C65.6596 15.0685 64.9564 15.1294 64.2512 15.1891C64.2247 15.1913 64.1902 15.1806 64.1638 15.1721C64.1069 15.1528 64.052 15.1304 63.9971 15.1101C63.9565 15.1347 63.9037 15.1571 63.8772 15.1849C63.8407 15.2222 63.7919 15.2329 63.7147 15.2393C63.6374 15.2457 63.5887 15.2436 63.5277 15.2158C63.4545 15.1817 63.3793 15.155 63.2594 15.1656C62.5217 15.2329 61.7839 15.2938 61.0462 15.36C60.9243 15.3706 60.8674 15.3237 60.7821 15.2991C60.7536 15.2916 60.7211 15.2799 60.6946 15.282C60.3918 15.3066 60.0911 15.3333 59.7882 15.3589C58.9489 15.4315 58.1096 15.5009 57.2723 15.5778C57.1199 15.5916 57.0162 15.5649 56.9085 15.519C56.8861 15.5094 56.8475 15.5041 56.8191 15.5062C55.6444 15.6066 54.4697 15.708 53.2971 15.8094C53.2341 15.8148 53.1731 15.7977 53.1223 15.7699C53.0694 15.7411 53.0105 15.7272 52.9455 15.7326C52.409 15.7785 51.8725 15.8244 51.3359 15.8714C51.2018 15.8831 51.1997 15.8842 51.0616 15.8329C51.0331 15.8222 51.0026 15.802 50.9803 15.8041C50.9335 15.8094 50.8888 15.8361 50.8563 15.8724C50.8238 15.9108 50.773 15.9215 50.6978 15.929C50.6205 15.9365 50.5697 15.9333 50.5108 15.9077C50.4356 15.8756 50.3665 15.8447 50.2446 15.8553C48.702 15.992 47.1595 16.1233 45.617 16.2589C45.493 16.2696 45.4361 16.2247 45.3508 16.2002C45.3223 16.1927 45.2939 16.182 45.2634 16.1799C45.2309 16.1778 45.1963 16.1842 45.1638 16.1874C42.6478 16.4041 40.1319 16.6219 37.6159 16.8386C37.4655 16.8514 37.4675 16.8514 37.3029 16.9497C37.2826 16.9614 37.2561 16.9774 37.2277 16.9795C36.4574 17.0479 35.6852 17.1141 34.9129 17.1803C34.5776 17.2091 34.2422 17.239 33.9069 17.2667C33.787 17.2763 33.787 17.2763 33.5005 17.3917C33.4761 17.4013 33.4476 17.4141 33.4191 17.4162C32.0778 17.5326 30.7365 17.6489 29.3931 17.7632C29.2875 17.7717 29.2021 17.7909 29.1533 17.8422C29.1188 17.8785 29.0741 17.8998 29.007 17.9062C28.0681 17.9874 27.1292 18.0696 26.1882 18.1486C26.0765 18.1582 26.0094 18.1881 25.9545 18.2329C25.9362 18.2479 25.9199 18.265 25.8935 18.2756C25.8691 18.2852 25.8326 18.2884 25.8021 18.2917C24.9973 18.361 24.1925 18.4326 23.3857 18.4988C23.2658 18.5084 23.217 18.5479 23.1581 18.5895C23.1377 18.6034 23.1235 18.6226 23.0971 18.6322C23.0707 18.6408 23.032 18.6408 22.9995 18.6429C22.3289 18.7006 21.6582 18.7593 20.9876 18.8169C20.8575 18.8116 20.829 18.8735 20.766 18.9109C20.7437 18.9237 20.7275 18.9408 20.701 18.9493C20.6726 18.9579 20.636 18.9568 20.6014 18.9589C20.0649 19.0048 19.5284 19.0539 18.9898 19.0966C18.8658 19.1063 18.8414 19.1607 18.7744 19.1981C18.752 19.2098 18.7297 19.228 18.7033 19.2312C18.3679 19.2621 18.0326 19.2909 17.6973 19.3187C17.5855 19.3283 17.5855 19.3273 17.3884 19.433C17.366 19.4447 17.3396 19.4575 17.3111 19.4607C16.8091 19.5055 16.3051 19.5483 15.8011 19.592C15.7361 19.5974 15.6914 19.623 15.6589 19.6593C15.6264 19.6956 15.5796 19.7191 15.5146 19.7244C15.1122 19.7596 14.7098 19.7959 14.3074 19.828C14.1956 19.8365 14.1225 19.8632 14.0737 19.9112C14.0371 19.9475 13.9924 19.9657 13.9213 19.9721C13.5189 20.0063 13.1165 20.0436 12.712 20.0735C12.5942 20.0821 12.5332 20.1184 12.4844 20.1632C12.4458 20.1995 12.4011 20.2123 12.3259 20.2187C11.5882 20.2806 10.8484 20.3426 10.1127 20.4109C9.98876 20.4226 9.92574 20.3853 9.84445 20.3586C9.72861 20.3212 9.62093 20.2806 9.62093 20.1974C9.62093 20.1845 9.58637 20.1696 9.56198 20.1589C9.38111 20.0789 9.3811 20.0789 9.35265 19.9935C9.33639 19.9411 9.3181 19.8878 9.30388 19.8344C9.27746 19.7468 9.2124 19.7244 9.02543 19.7404C8.95836 19.7458 8.8913 19.7532 8.82423 19.7575C8.72465 19.765 8.64947 19.7297 8.63117 19.6657C8.62101 19.6305 8.60884 19.5952 8.59868 19.56C8.70029 19.5515 8.69823 19.5504 8.87707 19.4212C8.95227 19.3668 8.9523 19.3668 8.80801 19.3123C8.75314 19.292 8.70028 19.2696 8.64135 19.2504C8.61493 19.2418 8.58039 19.2365 8.55194 19.2386C8.38326 19.2514 8.21661 19.2664 8.04996 19.2813C7.7817 19.3048 7.78167 19.3048 7.50934 19.1959C7.48699 19.1874 7.45243 19.1714 7.4565 19.1628C7.47885 19.1233 7.53372 19.1062 7.60282 19.102C7.70443 19.0956 7.80401 19.0849 7.90359 19.0764C7.97066 19.071 8.03772 19.0646 8.10479 19.0593C8.16779 19.0187 8.23286 18.9792 8.2918 18.9376C8.38528 18.8735 8.38525 18.8714 8.25721 18.8265C8.17592 18.7966 8.08853 18.7699 8.00521 18.7422C7.90563 18.7507 7.80402 18.7603 7.70443 18.7678C7.57843 18.7774 7.52762 18.7571 7.4951 18.6877C7.46665 18.6269 7.5012 18.5746 7.59875 18.5618C7.69833 18.549 7.79186 18.5404 7.84267 18.486C7.89144 18.4337 7.97678 18.4134 8.08246 18.4091C8.14953 18.4059 8.21659 18.3984 8.28366 18.392C8.37105 18.3835 8.4178 18.329 8.39951 18.2682C8.38935 18.2287 8.36902 18.1956 8.28976 18.187C7.93817 18.1497 7.93409 18.1507 7.75931 18.0781C7.74305 18.0717 7.73089 18.0525 7.73698 18.0429C7.74714 18.0269 7.7695 18.0034 7.79389 18.0002C8.02761 17.9767 8.26131 17.9554 8.49503 17.9393C8.57225 17.934 8.62917 17.9265 8.65559 17.887C8.69217 17.8326 8.67591 17.7824 8.60478 17.745C8.58242 17.7333 8.54581 17.7183 8.52142 17.7194C8.25316 17.7386 7.98694 17.7632 7.71867 17.7824C7.69429 17.7845 7.6496 17.7664 7.63944 17.7525C7.61911 17.7269 7.64958 17.6927 7.72071 17.681C7.81419 17.665 7.90971 17.6639 7.97271 17.6105C8.0601 17.5347 8.1678 17.4653 8.26535 17.3927C8.28161 17.3799 8.30806 17.3553 8.30197 17.3532C8.25116 17.3297 8.19221 17.3116 8.13937 17.2892C8.04995 17.2518 8.04993 17.1995 8.07026 17.1493C8.08652 17.1087 8.14748 17.0927 8.22268 17.0927C8.2552 17.0927 8.29584 17.0927 8.32226 17.0831C8.39136 17.0596 8.41372 17.0297 8.37917 17.0073C8.35885 16.9945 8.32229 16.9763 8.2979 16.9785C7.86299 17.0137 7.42601 17.0479 6.99313 17.0916C6.86509 17.1045 6.8062 17.0639 6.72897 17.0351C6.67003 17.0126 6.61513 17.0041 6.54196 17.0201C6.47287 17.0351 6.40582 17.0265 6.36314 16.9913C6.3286 16.9625 6.38955 16.9379 6.55417 16.9102C6.58465 16.9048 6.61919 16.9016 6.64154 16.8909C6.87729 16.7756 6.87728 16.7746 7.03987 16.7596C7.19839 16.7457 7.19842 16.7447 7.28175 16.6827C7.32036 16.6539 7.36301 16.6251 7.39959 16.5952C7.41381 16.5835 7.43823 16.5621 7.4301 16.5557C7.38539 16.5226 7.3244 16.5151 7.25327 16.5226C7.09475 16.5408 6.90781 16.5258 6.82448 16.6272C6.79196 16.6657 6.74115 16.6763 6.66799 16.6827C5.9323 16.7447 5.19658 16.8109 4.45886 16.8707C4.33895 16.8803 4.28411 16.9198 4.23737 16.9635C4.19672 16.9998 4.152 17.0105 4.07477 17.0169C3.99755 17.0233 3.93655 17.0265 3.89184 16.9913C3.86542 16.9699 3.88778 16.94 3.94875 16.9102C4.03613 16.8674 4.01987 16.8141 3.99142 16.7639C3.97109 16.7308 3.90809 16.7073 3.84103 16.7094C3.74145 16.7137 3.64595 16.7255 3.56263 16.6827C3.51385 16.6582 3.45287 16.6411 3.398 16.6197C3.29232 16.576 3.18664 16.5311 3.03828 16.56C2.93666 16.5493 2.86553 16.5109 2.78424 16.481C2.64808 16.4319 2.63588 16.4244 2.73343 16.3721C2.84318 16.3133 2.75781 16.2365 2.81878 16.1788C2.88381 16.1169 2.97326 16.0625 3.05252 16.0048C3.07284 15.9899 3.09114 15.976 3.11146 15.961C3.06472 15.9397 3.02205 15.913 2.96718 15.898C2.89605 15.8788 2.85946 15.8553 2.86353 15.7891C2.8493 15.7795 2.85536 15.8041 2.87162 15.8105C2.88991 15.8169 2.93465 15.8116 2.95701 15.8041C3.01391 15.7838 3.04233 15.7571 3.02811 15.7347C3.01998 15.723 2.98139 15.708 2.95701 15.708C2.9123 15.708 2.87369 15.7315 2.8615 15.7891C2.63388 15.8329 2.39809 15.8543 2.16235 15.8714C2.13796 15.8735 2.10749 15.8521 2.07904 15.8415C1.98555 15.8052 1.98554 15.8062 1.71118 15.7955C1.68273 15.7945 1.64414 15.7795 1.62991 15.7646C1.57097 15.6995 1.57302 15.6279 1.54457 15.5585C1.59741 15.5137 1.65021 15.4699 1.70508 15.4262C1.81482 15.3375 1.95712 15.2596 2.04247 15.1625C2.02418 15.1101 1.99979 15.0578 2.08921 15.0151C2.34325 14.9617 2.34123 14.9617 2.41033 14.9105C2.60746 14.7653 2.80255 14.619 3.00781 14.476C3.06269 14.4386 3.06269 14.4183 2.96514 14.4023C2.93466 14.398 2.9021 14.397 2.86958 14.3991C2.76797 14.4066 2.66635 14.4258 2.56677 14.4215C2.46719 14.4183 2.39403 14.3713 2.31273 14.3425C2.22941 14.3126 2.14609 14.2817 2.06277 14.2507C1.96725 14.2539 1.87175 14.2838 1.77623 14.2357C1.70307 14.1984 1.61162 14.1717 1.52829 14.1407C1.5913 14.0596 1.70919 13.9977 1.80064 13.9261C1.88396 13.861 1.88595 13.8621 2.1095 13.8119C2.21518 13.7884 2.25177 13.6678 2.16235 13.6325C2.05463 13.5898 1.94085 13.5503 1.8311 13.5098C1.73559 13.513 1.63806 13.5418 1.5466 13.4938C1.47547 13.4575 1.39416 13.4329 1.27629 13.4468C1.07713 13.4703 0.873901 13.482 0.672703 13.5012C0.603605 13.5076 0.528388 13.5034 0.497904 13.4671C0.477581 13.4414 0.536521 13.4062 0.603587 13.3987C0.705202 13.3881 0.796646 13.3753 0.847453 13.3219C0.896229 13.2685 0.98564 13.2525 1.09132 13.245C1.11977 13.2429 1.15231 13.23 1.16654 13.2172C1.2397 13.1553 1.321 13.1019 1.47749 13.1041C1.54252 13.0827 1.57705 13.056 1.55672 13.0304C1.54453 13.0165 1.50187 12.9984 1.47749 13.0005C1.30881 13.0112 1.14013 13.0219 0.975514 13.0411C0.898287 13.0496 0.839318 13.0518 0.790543 13.0197C0.755994 12.9984 0.774283 12.9695 0.839316 12.9386C0.896221 12.9119 0.912497 12.8809 0.908432 12.8446C0.898271 12.7603 0.83729 12.7357 0.642189 12.7411C0.50196 12.7453 0.467409 12.7315 0.436925 12.6589C0.428796 12.6418 0.408508 12.6183 0.422734 12.6066C0.510123 12.534 0.567032 12.4443 0.731648 12.4101C0.796682 12.3973 0.865752 12.3973 0.906398 12.3695C0.947044 12.3418 0.983643 12.3098 1.02632 12.2831C1.07916 12.251 1.11571 12.2211 1.09132 12.2009C1.05067 12.1646 0.985662 12.1614 0.910467 12.1742C0.845433 12.1848 0.776337 12.1859 0.709271 12.1923C0.589365 12.2041 0.491837 12.1763 0.47761 12.1293C0.438997 12.0055 0.398339 11.8827 0.36379 11.7589C0.359725 11.7439 0.369859 11.7247 0.386117 11.7119C0.443022 11.667 0.504015 11.6243 0.562951 11.5806C0.632049 11.5304 0.741812 11.54 0.835297 11.5304C0.967397 11.5165 0.967351 11.5176 1.14416 11.4151C1.21326 11.3745 1.33317 11.3905 1.4043 11.3542C1.42666 11.3425 1.46121 11.3233 1.45511 11.3126C1.44698 11.2987 1.40636 11.288 1.37587 11.2816C1.34742 11.2752 1.31288 11.272 1.28239 11.2752C0.912515 11.3062 0.544678 11.3393 0.1748 11.3692C0.111798 11.3745 0.0426982 11.351 0.0203429 11.3179C-0.00201245 11.287 0.0040646 11.2496 0 11.2144C0.0589367 11.1706 0.125977 11.13 0.176784 11.0831C0.215398 11.0468 0.260117 11.0307 0.337344 11.0286C0.438959 11.0254 0.538552 11.0126 0.652361 11.003C0.86372 10.8471 1.071 10.6838 1.29862 10.5279C1.39007 10.4649 1.36775 10.4008 1.38604 10.3336C1.40433 10.2717 1.54049 10.2813 1.63194 10.2631C1.70511 10.2482 1.72946 10.214 1.70101 10.1905C1.68475 10.1766 1.64819 10.1606 1.61974 10.1606C1.55267 10.1606 1.48561 10.1702 1.41854 10.1756C1.35148 10.1809 1.27425 10.1777 1.21938 10.1959C1.16654 10.2129 1.13197 10.2492 1.09742 10.2802C1.05881 10.3144 1.00804 10.3261 0.93081 10.3282C0.831227 10.3304 0.73165 10.34 0.632067 10.3475C0.522323 10.3058 0.40849 10.2653 0.302811 10.2215C0.282488 10.2129 0.278401 10.1884 0.280434 10.1724C0.284498 10.1307 0.254022 10.1051 0.186956 10.0848C0.130051 10.0677 0.0833045 10.0432 0.0304647 10.0218C0.0711107 9.99301 0.115837 9.96525 0.148354 9.93429C0.219484 9.86916 0.308916 9.8222 0.46337 9.82433C0.524339 9.78269 0.573101 9.73145 0.652361 9.70262C0.727556 9.67486 0.855597 9.70261 0.912501 9.63962C0.940953 9.60866 0.983655 9.57343 1.03853 9.56062C1.12592 9.54033 1.23972 9.55102 1.29053 9.49123C1.32102 9.45707 1.36571 9.4261 1.42464 9.41756C1.49171 9.40795 1.56079 9.40582 1.60957 9.38554C1.63599 9.37486 1.66444 9.35778 1.66444 9.34283C1.66444 9.33322 1.62383 9.31827 1.59538 9.31187C1.56896 9.30439 1.53437 9.29906 1.50388 9.30119C1.40227 9.3076 1.30269 9.31934 1.20107 9.32575C1.17262 9.32788 1.14011 9.32041 1.10963 9.314C1.02021 9.29692 1.02629 9.27557 1.09742 9.23714C1.16855 9.19977 1.21939 9.15172 1.27832 9.10795C1.34336 9.10047 1.42464 9.10368 1.46935 9.08339C1.54454 9.0503 1.59737 9.00225 1.65834 8.96061C1.72541 8.95421 1.7945 8.95208 1.8575 8.94033C1.88392 8.93606 1.89612 8.91257 1.91848 8.8987C1.95913 8.872 1.9937 8.83357 2.04857 8.82076C2.138 8.80154 2.24774 8.80901 2.30058 8.75029C2.33106 8.71613 2.37779 8.67984 2.43469 8.6777C2.59321 8.67343 2.66028 8.6147 2.74157 8.55919C2.80254 8.51755 2.93261 8.53891 2.99968 8.49727C3.04439 8.47058 3.07692 8.43748 3.12164 8.41185C3.13993 8.40118 3.17853 8.39585 3.20901 8.39264C3.37566 8.37663 3.54433 8.36488 3.71098 8.3478C3.7374 8.34459 3.76181 8.32859 3.78213 8.31578C3.82481 8.28802 3.8512 8.24958 3.90404 8.23143C3.95688 8.21328 4.03207 8.21328 4.0971 8.20795C4.30643 8.19193 4.3227 8.19619 4.41822 8.10544C4.49545 8.03178 4.68447 8.0841 4.74748 8.00296C4.78406 7.95598 4.85109 7.91755 4.971 7.91221C5.13968 7.90474 5.30632 7.88445 5.47501 7.87057C5.6254 7.85776 5.62337 7.85776 5.78595 7.75847C5.85912 7.71363 5.96685 7.72004 6.06237 7.7115C6.16398 7.70296 6.25746 7.69015 6.30623 7.63677C6.35501 7.58446 6.44442 7.56736 6.54807 7.55989C6.64358 7.55242 6.75132 7.55776 6.82652 7.51506C7.00942 7.41257 7.00739 7.41149 7.13543 7.40082C7.33663 7.38373 7.53782 7.36665 7.73902 7.3485C7.87315 7.33676 8.01337 7.33463 8.13937 7.31114C8.23083 7.29406 8.27146 7.23427 8.3304 7.19263C8.49705 7.17662 8.66369 7.1606 8.83034 7.14565C9.06405 7.1243 9.29979 7.10509 9.53554 7.0848C9.63715 7.04423 9.65141 6.95455 9.82212 6.95028C9.92374 6.94815 10.0233 6.93427 10.1249 6.92573C10.2936 6.91078 10.4603 6.89156 10.6289 6.88409C10.757 6.87875 10.7793 6.82109 10.8464 6.78479C10.8687 6.77198 10.8891 6.75384 10.9155 6.75064C11.1797 6.72074 11.452 6.71434 11.7101 6.67056C11.7365 6.66629 11.7609 6.64387 11.767 6.62786C11.7711 6.61932 11.7365 6.60331 11.7142 6.59584C11.6877 6.58729 11.6532 6.57875 11.6247 6.58089C10.7854 6.65242 9.94609 6.72502 9.10675 6.79655C8.98888 6.80723 8.98888 6.80615 8.70232 6.92359C8.67794 6.9332 8.64945 6.94387 8.61897 6.94708C8.48484 6.95989 8.34868 6.96737 8.21658 6.98338C8.10887 6.9962 8.01947 6.98337 7.94225 6.94494C7.88737 6.91718 7.83044 6.90864 7.76134 6.91078C7.68412 6.91398 7.63334 6.92573 7.58863 6.95456C7.52969 6.99406 7.4992 7.0453 7.37523 7.05597C6.80415 7.10188 6.23304 7.15313 5.664 7.20224C5.58474 7.18729 5.54613 7.16487 5.56645 7.13818C5.57864 7.12217 5.60304 7.10082 5.62743 7.09868C5.86114 7.07626 6.09688 7.05705 6.3306 7.0357C6.36311 7.03249 6.40782 7.03462 6.42611 7.02394C6.51553 6.9759 6.54808 6.89796 6.71676 6.89263C6.81431 6.88942 6.91388 6.87341 7.00737 6.85847C7.03379 6.8542 7.05818 6.83177 7.06428 6.81576C7.06631 6.80722 7.03379 6.7912 7.0094 6.78373C6.91998 6.75276 6.81636 6.79014 6.72693 6.76879C6.69645 6.76132 6.65374 6.75064 6.64765 6.73783C6.64358 6.72608 6.67814 6.70686 6.70252 6.69512C6.72488 6.68444 6.75535 6.67484 6.78583 6.67163C7.05409 6.64708 7.3224 6.62145 7.59066 6.60223C7.70041 6.59476 7.77762 6.56807 7.82639 6.51896C7.86297 6.48266 7.90768 6.46345 7.97678 6.45811C8.44624 6.41861 8.91569 6.37483 9.38718 6.33853C9.50506 6.32999 9.56605 6.29477 9.61483 6.24886C9.65344 6.21256 9.69816 6.19975 9.77335 6.19334C10.446 6.13782 11.1147 6.0759 11.7873 6.02252C11.9113 6.01291 11.9479 5.967 12.0109 5.9275C12.0333 5.91362 12.0475 5.89654 12.0759 5.888C12.1044 5.87946 12.1409 5.88052 12.1755 5.87838C12.712 5.83247 13.2486 5.78337 13.7871 5.74067C13.9131 5.73106 13.9375 5.67767 14.0025 5.6403C14.0249 5.62856 14.0452 5.60935 14.0716 5.60615C14.474 5.56985 14.8764 5.53568 15.2788 5.50045C15.5471 5.47696 15.8153 5.45347 16.0836 5.43105C16.2157 5.42038 16.2157 5.4193 16.3946 5.31788C16.4149 5.30614 16.4434 5.29225 16.4698 5.28905C17.242 5.22072 18.0123 5.15561 18.7845 5.08835C18.8496 5.08301 18.8963 5.05844 18.9288 5.02215C18.9613 4.98585 19.0081 4.96129 19.0711 4.95595C19.6747 4.90257 20.2783 4.85026 20.8839 4.80008C20.9937 4.79154 21.0709 4.76592 21.1197 4.71788C21.1562 4.68158 21.2009 4.66236 21.27 4.65703C21.8736 4.60578 22.4773 4.55132 23.0829 4.50221C23.1987 4.4926 23.2556 4.45631 23.3125 4.4136C23.3328 4.39866 23.3491 4.3741 23.3735 4.37197C23.6743 4.34207 23.973 4.31111 24.2758 4.29083C24.4018 4.28228 24.4445 4.23744 24.4953 4.19474C24.536 4.16057 24.5827 4.14883 24.66 4.14456C24.8286 4.13495 24.9953 4.11681 25.1599 4.09866C25.1843 4.09546 25.2148 4.07197 25.2168 4.05702C25.2209 4.02926 25.1741 4.01004 25.0969 4.00043C24.2921 4.06983 23.4853 4.13922 22.6805 4.20862C22.5484 4.22036 22.5484 4.22037 22.3695 4.32179C22.3492 4.33353 22.3207 4.34742 22.2923 4.35062C21.52 4.41788 20.7498 4.48407 19.9775 4.55133C19.9125 4.55667 19.8658 4.58123 19.8332 4.61752C19.8007 4.65382 19.7539 4.67838 19.6909 4.68372C18.9532 4.74777 18.2155 4.8129 17.4758 4.87376C17.366 4.8823 17.2888 4.90684 17.24 4.95595C17.2034 4.99225 17.1587 5.01148 17.0896 5.01682C16.3844 5.0766 15.6812 5.13959 14.974 5.19724C14.9028 5.20258 14.85 5.17161 14.8541 5.14279C14.8561 5.12784 14.8866 5.1033 14.911 5.10116C15.2788 5.06593 15.6447 5.02963 16.0145 5.00294C16.1385 4.99439 16.1751 4.94742 16.2381 4.90792C16.2584 4.89404 16.2747 4.87589 16.3011 4.86841C16.3295 4.85987 16.3661 4.86094 16.4007 4.85881C17.2725 4.78301 18.1444 4.70614 19.0183 4.63461C19.1443 4.62393 19.1686 4.57161 19.2337 4.53425C19.256 4.52144 19.2764 4.50222 19.3028 4.50009C19.5711 4.47447 19.8393 4.45204 20.1076 4.42962C20.577 4.38905 21.0465 4.34848 21.518 4.30791C21.6541 4.29617 21.6541 4.29616 21.8289 4.19581C21.8492 4.18406 21.8777 4.16913 21.9041 4.16699C23.1459 4.05916 24.3876 3.95133 25.6294 3.84457C25.6944 3.83923 25.7411 3.81467 25.7736 3.77837C25.8062 3.74314 25.8529 3.71752 25.9159 3.71111C27.5946 3.56592 29.2712 3.42071 30.9499 3.27765C31.0597 3.26804 31.1369 3.24562 31.1856 3.19544C31.2202 3.15914 31.2669 3.13993 31.336 3.13352C33.1814 2.97445 35.0267 2.81537 36.874 2.65523C38.1158 2.54847 39.3575 2.43957 40.5993 2.33494C40.7131 2.32533 40.774 2.29223 40.8309 2.24846C40.8492 2.23351 40.8675 2.20896 40.8919 2.20682C41.1581 2.18013 41.4244 2.15558 41.6906 2.13102C41.7739 2.15985 41.8572 2.18761 41.9406 2.21644C42.0036 2.17587 42.0646 2.13423 42.1276 2.09366C42.53 2.0627 42.9262 2.01465 43.3327 1.99971C43.3591 1.99864 43.3876 2.01893 43.416 2.0296C43.605 2.09686 43.7127 2.09153 43.8326 2.00185C43.8753 1.96982 43.9119 1.94099 43.9769 1.93565C44.1781 1.91644 44.3814 1.90362 44.5806 1.8812C44.6883 1.86946 44.7777 1.88013 44.8549 1.91857C44.9098 1.94633 44.9667 1.95808 45.0338 1.95167C45.4036 1.91964 45.7715 1.88868 46.1414 1.85451C46.1678 1.85238 46.1921 1.83422 46.2125 1.82141C46.2551 1.79365 46.2917 1.76376 46.3324 1.73494C46.3873 1.75309 46.4482 1.76697 46.4929 1.79046C46.5498 1.81822 46.6027 1.81821 46.6799 1.81074C48.1553 1.68155 49.6328 1.55558 51.1083 1.42533C51.2343 1.41465 51.2892 1.45949 51.3745 1.48298C51.403 1.49152 51.4314 1.50219 51.4619 1.50433C51.4944 1.50646 51.529 1.50006 51.5615 1.49686C52.6691 1.40077 53.7767 1.30575 54.8843 1.20966C55.0306 1.19685 55.0307 1.19685 55.2481 1.26304C55.2745 1.27159 55.3091 1.2812 55.3375 1.27799C55.8415 1.23636 56.3455 1.19152 56.8475 1.14881C56.9125 1.14348 56.9674 1.16055 57.0264 1.18511C57.1422 1.23315 57.1503 1.23316 57.2357 1.16269C57.2763 1.1296 57.319 1.1093 57.386 1.09969C57.4592 1.08902 57.5182 1.09223 57.5751 1.11145C57.6564 1.13814 57.7153 1.18297 57.8393 1.17123C58.3758 1.12105 58.9144 1.07942 59.4489 1.02817C59.5708 1.01643 59.6358 1.05273 59.7171 1.07942C59.7456 1.08902 59.772 1.10397 59.8025 1.10718C59.833 1.11038 59.8695 1.1029 59.9021 1.09969C60.5727 1.04204 61.2454 0.985469 61.914 0.923547C62.04 0.911803 62.0949 0.957702 62.1803 0.98119C62.2087 0.989731 62.2412 1.00469 62.2676 1.00255C62.67 0.969454 63.0745 0.934212 63.4769 0.898981C63.6212 0.886169 63.6211 0.887237 63.8406 0.952362C63.8671 0.960903 63.9016 0.969445 63.9301 0.96731C64.3996 0.927808 64.871 0.887238 65.3405 0.846668C65.4848 0.833857 65.4848 0.833859 65.9014 0.889376C65.9319 0.893646 65.9644 0.90006 65.9949 0.897925C66.5314 0.852017 67.07 0.807171 67.6065 0.75806C67.7142 0.748451 67.8036 0.75699 67.8809 0.795424C67.9357 0.823182 67.9926 0.834933 68.0597 0.828527C68.6633 0.776213 69.2689 0.726037 69.8705 0.670521C69.9863 0.659844 70.0615 0.683323 70.1428 0.714284C70.1692 0.72496 70.1957 0.73991 70.2262 0.74418C70.2566 0.748451 70.2912 0.744177 70.3237 0.740974C70.9273 0.688661 71.5329 0.639552 72.1345 0.582968C72.2564 0.571224 72.3214 0.607521 72.4027 0.634212C72.4312 0.643821 72.4617 0.663039 72.486 0.661971C72.7218 0.643822 72.9575 0.627813 73.1912 0.601122C73.3173 0.586176 73.3721 0.635277 73.4575 0.658765C73.4859 0.666239 73.5184 0.682261 73.5449 0.680125C74.0489 0.638488 74.5529 0.594719 75.0549 0.549878C75.126 0.543473 75.1789 0.553072 75.2358 0.580831C75.311 0.618198 75.3984 0.633145 75.5081 0.621401C75.7418 0.596846 75.9776 0.579768 76.2133 0.559483C76.3515 0.54774 76.3515 0.547743 76.7742 0.60326C76.8047 0.60753 76.8372 0.613931 76.8677 0.611796C77.2701 0.577632 77.6745 0.544538 78.0749 0.507171C78.1826 0.496495 78.272 0.506101 78.3493 0.544535C78.4041 0.572293 78.459 0.584043 78.5281 0.577638C78.898 0.545609 79.2658 0.513578 79.6357 0.481549C79.7698 0.469805 79.904 0.449515 80.0381 0.449515C80.1357 0.450583 80.2068 0.501826 80.2942 0.527449C80.3186 0.534923 80.3592 0.526392 80.3917 0.524257C80.8612 0.483687 81.3327 0.446316 81.8001 0.400408C81.922 0.388665 81.9871 0.424962 82.0684 0.451652C82.0968 0.461261 82.1273 0.480479 82.1517 0.479412C82.3204 0.467668 82.487 0.451652 82.6557 0.437773C82.8569 0.420691 83.0601 0.407879 83.2593 0.384391C83.4219 0.365174 83.4828 0.458054 83.6129 0.461257C83.7125 0.46446 83.8141 0.446314 83.9137 0.437773C84.1149 0.420691 84.3161 0.401476 84.5173 0.386529C84.5884 0.381191 84.6433 0.364101 84.6657 0.325667C84.6697 0.318194 84.6352 0.302186 84.6128 0.292577C84.3425 0.18368 84.3425 0.183674 84.0702 0.207162C83.9015 0.222109 83.7348 0.237058 83.5662 0.24987C83.5377 0.252005 83.5052 0.243464 83.4767 0.237059C83.3955 0.218909 83.4036 0.197559 83.4727 0.159124C83.5418 0.12069 83.5946 0.0737185 83.6535 0.0299459C83.7369 0.0577041 83.8182 0.0854524 83.9015 0.113211C83.9686 0.107873 84.0356 0.101476 84.1027 0.0961381C84.438 0.0683798 84.7734 0.0395519 85.1087 0.0139289C85.1331 0.0117936 85.1635 0.0331493 85.192 0.0438255C85.2733 0.0747866 85.3465 0.10147 85.4643 0.0897261C85.7651 0.058765 86.0679 0.0363448 86.3687 0.00965423C86.5008 -0.00208964 86.5008 -0.0020886 86.7325 0.0641041C86.7589 0.0715775 86.7935 0.080119 86.8219 0.0779838C87.1247 0.0534284 87.4255 0.0267409 87.7283 0.00111792C87.7933 -0.0042202 87.8564 0.0096584 87.9031 0.0406195C87.9214 0.053431 87.9173 0.0747793 87.9945 0.24987C88.2344 0.391864 88.399 0.376924 88.5656 0.364113C88.6368 0.358775 88.6997 0.353431 88.7465 0.332079C88.7709 0.320335 88.8014 0.30325 88.8014 0.289371C88.8014 0.278695 88.7567 0.26161 88.7282 0.259475C88.527 0.238122 88.336 0.282969 88.1388 0.292577C88.0474 0.296848 87.9681 0.25948 87.9519 0.198626C87.9478 0.181544 87.9417 0.163395 87.9356 0.146313C87.9295 0.129231 87.9255 0.111083 87.9194 0.0940007C87.8401 0.0886626 87.7934 0.107877 87.7588 0.144176C87.7304 0.174069 87.6897 0.208233 87.6348 0.224248C87.58 0.24133 87.5048 0.238133 87.4377 0.243471C87.3727 0.248809 87.3015 0.262686 87.2406 0.255213C87.1796 0.246672 87.1308 0.215706 87.0739 0.196488C87.0475 0.18688 87.015 0.173006 86.9886 0.175141C86.7549 0.193291 86.5232 0.211434 86.2915 0.234921C86.1696 0.247733 86.1086 0.202899 86.0314 0.175141C85.9704 0.153789 85.9094 0.15912 85.8992 0.208231C85.8728 0.325669 85.9663 0.374778 86.1736 0.352357C86.3443 0.33314 86.4988 0.329947 86.6329 0.402546C86.6512 0.412154 86.6939 0.416423 86.7203 0.414288C86.8869 0.401477 87.0515 0.385461 87.2182 0.372649C87.2487 0.370514 87.2812 0.374778 87.3097 0.379048C87.7243 0.4367 87.7243 0.437773 87.8645 0.424962C87.9316 0.418556 87.9966 0.413217 87.9905 0.250938C88.1185 0.0769156 88.3218 0.0651738 88.5189 0.0395508C88.6469 0.0235365 88.7018 0.070514 88.7851 0.0950694C88.8135 0.10361 88.8441 0.120689 88.8705 0.118554C89.3074 0.0833224 89.7423 0.0459503 90.1772 0.00644823C90.2504 4.24806e-05 90.3032 0.00644927 90.3601 0.0342075C90.4333 0.0694391 90.5146 0.0918639 90.6304 0.0790524C90.8621 0.0534294 91.0979 0.0374187 91.3336 0.0160662C91.4535 0.00538999 91.4535 0.00537904 91.6954 0.0715718C91.7218 0.0790451 91.7563 0.0875866 91.7848 0.0854514C92.0205 0.0673018 92.2543 0.0448884 92.488 0.0256712C92.553 0.0203331 92.6119 0.0352783 92.6627 0.0641041C92.7135 0.09293 92.7745 0.107875 92.8375 0.102537C93.0733 0.0833198 93.307 0.0619741 93.5407 0.0427568C93.5692 0.0406216 93.6037 0.0480944 93.6301 0.0555678C93.8781 0.121761 93.8781 0.12175 93.9919 0.111073C94.1585 0.095059 94.3292 0.0875939 94.4938 0.0662415C94.6544 0.044889 94.7377 0.106806 94.8475 0.14097C95.1482 0.116415 95.451 0.0961349 95.7498 0.0662415C95.8717 0.05343 95.9368 0.0886584 96.0181 0.116417C96.0465 0.126025 96.0749 0.146312 96.1014 0.145245C96.203 0.140974 96.3026 0.129232 96.4022 0.120691C96.5018 0.11215 96.6034 0.10361 96.703 0.0950694C96.8168 0.126031 96.892 0.198628 97.0546 0.174073C97.1521 0.159126 97.2557 0.155923 97.3553 0.147382C97.4549 0.138841 97.5565 0.130301 97.6561 0.12176C97.7232 0.116422 97.7923 0.113214 97.8573 0.103606C97.9772 0.0875913 98.0362 0.139911 98.1215 0.163399C98.15 0.170872 98.1825 0.183675 98.2089 0.18154C98.4101 0.166593 98.6133 0.153783 98.8104 0.129228C98.9629 0.11001 99.0665 0.142043 99.1742 0.186884C99.1966 0.196492 99.2352 0.20183 99.2636 0.199694C99.4994 0.181545 99.7331 0.159119 99.9668 0.139901C100.03 0.134563 100.091 0.151645 100.142 0.179403C100.194 0.208229 100.253 0.222118 100.318 0.21678C100.552 0.197563 100.788 0.176204 101.022 0.156987C101.05 0.154852 101.085 0.163394 101.111 0.171935C101.339 0.238128 101.339 0.239197 101.473 0.226385C101.505 0.223182 101.54 0.221039 101.572 0.217836C101.739 0.202889 101.912 0.197558 102.074 0.171935C102.261 0.143109 102.397 0.17941 102.53 0.240265C102.696 0.227453 102.867 0.219978 103.029 0.198626C103.151 0.182611 103.216 0.223179 103.298 0.24987C103.326 0.259478 103.357 0.278696 103.381 0.27656C103.617 0.258411 103.853 0.242402 104.084 0.215711C104.21 0.200765 104.265 0.248799 104.35 0.273354C104.379 0.281895 104.409 0.29685 104.436 0.294715C104.57 0.286174 104.704 0.273356 104.838 0.261612C104.995 0.247733 104.995 0.248799 105.202 0.313925C105.3 0.344886 105.397 0.320329 105.493 0.312856C105.594 0.304315 105.69 0.297911 105.771 0.341684C105.822 0.369442 105.883 0.386525 105.946 0.382254C106.08 0.372645 106.216 0.363042 106.348 0.347027C106.454 0.334216 106.545 0.342752 106.623 0.382254C106.677 0.410012 106.734 0.4239 106.801 0.417494C107.102 0.391871 107.405 0.365171 107.706 0.340615C107.732 0.33848 107.769 0.348092 107.793 0.357701C107.85 0.376918 107.905 0.398266 107.96 0.419618C108.092 0.41001 108.228 0.40575 108.358 0.390803C108.496 0.375857 108.622 0.370517 108.73 0.429236C108.752 0.442048 108.785 0.460188 108.811 0.45912C108.913 0.454849 109.013 0.444176 109.112 0.435635C109.212 0.427094 109.313 0.418554 109.413 0.410013C109.529 0.436704 109.602 0.513572 109.765 0.489017C109.862 0.47407 109.966 0.470867 110.065 0.462326C110.165 0.453785 110.267 0.444177 110.366 0.436704C110.399 0.434569 110.435 0.429228 110.464 0.433498C110.494 0.437769 110.521 0.452718 110.547 0.463395C110.628 0.494356 110.703 0.52532 110.819 0.507171C110.917 0.492224 111.021 0.48902 111.12 0.479412C111.256 0.467668 111.256 0.46767 111.482 0.53493C111.573 0.562688 111.677 0.526391 111.764 0.549878C111.823 0.565893 111.874 0.592578 111.931 0.610727C111.955 0.618201 111.994 0.621399 112.022 0.619264C112.157 0.609655 112.293 0.600051 112.425 0.584037C112.533 0.571225 112.622 0.584035 112.697 0.62247C112.752 0.650228 112.807 0.661978 112.876 0.655572C113.211 0.625679 113.547 0.600047 113.88 0.566951C113.994 0.555207 114.085 0.573361 114.148 0.611796C114.256 0.677989 114.408 0.600054 114.52 0.653435C114.589 0.686531 114.658 0.724968 114.784 0.708953C115.016 0.681195 115.252 0.66624 115.485 0.647023C115.569 0.675849 115.652 0.704681 115.737 0.733507C115.872 0.721763 116.006 0.710012 116.14 0.699335C116.239 0.690794 116.341 0.681187 116.441 0.673713C116.473 0.671578 116.508 0.667307 116.538 0.672645C116.569 0.677983 116.593 0.691865 116.622 0.702541C116.762 0.754855 116.762 0.755928 116.993 0.734575C117.093 0.724967 117.189 0.718561 117.272 0.761266C117.349 0.800768 117.441 0.808237 117.546 0.796493C117.745 0.77514 117.947 0.759127 118.15 0.74418C118.213 0.738842 118.272 0.756992 118.325 0.784751C118.404 0.828523 118.501 0.824254 118.601 0.81251C118.733 0.797563 118.863 0.78262 118.975 0.842406C118.997 0.855218 119.032 0.873358 119.056 0.87229C119.223 0.863749 119.392 0.857348 119.554 0.837063C119.717 0.816778 119.796 0.882969 119.908 0.914998C120.074 0.901119 120.243 0.887238 120.41 0.873359C120.442 0.870156 120.481 0.860553 120.509 0.865891C120.629 0.888311 120.698 0.968381 120.863 0.943826C120.958 0.929946 121.062 0.925681 121.162 0.922478C121.188 0.921411 121.223 0.939551 121.241 0.953431C121.251 0.960904 121.241 0.981187 121.229 0.991863C121.192 1.02176 121.147 1.04952 121.115 1.08048C121.111 1.08476 121.149 1.10396 121.172 1.11251C121.227 1.13172 121.29 1.12853 121.363 1.11999C121.426 1.11251 121.491 1.12746 121.536 1.15949C121.554 1.1723 121.548 1.19365 121.509 1.26411C121.509 1.31643 121.552 1.29293 121.566 1.25877C121.588 1.20966 121.546 1.19365 121.464 1.22034C121.408 1.23955 121.379 1.26731 121.393 1.28973C121.402 1.30148 121.44 1.31643 121.509 1.26411C121.688 1.20006 121.822 1.18832 121.956 1.17657C121.991 1.17337 122.032 1.16269 122.056 1.16909C122.143 1.19472 122.225 1.22568 122.31 1.25451C122.408 1.2481 122.499 1.23208 122.594 1.27372C122.729 1.33244 122.735 1.3271 122.865 1.31536C122.932 1.30895 122.999 1.30362 123.066 1.29828C123.133 1.29295 123.186 1.30896 123.245 1.33351C123.365 1.38369 123.375 1.38368 123.454 1.31536C123.501 1.27372 123.533 1.25984 123.592 1.27906C123.787 1.34419 123.789 1.34845 123.956 1.32924C124.094 1.31322 124.224 1.30895 124.326 1.36981C124.395 1.41251 124.417 1.4029 124.472 1.35806C124.619 1.23956 124.686 1.24169 124.96 1.3271C125.088 1.36767 125.22 1.3239 125.35 1.31856C125.46 1.31429 125.537 1.33991 125.545 1.40717C125.551 1.44881 125.57 1.47871 125.643 1.49259C125.671 1.49792 125.706 1.50539 125.734 1.50326C125.903 1.49045 126.07 1.4755 126.238 1.46055C126.324 1.45308 126.37 1.40291 126.354 1.33672C126.336 1.26625 126.368 1.24062 126.49 1.22034C126.564 1.20859 126.623 1.21074 126.681 1.22995C126.746 1.25131 126.728 1.27052 126.671 1.30896C126.535 1.40291 126.551 1.46055 126.726 1.52568C126.787 1.5481 126.836 1.56839 126.85 1.60149C126.858 1.61857 126.85 1.64099 126.868 1.6538C126.968 1.72533 127.106 1.77124 127.261 1.80541C127.409 1.77658 127.511 1.82461 127.624 1.86305C127.714 1.89294 127.819 1.86733 127.915 1.85665C128.023 1.84491 128.112 1.85344 128.189 1.89295C128.244 1.9207 128.301 1.93351 128.368 1.92817C128.502 1.91643 128.639 1.90896 128.771 1.89188C128.884 1.87693 128.97 1.89828 129.041 1.93458C129.13 1.98049 129.23 1.94953 129.323 1.95593C129.449 1.9634 129.512 2.05842 129.677 2.0328C129.775 2.01785 129.876 2.01251 129.978 2.00824C130.004 2.00718 130.037 2.02533 130.059 2.03814C130.167 2.09686 130.293 2.09366 130.431 2.07657C130.527 2.06483 130.62 2.05416 130.713 2.09473C130.868 2.16306 131.039 2.22285 131.201 2.28584C131.224 2.33495 131.207 2.39259 131.323 2.42141C131.384 2.43636 131.441 2.45879 131.488 2.48334C131.545 2.51217 131.598 2.51965 131.671 2.51217C131.803 2.49723 131.941 2.49401 132.071 2.4748C132.191 2.45771 132.266 2.49296 132.339 2.52605C132.398 2.55274 132.453 2.56555 132.524 2.54633C132.597 2.52818 132.65 2.53992 132.709 2.56875C132.793 2.60825 132.799 2.60399 133.075 2.61573C133.104 2.6168 133.138 2.6328 133.154 2.64668C133.162 2.65415 133.144 2.67552 133.13 2.6862C133.112 2.69901 133.083 2.71395 133.057 2.71715C132.756 2.74491 132.453 2.76946 132.152 2.79722C132.122 2.80042 132.089 2.8079 132.067 2.81858C132.043 2.83032 132.012 2.84633 132.012 2.86127C132.012 2.87195 132.053 2.88477 132.081 2.89224C132.171 2.9168 132.276 2.87943 132.364 2.90719C132.423 2.92534 132.471 2.95096 132.53 2.96804C132.555 2.97551 132.593 2.97445 132.624 2.97231C132.725 2.96484 132.825 2.95416 132.927 2.94776C132.955 2.94669 132.988 2.95737 133.014 2.96591C133.209 3.02997 133.209 3.02997 133.378 3.01609C133.445 3.01075 133.516 2.99473 133.579 3.00114C133.64 3.00755 133.693 3.03637 133.748 3.05452C133.862 3.09296 133.969 3.13032 133.977 3.2136C133.981 3.24562 134.048 3.27338 134.116 3.27551C134.181 3.27765 134.25 3.26592 134.317 3.25951C134.475 3.2467 134.475 3.2467 134.681 3.31182C134.737 3.32997 134.798 3.3321 134.872 3.32143C134.9 3.31716 134.935 3.32143 134.965 3.32677C135.065 3.34278 135.065 3.36306 135 3.4015C134.908 3.45808 134.916 3.46342 135.172 3.51147C135.27 3.52962 135.345 3.56378 135.426 3.59368C135.558 3.64172 135.556 3.64171 135.469 3.7047C135.449 3.71858 135.43 3.73353 135.41 3.74848C135.351 3.79011 135.304 3.83495 135.183 3.83922C135.048 3.84349 134.914 3.86058 134.78 3.87233C134.65 3.88407 134.616 3.90968 134.628 3.98228C134.642 4.06983 134.668 4.07944 134.902 4.07837C134.969 4.07837 135.028 4.08691 135.079 4.11573C135.054 4.1499 135.01 4.17659 134.945 4.18299C134.778 4.19901 134.609 4.21289 134.443 4.22677C134.309 4.23851 134.175 4.25025 134.04 4.262C133.957 4.26947 133.904 4.32499 133.927 4.38691C133.939 4.42215 133.949 4.45738 133.959 4.49261C133.981 4.56307 134.024 4.58123 134.16 4.57802C134.195 4.57696 134.227 4.56841 134.26 4.57054C134.392 4.57802 134.455 4.66663 134.613 4.64848C134.746 4.63353 134.884 4.63033 135.014 4.61111C135.134 4.59403 135.201 4.63248 135.284 4.6613C135.313 4.67091 135.343 4.69118 135.367 4.69012C135.536 4.67837 135.705 4.66664 135.869 4.64635C135.947 4.63781 135.993 4.64421 136.054 4.66984C136.201 4.73176 136.205 4.72856 136.422 4.70934C136.581 4.69439 136.583 4.69653 136.786 4.76165C136.843 4.7798 136.904 4.7798 136.977 4.77126C137.073 4.76058 137.172 4.7435 137.272 4.75951C137.302 4.76378 137.341 4.7766 137.351 4.79048C137.357 4.80009 137.329 4.82358 137.304 4.83105C137.125 4.88657 136.916 4.87696 136.721 4.89938C136.66 4.90578 136.599 4.8855 136.548 4.85667C136.495 4.82785 136.438 4.81611 136.369 4.82144C136.235 4.83319 136.099 4.84066 135.967 4.85774C135.853 4.87269 135.774 4.84813 135.695 4.81503C135.668 4.80436 135.638 4.78407 135.611 4.78514C135.311 4.80649 135.008 4.82785 134.709 4.85774C134.589 4.87055 134.52 4.83639 134.439 4.80757C134.41 4.79796 134.382 4.77767 134.355 4.77874C134.254 4.78301 134.154 4.79475 134.053 4.80329C133.683 4.83532 133.315 4.86735 132.945 4.89724C132.921 4.89938 132.89 4.87695 132.862 4.86735C132.807 4.84813 132.75 4.82998 132.693 4.81183C132.591 4.82037 132.492 4.83104 132.39 4.83745C132.317 4.84172 132.252 4.85667 132.242 4.89724C132.236 4.92393 132.303 4.94848 132.374 4.94635C132.443 4.94421 132.512 4.9314 132.569 4.94528C132.851 5.01361 132.851 5.01468 133.028 5.0008C133.183 4.98799 133.166 4.97731 133.303 5.03603C133.362 5.06165 133.414 5.0766 133.482 5.0702C133.648 5.05525 133.817 5.0403 133.986 5.02749C134.012 5.02535 134.046 5.03603 134.073 5.04457C134.272 5.10863 134.272 5.11076 134.437 5.09475C134.652 5.07553 134.66 5.07019 134.805 5.13532C134.904 5.18016 134.996 5.1492 135.091 5.14706C135.201 5.1887 135.321 5.22607 135.42 5.27305C135.538 5.32856 135.662 5.31895 135.796 5.30293C135.896 5.29119 135.993 5.28692 136.075 5.33069C136.152 5.37126 136.245 5.37554 136.351 5.36486C136.447 5.35525 136.544 5.33496 136.644 5.35845C136.67 5.36486 136.711 5.38088 136.709 5.39048C136.707 5.40543 136.68 5.42679 136.654 5.43319C136.467 5.47696 136.262 5.47589 136.065 5.49618C136.038 5.49938 136.004 5.48763 135.977 5.47909C135.92 5.45987 135.865 5.43746 135.811 5.41717C135.711 5.42358 135.609 5.42571 135.512 5.43852C135.437 5.44813 135.38 5.44707 135.325 5.42145C135.274 5.39796 135.219 5.36913 135.158 5.36166C135.097 5.35418 135.026 5.3702 134.959 5.3766C134.892 5.38301 134.815 5.3798 134.762 5.39688C134.709 5.41396 134.676 5.45134 134.642 5.48123C134.603 5.51433 134.55 5.52501 134.473 5.52821C134.402 5.53141 134.345 5.52714 134.292 5.49725C134.27 5.48443 134.24 5.47482 134.209 5.46628C134.181 5.45881 134.148 5.44706 134.122 5.4492C133.819 5.47375 133.518 5.50045 133.215 5.52607C133.065 5.53889 133.067 5.53888 132.754 5.47589C132.725 5.47055 132.691 5.46308 132.662 5.46521C132.494 5.47802 132.327 5.49297 132.158 5.50792C131.988 5.52287 131.99 5.52073 131.699 5.45347C131.646 5.44066 131.569 5.45774 131.506 5.45561C131.374 5.45027 131.309 5.36059 131.155 5.37767C131.022 5.39262 130.884 5.39582 130.752 5.41504C130.632 5.43212 130.563 5.39476 130.482 5.36593C130.453 5.35632 130.423 5.33497 130.398 5.3371C130.096 5.36059 129.795 5.38728 129.392 5.39048C129.293 5.39048 129.338 5.41291 129.403 5.42038C129.496 5.43212 129.527 5.4097 129.476 5.367C129.439 5.33711 129.386 5.32215 129.344 5.32962C129.321 5.33389 129.293 5.35418 129.392 5.39048C129.498 5.43105 129.492 5.45347 129.51 5.46628C129.555 5.49724 129.618 5.51005 129.683 5.50578C129.785 5.49831 129.884 5.48763 129.986 5.48123C130.014 5.47909 130.049 5.48657 130.075 5.49511C130.299 5.5613 130.301 5.56558 130.539 5.53995C130.614 5.53248 130.669 5.53248 130.728 5.55276C130.809 5.58052 130.868 5.62749 130.992 5.61254C131.157 5.59226 131.325 5.58053 131.494 5.56878C131.52 5.56665 131.549 5.58586 131.579 5.5944C131.663 5.62003 131.724 5.66807 131.848 5.64778C131.943 5.63177 132.047 5.62749 132.148 5.62429C132.175 5.62322 132.215 5.6403 132.228 5.65418C132.252 5.67874 132.221 5.70757 132.152 5.72786C132.124 5.7364 132.085 5.73426 132.053 5.73746C131.919 5.74921 131.785 5.76201 131.65 5.77162C131.579 5.77696 131.512 5.79298 131.504 5.83248C131.498 5.85917 131.571 5.88265 131.64 5.88052C131.742 5.87732 131.843 5.86878 131.941 5.8549C132.114 5.83141 132.264 5.83781 132.404 5.90507C132.504 5.95205 132.498 5.93497 132.604 6.07377C132.63 6.109 132.709 6.1122 132.778 6.11006C132.945 6.10472 133.022 6.12074 133.008 6.15384C132.99 6.19441 132.931 6.20721 132.856 6.21255C132.721 6.22109 132.587 6.23498 132.453 6.24672C132.421 6.24992 132.384 6.25632 132.354 6.25419C132.323 6.25205 132.295 6.23924 132.268 6.22963C132.211 6.20935 132.163 6.17838 132.102 6.17091C132.041 6.16344 131.969 6.17945 131.902 6.18586C131.835 6.1912 131.764 6.20721 131.703 6.19974C131.642 6.19227 131.591 6.16024 131.537 6.14103C131.51 6.13142 131.478 6.11646 131.451 6.11753C131.317 6.12607 131.183 6.13996 131.049 6.15063C130.884 6.16451 130.884 6.16451 130.685 6.09832C130.628 6.0791 130.569 6.08017 130.494 6.08871C130.331 6.1058 130.329 6.10259 130.033 6.04066C130.004 6.03426 129.97 6.02679 129.941 6.02999C129.638 6.05455 129.338 6.08123 129.037 6.10686C128.779 6.12928 128.779 6.12928 128.636 6.23605C128.531 6.31505 128.529 6.31505 128.632 6.35135C128.716 6.38124 128.791 6.42501 128.882 6.44102C128.968 6.45597 129.073 6.40793 129.167 6.45704C129.214 6.48159 129.275 6.50829 129.334 6.51256C129.427 6.5179 129.527 6.48693 129.616 6.53391C129.661 6.55739 129.728 6.58196 129.785 6.58302C129.884 6.58516 129.986 6.56807 130.086 6.5606C130.116 6.55846 130.151 6.55846 130.179 6.5638C130.21 6.57021 130.236 6.58302 130.262 6.5937C130.344 6.63 130.431 6.64708 130.537 6.62893C130.709 6.59903 130.864 6.61398 130.998 6.68231C131.016 6.69192 131.061 6.69299 131.089 6.68872C131.163 6.67804 131.226 6.67697 131.281 6.69725C131.303 6.7058 131.335 6.72074 131.331 6.73034C131.325 6.74636 131.301 6.76771 131.274 6.77305C131.083 6.80935 130.878 6.81363 130.681 6.83284C130.655 6.83498 130.622 6.82109 130.596 6.81149C130.539 6.79227 130.49 6.76025 130.429 6.75277C130.368 6.7453 130.297 6.75918 130.23 6.76452C130.163 6.76985 130.092 6.78587 130.031 6.77946C129.97 6.77199 129.913 6.7453 129.864 6.72181C129.807 6.69512 129.752 6.69192 129.677 6.7026C129.579 6.71648 129.478 6.71861 129.378 6.72608C129.323 6.7058 129.269 6.68337 129.212 6.66415C129.185 6.65454 129.153 6.64281 129.124 6.64387C128.99 6.65241 128.856 6.66522 128.722 6.67696C128.588 6.68871 128.588 6.68872 128.36 6.62253C128.334 6.61505 128.299 6.60651 128.271 6.60865C128.102 6.62146 127.935 6.63746 127.767 6.65027C127.702 6.65561 127.643 6.64067 127.59 6.61184C127.539 6.58301 127.478 6.567 127.415 6.57234C127.147 6.59476 126.879 6.61611 126.61 6.64281C126.503 6.65348 126.411 6.64388 126.338 6.60544C126.253 6.56167 126.157 6.57235 126.058 6.58089C125.832 6.60224 125.83 6.60117 125.686 6.54672C125.657 6.53604 125.629 6.51575 125.602 6.51682C125.369 6.53283 125.133 6.54778 124.901 6.57341C124.779 6.58729 124.714 6.54992 124.633 6.52216C124.604 6.51255 124.574 6.49227 124.55 6.4944C124.381 6.50615 124.212 6.51683 124.048 6.53818C123.883 6.55953 123.82 6.46025 123.696 6.46131C123.527 6.46238 123.361 6.48694 123.194 6.50188C123.06 6.51363 122.926 6.52537 122.792 6.53711C122.657 6.54886 122.523 6.55846 122.389 6.57234C122.318 6.57981 122.265 6.5702 122.206 6.54351C122.131 6.50828 122.042 6.48053 121.96 6.4485C121.836 6.4026 121.836 6.40259 121.686 6.4154C121.654 6.4186 121.619 6.42073 121.586 6.42394C121.341 6.44742 121.341 6.4453 121.028 6.37804C121.013 6.37483 120.977 6.38658 120.963 6.39512C120.92 6.42288 120.881 6.45277 120.843 6.48159C120.788 6.46451 120.721 6.4549 120.684 6.43035C120.58 6.36095 120.418 6.45597 120.312 6.38764C120.274 6.36202 120.206 6.3396 120.146 6.33319C120.083 6.32679 120.011 6.34173 119.946 6.34814C119.778 6.36415 119.778 6.36309 119.633 6.45811C119.56 6.50508 119.455 6.49654 119.359 6.50721C119.259 6.51896 119.164 6.52537 119.081 6.48159C119.005 6.44209 118.914 6.43249 118.806 6.4453C118.674 6.46131 118.538 6.47092 118.404 6.48052C118.375 6.48266 118.341 6.47732 118.312 6.47092C118.001 6.40793 118.001 6.40686 117.851 6.42074C117.784 6.42715 117.715 6.42928 117.65 6.43889C117.54 6.45597 117.457 6.43355 117.378 6.39938C117.351 6.38871 117.321 6.36843 117.294 6.3695C117.16 6.37484 117.028 6.38444 116.896 6.39405C116.794 6.40153 116.693 6.4058 116.595 6.42074C116.433 6.4453 116.353 6.37589 116.241 6.34387C116.075 6.35774 115.906 6.36736 115.74 6.38657C115.662 6.39511 115.611 6.39192 115.553 6.36629C115.477 6.33427 115.408 6.29797 115.286 6.31398C115.124 6.33533 114.953 6.34281 114.786 6.35562C114.675 6.32252 114.593 6.25525 114.433 6.27981C114.335 6.29476 114.232 6.29796 114.132 6.3065C113.998 6.31824 113.864 6.32893 113.73 6.34174C113.585 6.35455 113.587 6.35135 113.366 6.28836C113.238 6.25099 113.106 6.29263 112.976 6.29903C112.874 6.30437 112.823 6.35348 112.848 6.41647C112.872 6.47946 112.817 6.52857 112.724 6.53711C112.49 6.5574 112.254 6.57874 112.02 6.59689C111.992 6.59903 111.957 6.59155 111.931 6.58408C111.681 6.51682 111.681 6.5179 111.569 6.52751C111.403 6.54352 111.232 6.55205 111.067 6.57234C110.953 6.58622 110.87 6.56381 110.797 6.52751C110.74 6.49975 110.687 6.49334 110.614 6.49975C109.809 6.57128 109.004 6.63747 108.202 6.71113C108.082 6.72181 108.013 6.69085 107.931 6.66203C107.903 6.65242 107.877 6.63213 107.848 6.63213C107.781 6.63213 107.714 6.64174 107.647 6.64815C107.346 6.67377 107.045 6.70473 106.743 6.72395C106.614 6.73249 106.58 6.7816 106.525 6.82217C106.482 6.85313 106.434 6.86594 106.358 6.87021C106.285 6.87448 106.232 6.86914 106.175 6.84138C106.102 6.80508 106.019 6.78266 105.905 6.79761C105.773 6.81469 105.639 6.82217 105.503 6.83391C105.434 6.83925 105.381 6.85847 105.359 6.8969C105.354 6.90331 105.397 6.91933 105.422 6.92893C105.503 6.96096 105.58 6.99833 105.671 7.02075C105.765 7.04317 105.867 7.01754 105.964 7.01113C105.999 7.00899 106.031 7.00259 106.064 7.00366C106.094 7.00473 106.131 7.01007 106.153 7.01968C106.259 7.06772 106.371 7.10082 106.517 7.07199C106.643 7.08587 106.708 7.17448 106.869 7.15099C106.966 7.13712 107.068 7.13071 107.169 7.12537C107.196 7.12431 107.224 7.14352 107.253 7.15313C107.334 7.17982 107.399 7.22253 107.521 7.20438C107.651 7.18516 107.789 7.18196 107.921 7.16701C107.994 7.15847 108.047 7.16594 108.104 7.1937C108.177 7.22893 108.261 7.25562 108.374 7.23853C108.472 7.22359 108.576 7.22038 108.675 7.21078C108.805 7.19903 108.805 7.2001 109.037 7.26629C109.063 7.27377 109.098 7.28231 109.126 7.28017C109.295 7.26736 109.462 7.25135 109.63 7.23853C109.695 7.2332 109.758 7.24707 109.803 7.27804C109.821 7.29085 109.815 7.31221 109.821 7.33036C109.486 7.35919 109.151 7.38374 108.817 7.41897C108.691 7.43285 108.635 7.38908 108.551 7.36452C108.523 7.35598 108.492 7.33783 108.466 7.33997C108.23 7.35812 107.996 7.37733 107.763 7.40082C107.69 7.40829 107.635 7.40402 107.58 7.37306C107.44 7.29085 107.269 7.33569 107.11 7.34743C106.988 7.35598 106.95 7.38908 106.964 7.45954C106.982 7.54281 107.055 7.56844 107.242 7.55349C107.31 7.54815 107.377 7.54068 107.444 7.53641C107.509 7.53214 107.568 7.54601 107.62 7.57484C107.671 7.60366 107.732 7.61861 107.795 7.61434C107.929 7.60473 108.066 7.59513 108.196 7.57911C108.303 7.5663 108.393 7.57698 108.468 7.61648C108.551 7.66025 108.649 7.65064 108.746 7.64103C108.974 7.61968 108.976 7.62075 109.118 7.67413C109.147 7.68481 109.175 7.7051 109.202 7.70403C109.435 7.68802 109.671 7.67413 109.901 7.64851C110.021 7.6357 110.09 7.66986 110.169 7.69762C110.197 7.70723 110.226 7.72858 110.252 7.72645C110.421 7.7147 110.59 7.70295 110.754 7.68267C110.832 7.67306 110.878 7.67946 110.941 7.70509C111.092 7.76808 111.096 7.76594 111.309 7.74566C111.374 7.73925 111.445 7.72751 111.506 7.73605C111.567 7.74459 111.616 7.77556 111.673 7.79478C111.699 7.80332 111.732 7.81505 111.76 7.81292C111.894 7.80438 112.029 7.79157 112.163 7.77983C112.289 7.76808 112.289 7.76915 112.524 7.83535C112.62 7.8631 112.72 7.83961 112.815 7.83107C112.919 7.82146 113.012 7.82147 113.091 7.86311C113.171 7.90474 113.266 7.9026 113.368 7.89406C113.463 7.88552 113.561 7.86204 113.658 7.89086C113.882 7.95706 113.882 7.95811 114.02 7.9453C114.221 7.92715 114.421 7.91007 114.624 7.89406C114.65 7.89192 114.685 7.90474 114.711 7.91328C114.768 7.9325 114.817 7.96452 114.878 7.97199C114.939 7.98053 115.01 7.96772 115.075 7.96132C115.284 7.94103 115.299 7.93356 115.439 8.00403C115.557 8.06168 115.703 7.9784 115.813 8.0446C115.876 8.08196 115.961 8.11185 116.079 8.0937C116.176 8.07876 116.278 8.07448 116.38 8.06594C116.54 8.05206 116.54 8.05314 116.743 8.1172C116.77 8.12574 116.804 8.13641 116.831 8.13427C116.965 8.12573 117.101 8.11826 117.231 8.09905C117.384 8.07663 117.481 8.1172 117.595 8.1567C117.684 8.18766 117.79 8.16203 117.886 8.15136C117.989 8.14068 118.083 8.14388 118.16 8.18552C118.241 8.22822 118.337 8.22289 118.438 8.21434C118.534 8.20687 118.631 8.18231 118.729 8.21221C118.938 8.2784 118.938 8.2784 119.091 8.26559C119.225 8.25384 119.359 8.24104 119.493 8.2325C119.52 8.23036 119.552 8.24424 119.579 8.25385C119.635 8.27306 119.684 8.3051 119.745 8.31257C119.806 8.32004 119.877 8.30617 119.944 8.30083C120.011 8.29549 120.083 8.27947 120.143 8.28588C120.204 8.29229 120.261 8.31898 120.31 8.34247C120.367 8.37023 120.42 8.37342 120.497 8.36275C120.595 8.34887 120.696 8.34567 120.796 8.33819C120.851 8.35848 120.908 8.37876 120.96 8.40118C121.015 8.42467 121.074 8.42253 121.149 8.41506C121.399 8.38944 121.401 8.39264 121.611 8.45883C121.706 8.48873 121.806 8.46417 121.901 8.4567C122.003 8.44816 122.099 8.44389 122.178 8.48659C122.255 8.52716 122.351 8.5325 122.452 8.51968C122.517 8.51114 122.586 8.50581 122.653 8.50261C122.684 8.50154 122.72 8.50581 122.743 8.51435C122.851 8.55919 122.956 8.59977 123.105 8.57094C123.235 8.57948 123.3 8.66703 123.456 8.64994C123.588 8.635 123.726 8.63178 123.857 8.61257C123.976 8.59548 124.062 8.62539 124.123 8.66275C124.232 8.72895 124.387 8.63927 124.497 8.70439C124.56 8.74176 124.641 8.77165 124.763 8.75564C124.897 8.73856 124.94 8.76097 124.978 8.82823C125.001 8.86666 124.997 8.89763 124.956 8.92752C124.915 8.95848 124.871 8.95315 124.806 8.91792C124.73 8.87842 124.641 8.87093 124.533 8.87947C124.428 8.88801 124.363 8.83251 124.275 8.81116C124.188 8.78874 124.084 8.8261 123.993 8.79728C123.777 8.73002 123.777 8.73002 123.631 8.74283C123.531 8.75137 123.428 8.75564 123.33 8.77059C123.214 8.78874 123.139 8.75563 123.06 8.72574C123.031 8.71506 123.003 8.69478 122.979 8.69584C122.745 8.71186 122.509 8.72681 122.277 8.7535C122.155 8.76738 122.09 8.72895 122.009 8.70226C121.981 8.69265 121.95 8.67343 121.926 8.67557C121.725 8.69051 121.525 8.70973 121.324 8.72788C121.286 8.7567 121.243 8.78446 121.206 8.81542C121.168 8.84745 121.115 8.86133 121.038 8.86026C120.91 8.86026 120.784 8.9051 120.656 8.84852C120.524 8.79087 120.513 8.79407 120.385 8.80795C120.223 8.8261 120.05 8.82183 119.898 8.86347C119.871 8.87094 119.843 8.89122 119.843 8.90616C119.841 8.91577 119.883 8.92966 119.91 8.9382C119.999 8.96382 120.103 8.92645 120.192 8.95315C120.251 8.97023 120.3 8.99584 120.359 9.01399C120.383 9.02147 120.42 9.02041 120.452 9.01934C120.487 9.01827 120.519 9.0108 120.552 9.01187C120.582 9.01294 120.615 9.01933 120.639 9.02894C120.751 9.06951 120.869 9.10688 120.969 9.15493C121.066 9.2019 121.158 9.16987 121.255 9.16774C121.645 9.24247 121.645 9.24354 121.908 9.22005C121.973 9.21471 122.04 9.20831 122.107 9.20938C122.135 9.20938 122.162 9.22859 122.19 9.23926C122.271 9.27129 122.349 9.30012 122.462 9.28304C122.56 9.26809 122.664 9.26489 122.763 9.25528C122.897 9.24353 122.897 9.24354 123.125 9.3108C123.182 9.32788 123.243 9.32575 123.316 9.31721C123.379 9.30974 123.444 9.32575 123.489 9.35671C123.507 9.36952 123.501 9.39087 123.507 9.40902C123.306 9.42611 123.103 9.43785 122.907 9.46347C122.781 9.47949 122.725 9.43358 122.641 9.40902C122.613 9.40048 122.582 9.38233 122.556 9.38447C122.357 9.40048 122.158 9.41862 121.958 9.43998C121.934 9.44211 121.903 9.46667 121.901 9.48161C121.897 9.50937 121.948 9.53606 122.021 9.535C122.119 9.53393 122.214 9.51578 122.302 9.55955C122.375 9.59798 122.466 9.61508 122.574 9.59799C122.639 9.58839 122.708 9.58838 122.773 9.57984C122.946 9.55422 123.103 9.55955 123.233 9.63215C123.332 9.65137 123.43 9.63323 123.525 9.62362C123.596 9.61614 123.665 9.60866 123.716 9.62895C123.824 9.67165 123.93 9.71436 124.078 9.68553C124.239 9.71543 124.361 9.77841 124.495 9.82966C124.558 9.85422 124.606 9.8681 124.68 9.85209C124.71 9.84568 124.747 9.84567 124.779 9.84247C124.846 9.83713 124.917 9.82112 124.978 9.82752C125.039 9.835 125.09 9.86596 125.145 9.88518C125.171 9.89479 125.202 9.9108 125.228 9.90973C125.33 9.90439 125.43 9.89372 125.529 9.88518C125.629 9.87771 125.728 9.87024 125.828 9.86276C125.911 9.89052 125.997 9.91828 126.08 9.94604C126.214 9.9343 126.348 9.92255 126.48 9.91187C126.629 9.89906 126.629 9.90013 126.842 9.96632C126.937 9.99621 127.039 9.97699 127.131 9.96311C127.283 9.94069 127.385 9.98127 127.492 10.024C127.515 10.0325 127.555 10.0379 127.582 10.0336C127.687 10.0186 127.779 10.0304 127.856 10.0699C127.911 10.0976 127.966 10.1105 128.033 10.1051C128.267 10.0848 128.5 10.0635 128.734 10.0453C128.762 10.0432 128.795 10.0528 128.821 10.0613C129.029 10.1265 129.031 10.1297 129.183 10.1126C129.319 10.0976 129.445 10.0912 129.553 10.1499C129.575 10.1628 129.61 10.1809 129.634 10.1798C129.801 10.1692 129.97 10.1574 130.134 10.1393C130.21 10.1307 130.262 10.1339 130.321 10.1585C130.396 10.1895 130.464 10.2268 130.588 10.2129C130.931 10.1734 130.933 10.1798 131.339 10.2535C131.368 10.2588 131.407 10.2503 131.439 10.246C131.508 10.2354 131.559 10.2503 131.62 10.2749C131.756 10.3304 131.76 10.3272 131.89 10.3154C131.99 10.3058 132.093 10.3037 132.191 10.2877C132.341 10.2642 132.441 10.3058 132.553 10.3453C132.642 10.3763 132.746 10.3507 132.841 10.3411C132.945 10.3304 133.038 10.3336 133.116 10.3741C133.169 10.4019 133.225 10.4169 133.292 10.4115C133.526 10.3923 133.76 10.3709 133.994 10.3517C134.022 10.3496 134.057 10.3581 134.083 10.3656C134.315 10.4318 134.315 10.435 134.544 10.4105C134.618 10.403 134.679 10.4008 134.733 10.4233C134.786 10.4446 134.843 10.4649 134.898 10.4852C134.998 10.4777 135.099 10.4756 135.197 10.4628C135.272 10.4532 135.325 10.4574 135.384 10.4799C135.461 10.5087 135.526 10.5588 135.648 10.5343C135.711 10.5225 135.784 10.5258 135.847 10.5151C135.922 10.5012 135.973 10.5097 136.032 10.5375C136.105 10.5706 136.18 10.6048 136.298 10.5877C136.428 10.5685 136.567 10.5653 136.699 10.5503C136.772 10.5418 136.823 10.5503 136.882 10.5781C136.955 10.6133 137.038 10.6357 137.152 10.6218C137.384 10.5952 137.386 10.6005 137.611 10.6677C137.668 10.6848 137.729 10.6827 137.802 10.6742C137.865 10.6667 137.93 10.6827 137.975 10.7137C138.018 10.7478 138.014 10.7692 138.018 10.7873ZM119.908 1.15842C119.841 1.16376 119.774 1.17016 119.676 1.07728C119.67 1.06126 119.674 1.04205 119.66 1.02817C119.627 0.999346 119.577 0.979062 119.516 0.97586C119.406 0.971589 119.274 1.00788 119.276 1.03564C119.278 1.05913 119.312 1.07941 119.379 1.09863C119.408 1.1061 119.43 1.11891 119.457 1.12745C119.534 1.15201 119.595 1.20006 119.707 1.1755C119.696 1.14241 119.686 1.10931 119.707 1.1755C119.696 1.21607 119.727 1.2449 119.8 1.25665C119.82 1.25985 119.851 1.25771 119.867 1.2513C119.93 1.22781 119.94 1.19579 119.894 1.11145C119.885 1.12533 119.892 1.14988 119.91 1.15628C119.928 1.16269 119.973 1.15736 119.995 1.14988C120.052 1.1296 120.081 1.1029 120.066 1.08048C120.058 1.06874 120.02 1.05379 119.995 1.05379C119.952 1.05379 119.914 1.07728 119.908 1.15842ZM136.341 13.5397C136.193 13.5599 136.022 13.5525 135.874 13.5941C135.847 13.6016 135.821 13.6208 135.819 13.6357C135.817 13.6454 135.857 13.6592 135.882 13.6667C135.937 13.6838 135.997 13.6784 136.069 13.6731C136.176 13.6656 136.239 13.7147 136.323 13.7393C136.349 13.7468 136.384 13.7521 136.412 13.75C136.577 13.7372 136.739 13.7233 136.904 13.7083C136.932 13.7051 136.963 13.6977 136.987 13.6881C137.069 13.6571 137.06 13.6368 136.981 13.6133C136.894 13.5877 136.825 13.545 136.735 13.5247C136.607 13.4959 136.477 13.5343 136.341 13.5397ZM124.8 14.319C124.7 14.3276 124.602 14.3361 124.503 14.3446C124.47 14.3479 124.436 14.3489 124.405 14.3532C124.342 14.3607 124.295 14.3831 124.265 14.4183C124.312 14.4461 124.369 14.4621 124.432 14.4589C124.531 14.4525 124.629 14.4386 124.728 14.4354C124.836 14.4311 124.899 14.4792 124.982 14.5037C125.009 14.5112 125.041 14.5123 125.072 14.5133C125.222 14.5176 125.314 14.4621 125.285 14.3842C125.265 14.3233 125.188 14.287 125.094 14.2945C124.997 14.3019 124.897 14.3105 124.8 14.319ZM137.036 11.9617C137.06 11.9436 137.087 11.9307 137.099 11.9147C137.136 11.8603 137.121 11.8197 137.054 11.777C136.973 11.7247 136.873 11.7599 136.782 11.7653C136.76 11.7663 136.735 11.7887 136.723 11.8026C136.715 11.8122 136.715 11.8325 136.727 11.8379C136.827 11.8806 136.932 11.9201 137.036 11.9617ZM119.406 8.80795C119.308 8.81649 119.209 8.8229 119.111 8.83464C119.087 8.83784 119.064 8.85813 119.05 8.872C119.024 8.89763 119.052 8.93286 119.135 8.93606C119.231 8.94033 119.331 8.92218 119.43 8.91364C119.556 8.90297 119.631 8.86346 119.585 8.8293C119.54 8.7962 119.479 8.7898 119.406 8.80795ZM12.4275 6.52644C12.4925 6.5211 12.5596 6.51683 12.6246 6.50935C12.6856 6.50188 12.7324 6.47839 12.7629 6.44316C12.712 6.4154 12.6551 6.40046 12.5921 6.40366C12.4925 6.41006 12.395 6.4186 12.2975 6.42928C12.2365 6.43569 12.1776 6.45917 12.1633 6.49547C12.1491 6.52323 12.2852 6.53925 12.4275 6.52644ZM110.811 6.36202C110.838 6.37163 110.864 6.39085 110.89 6.39085C110.955 6.39085 111.023 6.38444 111.084 6.37376C111.11 6.36949 111.13 6.35028 111.142 6.33533C111.151 6.32572 111.149 6.30864 111.136 6.3001C111.077 6.24886 110.842 6.267 110.803 6.32572C110.799 6.3364 110.809 6.35028 110.811 6.36202ZM104.399 0.515707C104.405 0.532789 104.407 0.549869 104.416 0.566951C104.432 0.59898 104.476 0.622472 104.542 0.638487C104.592 0.611796 104.619 0.581907 104.617 0.549878C104.615 0.532796 104.609 0.515704 104.6 0.498622C104.584 0.466593 104.54 0.443113 104.474 0.427099C104.424 0.452722 104.399 0.482611 104.399 0.515707ZM141.733 14.5048C141.714 14.5187 141.696 14.5326 141.676 14.5454C141.731 14.5763 141.781 14.5859 141.82 14.5688C141.844 14.5582 141.859 14.5422 141.877 14.5283C141.822 14.4973 141.773 14.4888 141.733 14.5048ZM140.469 14.65C140.495 14.6596 140.519 14.6724 140.548 14.6788C140.595 14.6895 140.637 14.6713 140.67 14.6329C140.643 14.6233 140.619 14.6105 140.59 14.6041C140.544 14.5934 140.501 14.6116 140.469 14.65ZM141.269 14.4546C141.255 14.4802 141.284 14.5016 141.359 14.5197C141.377 14.5059 141.401 14.493 141.414 14.4781C141.434 14.4535 141.399 14.4311 141.326 14.414C141.306 14.4269 141.288 14.4407 141.269 14.4546ZM136.979 13.3037C136.965 13.3293 136.993 13.3507 137.068 13.3688C137.087 13.355 137.111 13.3421 137.123 13.3272C137.144 13.3026 137.109 13.2802 137.036 13.2631C137.016 13.276 136.997 13.2898 136.979 13.3037ZM131.134 5.7492C131.116 5.76308 131.098 5.77696 131.077 5.78977C131.132 5.82074 131.183 5.83034 131.222 5.81326C131.246 5.80258 131.26 5.78657 131.278 5.77269C131.224 5.74173 131.175 5.73319 131.134 5.7492ZM125.535 1.74134C125.584 1.74881 125.625 1.73387 125.659 1.69437C125.633 1.68476 125.608 1.67195 125.58 1.66554C125.533 1.65486 125.491 1.67302 125.458 1.71145C125.484 1.72213 125.511 1.73173 125.535 1.74134ZM122.562 1.49045C122.544 1.50433 122.525 1.51821 122.505 1.53102C122.56 1.56198 122.611 1.57159 122.649 1.5545C122.674 1.54383 122.688 1.52781 122.706 1.51393C122.651 1.48297 122.603 1.4755 122.562 1.49045ZM102.4 0.514639C102.381 0.528518 102.363 0.542397 102.343 0.555209C102.397 0.58617 102.448 0.595775 102.487 0.578693C102.511 0.568017 102.526 0.552002 102.544 0.538123C102.489 0.507162 102.44 0.499692 102.4 0.514639ZM2.00585 9.20083C1.97943 9.19122 1.95304 9.18162 1.92865 9.17094C1.86971 9.19977 1.85143 9.22646 1.88395 9.24674C1.90427 9.25955 1.93473 9.26703 1.96115 9.27664C2.02212 9.24781 2.03634 9.22218 2.00585 9.20083Z" fill="#FFE492"/>
<path d="M36.0228 11.2832C35.7891 11.3035 35.5575 11.3291 35.3237 11.3419C35.1998 11.3483 35.1551 11.3942 35.1043 11.4369C35.0636 11.4711 35.0169 11.4818 34.9417 11.4882C34.3076 11.5405 33.6756 11.596 33.0435 11.6505C32.9643 11.6366 32.9256 11.6142 32.9439 11.5875C32.9541 11.5715 32.9785 11.549 33.0029 11.5469C33.4358 11.5074 33.8666 11.4668 34.3015 11.4359C34.4255 11.4273 34.46 11.3804 34.523 11.3419C34.5434 11.3291 34.5596 11.3099 34.586 11.3024C34.6125 11.2939 34.6511 11.295 34.6856 11.2928C35.3847 11.232 36.0839 11.1722 36.783 11.1113C36.8622 11.1252 36.9008 11.1476 36.8826 11.1743C36.8724 11.1903 36.848 11.2127 36.8236 11.2149C36.5553 11.2373 36.2891 11.2597 36.0228 11.2832Z" fill="#FFE492"/>
<path d="M163.642 16.9684C163.537 16.9813 163.403 16.9994 163.293 16.9375C163.24 16.9076 163.183 16.898 163.114 16.9044C163.014 16.9151 162.913 16.9236 162.811 16.93C162.785 16.9311 162.75 16.9193 162.724 16.9097C162.667 16.8905 162.618 16.8585 162.557 16.8499C162.496 16.8414 162.423 16.8649 162.36 16.8595C162.277 16.8521 162.242 16.8232 162.264 16.7966C162.277 16.7816 162.301 16.7603 162.327 16.7571C162.703 16.7176 162.705 16.7176 162.811 16.756C162.892 16.7859 162.968 16.819 163.083 16.8008C163.181 16.7859 163.285 16.7827 163.384 16.7731C163.522 16.7602 163.522 16.7613 163.746 16.8286C163.803 16.8457 163.864 16.8446 163.937 16.835C164 16.8275 164.061 16.8446 164.112 16.8734C164.079 16.9097 164.033 16.9332 163.97 16.9396C163.868 16.9503 163.768 16.9578 163.642 16.9684Z" fill="#FFE492"/>
<path d="M160.328 16.6394C160.584 16.617 160.842 16.5978 161.098 16.5721C161.204 16.5615 161.287 16.5732 161.361 16.6095C161.44 16.649 161.529 16.6458 161.627 16.6383C161.688 16.6341 161.747 16.6511 161.787 16.681C161.804 16.6928 161.8 16.7141 161.806 16.7312C161.582 16.7504 161.357 16.7707 161.131 16.7878C161.105 16.7899 161.072 16.7793 161.048 16.7707C160.993 16.7526 160.946 16.7205 160.887 16.7141C160.761 16.6992 160.635 16.728 160.507 16.7333C160.446 16.7355 160.387 16.7195 160.346 16.6906C160.33 16.6768 160.334 16.6565 160.328 16.6394Z" fill="#FFE492"/>
<path d="M67.2559 7.46025C67.5221 7.43677 67.7883 7.41436 68.0545 7.39087C68.1338 7.40582 68.1704 7.42716 68.1541 7.45386C68.144 7.46987 68.1196 7.49229 68.0952 7.49443C67.5627 7.54247 67.0303 7.58837 66.4999 7.63428C66.4206 7.61933 66.384 7.59798 66.4003 7.57129C66.4104 7.55528 66.4348 7.53286 66.4592 7.53072C66.7234 7.50617 66.9896 7.48374 67.2559 7.46025Z" fill="#FFE492"/>
<path d="M26.3004 13.3926C26.1805 13.3947 26.0546 13.4342 25.9204 13.4043C25.894 13.399 25.8574 13.3819 25.8595 13.3723C25.8635 13.3562 25.8879 13.336 25.9143 13.3296C26.0302 13.3029 26.1745 13.2997 26.2334 13.2249C26.2619 13.1865 26.3147 13.1737 26.3858 13.1662C26.461 13.1577 26.5139 13.1609 26.5728 13.1833C26.65 13.2121 26.7151 13.2655 26.837 13.2377C26.8431 13.2548 26.8573 13.274 26.8512 13.2901C26.8451 13.3061 26.8187 13.321 26.7943 13.3328C26.772 13.3434 26.7415 13.353 26.713 13.3562C26.5789 13.3691 26.4447 13.3797 26.3004 13.3926Z" fill="#FFE492"/>
<path d="M132.329 13.1784C132.428 13.1699 132.532 13.1656 132.629 13.1507C132.707 13.1389 132.755 13.1464 132.816 13.172C132.92 13.2169 132.926 13.2126 133.18 13.219C133.209 13.2201 133.243 13.2361 133.259 13.25C133.27 13.2574 133.255 13.2777 133.243 13.2884C133.225 13.3023 133.198 13.3204 133.174 13.3204C133.014 13.3236 132.851 13.3866 132.694 13.314C132.615 13.2777 132.528 13.2606 132.42 13.2767C132.355 13.2863 132.286 13.2905 132.219 13.2948C132.154 13.2991 132.087 13.2873 132.046 13.2553C131.987 13.2083 132.022 13.1902 132.127 13.1934C132.195 13.1955 132.262 13.1838 132.329 13.1784Z" fill="#FFE492"/>
<path d="M168.989 20.5376C169.117 20.527 169.245 20.5142 169.375 20.5056C169.401 20.5035 169.434 20.5152 169.458 20.5227C169.556 20.5547 169.541 20.6092 169.545 20.6572C169.547 20.7074 169.322 20.748 169.226 20.7138C169.121 20.6754 169.025 20.6316 168.879 20.6551C168.822 20.6636 168.755 20.6444 168.718 20.6135C168.663 20.5686 168.694 20.5505 168.798 20.5537C168.859 20.5558 168.924 20.5441 168.989 20.5376Z" fill="#FFE492"/>
<path d="M104.171 6.00607C104.303 5.99433 104.435 5.97619 104.567 5.97512C104.644 5.97405 104.683 6.00928 104.664 6.0349C104.654 6.05092 104.63 6.07334 104.606 6.07547C104.341 6.10109 104.077 6.12245 103.813 6.14594C103.736 6.13099 103.697 6.10858 103.715 6.08295C103.726 6.06694 103.75 6.04559 103.774 6.04238C103.906 6.02744 104.039 6.01782 104.171 6.00607Z" fill="#FFE492"/>
<path d="M166.418 17.0624C166.546 17.0518 166.677 17.0357 166.805 17.0304C166.872 17.0283 166.924 17.0528 166.933 17.0806C166.937 17.0934 166.904 17.1158 166.878 17.1211C166.695 17.1574 166.498 17.1617 166.307 17.1799C166.246 17.1852 166.181 17.1681 166.144 17.1382C166.089 17.0923 166.12 17.0753 166.223 17.0785C166.288 17.0795 166.353 17.0678 166.418 17.0624Z" fill="#FFE492"/>
<path d="M135.497 13.3224C135.562 13.3171 135.629 13.3032 135.692 13.3074C135.759 13.3128 135.802 13.3437 135.822 13.3747C135.844 13.4099 135.842 13.443 135.822 13.4729C135.79 13.5242 135.757 13.522 135.682 13.4879C135.566 13.4345 135.558 13.4409 135.328 13.443C135.302 13.443 135.269 13.427 135.249 13.4131C135.219 13.3918 135.235 13.3587 135.306 13.3395C135.359 13.3256 135.432 13.3277 135.497 13.3224Z" fill="#FFE492"/>
<path d="M161.815 16.7121C161.91 16.7036 162.006 16.6897 162.101 16.6897C162.168 16.6887 162.221 16.7132 162.227 16.7399C162.229 16.7527 162.199 16.7741 162.174 16.7805C162.058 16.8093 161.928 16.8114 161.802 16.821C161.743 16.8253 161.678 16.8082 161.642 16.7783C161.587 16.7335 161.619 16.7132 161.719 16.7196C161.749 16.7217 161.782 16.7153 161.815 16.7121Z" fill="#FFE492"/>
<path d="M146.441 15.4023C146.298 15.4151 146.164 15.3991 146.174 15.3713C146.189 15.335 146.248 15.3115 146.308 15.3051C146.406 15.2944 146.504 15.2859 146.603 15.2795C146.666 15.2752 146.723 15.2912 146.774 15.319C146.743 15.3532 146.697 15.3777 146.636 15.3852C146.573 15.3927 146.506 15.3969 146.441 15.4023Z" fill="#FFE492"/>
<path d="M145.731 15.2654C145.826 15.2568 145.922 15.243 146.017 15.243C146.084 15.2419 146.137 15.2664 146.143 15.2931C146.145 15.3059 146.115 15.3273 146.09 15.3337C145.974 15.3625 145.844 15.3647 145.718 15.3743C145.659 15.3785 145.594 15.3615 145.558 15.3316C145.503 15.2867 145.535 15.2664 145.635 15.2729C145.665 15.275 145.698 15.2686 145.731 15.2654Z" fill="#FFE492"/>
<path d="M134.147 13.3138C134.242 13.3053 134.338 13.2914 134.433 13.2903C134.5 13.2892 134.553 13.3138 134.559 13.3405C134.561 13.3533 134.531 13.3736 134.506 13.3811C134.39 13.4099 134.26 13.412 134.134 13.4216C134.075 13.4259 134.01 13.4088 133.974 13.3789C133.919 13.3341 133.951 13.3138 134.051 13.3202C134.081 13.3223 134.114 13.3159 134.147 13.3138Z" fill="#FFE492"/>
<path d="M133.561 13.2507C133.662 13.2422 133.695 13.2368 133.728 13.2368C133.788 13.2368 133.851 13.2496 133.888 13.2806C133.943 13.3254 133.91 13.3383 133.811 13.3404C133.683 13.3425 133.557 13.3649 133.429 13.3692C133.362 13.3713 133.309 13.3457 133.305 13.319C133.303 13.3062 133.333 13.2838 133.358 13.2795C133.443 13.2635 133.536 13.2539 133.561 13.2507Z" fill="#FFE492"/>
<path d="M145.181 6.9697C145.116 6.97504 145.047 6.98999 144.986 6.98465C144.905 6.97718 144.872 6.94836 144.893 6.92167C144.905 6.90672 144.927 6.88537 144.952 6.88216C145.082 6.86722 145.214 6.8576 145.344 6.84692C145.421 6.86294 145.456 6.88536 145.435 6.91205C145.423 6.92699 145.401 6.94728 145.376 6.95155C145.313 6.96223 145.246 6.96437 145.181 6.9697Z" fill="#FFE492"/>
<path d="M65.9818 7.58599C66.0448 7.58493 66.1017 7.59881 66.1504 7.6255C66.12 7.65966 66.0753 7.68208 66.0143 7.69169C65.9838 7.69596 65.9493 7.69916 65.9167 7.70022C65.8537 7.70236 65.7968 7.68741 65.748 7.66072C65.7785 7.62656 65.8253 7.60414 65.8842 7.59453C65.9147 7.59026 65.9493 7.5892 65.9818 7.58599Z" fill="#FFE492"/>
<path d="M165.475 17.0581C165.473 17.0271 165.597 16.9919 165.708 16.9929C165.767 16.994 165.828 17.009 165.863 17.0378C165.916 17.0816 165.885 17.0986 165.786 17.0954C165.725 17.0933 165.66 17.1114 165.599 17.1082C165.529 17.1072 165.489 17.0837 165.475 17.0581Z" fill="#FFE492"/>
<path d="M135.887 13.4516C135.885 13.4398 135.875 13.4259 135.881 13.4153C135.919 13.3566 136.153 13.3384 136.214 13.3897C136.224 13.3993 136.228 13.4153 136.22 13.4249C136.208 13.4398 136.186 13.459 136.161 13.4633C136.098 13.474 136.033 13.4793 135.968 13.4804C135.94 13.4804 135.913 13.4622 135.887 13.4516Z" fill="#FFE492"/>
<path d="M27.3684 13.2223C27.1286 13.2447 27.1245 13.2426 27.1672 13.1892C27.2058 13.1412 27.277 13.1123 27.3806 13.1123C27.4111 13.1123 27.4436 13.1102 27.47 13.1145C27.4985 13.1198 27.5391 13.1305 27.5452 13.1433C27.5574 13.1679 27.5229 13.1945 27.4619 13.2127C27.4355 13.2212 27.4009 13.2191 27.3684 13.2223Z" fill="#FFE492"/>
<path d="M69.1551 7.43563C69.0839 7.45378 69.023 7.44738 68.9783 7.41321C68.9336 7.37905 69.0047 7.33848 69.1287 7.32887C69.1612 7.32673 69.1957 7.3182 69.2262 7.32247C69.2567 7.32567 69.2872 7.33847 69.3055 7.35128C69.338 7.37264 69.3177 7.40147 69.2527 7.42603C69.2262 7.43563 69.1876 7.4335 69.1551 7.43563Z" fill="#FFE492"/>
<path d="M165.479 16.9783C165.498 16.9644 165.516 16.9506 165.537 16.9377C165.614 16.9559 165.648 16.9772 165.627 17.0018C165.614 17.0167 165.589 17.0296 165.571 17.0434C165.494 17.0253 165.462 17.0029 165.479 16.9783Z" fill="#FFE492"/>
<path d="M30.3652 25.3757C30.3652 25.3629 30.3937 25.3426 30.416 25.3383C30.4587 25.3309 30.5115 25.3458 30.5481 25.3757C30.5989 25.4184 30.5685 25.4408 30.475 25.4291C30.41 25.4205 30.3652 25.3992 30.3652 25.3757Z" fill="#FFE492"/>
<path d="M136.645 12.4574C136.672 12.467 136.698 12.4766 136.723 12.4873C136.688 12.5268 136.645 12.5439 136.601 12.5332C136.572 12.5268 136.548 12.514 136.521 12.5044C136.556 12.4649 136.597 12.45 136.645 12.4574Z" fill="#FFE492"/>
<path d="M135.934 12.4098C135.974 12.3937 136.023 12.4023 136.08 12.4333C136.062 12.4471 136.046 12.4632 136.023 12.4738C135.985 12.4909 135.934 12.4824 135.879 12.4503C135.895 12.4375 135.913 12.4236 135.934 12.4098Z" fill="#FFE492"/>
<path d="M135.358 12.4566C135.385 12.4662 135.411 12.4758 135.436 12.4865C135.401 12.526 135.36 12.5431 135.314 12.5324C135.285 12.526 135.261 12.5132 135.234 12.5035C135.269 12.464 135.31 12.448 135.358 12.4566Z" fill="#FFE492"/>
<path d="M135.376 12.4003C135.407 12.4216 135.391 12.4472 135.33 12.4761C135.303 12.4664 135.272 12.459 135.251 12.4462C135.218 12.4259 135.235 12.3992 135.297 12.3704C135.322 12.381 135.349 12.3906 135.376 12.4003Z" fill="#FFE492"/>
</svg>
