<svg width="194" height="25" viewBox="0 0 194 25" fill="none" xmlns="http://www.w3.org/2000/svg">
<path d="M182.321 12.8407C182.055 12.8611 181.787 12.8751 181.526 12.9056C181.357 12.9246 181.285 12.8687 181.172 12.8395C181.134 12.8293 181.094 12.809 181.059 12.8115C180.796 12.8318 180.533 12.8547 180.27 12.8776C180.189 12.9272 180.138 12.9932 180.015 13.0174C179.894 13.0403 179.752 13.0403 179.618 13.0517C179.44 13.0657 179.263 13.0797 179.086 13.0924C178.997 13.0987 178.925 13.1229 178.895 13.1686C178.89 13.1763 178.949 13.1953 178.981 13.2067C179.089 13.2449 179.193 13.2881 179.311 13.3173C179.424 13.3453 179.564 13.2995 179.685 13.3351C179.956 13.4152 179.959 13.4139 180.165 13.3986C180.342 13.3847 180.52 13.3694 180.697 13.3593C180.732 13.3567 180.772 13.3758 180.81 13.3859C180.922 13.4139 180.995 13.4774 181.161 13.4533C181.287 13.4342 181.427 13.4304 181.559 13.4203C181.669 13.4571 181.771 13.499 181.889 13.5283C181.999 13.5562 182.031 13.5778 181.972 13.6147C181.918 13.649 181.843 13.663 181.744 13.6655C181.655 13.6668 181.567 13.6782 181.478 13.6846C181.432 13.6884 181.389 13.691 181.346 13.6948C181.177 13.7087 181.177 13.7087 180.869 13.6274C180.748 13.5956 180.611 13.6401 180.495 13.6096C180.418 13.5893 180.35 13.5588 180.275 13.5372C180.243 13.5283 180.192 13.527 180.152 13.5295C180.018 13.5384 179.883 13.5448 179.754 13.5613C179.663 13.5728 179.609 13.6083 179.62 13.6439C179.623 13.6579 179.687 13.6782 179.725 13.6795C179.811 13.6821 179.902 13.6643 179.985 13.6732C180.066 13.6821 180.149 13.7075 180.208 13.7354C180.329 13.7939 180.466 13.7418 180.581 13.757C180.702 13.7736 180.801 13.8244 180.917 13.8549C180.946 13.8625 181.003 13.8498 181.048 13.846C181.18 13.8371 181.312 13.8295 181.443 13.8206C181.553 13.8574 181.671 13.8905 181.771 13.9324C181.951 14.0087 182.144 14.0379 182.377 14.001C182.509 13.9807 182.638 13.9883 182.742 14.0379C182.85 14.0887 182.973 14.0836 183.11 14.0735C183.236 14.0633 183.365 14.0353 183.494 14.0709C183.773 14.1497 183.776 14.1535 184.106 14.123C184.206 14.1141 184.281 14.1116 184.356 14.1408C184.426 14.1675 184.501 14.1904 184.573 14.2158C184.705 14.2069 184.839 14.198 184.971 14.1879C185.14 14.1739 185.234 14.1917 185.274 14.2628C185.298 14.306 185.309 14.3454 185.368 14.3747C185.438 14.4103 185.513 14.409 185.615 14.3988C185.712 14.3899 185.781 14.3759 185.822 14.3302C185.838 14.3111 185.87 14.2933 185.9 14.2781C185.924 14.2666 185.961 14.2489 185.983 14.2514C186.023 14.2565 186.077 14.2705 186.09 14.287C186.222 14.4407 186.222 14.442 186.356 14.4865C186.504 14.5361 186.657 14.5805 186.791 14.6365C186.912 14.686 187.033 14.6644 187.164 14.6644C187.263 14.6644 187.328 14.6975 187.32 14.7305C187.314 14.7496 187.277 14.7775 187.245 14.7801C186.982 14.8055 186.716 14.8271 186.45 14.8449C186.418 14.8474 186.378 14.8245 186.34 14.8131C186.265 14.7902 186.198 14.7546 186.117 14.747C186.037 14.7394 185.943 14.7585 185.854 14.7648C185.765 14.7712 185.671 14.7877 185.591 14.7775C185.51 14.7674 185.446 14.7305 185.371 14.7064C185.336 14.6949 185.288 14.6784 185.258 14.6822C185.062 14.7127 184.917 14.6708 184.777 14.6149C184.748 14.6034 184.697 14.5958 184.659 14.5983C184.348 14.6199 184.039 14.6454 183.728 14.6695C183.602 14.6797 183.5 14.6352 183.473 14.5602C183.459 14.5183 183.432 14.4763 183.432 14.4344C183.432 14.3581 183.285 14.3162 183.177 14.3251C183 14.3378 182.82 14.348 182.646 14.367C182.504 14.3823 182.383 14.367 182.286 14.3213C182.173 14.2692 182.044 14.2794 181.916 14.2933C181.819 14.3035 181.792 14.3454 181.797 14.4509C181.803 14.5361 181.757 14.5628 181.583 14.5767C181.363 14.5945 181.14 14.6123 180.917 14.6263C180.882 14.6288 180.842 14.6072 180.807 14.5958C180.732 14.5729 180.665 14.5361 180.584 14.5284C180.503 14.5195 180.409 14.5386 180.321 14.5462C180.232 14.5526 180.138 14.5704 180.058 14.5615C179.977 14.5526 179.91 14.5145 179.838 14.4903C179.803 14.4789 179.76 14.4624 179.725 14.4649C179.548 14.4751 179.371 14.4903 179.193 14.5043C178.995 14.5195 178.995 14.5195 178.713 14.4408C178.584 14.4052 178.455 14.4331 178.329 14.4433C178.195 14.4535 178.068 14.4585 177.964 14.4077C177.894 14.3747 177.816 14.3543 177.733 14.3607C177.51 14.3759 177.29 14.395 177.067 14.4103C177.03 14.4128 176.979 14.4064 176.949 14.395C176.807 14.3416 176.667 14.2997 176.468 14.3264C176.297 14.3493 176.111 14.3505 175.94 14.3721C175.846 14.3836 175.803 14.4242 175.821 14.456C175.832 14.4725 175.889 14.4916 175.926 14.4916C176.012 14.4929 176.106 14.4738 176.187 14.4814C176.353 14.4967 176.436 14.6034 176.654 14.5742C176.783 14.5564 176.917 14.55 177.051 14.545C177.086 14.5437 177.123 14.5678 177.161 14.5805C177.268 14.6149 177.362 14.6593 177.518 14.6365C177.647 14.6187 177.784 14.6136 177.915 14.6034C178.125 14.5869 178.125 14.5882 178.396 14.6657C178.525 14.7026 178.654 14.6733 178.78 14.6644C178.874 14.6581 178.962 14.6454 179.038 14.6632C179.153 14.6898 179.236 14.7508 179.379 14.747C179.513 14.7432 179.644 14.7254 179.779 14.7191C179.862 14.7153 179.94 14.7356 180.007 14.7699C180.077 14.8042 180.152 14.8195 180.243 14.8118C180.375 14.8017 180.509 14.789 180.643 14.7826C180.681 14.7813 180.724 14.7928 180.759 14.8029C180.834 14.8258 180.906 14.8525 180.979 14.8766C181.11 14.869 181.244 14.8665 181.373 14.8512C181.473 14.8398 181.542 14.8449 181.623 14.8703C181.725 14.9046 181.808 14.9656 181.975 14.9364C182.058 14.9224 182.155 14.9262 182.238 14.9135C182.34 14.897 182.41 14.9033 182.482 14.9415C182.619 15.0139 182.791 15.0152 182.968 14.9872C183.161 14.9567 183.306 14.9923 183.451 15.0482C183.604 15.1067 183.604 15.1054 183.722 15.2465C183.757 15.2871 183.857 15.3062 183.94 15.2986C184.079 15.2859 184.2 15.2922 184.302 15.3405C184.41 15.3926 184.538 15.3863 184.67 15.3723C184.845 15.3532 185.019 15.3367 185.161 15.4104C185.231 15.446 185.306 15.4549 185.4 15.446C185.666 15.4231 185.935 15.4091 186.195 15.3812C186.353 15.3634 186.445 15.4041 186.552 15.4384C186.697 15.4854 186.855 15.5273 186.855 15.6277C186.855 15.6442 186.893 15.6633 186.925 15.676C186.995 15.7027 187.07 15.7256 187.143 15.751C187.25 15.7891 187.355 15.8209 187.502 15.8006C187.631 15.784 187.768 15.779 187.9 15.7675C188.031 15.7561 188.152 15.7497 188.27 15.798C188.407 15.8527 188.552 15.9048 188.708 15.9454C188.818 15.9747 188.963 15.9251 189.081 15.9645C189.153 15.9887 189.223 16.0166 189.301 16.0369C189.333 16.0458 189.384 16.0395 189.427 16.0369C189.516 16.0319 189.607 16.0281 189.693 16.0153C189.792 16.0014 189.868 16.0039 189.943 16.0331C190.013 16.0598 190.082 16.0967 190.163 16.1043C190.284 16.1157 190.418 16.0649 190.539 16.1234C190.6 16.1526 190.678 16.1806 190.759 16.1895C190.839 16.1983 190.933 16.1793 191.019 16.1805C191.057 16.1805 191.103 16.2009 191.124 16.2174C191.137 16.2263 191.119 16.2504 191.1 16.2632C191.076 16.2784 191.041 16.2987 191.006 16.3013C190.74 16.3242 190.474 16.3432 190.209 16.3648C190.05 16.3775 190.05 16.3775 189.731 16.2975C189.655 16.2784 189.572 16.2822 189.478 16.2911C189.352 16.3025 189.223 16.3242 189.092 16.3013C188.92 16.2149 188.708 16.2072 188.482 16.2403C188.388 16.2543 188.302 16.2543 188.233 16.2301C188.085 16.1818 187.929 16.1373 187.798 16.0802C187.696 16.0357 187.647 16.0319 187.604 16.0929C187.591 16.1119 187.578 16.1323 187.58 16.15C187.596 16.2136 187.626 16.2759 187.642 16.3394C187.647 16.3572 187.626 16.3775 187.612 16.3966C187.57 16.45 187.513 16.4462 187.419 16.4017C187.325 16.3572 187.212 16.328 187.062 16.3483C186.933 16.3661 186.794 16.3636 186.665 16.3826C186.466 16.4106 186.327 16.3699 186.184 16.3153C186.155 16.3038 186.104 16.2975 186.066 16.3C185.666 16.3292 185.269 16.3623 184.869 16.3915C184.783 16.3979 184.705 16.3788 184.638 16.3445C184.568 16.3102 184.49 16.2924 184.404 16.2987C184.05 16.3254 183.696 16.3496 183.341 16.3826C183.196 16.3966 183.081 16.3801 182.981 16.3356C182.906 16.3025 182.836 16.2924 182.742 16.2962C182.64 16.3 182.568 16.3127 182.517 16.3496C182.469 16.3852 182.504 16.4068 182.611 16.4347C182.726 16.4652 182.834 16.5046 182.944 16.5402C183.032 16.5351 183.121 16.5249 183.207 16.5262C183.244 16.5262 183.279 16.5491 183.317 16.5618C183.424 16.5987 183.524 16.6355 183.677 16.6152C183.806 16.5974 183.943 16.5936 184.074 16.5821C184.257 16.5682 184.257 16.5682 184.552 16.6482C184.627 16.6686 184.708 16.6673 184.804 16.6558C184.887 16.6469 184.973 16.6647 185.033 16.7029C185.057 16.7181 185.049 16.7435 184.998 16.8274C184.998 16.8897 185.054 16.8617 185.073 16.8211C185.102 16.7626 185.046 16.7435 184.939 16.7753C184.863 16.7982 184.826 16.8312 184.845 16.8579C184.855 16.8719 184.906 16.8897 184.998 16.8274C185.234 16.7512 185.414 16.7423 185.586 16.7219C185.688 16.7105 185.752 16.7156 185.833 16.7486C185.929 16.788 186.026 16.83 186.184 16.8096C186.356 16.7868 186.539 16.7842 186.713 16.7651C186.874 16.7473 186.957 16.8033 187.059 16.8363C187.183 16.8757 187.32 16.8312 187.433 16.8541C187.551 16.877 187.634 16.9329 187.771 16.9431C187.97 16.9087 188.096 16.9723 188.246 17.0142C188.364 17.046 188.504 17.018 188.63 17.0041C188.772 16.9888 188.89 17.0028 188.99 17.0485C189.102 17.1007 189.229 17.0892 189.358 17.0778C189.658 17.0524 189.669 17.0485 189.843 17.1184C189.97 17.1693 190.09 17.1464 190.217 17.14C190.327 17.1744 190.434 17.2112 190.549 17.2417C190.579 17.2493 190.635 17.2366 190.681 17.2328C190.813 17.2226 190.947 17.2125 191.078 17.2023C191.167 17.196 191.261 17.1769 191.341 17.1845C191.422 17.1934 191.489 17.2303 191.562 17.2544C191.634 17.2786 191.709 17.3027 191.779 17.3281C191.886 17.3663 191.988 17.398 192.139 17.379C192.268 17.3624 192.402 17.3574 192.536 17.3459C192.705 17.3319 192.7 17.3358 193.014 17.412C193.183 17.4539 193.358 17.4031 193.529 17.398C193.615 17.3955 193.699 17.4095 193.758 17.4463C193.782 17.4616 193.774 17.487 193.782 17.5086C193.339 17.5429 192.893 17.5721 192.456 17.6141C192.286 17.6306 192.198 17.5848 192.107 17.5467C191.956 17.4857 191.758 17.5747 191.615 17.4959C191.529 17.4489 191.406 17.4222 191.258 17.4451C191.172 17.4578 191.081 17.4565 190.992 17.4679C190.767 17.4959 190.56 17.4972 190.38 17.4095C190.319 17.379 190.23 17.3624 190.166 17.3332C190.09 17.3014 190.018 17.2836 189.929 17.29C189.529 17.3205 189.132 17.351 188.735 17.384C188.7 17.3866 188.665 17.4056 188.635 17.4196C188.56 17.4552 188.584 17.4832 188.705 17.5061C188.745 17.5137 188.778 17.5302 188.815 17.5429C188.888 17.567 188.955 17.6052 189.035 17.6141C189.116 17.623 189.21 17.6052 189.298 17.5988C189.387 17.5925 189.481 17.5734 189.562 17.581C189.642 17.5899 189.709 17.6268 189.784 17.6497C189.819 17.6611 189.862 17.6802 189.897 17.6789C190.074 17.6713 190.249 17.6573 190.426 17.6458C190.536 17.6802 190.63 17.7297 190.762 17.7412C190.845 17.7488 190.933 17.7348 191.019 17.7373C191.057 17.7386 191.105 17.7577 191.124 17.7742C191.135 17.7844 191.1 17.8098 191.073 17.8225C190.971 17.8708 190.831 17.8619 190.705 17.8771C190.568 17.8937 190.445 17.8886 190.34 17.839C190.27 17.806 190.192 17.7882 190.106 17.7945C189.884 17.8111 189.664 17.8301 189.441 17.8441C189.403 17.8466 189.357 17.8352 189.323 17.8263C189.041 17.7488 189.041 17.7462 188.842 17.7628C188.549 17.7869 188.549 17.7869 188.353 17.7195C188.316 17.7068 188.276 17.6827 188.243 17.684C187.932 17.7043 187.623 17.7246 187.314 17.7539C187.212 17.7628 187.143 17.7628 187.067 17.7297C187.003 17.7018 186.928 17.67 186.847 17.6624C186.764 17.6547 186.673 17.6738 186.584 17.6802C186.496 17.6865 186.402 17.703 186.324 17.6929C186.243 17.6827 186.173 17.6471 186.104 17.6217C186.031 17.595 185.953 17.5963 185.854 17.6064C185.548 17.6357 185.545 17.6319 185.242 17.5531C185.207 17.5442 185.161 17.534 185.124 17.5366C184.901 17.5518 184.681 17.5709 184.458 17.5861C184.372 17.5925 184.289 17.576 184.23 17.5391C184.206 17.5238 184.214 17.4984 184.198 17.4489C184.179 17.4374 184.2 17.4578 184.206 17.4768C184.246 17.4743 184.294 17.4768 184.324 17.4666C184.399 17.4425 184.436 17.4107 184.418 17.384C184.407 17.3701 184.356 17.3523 184.324 17.3523C184.265 17.3523 184.214 17.3802 184.198 17.4489C184.028 17.4908 183.849 17.4997 183.674 17.52C183.572 17.5327 183.508 17.5264 183.427 17.4933C183.33 17.4527 183.231 17.4133 183.073 17.4336C182.901 17.4565 182.718 17.4603 182.541 17.4781C182.337 17.4984 182.248 17.384 182.077 17.3866C181.899 17.3891 181.722 17.4107 181.545 17.426C181.389 17.4387 181.389 17.4387 181.067 17.3561C180.949 17.3256 180.81 17.3701 180.694 17.3383C180.616 17.318 180.549 17.2875 180.474 17.2659C180.442 17.257 180.391 17.257 180.35 17.2595C180.128 17.2747 179.902 17.2849 179.687 17.3129C179.443 17.3459 179.258 17.3103 179.083 17.2354C178.863 17.2493 178.64 17.257 178.423 17.2811C178.264 17.2989 178.173 17.257 178.066 17.2227C178.028 17.2112 177.996 17.1922 177.956 17.1871C177.915 17.182 177.867 17.1921 177.824 17.196C177.647 17.2099 177.464 17.2163 177.293 17.2392C177.08 17.2684 177 17.1642 176.836 17.1515C176.726 17.2138 176.667 17.2989 176.45 17.3052C176.272 17.3103 176.095 17.3307 175.918 17.3447C175.829 17.351 175.741 17.3586 175.652 17.365C175.51 17.3764 175.443 17.426 175.472 17.5022C175.489 17.5442 175.502 17.5861 175.515 17.628C175.542 17.703 175.475 17.7666 175.362 17.7755C175.051 17.7996 174.742 17.825 174.431 17.8466C174.348 17.853 174.267 17.8314 174.2 17.7971C174.13 17.7628 174.052 17.7475 173.966 17.7539C173.655 17.778 173.346 17.8034 173.035 17.825C173 17.8276 172.954 17.8149 172.919 17.8047C172.844 17.7818 172.772 17.7551 172.699 17.731C172.522 17.7424 172.347 17.75 172.173 17.7653C171.891 17.7882 171.891 17.7894 171.684 17.7195C171.647 17.7068 171.609 17.6827 171.574 17.684C171.44 17.6891 171.309 17.7018 171.174 17.7132C170.78 17.7462 170.78 17.7462 170.664 17.7081C170.559 17.6725 170.465 17.6293 170.307 17.6497C170.135 17.6725 169.953 17.6802 169.776 17.6929C169.644 17.7018 169.512 17.7119 169.381 17.7145C169.346 17.7157 169.308 17.6916 169.271 17.6789C169.163 17.6395 169.059 17.6077 168.911 17.6293C168.825 17.642 168.734 17.6446 168.645 17.6509C168.414 17.6687 168.414 17.6687 168.036 17.5925C167.998 17.5848 167.953 17.5759 167.915 17.5798C167.604 17.6026 167.295 17.6281 166.983 17.6497C166.946 17.6522 166.9 17.6446 166.863 17.6382C166.439 17.5645 166.439 17.5645 165.987 17.6001C165.816 17.6128 165.81 17.6179 165.63 17.5505C165.55 17.5213 165.483 17.5073 165.389 17.5162C165.034 17.5467 164.677 17.5671 164.326 17.6026C164.167 17.6179 164.076 17.5798 163.969 17.5454C163.931 17.534 163.891 17.5086 163.859 17.5099C163.504 17.534 163.15 17.5632 162.795 17.5874C162.763 17.5899 162.723 17.5645 162.685 17.5531C162.613 17.5302 162.543 17.4959 162.462 17.4883C162.379 17.4806 162.288 17.4997 162.197 17.5061C161.974 17.5226 161.974 17.5213 161.716 17.4463C161.681 17.4362 161.636 17.4222 161.601 17.4247C161.246 17.4501 160.889 17.4717 160.538 17.5086C160.336 17.5289 160.199 17.4921 160.057 17.4387C160.028 17.4273 159.977 17.4222 159.939 17.4247C159.539 17.4539 159.142 17.487 158.742 17.5162C158.658 17.5226 158.578 17.501 158.511 17.4679C158.403 17.4158 158.277 17.4222 158.143 17.4336C157.834 17.4603 157.831 17.459 157.649 17.398C157.611 17.3853 157.579 17.3688 157.539 17.3624C157.501 17.3561 157.453 17.3599 157.413 17.3624C157.236 17.3752 157.058 17.3891 156.881 17.4031C156.704 17.4171 156.524 17.4247 156.35 17.4463C156.135 17.473 156.033 17.3904 155.882 17.3523C155.662 17.3688 155.437 17.379 155.219 17.4056C155.053 17.426 154.975 17.3701 154.865 17.3408C154.827 17.3307 154.787 17.3091 154.752 17.3116C154.352 17.3396 153.952 17.3701 153.555 17.4044C153.458 17.412 153.394 17.4018 153.313 17.3713C153.133 17.3027 153.125 17.3053 152.825 17.3307C152.693 17.3421 152.567 17.3523 152.454 17.3002C152.355 17.2532 152.234 17.2417 152.092 17.257C151.917 17.276 151.737 17.2862 151.56 17.2989C151.383 17.3129 151.206 17.3319 151.029 17.3383C150.886 17.3446 150.8 17.2849 150.688 17.2544C150.653 17.2455 150.604 17.2443 150.564 17.2468C150.387 17.2582 150.204 17.2671 150.033 17.2887C149.823 17.3154 149.708 17.2455 149.56 17.2049C149.528 17.196 149.474 17.201 149.434 17.2049C149.122 17.2277 148.814 17.2531 148.502 17.2773C148.392 17.243 148.279 17.2099 148.169 17.1756C147.992 17.1883 147.815 17.2023 147.638 17.215C147.504 17.2252 147.367 17.229 147.24 17.2481C147.077 17.2735 146.996 17.2138 146.886 17.1845C146.848 17.1744 146.808 17.1528 146.773 17.1553C146.551 17.1693 146.328 17.1845 146.108 17.2061C145.898 17.2277 145.815 17.1133 145.643 17.1146C145.466 17.1159 145.283 17.1324 145.112 17.1553C144.913 17.182 144.773 17.1413 144.631 17.0867C144.601 17.0752 144.55 17.0689 144.513 17.0714C144.29 17.0867 144.07 17.1057 143.847 17.121C143.809 17.1235 143.764 17.1172 143.726 17.1095C143.302 17.0346 143.302 17.0333 143.117 17.0485C142.985 17.0587 142.851 17.0714 142.717 17.0778C142.679 17.0803 142.634 17.0689 142.599 17.0587C142.319 16.9812 142.319 16.9799 142.118 16.9952C141.941 17.0091 141.764 17.0231 141.587 17.0371C141.476 17.0028 141.364 16.9698 141.254 16.9354C141.033 16.952 140.808 16.9647 140.591 16.9875C140.489 16.9977 140.421 16.9939 140.344 16.9621C140.247 16.924 140.15 16.8795 139.989 16.9011C139.817 16.924 139.635 16.9265 139.46 16.9456C139.251 16.9685 139.165 16.8528 138.996 16.8541C138.819 16.8554 138.636 16.8719 138.464 16.8948C138.266 16.9215 138.126 16.8808 137.984 16.8261C137.954 16.8147 137.903 16.8084 137.866 16.8109C137.377 16.8478 136.891 16.8846 136.402 16.924C136.102 16.9481 136.102 16.9494 135.53 16.8795C135.49 16.8744 135.447 16.8694 135.406 16.8719C135.229 16.8833 135.047 16.8922 134.875 16.9138C134.665 16.9405 134.55 16.8719 134.402 16.83C134.37 16.8211 134.319 16.8261 134.276 16.8287C134.142 16.8376 134.01 16.849 133.876 16.8592C133.699 16.8732 133.522 16.8871 133.345 16.9011C133.235 16.8681 133.122 16.8338 133.012 16.8007C132.792 16.8172 132.566 16.8261 132.349 16.8528C132.182 16.8732 132.104 16.8198 131.994 16.7893C131.957 16.7791 131.916 16.7575 131.882 16.7588C131.481 16.7867 131.081 16.816 130.684 16.8516C130.52 16.8668 130.445 16.8096 130.335 16.7804C130.298 16.7715 130.255 16.755 130.22 16.7575C129.954 16.7753 129.688 16.7969 129.422 16.8185C129.272 16.8312 129.272 16.8312 128.944 16.7524C128.907 16.7435 128.864 16.7346 128.826 16.7372C127.983 16.8007 127.143 16.8681 126.3 16.9316C126.214 16.938 126.136 16.9189 126.069 16.8846C125.999 16.8503 125.922 16.8325 125.836 16.8389C125.481 16.8655 125.124 16.8897 124.773 16.9227C124.628 16.9367 124.512 16.9202 124.413 16.8757C124.338 16.8427 124.268 16.83 124.174 16.8376C123.997 16.8528 123.819 16.8655 123.642 16.8795C123.465 16.8935 123.288 16.9075 123.111 16.9215C122.934 16.9354 122.754 16.9431 122.579 16.9647C122.364 16.9914 122.26 16.9126 122.112 16.8732C121.846 16.8922 121.58 16.9113 121.317 16.9316C120.963 16.9583 120.609 16.9875 120.254 17.013C120.222 17.0155 120.182 16.9926 120.144 16.9812C120.034 16.9494 119.954 16.9049 119.79 16.9189C118.995 16.9863 118.195 17.0435 117.398 17.1095C117.231 17.1235 117.159 17.0689 117.046 17.0396C117.008 17.0307 116.966 17.013 116.931 17.0155C116.488 17.0473 116.045 17.0829 115.602 17.1172C115.422 17.1311 115.422 17.1311 115.121 17.0523C115.086 17.0435 115.041 17.032 115.003 17.0346C114.426 17.0778 113.851 17.1235 113.274 17.168C113.188 17.1744 113.11 17.1566 113.041 17.1223C112.973 17.0879 112.893 17.0689 112.81 17.0752C112.278 17.1159 111.744 17.1553 111.215 17.1998C111.073 17.2125 110.955 17.201 110.852 17.1553C110.78 17.1223 110.708 17.1083 110.616 17.1159C109.819 17.1782 109.022 17.2379 108.224 17.304C108.071 17.3167 107.964 17.2925 107.867 17.2506C107.789 17.2176 107.722 17.2112 107.626 17.2163C107.523 17.2226 107.462 17.2366 107.405 17.2747C107.333 17.3243 107.287 17.3866 107.115 17.3904C106.938 17.3942 106.758 17.4095 106.584 17.4311C106.417 17.4527 106.34 17.3955 106.235 17.3612C106.157 17.337 106.085 17.3332 105.985 17.3447C105.894 17.3548 105.838 17.3764 105.784 17.4171C105.666 17.5035 105.655 17.5035 105.51 17.4489C105.432 17.4196 105.362 17.3967 105.276 17.4018C104.922 17.4272 104.568 17.4552 104.213 17.4844C104.009 17.501 104.007 17.5035 103.854 17.44C103.778 17.4082 103.706 17.3929 103.617 17.4006C102.643 17.4768 101.668 17.5505 100.694 17.6306C100.543 17.6433 100.441 17.6166 100.334 17.5785C100.299 17.5658 100.264 17.548 100.224 17.5429C100.184 17.5378 100.138 17.5429 100.095 17.5454C99.3863 17.6001 98.6749 17.6522 97.9688 17.7132C97.8077 17.7272 97.7218 17.6865 97.6118 17.6535C97.5742 17.642 97.5419 17.6242 97.5017 17.6192C97.4614 17.6153 97.4131 17.6242 97.3701 17.628C96.6614 17.6827 95.9499 17.7348 95.2439 17.7958C95.0747 17.8098 95.0022 17.7564 94.8922 17.7285C94.8546 17.7183 94.8143 17.6992 94.7794 17.7018C94.5566 17.7157 94.3365 17.7348 94.1136 17.7513C93.5821 17.7933 93.0505 17.8327 92.5189 17.8759C92.3149 17.8924 92.2263 17.7793 92.0545 17.7844C91.8316 17.7907 91.6115 17.8161 91.3887 17.8339C91.2115 17.8479 91.0343 17.8606 90.8571 17.8759C90.6826 17.8899 90.6826 17.8898 90.2477 17.8161C90.2101 17.8098 90.1645 17.8009 90.1269 17.8034C89.5067 17.8504 88.8839 17.8975 88.2664 17.9483C88.1241 17.9597 88.006 17.9534 87.904 17.9064C87.8315 17.8733 87.7564 17.8568 87.6678 17.8644C86.7362 17.9369 85.8072 18.0093 84.8757 18.0805C84.8408 18.083 84.7951 18.0703 84.7602 18.0601C84.6851 18.0373 84.6126 18.0106 84.5401 17.9864C84.4864 18.0157 84.4166 18.0423 84.3817 18.0754C84.3334 18.1199 84.269 18.1326 84.1669 18.1402C84.0649 18.1478 84.0005 18.1453 83.92 18.1123C83.8233 18.0716 83.724 18.0398 83.5656 18.0525C82.591 18.1326 81.6165 18.205 80.6419 18.2838C80.4809 18.2965 80.4057 18.2406 80.293 18.2114C80.2554 18.2025 80.2124 18.1885 80.1775 18.191C79.7775 18.2203 79.3802 18.252 78.9802 18.2825C77.8714 18.369 76.7626 18.4516 75.6566 18.5431C75.4552 18.5596 75.3183 18.5278 75.176 18.4732C75.1465 18.4617 75.0955 18.4554 75.0579 18.4579C73.5062 18.5774 71.9544 18.6981 70.4053 18.8188C70.3221 18.8252 70.2416 18.8049 70.1744 18.7718C70.1046 18.7375 70.0268 18.721 69.9409 18.7273C69.2322 18.782 68.5234 18.8366 67.8147 18.8926C67.6375 18.9065 67.6348 18.9078 67.4522 18.8468C67.4146 18.8341 67.3744 18.8099 67.3449 18.8125C67.2831 18.8188 67.224 18.8506 67.1811 18.8938C67.1381 18.9396 67.071 18.9523 66.9716 18.9612C66.8696 18.9701 66.8025 18.9663 66.7247 18.9358C66.6254 18.8976 66.5341 18.8608 66.373 18.8735C64.3353 19.0362 62.2976 19.1925 60.26 19.3539C60.0962 19.3666 60.021 19.3132 59.9083 19.284C59.8707 19.2751 59.8331 19.2624 59.7929 19.2598C59.7499 19.2573 59.7043 19.2649 59.6613 19.2687C56.3377 19.5267 53.0141 19.786 49.6905 20.0439C49.4918 20.0592 49.4945 20.0592 49.277 20.1761C49.2502 20.1901 49.2153 20.2091 49.1777 20.2117C48.1602 20.293 47.14 20.3718 46.1199 20.4506C45.6769 20.4849 45.2339 20.5205 44.791 20.5536C44.6326 20.565 44.6326 20.565 44.254 20.7022C44.2218 20.7137 44.1842 20.7289 44.1466 20.7315C42.3747 20.87 40.6028 21.0085 38.8283 21.1445C38.6887 21.1547 38.5759 21.1775 38.5115 21.2385C38.4659 21.2818 38.4068 21.3072 38.3182 21.3148C37.0779 21.4114 35.8376 21.5092 34.5946 21.6033C34.447 21.6147 34.3583 21.6503 34.2859 21.7037C34.2617 21.7215 34.2402 21.7418 34.2053 21.7545C34.1731 21.7659 34.1248 21.7698 34.0845 21.7736C33.0214 21.8562 31.9583 21.9413 30.8925 22.0201C30.7341 22.0316 30.6696 22.0786 30.5917 22.1281C30.5649 22.1447 30.5461 22.1675 30.5112 22.179C30.4763 22.1891 30.4253 22.1891 30.3823 22.1917C29.4964 22.2603 28.6105 22.3302 27.7245 22.3988C27.5527 22.3925 27.5151 22.4662 27.4319 22.5107C27.4024 22.5259 27.3809 22.5463 27.346 22.5564C27.3084 22.5666 27.2601 22.5653 27.2144 22.5679C26.5057 22.6225 25.7969 22.681 25.0855 22.7318C24.9217 22.7432 24.8895 22.808 24.8009 22.8525C24.7714 22.8665 24.7419 22.8881 24.707 22.8919C24.264 22.9288 23.8211 22.9631 23.3781 22.9961C23.2304 23.0076 23.2304 23.0063 22.97 23.1321C22.9405 23.1461 22.9055 23.1614 22.868 23.1652C22.2048 23.2185 21.5391 23.2694 20.8733 23.3215C20.7874 23.3278 20.7283 23.3583 20.6854 23.4015C20.6424 23.4447 20.5807 23.4727 20.4948 23.4791C19.9632 23.521 19.4316 23.5642 18.9 23.6023C18.7524 23.6125 18.6557 23.6443 18.5913 23.7015C18.543 23.7447 18.4839 23.7663 18.39 23.7739C17.8584 23.8146 17.3268 23.859 16.7926 23.8946C16.6369 23.9048 16.5563 23.948 16.4919 24.0014C16.4409 24.0446 16.3818 24.0598 16.2825 24.0675C15.3079 24.1412 14.3307 24.2149 13.3589 24.2962C13.1951 24.3102 13.1119 24.2657 13.0045 24.2339C12.8515 24.1895 12.7092 24.1412 12.7092 24.042C12.7092 24.0268 12.6636 24.009 12.6314 23.9963C12.3924 23.901 12.3924 23.901 12.3548 23.7993C12.3334 23.737 12.3092 23.6735 12.2904 23.61C12.2555 23.5058 12.1696 23.4791 11.9226 23.4981C11.834 23.5045 11.7454 23.5134 11.6568 23.5184C11.5252 23.5273 11.4259 23.4854 11.4018 23.4092C11.3883 23.3672 11.3723 23.3253 11.3588 23.2833C11.4931 23.2732 11.4903 23.2719 11.7266 23.1181C11.8259 23.0533 11.826 23.0533 11.6354 22.9885C11.5629 22.9644 11.4931 22.9377 11.4152 22.9148C11.3803 22.9046 11.3347 22.8983 11.2971 22.9008C11.0743 22.9161 10.8541 22.9339 10.634 22.9517C10.2796 22.9796 10.2796 22.9796 9.91983 22.85C9.89029 22.8398 9.84465 22.8208 9.85002 22.8106C9.87955 22.7636 9.95203 22.7432 10.0433 22.7381C10.1775 22.7305 10.3091 22.7178 10.4406 22.7076C10.5292 22.7013 10.6178 22.6937 10.7064 22.6873C10.7896 22.639 10.8756 22.592 10.9534 22.5424C11.0769 22.4662 11.0769 22.4636 10.9078 22.4103C10.8004 22.3747 10.6849 22.3429 10.5749 22.3099C10.4433 22.32 10.3091 22.3315 10.1775 22.3404C10.0111 22.3518 9.94397 22.3277 9.90101 22.2451C9.86343 22.1726 9.90907 22.1103 10.0379 22.0951C10.1695 22.0798 10.293 22.0697 10.3601 22.0049C10.4246 21.9426 10.5373 21.9184 10.6769 21.9134C10.7655 21.9095 10.8541 21.9007 10.9427 21.893C11.0581 21.8829 11.1199 21.8181 11.0957 21.7456C11.0823 21.6986 11.0555 21.6592 10.9508 21.649C10.4863 21.6045 10.4809 21.6058 10.25 21.5194C10.2286 21.5118 10.2125 21.4889 10.2205 21.4775C10.234 21.4584 10.2635 21.4304 10.2957 21.4266C10.6045 21.3987 10.9132 21.3733 11.2219 21.3542C11.3239 21.3478 11.3991 21.3389 11.434 21.2919C11.4823 21.2271 11.4609 21.1674 11.3669 21.1229C11.3374 21.1089 11.289 21.0911 11.2568 21.0924C10.9024 21.1153 10.5507 21.1445 10.1964 21.1674C10.1641 21.1699 10.1051 21.1483 10.0917 21.1318C10.0648 21.1013 10.1051 21.0606 10.199 21.0466C10.3225 21.0276 10.4487 21.0263 10.5319 20.9628C10.6474 20.8725 10.7896 20.7899 10.9185 20.7035C10.94 20.6883 10.9749 20.659 10.9669 20.6565C10.8998 20.6285 10.8219 20.6069 10.7521 20.5802C10.634 20.5358 10.6339 20.4735 10.6608 20.4138C10.6823 20.3655 10.7628 20.3464 10.8621 20.3464C10.9051 20.3464 10.9588 20.3464 10.9937 20.335C11.085 20.307 11.1145 20.2714 11.0689 20.2447C11.042 20.2295 10.9937 20.2079 10.9615 20.2104C10.387 20.2524 9.80974 20.293 9.23791 20.3451C9.06878 20.3604 8.99097 20.3121 8.88896 20.2778C8.8111 20.2511 8.73857 20.2409 8.64192 20.26C8.55064 20.2778 8.46208 20.2676 8.4057 20.2257C8.36006 20.1914 8.44059 20.1621 8.65805 20.1291C8.69832 20.1227 8.74394 20.1189 8.77347 20.1062C9.08489 19.969 9.08488 19.9677 9.29965 19.9499C9.50906 19.9334 9.50911 19.9321 9.61918 19.8584C9.67019 19.8241 9.72652 19.7898 9.77484 19.7542C9.79364 19.7402 9.82589 19.7148 9.81515 19.7072C9.75609 19.6678 9.67552 19.6589 9.58155 19.6678C9.37215 19.6894 9.1252 19.6716 9.01513 19.7923C8.97217 19.8381 8.90505 19.8508 8.8084 19.8584C7.83655 19.9321 6.86467 20.0109 5.89014 20.0821C5.73174 20.0935 5.6593 20.1405 5.59755 20.1926C5.54386 20.2358 5.48478 20.2486 5.38277 20.2562C5.28075 20.2638 5.20017 20.2676 5.14111 20.2257C5.10621 20.2003 5.13575 20.1647 5.21629 20.1291C5.33173 20.0783 5.31024 20.0147 5.27265 19.955C5.24581 19.9156 5.16259 19.8876 5.07399 19.8902C4.94244 19.8953 4.8163 19.9092 4.70623 19.8584C4.64179 19.8292 4.56124 19.8088 4.48875 19.7834C4.34915 19.7313 4.20954 19.6779 4.01356 19.7122C3.87933 19.6995 3.78537 19.6538 3.67798 19.6182C3.49811 19.5597 3.482 19.5508 3.61086 19.4886C3.75583 19.4187 3.64306 19.3272 3.7236 19.2585C3.80951 19.1848 3.92767 19.12 4.03237 19.0514C4.05922 19.0336 4.08339 19.0171 4.11024 18.9993C4.04849 18.9739 3.99212 18.9421 3.91964 18.9243C3.82567 18.9015 3.77735 18.8735 3.78272 18.7947C3.76392 18.7833 3.77192 18.8125 3.7934 18.8201C3.81756 18.8277 3.87667 18.8214 3.9062 18.8125C3.98137 18.7883 4.01892 18.7566 4.00012 18.7299C3.98939 18.7159 3.93842 18.6981 3.9062 18.6981C3.84714 18.6981 3.79614 18.7261 3.78003 18.7947C3.47935 18.8468 3.16788 18.8722 2.85646 18.8926C2.82424 18.8951 2.78399 18.8697 2.74641 18.857C2.62291 18.8138 2.6229 18.815 2.26047 18.8023C2.22288 18.801 2.1719 18.7833 2.15311 18.7655C2.07525 18.6879 2.07796 18.6028 2.04037 18.5202C2.11017 18.4668 2.17992 18.4147 2.25241 18.3626C2.39738 18.2571 2.58535 18.1644 2.6981 18.0487C2.67394 17.9864 2.64172 17.9242 2.75984 17.8733C3.09543 17.8098 3.09276 17.8098 3.18404 17.7488C3.44445 17.576 3.70217 17.4018 3.97332 17.2315C4.0458 17.1871 4.04581 17.1629 3.91695 17.1439C3.87668 17.1388 3.83367 17.1375 3.79071 17.14C3.65648 17.1489 3.52225 17.1718 3.3907 17.1667C3.25915 17.1629 3.1625 17.107 3.05512 17.0727C2.94505 17.0371 2.83498 17.0002 2.72491 16.9634C2.59873 16.9672 2.47257 17.0028 2.34639 16.9456C2.24975 16.9011 2.12894 16.8693 2.01887 16.8325C2.1021 16.7359 2.25783 16.6622 2.37864 16.5771C2.48871 16.4995 2.49134 16.5008 2.78665 16.4411C2.92625 16.4131 2.97458 16.2695 2.85646 16.2276C2.71417 16.1767 2.56386 16.1297 2.41889 16.0814C2.29271 16.0852 2.16387 16.1196 2.04306 16.0624C1.9491 16.0192 1.84169 15.9899 1.68598 16.0064C1.42288 16.0344 1.15442 16.0484 0.88864 16.0713C0.797361 16.0789 0.698 16.0738 0.65773 16.0306C0.630883 16.0001 0.708744 15.9582 0.797338 15.9493C0.931571 15.9365 1.05237 15.9213 1.11948 15.8578C1.18392 15.7942 1.30203 15.7751 1.44163 15.7662C1.47922 15.7637 1.5222 15.7485 1.541 15.7332C1.63764 15.6595 1.74504 15.596 1.95176 15.5985C2.03767 15.5731 2.08328 15.5413 2.05643 15.5108C2.04032 15.4943 1.98397 15.4727 1.95176 15.4752C1.72893 15.4879 1.50611 15.5006 1.28865 15.5235C1.18664 15.5337 1.10874 15.5362 1.04431 15.4981C0.998667 15.4727 1.02283 15.4384 1.10874 15.4015C1.18391 15.3697 1.20541 15.3329 1.20004 15.2897C1.18661 15.1893 1.10606 15.1601 0.848331 15.1664C0.663089 15.1715 0.617447 15.155 0.577177 15.0686C0.566438 15.0482 0.539639 15.0203 0.558431 15.0063C0.673872 14.9199 0.749048 14.8131 0.966506 14.7724C1.05242 14.7572 1.14366 14.7572 1.19735 14.7242C1.25104 14.6911 1.29939 14.653 1.35577 14.6212C1.42557 14.5831 1.47385 14.5475 1.44163 14.5234C1.38794 14.4802 1.30206 14.4763 1.20272 14.4916C1.11682 14.5043 1.02554 14.5056 0.936946 14.5132C0.77855 14.5272 0.649715 14.4941 0.630923 14.4382C0.579914 14.2908 0.526205 14.1446 0.480566 13.9972C0.475196 13.9794 0.488583 13.9566 0.51006 13.9413C0.585231 13.8879 0.665802 13.8371 0.743658 13.785C0.834936 13.7253 0.979932 13.7367 1.10343 13.7253C1.27793 13.7087 1.27787 13.71 1.51144 13.588C1.60271 13.5397 1.76112 13.5588 1.85508 13.5156C1.88461 13.5016 1.93025 13.4787 1.9222 13.466C1.91146 13.4495 1.85779 13.4368 1.81752 13.4291C1.77994 13.4215 1.73431 13.4177 1.69404 13.4215C1.20543 13.4584 0.719519 13.4978 0.23091 13.5334C0.147685 13.5397 0.0564042 13.5118 0.0268729 13.4724C-0.00265845 13.4355 0.00536933 13.391 0 13.3491C0.0778553 13.297 0.166415 13.2487 0.233532 13.1928C0.28454 13.1496 0.343614 13.1305 0.445631 13.128C0.579864 13.1241 0.711426 13.1089 0.861767 13.0975C1.14097 12.9119 1.41479 12.7175 1.71547 12.5319C1.83628 12.457 1.8068 12.3807 1.83096 12.3006C1.85512 12.2269 2.03498 12.2384 2.15579 12.2168C2.25244 12.199 2.28462 12.1583 2.24703 12.1303C2.22555 12.1138 2.17726 12.0948 2.13967 12.0948C2.05108 12.0948 1.96249 12.1062 1.87389 12.1125C1.7853 12.1189 1.68329 12.1151 1.6108 12.1367C1.541 12.157 1.49533 12.2002 1.44969 12.2371C1.39868 12.2778 1.33161 12.2917 1.2296 12.2943C1.09805 12.2968 0.966508 12.3083 0.83496 12.3172C0.689988 12.2676 0.539615 12.2193 0.400013 12.1672C0.373166 12.157 0.367768 12.1278 0.370452 12.1087C0.375822 12.0592 0.335562 12.0287 0.246968 12.0045C0.171798 11.9842 0.110045 11.955 0.0402438 11.9296C0.0939371 11.8952 0.153021 11.8622 0.195975 11.8253C0.289939 11.7478 0.408077 11.6919 0.612112 11.6944C0.692652 11.6449 0.757065 11.5839 0.861767 11.5496C0.9611 11.5165 1.13024 11.5496 1.20541 11.4746C1.243 11.4377 1.29941 11.3958 1.37189 11.3805C1.48733 11.3564 1.63767 11.3691 1.70479 11.2979C1.74506 11.2573 1.8041 11.2204 1.88195 11.2102C1.97055 11.1988 2.0618 11.1963 2.12623 11.1721C2.16113 11.1594 2.19873 11.1391 2.19873 11.1213C2.19873 11.1099 2.14507 11.0921 2.10749 11.0844C2.07259 11.0755 2.0269 11.0692 1.98663 11.0717C1.85239 11.0793 1.72085 11.0933 1.58661 11.101C1.54903 11.1035 1.50609 11.0946 1.46582 11.087C1.34769 11.0666 1.35573 11.0412 1.44969 10.9955C1.54366 10.951 1.61081 10.8938 1.68867 10.8417C1.77457 10.8328 1.88195 10.8366 1.94101 10.8125C2.04034 10.7731 2.11012 10.7159 2.19066 10.6663C2.27926 10.6587 2.37053 10.6562 2.45376 10.6422C2.48866 10.6371 2.50478 10.6091 2.53431 10.5926C2.588 10.5608 2.63368 10.5151 2.70616 10.4998C2.82429 10.477 2.96926 10.4859 3.03906 10.416C3.07933 10.3753 3.14105 10.3321 3.21622 10.3296C3.42563 10.3245 3.51422 10.2546 3.62161 10.1885C3.70215 10.1389 3.87397 10.1643 3.96257 10.1148C4.02163 10.083 4.06461 10.0436 4.12367 10.0131C4.14784 10.0004 4.19883 9.99404 4.2391 9.99023C4.45924 9.97117 4.68206 9.95718 4.9022 9.93685C4.9371 9.93303 4.96934 9.91398 4.99619 9.89873C5.05257 9.86569 5.08743 9.81993 5.15723 9.79833C5.22703 9.77672 5.32635 9.77673 5.41226 9.77037C5.68878 9.75131 5.71028 9.75638 5.83646 9.64836C5.93848 9.56067 6.18818 9.62295 6.27141 9.52636C6.31973 9.47045 6.40829 9.4247 6.56668 9.41834C6.78951 9.40945 7.00965 9.3853 7.23247 9.36878C7.43114 9.35353 7.42846 9.35352 7.64323 9.23533C7.73988 9.18196 7.8822 9.18959 8.00838 9.17942C8.14261 9.16926 8.26609 9.15401 8.33052 9.09047C8.39496 9.0282 8.51307 9.00785 8.64998 8.99896C8.77616 8.99006 8.91848 8.99642 9.01781 8.94559C9.25943 8.82359 9.25675 8.82231 9.42589 8.8096C9.69167 8.78927 9.95744 8.76894 10.2232 8.74733C10.4004 8.73335 10.5856 8.73081 10.7521 8.70285C10.8729 8.68252 10.9266 8.61135 11.0044 8.56179C11.2246 8.54273 11.4447 8.52366 11.6649 8.50587C11.9736 8.48045 12.285 8.45758 12.5964 8.43343C12.7307 8.38514 12.7495 8.27839 12.975 8.2733C13.1092 8.27076 13.2408 8.25424 13.375 8.24408C13.5978 8.22629 13.818 8.20341 14.0408 8.19451C14.2099 8.18816 14.2394 8.11953 14.328 8.07632C14.3576 8.06107 14.3844 8.03947 14.4193 8.03566C14.7683 8.00007 15.1281 7.99245 15.469 7.94034C15.5039 7.93526 15.5361 7.90857 15.5442 7.88951C15.5496 7.87934 15.5039 7.86029 15.4744 7.85139C15.4395 7.84122 15.3939 7.83105 15.3563 7.8336C14.2475 7.91874 13.1388 8.00516 12.03 8.09031C11.8743 8.10302 11.8743 8.10174 11.4958 8.24153C11.4635 8.25297 11.4259 8.26568 11.3856 8.26949C11.2085 8.28474 11.0286 8.29365 10.8541 8.31271C10.7118 8.32796 10.5937 8.3127 10.4917 8.26694C10.4192 8.2339 10.344 8.22374 10.2527 8.22628C10.1507 8.2301 10.0836 8.24408 10.0246 8.27839C9.94671 8.32541 9.90643 8.38641 9.74266 8.39912C8.98827 8.45376 8.23383 8.51476 7.48213 8.57322C7.37743 8.55543 7.32642 8.52875 7.35327 8.49698C7.36938 8.47791 7.40161 8.4525 7.43382 8.44995C7.74256 8.42327 8.05397 8.4004 8.36271 8.37498C8.40566 8.37117 8.46472 8.3737 8.48888 8.36099C8.607 8.3038 8.65 8.21103 8.87283 8.20467C9.0017 8.20086 9.13323 8.18181 9.25672 8.16401C9.29162 8.15893 9.32384 8.13224 9.3319 8.11318C9.33458 8.10301 9.29162 8.08394 9.25941 8.07505C9.14128 8.03819 9.00439 8.08268 8.88627 8.05727C8.846 8.04837 8.78958 8.03566 8.78153 8.02041C8.77616 8.00643 8.82181 7.98355 8.85402 7.96957C8.88355 7.95686 8.9238 7.94543 8.96407 7.94162C9.31844 7.91239 9.67288 7.88188 10.0273 7.85901C10.1722 7.85011 10.2742 7.81834 10.3386 7.75988C10.387 7.71667 10.446 7.6938 10.5373 7.68744C11.1575 7.64042 11.7776 7.58832 12.4005 7.54511C12.5562 7.53494 12.6367 7.49301 12.7012 7.43836C12.7522 7.39515 12.8112 7.3799 12.9106 7.37228C13.7992 7.30619 14.6824 7.23248 15.5711 7.16894C15.7348 7.1575 15.7832 7.10286 15.8664 7.05583C15.8959 7.03931 15.9147 7.01898 15.9523 7.00881C15.9898 6.99865 16.0382 6.99991 16.0838 6.99736C16.7926 6.94272 17.5014 6.88427 18.2128 6.83344C18.3792 6.822 18.4114 6.75845 18.4973 6.71397C18.5268 6.69999 18.5537 6.67712 18.5886 6.67331C19.1202 6.6301 19.6517 6.58943 20.1833 6.54749C20.5377 6.51953 20.892 6.49157 21.2464 6.46488C21.4209 6.45218 21.4209 6.4509 21.6572 6.33017C21.684 6.31619 21.7216 6.29966 21.7565 6.29585C22.7767 6.21452 23.7942 6.13701 24.8143 6.05695C24.9003 6.05059 24.962 6.02135 25.0049 5.97814C25.0479 5.93493 25.1097 5.9057 25.1929 5.89935C25.9903 5.8358 26.7876 5.77354 27.5876 5.71381C27.7326 5.70364 27.8346 5.67314 27.899 5.61595C27.9473 5.57274 28.0064 5.54987 28.0977 5.54352C28.895 5.48252 29.6924 5.41769 30.4924 5.35923C30.6455 5.3478 30.7206 5.30459 30.7958 5.25376C30.8226 5.23597 30.8441 5.20674 30.8763 5.20419C31.2737 5.16861 31.6683 5.13175 32.0683 5.10761C32.2348 5.09744 32.2912 5.04406 32.3583 4.99323C32.412 4.95256 32.4737 4.93858 32.5758 4.9335C32.7986 4.92206 33.0187 4.90047 33.2362 4.87886C33.2684 4.87505 33.3087 4.84709 33.3113 4.8293C33.3167 4.79626 33.2549 4.77338 33.1529 4.76194C32.0898 4.84454 31.024 4.92714 29.9609 5.00975C29.7864 5.02373 29.7864 5.02374 29.5501 5.14447C29.5233 5.15845 29.4857 5.17497 29.4481 5.17878C28.4279 5.25885 27.4104 5.33764 26.3903 5.4177C26.3044 5.42406 26.2426 5.45329 26.1997 5.4965C26.1567 5.5397 26.0949 5.56893 26.0117 5.57529C25.0372 5.65154 24.0627 5.72906 23.0854 5.8015C22.9405 5.81167 22.8385 5.84089 22.774 5.89935C22.7257 5.94256 22.6667 5.96544 22.5754 5.97179C21.6438 6.04296 20.7149 6.11793 19.7806 6.18656C19.6866 6.19291 19.6169 6.15606 19.6222 6.12175C19.6249 6.10395 19.6651 6.07474 19.6974 6.0722C20.1833 6.03026 20.6666 5.98704 21.1552 5.95527C21.3189 5.94511 21.3672 5.88919 21.4504 5.84216C21.4773 5.82564 21.4988 5.80404 21.5337 5.79514C21.5713 5.78498 21.6196 5.78625 21.6652 5.78371C22.817 5.69348 23.9687 5.60198 25.1231 5.51683C25.2896 5.50413 25.3217 5.44185 25.4076 5.39737C25.4372 5.38212 25.464 5.35925 25.4989 5.35671C25.8533 5.3262 26.2077 5.29951 26.5621 5.27282C27.1822 5.22453 27.8024 5.17624 28.4252 5.12795C28.6051 5.11397 28.6051 5.11396 28.836 4.9945C28.8628 4.98052 28.9004 4.96274 28.9353 4.9602C30.5757 4.83184 32.216 4.70349 33.8563 4.5764C33.9423 4.57005 34.004 4.54082 34.0469 4.49761C34.0899 4.45567 34.1516 4.42517 34.2349 4.41754C36.4524 4.24471 38.6672 4.07186 40.8848 3.90157C41.0298 3.89013 41.1317 3.86344 41.1962 3.80371C41.2418 3.7605 41.3036 3.73763 41.3948 3.73001C43.8325 3.54065 46.2702 3.3513 48.7106 3.16067C50.3509 3.03358 51.9912 2.90396 53.6316 2.77941C53.7819 2.76797 53.8624 2.72857 53.9376 2.67647C53.9618 2.65867 53.9859 2.62944 54.0181 2.6269C54.3698 2.59513 54.7215 2.5659 55.0732 2.53668C55.1833 2.57099 55.2933 2.60404 55.4034 2.63835C55.4866 2.59006 55.5672 2.54049 55.6504 2.4922C56.182 2.45534 56.7055 2.39815 57.2424 2.38036C57.2773 2.37909 57.3149 2.40324 57.3525 2.41595C57.6021 2.49601 57.7444 2.48966 57.9028 2.38291C57.9592 2.34478 58.0075 2.31047 58.0934 2.30411C58.3592 2.28124 58.6278 2.26599 58.8908 2.2393C59.0331 2.22532 59.1512 2.23803 59.2532 2.28378C59.3257 2.31682 59.4009 2.33081 59.4895 2.32318C59.9781 2.28506 60.464 2.2482 60.9527 2.20753C60.9876 2.20499 61.0197 2.18338 61.0466 2.16812C61.103 2.13508 61.1513 2.09951 61.205 2.06519C61.2775 2.0868 61.358 2.10332 61.4171 2.13128C61.4923 2.16432 61.562 2.16432 61.6641 2.15542C63.6131 2.00165 65.5649 1.85169 67.514 1.69664C67.6804 1.68394 67.7529 1.73732 67.8657 1.76527C67.9033 1.77544 67.9408 1.78814 67.9811 1.79069C68.024 1.79323 68.0697 1.78561 68.1126 1.7818C69.5758 1.66742 71.0389 1.55431 72.5021 1.43993C72.6954 1.42468 72.6954 1.42468 72.9827 1.50347C73.0176 1.51364 73.0632 1.52508 73.1008 1.52127C73.7666 1.4717 74.4323 1.41833 75.0955 1.3675C75.1814 1.36114 75.2539 1.38147 75.3317 1.4107C75.4848 1.46789 75.4954 1.4679 75.6082 1.38402C75.6619 1.34462 75.7183 1.32047 75.8069 1.30903C75.9035 1.29632 75.9814 1.30015 76.0566 1.32302C76.164 1.35479 76.2418 1.40816 76.4056 1.39418C77.1143 1.33445 77.8258 1.28489 78.5318 1.22389C78.6929 1.20991 78.7788 1.25312 78.8862 1.28489C78.9238 1.29633 78.9587 1.31412 78.999 1.31793C79.0392 1.32174 79.0876 1.31284 79.1305 1.30903C80.0164 1.2404 80.905 1.17306 81.7883 1.09935C81.9548 1.08537 82.0273 1.14001 82.14 1.16796C82.1776 1.17813 82.2205 1.19593 82.2554 1.19339C82.787 1.15399 83.3213 1.11204 83.8529 1.07011C84.0435 1.05486 84.0434 1.05613 84.3334 1.13365C84.3683 1.14382 84.4139 1.15398 84.4515 1.15144C85.0717 1.10442 85.6945 1.05613 86.3147 1.00784C86.5053 0.992586 86.5053 0.992589 87.0556 1.05867C87.0959 1.06376 87.1389 1.07139 87.1791 1.06885C87.8879 1.0142 88.5993 0.96082 89.3081 0.902361C89.4503 0.890923 89.5685 0.901087 89.6705 0.946838C89.743 0.97988 89.8181 0.993867 89.9067 0.986241C90.7041 0.92397 91.5041 0.864242 92.2988 0.798158C92.4518 0.785449 92.5511 0.813397 92.6585 0.850252C92.6934 0.86296 92.7284 0.880756 92.7686 0.885839C92.8089 0.890923 92.8545 0.885835 92.8975 0.882023C93.6948 0.819751 94.4948 0.761294 95.2895 0.693939C95.4506 0.67996 95.5365 0.723166 95.6439 0.754938C95.6815 0.766375 95.7217 0.789252 95.7539 0.787981C96.0654 0.766377 96.3768 0.747321 96.6855 0.715549C96.852 0.697757 96.9245 0.756206 97.0372 0.784165C97.0748 0.793061 97.1177 0.812133 97.1526 0.809591C97.8184 0.760028 98.4843 0.707927 99.1474 0.654551C99.2414 0.646926 99.3111 0.658353 99.3863 0.691395C99.4856 0.735875 99.6011 0.753667 99.7461 0.739688C100.055 0.710458 100.366 0.69013 100.678 0.665984C100.86 0.652005 100.86 0.652009 101.419 0.718093C101.459 0.723177 101.502 0.730796 101.542 0.728255C102.074 0.687587 102.608 0.648193 103.137 0.603714C103.279 0.591005 103.397 0.60244 103.499 0.64819C103.572 0.681233 103.644 0.695219 103.735 0.687594C104.224 0.649469 104.71 0.61134 105.199 0.573214C105.376 0.559235 105.553 0.535083 105.73 0.535083C105.859 0.536353 105.953 0.597352 106.068 0.627852C106.101 0.636748 106.154 0.626593 106.197 0.624052C106.817 0.575759 107.44 0.531275 108.058 0.476628C108.219 0.462649 108.305 0.505856 108.412 0.537627C108.45 0.549064 108.49 0.571941 108.522 0.57067C108.745 0.556691 108.965 0.537626 109.188 0.521105C109.454 0.500771 109.722 0.485521 109.985 0.457562C110.2 0.434687 110.281 0.545248 110.452 0.54906C110.584 0.552873 110.718 0.531272 110.85 0.521105C111.116 0.500771 111.381 0.477899 111.647 0.460107C111.741 0.453752 111.814 0.43341 111.843 0.387659C111.849 0.378763 111.803 0.359709 111.773 0.348271C111.416 0.218644 111.416 0.218638 111.057 0.246597C110.834 0.264389 110.614 0.282184 110.391 0.297434C110.353 0.299975 110.31 0.289809 110.273 0.282184C110.165 0.26058 110.176 0.235165 110.267 0.189414C110.359 0.143664 110.428 0.0877512 110.506 0.0356462C110.616 0.0686884 110.724 0.101719 110.834 0.134761C110.922 0.128407 111.011 0.120793 111.1 0.114438C111.542 0.0813963 111.985 0.0470808 112.428 0.0165803C112.461 0.0140386 112.501 0.0394594 112.538 0.0521679C112.646 0.0890227 112.743 0.120785 112.898 0.106806C113.296 0.0699512 113.696 0.0432633 114.093 0.011492C114.267 -0.00248741 114.267 -0.00248617 114.573 0.0763067C114.608 0.0852027 114.654 0.0953701 114.692 0.0928284C115.092 0.0635988 115.489 0.0318312 115.889 0.00133073C115.975 -0.00502354 116.058 0.0114969 116.12 0.0483516C116.144 0.0636019 116.139 0.089014 116.241 0.297434C116.557 0.466457 116.775 0.448674 116.995 0.433424C117.089 0.427069 117.172 0.420709 117.234 0.395292C117.266 0.381313 117.306 0.360976 117.306 0.344455C117.306 0.331746 117.247 0.311409 117.21 0.308867C116.944 0.28345 116.692 0.336833 116.431 0.348271C116.31 0.353354 116.206 0.308874 116.184 0.236435C116.179 0.216102 116.171 0.194498 116.163 0.174165C116.155 0.153831 116.149 0.132228 116.141 0.111894C116.037 0.10554 115.975 0.128412 115.929 0.171621C115.892 0.207204 115.838 0.247872 115.765 0.266935C115.693 0.287268 115.594 0.283462 115.505 0.289817C115.419 0.296171 115.325 0.31269 115.245 0.303794C115.164 0.293627 115.1 0.256766 115.024 0.233891C114.99 0.222453 114.947 0.205939 114.912 0.20848C114.603 0.230085 114.297 0.251681 113.991 0.27964C113.83 0.29489 113.749 0.241522 113.647 0.20848C113.567 0.183063 113.486 0.189409 113.473 0.247869C113.438 0.387662 113.561 0.446119 113.835 0.419431C114.061 0.396555 114.265 0.392755 114.442 0.479173C114.466 0.49061 114.522 0.495692 114.557 0.49315C114.777 0.4779 114.995 0.458835 115.215 0.443585C115.255 0.441043 115.298 0.446119 115.336 0.451202C115.884 0.519828 115.884 0.521106 116.069 0.505855C116.157 0.49823 116.243 0.491875 116.235 0.298706C116.404 0.0915569 116.673 0.07758 116.933 0.0470796C117.102 0.0280168 117.175 0.0839368 117.285 0.113166C117.323 0.123333 117.363 0.143663 117.398 0.141121C117.975 0.0991833 118.549 0.0546972 119.124 0.00767568C119.221 5.0567e-05 119.29 0.00767692 119.366 0.0407191C119.462 0.0826572 119.57 0.109351 119.723 0.0941005C120.029 0.0636 120.34 0.0445416 120.652 0.0191245C120.81 0.006416 120.81 0.00640297 121.129 0.0851958C121.164 0.0940918 121.21 0.104259 121.248 0.101718C121.559 0.080113 121.868 0.0534332 122.176 0.0305579C122.262 0.0242036 122.34 0.0419937 122.407 0.0763067C122.474 0.11062 122.555 0.12841 122.638 0.122056C122.95 0.0991802 123.258 0.0737712 123.567 0.0508958C123.605 0.0483541 123.65 0.0572495 123.685 0.0661454C124.013 0.144938 124.013 0.144925 124.163 0.132217C124.383 0.113154 124.609 0.104268 124.826 0.0788509C125.038 0.0534338 125.148 0.127137 125.293 0.167804C125.691 0.138575 126.091 0.114435 126.485 0.0788509C126.646 0.0636006 126.732 0.105535 126.84 0.138577C126.877 0.150015 126.915 0.174164 126.95 0.172893C127.084 0.167809 127.216 0.153832 127.347 0.143666C127.479 0.133499 127.613 0.123333 127.744 0.113166C127.895 0.150021 127.994 0.236438 128.209 0.207208C128.338 0.189416 128.475 0.185604 128.606 0.175437C128.738 0.16527 128.872 0.155105 129.004 0.144938C129.092 0.138583 129.183 0.134765 129.269 0.123328C129.428 0.104265 129.506 0.166544 129.618 0.194503C129.656 0.203399 129.699 0.218639 129.734 0.216097C130 0.198305 130.268 0.183056 130.528 0.153827C130.73 0.130951 130.867 0.169082 131.009 0.222458C131.039 0.233895 131.09 0.240249 131.127 0.237707C131.439 0.216103 131.747 0.189408 132.056 0.166532C132.139 0.160178 132.22 0.180511 132.287 0.213553C132.357 0.247866 132.435 0.2644 132.52 0.258045C132.829 0.23517 133.141 0.209746 133.449 0.18687C133.487 0.184329 133.533 0.194497 133.567 0.204664C133.868 0.283457 133.868 0.284729 134.045 0.269479C134.088 0.265666 134.134 0.263115 134.177 0.259302C134.397 0.24151 134.625 0.235164 134.84 0.204664C135.087 0.170351 135.267 0.213562 135.441 0.286C135.662 0.27075 135.887 0.261852 136.102 0.236435C136.263 0.217373 136.349 0.265662 136.456 0.297434C136.494 0.308871 136.534 0.331747 136.566 0.329205C136.878 0.307601 137.189 0.288545 137.495 0.256773C137.662 0.238981 137.734 0.296159 137.847 0.325389C137.884 0.335556 137.925 0.353357 137.96 0.350815C138.137 0.340648 138.314 0.325391 138.491 0.311411C138.698 0.29489 138.698 0.29616 138.972 0.373682C139.101 0.410537 139.229 0.381306 139.356 0.37241C139.49 0.362243 139.616 0.35462 139.723 0.406725C139.791 0.439767 139.871 0.460102 139.954 0.455018C140.131 0.443581 140.311 0.432148 140.486 0.413086C140.625 0.397835 140.746 0.407997 140.848 0.455018C140.921 0.48806 140.996 0.504591 141.085 0.496966C141.482 0.466466 141.882 0.434683 142.279 0.405453C142.314 0.402911 142.362 0.414353 142.395 0.425791C142.47 0.448666 142.542 0.474078 142.615 0.499495C142.789 0.488057 142.969 0.482987 143.141 0.465195C143.324 0.447403 143.49 0.441047 143.632 0.510944C143.662 0.526194 143.705 0.547787 143.74 0.546516C143.874 0.541433 144.005 0.528728 144.137 0.518561C144.269 0.508394 144.403 0.498228 144.534 0.488062C144.687 0.519833 144.784 0.611333 144.999 0.582104C145.128 0.564312 145.265 0.560499 145.396 0.550332C145.528 0.540165 145.662 0.528729 145.793 0.519833C145.836 0.517291 145.885 0.510933 145.922 0.516017C145.963 0.5211 145.997 0.538896 146.032 0.551604C146.14 0.588459 146.239 0.625318 146.392 0.603714C146.521 0.585922 146.658 0.582108 146.789 0.57067C146.969 0.556691 146.969 0.556693 147.267 0.636757C147.388 0.669799 147.525 0.626592 147.64 0.654551C147.718 0.673614 147.785 0.705378 147.861 0.726983C147.893 0.735879 147.944 0.739686 147.981 0.737144C148.159 0.725706 148.338 0.714274 148.513 0.695211C148.655 0.679961 148.773 0.695209 148.873 0.74096C148.945 0.774002 149.018 0.787989 149.109 0.780364C149.552 0.74478 149.995 0.71427 150.435 0.674873C150.586 0.660894 150.706 0.682504 150.79 0.728255C150.932 0.807048 151.133 0.714277 151.281 0.77782C151.372 0.817216 151.463 0.862969 151.63 0.843907C151.936 0.810864 152.247 0.793063 152.556 0.770187C152.666 0.8045 152.776 0.838821 152.889 0.873134C153.066 0.859154 153.243 0.845166 153.421 0.832458C153.552 0.822291 153.686 0.810854 153.818 0.801959C153.861 0.799417 153.906 0.794332 153.947 0.800686C153.987 0.807041 154.019 0.823566 154.057 0.836274C154.242 0.898546 154.242 0.899823 154.548 0.874406C154.68 0.862968 154.806 0.855343 154.916 0.906177C155.018 0.953199 155.139 0.962089 155.278 0.94811C155.541 0.922693 155.807 0.903631 156.076 0.885839C156.159 0.879485 156.237 0.90109 156.307 0.934132C156.411 0.986237 156.54 0.981155 156.672 0.967176C156.846 0.949384 157.018 0.931595 157.166 1.00276C157.195 1.01801 157.241 1.03961 157.273 1.03834C157.493 1.02817 157.716 1.02055 157.931 0.996403C158.146 0.972256 158.25 1.05105 158.398 1.08917C158.618 1.07265 158.841 1.05613 159.061 1.03961C159.104 1.03579 159.155 1.02436 159.193 1.03072C159.351 1.05741 159.442 1.15272 159.66 1.12349C159.786 1.10697 159.923 1.10189 160.054 1.09808C160.089 1.09681 160.135 1.1184 160.159 1.13492C160.173 1.14382 160.159 1.16796 160.143 1.18067C160.095 1.21625 160.036 1.24931 159.993 1.28616C159.987 1.29124 160.038 1.31411 160.068 1.32428C160.14 1.34715 160.223 1.34335 160.32 1.33318C160.403 1.32429 160.489 1.34208 160.548 1.3802C160.573 1.39545 160.564 1.42087 160.513 1.50474C160.513 1.56702 160.57 1.53905 160.589 1.49838C160.618 1.43992 160.562 1.42086 160.454 1.45263C160.379 1.47551 160.342 1.50856 160.36 1.53524C160.371 1.54922 160.422 1.56702 160.513 1.50474C160.75 1.42849 160.927 1.41452 161.104 1.40054C161.15 1.39673 161.203 1.38401 161.236 1.39164C161.351 1.42214 161.458 1.459 161.571 1.49331C161.7 1.48569 161.821 1.46661 161.947 1.51618C162.124 1.58607 162.132 1.57972 162.304 1.56574C162.393 1.55812 162.481 1.55177 162.57 1.54542C162.659 1.53907 162.728 1.55812 162.806 1.58735C162.965 1.64708 162.978 1.64708 163.083 1.56574C163.144 1.51618 163.187 1.49966 163.265 1.52254C163.523 1.60006 163.526 1.60514 163.746 1.58226C163.928 1.5632 164.1 1.55812 164.234 1.63056C164.326 1.68139 164.355 1.66996 164.428 1.61658C164.621 1.47551 164.71 1.47805 165.072 1.57972C165.241 1.62801 165.416 1.57591 165.587 1.56956C165.732 1.56448 165.834 1.59497 165.845 1.67503C165.853 1.7246 165.877 1.76019 165.974 1.77671C166.012 1.78306 166.057 1.79196 166.095 1.78941C166.318 1.77416 166.538 1.75637 166.761 1.73858C166.873 1.72968 166.935 1.66996 166.914 1.59117C166.89 1.50729 166.932 1.47678 167.094 1.45263C167.19 1.43866 167.268 1.44121 167.346 1.46408C167.432 1.4895 167.408 1.51237 167.333 1.55813C167.153 1.66996 167.174 1.73857 167.405 1.8161C167.486 1.84278 167.55 1.86694 167.569 1.90634C167.579 1.92667 167.569 1.95336 167.593 1.96861C167.724 2.05376 167.907 2.10841 168.111 2.14907C168.307 2.11476 168.441 2.17194 168.592 2.21769C168.71 2.25327 168.849 2.22278 168.975 2.21007C169.118 2.19609 169.236 2.20626 169.338 2.25328C169.41 2.28632 169.486 2.30156 169.574 2.29521C169.751 2.28123 169.931 2.27234 170.106 2.25201C170.256 2.23421 170.369 2.25963 170.463 2.30284C170.581 2.35749 170.713 2.32063 170.836 2.32825C171.002 2.33715 171.086 2.45025 171.303 2.41975C171.432 2.40196 171.566 2.39561 171.7 2.39052C171.735 2.38925 171.778 2.41086 171.808 2.42611C171.95 2.49601 172.117 2.49219 172.299 2.47186C172.425 2.45788 172.549 2.44518 172.672 2.49347C172.876 2.57481 173.102 2.64598 173.317 2.72096C173.346 2.77942 173.325 2.84803 173.478 2.88234C173.558 2.90014 173.633 2.92683 173.695 2.95606C173.77 2.99038 173.84 2.99927 173.937 2.99038C174.111 2.97259 174.294 2.96876 174.466 2.94589C174.624 2.92555 174.723 2.9675 174.82 3.0069C174.898 3.03867 174.97 3.05391 175.064 3.03104C175.161 3.00943 175.231 3.02341 175.309 3.05772C175.419 3.10474 175.427 3.09967 175.792 3.11365C175.829 3.11492 175.875 3.13397 175.897 3.15049C175.907 3.15939 175.883 3.18482 175.864 3.19753C175.84 3.21278 175.803 3.23056 175.768 3.23437C175.37 3.26741 174.97 3.29664 174.573 3.32969C174.533 3.3335 174.49 3.3424 174.46 3.35511C174.428 3.36909 174.388 3.38814 174.388 3.40593C174.388 3.41864 174.441 3.4339 174.479 3.44279C174.597 3.47202 174.737 3.42755 174.852 3.46059C174.93 3.48219 174.995 3.51269 175.072 3.53302C175.105 3.54192 175.156 3.54065 175.196 3.53811C175.33 3.52921 175.462 3.51651 175.596 3.50888C175.634 3.50761 175.676 3.52032 175.711 3.53049C175.969 3.60674 175.969 3.60674 176.192 3.59022C176.281 3.58386 176.374 3.5648 176.458 3.57242C176.538 3.58005 176.608 3.61436 176.681 3.63597C176.831 3.68172 176.973 3.7262 176.984 3.82532C176.989 3.86345 177.078 3.89648 177.166 3.89903C177.252 3.90157 177.344 3.8876 177.432 3.87998C177.642 3.86472 177.642 3.86472 177.913 3.94225C177.988 3.96385 178.068 3.96639 178.165 3.95368C178.203 3.9486 178.248 3.95369 178.289 3.96004C178.42 3.9791 178.42 4.00324 178.334 4.04899C178.213 4.11635 178.224 4.12271 178.562 4.17989C178.691 4.2015 178.791 4.24217 178.898 4.27775C179.073 4.33494 179.07 4.33493 178.954 4.40991C178.928 4.42643 178.903 4.44423 178.877 4.46202C178.799 4.51158 178.737 4.56496 178.576 4.57004C178.399 4.57512 178.221 4.59546 178.044 4.60944C177.872 4.62342 177.827 4.65391 177.843 4.74033C177.862 4.84454 177.897 4.85598 178.205 4.85471C178.294 4.85471 178.372 4.86487 178.439 4.89919C178.407 4.93985 178.348 4.97163 178.262 4.97925C178.042 4.99831 177.819 5.01484 177.599 5.03136C177.421 5.04534 177.244 5.05931 177.067 5.07329C176.957 5.08219 176.887 5.14828 176.917 5.22199C176.933 5.26393 176.946 5.30586 176.96 5.3478C176.989 5.43168 177.046 5.45329 177.225 5.44947C177.271 5.4482 177.314 5.43803 177.357 5.44057C177.532 5.44947 177.615 5.55494 177.824 5.53334C177.999 5.51555 178.181 5.51174 178.353 5.48886C178.511 5.46853 178.6 5.51429 178.71 5.5486C178.748 5.56004 178.788 5.58418 178.82 5.58291C179.043 5.56893 179.266 5.55496 179.483 5.53081C179.585 5.52064 179.647 5.52827 179.728 5.55877C179.921 5.63248 179.926 5.62866 180.214 5.60579C180.423 5.588 180.426 5.59054 180.694 5.66806C180.769 5.68966 180.85 5.68966 180.946 5.67949C181.073 5.66678 181.204 5.64645 181.336 5.66551C181.376 5.6706 181.427 5.68585 181.44 5.70237C181.449 5.71381 181.411 5.74177 181.379 5.75067C181.142 5.81675 180.866 5.80532 180.608 5.832C180.528 5.83963 180.447 5.81548 180.38 5.78117C180.31 5.74685 180.235 5.73288 180.144 5.73923C179.967 5.75321 179.787 5.7621 179.612 5.78244C179.462 5.80023 179.357 5.771 179.252 5.7316C179.217 5.71889 179.177 5.69474 179.142 5.69601C178.745 5.72143 178.345 5.74685 177.95 5.78244C177.792 5.79769 177.701 5.75702 177.593 5.72271C177.556 5.71127 177.518 5.68713 177.483 5.6884C177.349 5.69348 177.217 5.70746 177.083 5.71762C176.595 5.75575 176.109 5.79387 175.62 5.82946C175.588 5.832 175.548 5.80531 175.51 5.79387C175.438 5.771 175.362 5.74939 175.287 5.72778C175.153 5.73795 175.021 5.75066 174.887 5.75828C174.79 5.76337 174.705 5.78117 174.691 5.82946C174.683 5.86123 174.772 5.89045 174.866 5.88791C174.957 5.88537 175.048 5.87012 175.123 5.88664C175.497 5.96798 175.497 5.96925 175.73 5.95273C175.934 5.93748 175.913 5.92476 176.093 5.99466C176.17 6.02516 176.24 6.04296 176.329 6.03534C176.549 6.01754 176.772 5.99975 176.995 5.9845C177.03 5.98196 177.075 5.99467 177.11 6.00484C177.373 6.08109 177.373 6.08363 177.591 6.06456C177.875 6.04169 177.886 6.03533 178.077 6.11286C178.208 6.16623 178.329 6.12938 178.455 6.12683C178.6 6.1764 178.758 6.22088 178.89 6.2768C179.046 6.34289 179.209 6.33144 179.387 6.31237C179.518 6.29839 179.647 6.29331 179.754 6.34542C179.856 6.39371 179.98 6.3988 180.12 6.38609C180.246 6.37465 180.375 6.3505 180.506 6.37846C180.541 6.38609 180.595 6.40515 180.592 6.41659C180.589 6.43438 180.554 6.4598 180.52 6.46743C180.273 6.51953 180.001 6.51826 179.741 6.54241C179.706 6.54622 179.661 6.53223 179.626 6.52207C179.55 6.49919 179.478 6.47251 179.405 6.44836C179.274 6.45599 179.14 6.45852 179.011 6.47377C178.911 6.48521 178.836 6.48395 178.764 6.45345C178.697 6.42549 178.624 6.39117 178.544 6.38228C178.463 6.37338 178.369 6.39245 178.281 6.40007C178.192 6.4077 178.09 6.40388 178.02 6.42421C177.95 6.44454 177.907 6.48903 177.862 6.52461C177.811 6.56401 177.741 6.57672 177.639 6.58054C177.545 6.58435 177.47 6.57926 177.4 6.54368C177.37 6.52843 177.33 6.51698 177.29 6.50682C177.252 6.49792 177.209 6.48394 177.174 6.48648C176.774 6.51571 176.377 6.54749 175.977 6.57799C175.778 6.59324 175.781 6.59323 175.368 6.51825C175.33 6.5119 175.284 6.503 175.247 6.50555C175.024 6.5208 174.804 6.53859 174.581 6.55638C174.356 6.57417 174.358 6.57163 173.974 6.49157C173.905 6.47632 173.803 6.49665 173.719 6.49411C173.545 6.48776 173.459 6.38101 173.255 6.40134C173.08 6.41913 172.898 6.42294 172.723 6.44582C172.565 6.46615 172.474 6.42168 172.366 6.38736C172.329 6.37593 172.288 6.35051 172.256 6.35305C171.856 6.38101 171.459 6.41278 170.927 6.41659C170.796 6.41659 170.855 6.44328 170.941 6.45218C171.064 6.46616 171.104 6.43947 171.037 6.38864C170.989 6.35305 170.919 6.33525 170.863 6.34414C170.833 6.34923 170.796 6.37338 170.927 6.41659C171.067 6.46488 171.059 6.49157 171.083 6.50682C171.142 6.54367 171.225 6.55892 171.311 6.55384C171.445 6.54494 171.577 6.53224 171.711 6.52461C171.749 6.52207 171.794 6.53097 171.829 6.54113C172.125 6.61993 172.127 6.62501 172.441 6.59451C172.541 6.58562 172.613 6.58562 172.691 6.60976C172.798 6.64281 172.876 6.69872 173.04 6.68092C173.258 6.65678 173.48 6.64281 173.703 6.62883C173.738 6.62629 173.776 6.64916 173.816 6.65933C173.926 6.68983 174.007 6.74702 174.17 6.72287C174.297 6.70381 174.433 6.69871 174.568 6.6949C174.603 6.69363 174.656 6.71397 174.672 6.73049C174.705 6.75972 174.664 6.79404 174.573 6.81819C174.535 6.82835 174.484 6.82581 174.441 6.82962C174.264 6.8436 174.087 6.85884 173.91 6.87028C173.816 6.87663 173.727 6.89571 173.717 6.94273C173.709 6.9745 173.805 7.00245 173.897 6.99991C174.031 6.9961 174.165 6.98593 174.294 6.96941C174.522 6.94145 174.721 6.94907 174.906 7.02914C175.037 7.08505 175.029 7.06473 175.169 7.22994C175.204 7.27188 175.309 7.27569 175.4 7.27315C175.62 7.26679 175.722 7.28586 175.703 7.32525C175.679 7.37355 175.601 7.38879 175.502 7.39514C175.325 7.40531 175.148 7.42184 174.97 7.43582C174.927 7.43963 174.879 7.44725 174.839 7.44471C174.799 7.44217 174.761 7.42692 174.726 7.41548C174.651 7.39133 174.586 7.35447 174.506 7.34558C174.425 7.33668 174.331 7.35575 174.243 7.36337C174.154 7.36973 174.06 7.38879 173.98 7.37989C173.899 7.371 173.832 7.33288 173.76 7.31C173.725 7.29857 173.682 7.28076 173.647 7.28203C173.47 7.2922 173.292 7.30873 173.115 7.32144C172.898 7.33796 172.898 7.33796 172.635 7.25917C172.56 7.23629 172.482 7.23757 172.382 7.24773C172.168 7.26807 172.165 7.26425 171.773 7.19054C171.735 7.18291 171.69 7.17402 171.652 7.17783C171.252 7.20706 170.855 7.23883 170.457 7.26933C170.116 7.29602 170.116 7.29603 169.929 7.42311C169.789 7.51716 169.786 7.51715 169.923 7.56036C170.033 7.59594 170.133 7.64804 170.253 7.66711C170.366 7.6849 170.506 7.62771 170.629 7.68617C170.691 7.7154 170.772 7.74718 170.849 7.75226C170.973 7.75861 171.104 7.72175 171.223 7.77767C171.282 7.80563 171.37 7.83487 171.445 7.83614C171.577 7.83868 171.711 7.81834 171.843 7.80944C171.883 7.8069 171.929 7.8069 171.966 7.81326C172.007 7.82088 172.041 7.83614 172.076 7.84885C172.184 7.89205 172.299 7.91238 172.439 7.89078C172.667 7.85519 172.871 7.87299 173.048 7.95432C173.072 7.96576 173.131 7.96704 173.169 7.96195C173.266 7.94924 173.349 7.94797 173.421 7.97211C173.451 7.98228 173.494 8.00006 173.488 8.0115C173.48 8.03057 173.448 8.05599 173.413 8.06234C173.161 8.10555 172.89 8.11064 172.629 8.13351C172.594 8.13606 172.552 8.11953 172.517 8.10809C172.441 8.08521 172.377 8.0471 172.296 8.0382C172.216 8.02931 172.122 8.04582 172.033 8.05218C171.945 8.05853 171.851 8.0776 171.77 8.06997C171.69 8.06108 171.615 8.0293 171.55 8.00134C171.475 7.96957 171.402 7.96577 171.303 7.97847C171.174 7.995 171.04 7.99753 170.909 8.00643C170.836 7.98228 170.764 7.95559 170.688 7.93271C170.653 7.92127 170.611 7.9073 170.573 7.90857C170.396 7.91874 170.218 7.93398 170.041 7.94796C169.864 7.96194 169.864 7.96195 169.563 7.88316C169.529 7.87426 169.483 7.8641 169.445 7.86664C169.222 7.88189 169.002 7.90094 168.78 7.91619C168.694 7.92254 168.616 7.90475 168.546 7.87044C168.479 7.83613 168.398 7.81706 168.315 7.82342C167.961 7.85011 167.606 7.87553 167.252 7.9073C167.11 7.92001 166.989 7.90857 166.892 7.86282C166.779 7.81072 166.653 7.82343 166.522 7.8336C166.224 7.85901 166.221 7.85773 166.03 7.79292C165.993 7.78021 165.955 7.75606 165.92 7.75733C165.612 7.77639 165.3 7.79419 164.994 7.82469C164.833 7.84121 164.747 7.79673 164.64 7.76369C164.602 7.75225 164.562 7.72811 164.53 7.73065C164.307 7.74463 164.084 7.75734 163.867 7.78276C163.649 7.80818 163.566 7.68999 163.402 7.69126C163.179 7.69253 162.959 7.72176 162.739 7.73955C162.562 7.75353 162.385 7.76751 162.207 7.78149C162.03 7.79547 161.853 7.8069 161.676 7.82342C161.582 7.83231 161.512 7.82087 161.434 7.7891C161.335 7.74717 161.217 7.71414 161.109 7.67601C160.946 7.62136 160.946 7.62136 160.747 7.63661C160.704 7.64042 160.658 7.64296 160.615 7.64677C160.291 7.67473 160.291 7.67219 159.877 7.59213C159.858 7.58832 159.81 7.6023 159.791 7.61247C159.735 7.64551 159.684 7.68109 159.633 7.7154C159.56 7.69507 159.472 7.68363 159.424 7.6544C159.287 7.5718 159.072 7.6849 158.932 7.60356C158.881 7.57306 158.793 7.54637 158.712 7.53875C158.629 7.53112 158.535 7.54892 158.449 7.55654C158.226 7.57561 158.226 7.57434 158.035 7.68744C157.939 7.74336 157.799 7.73319 157.673 7.7459C157.542 7.75988 157.415 7.7675 157.305 7.7154C157.206 7.66838 157.085 7.65694 156.943 7.67219C156.768 7.69126 156.589 7.70269 156.411 7.71413C156.374 7.71667 156.328 7.71032 156.29 7.70269C155.88 7.62771 155.88 7.62645 155.681 7.64297C155.592 7.65059 155.501 7.65312 155.415 7.66456C155.27 7.6849 155.16 7.65821 155.056 7.61754C155.021 7.60483 154.98 7.5807 154.945 7.58197C154.768 7.58832 154.594 7.59976 154.419 7.6112C154.285 7.62009 154.151 7.62518 154.022 7.64297C153.807 7.6722 153.702 7.58958 153.555 7.55145C153.335 7.56798 153.112 7.57942 152.892 7.60229C152.79 7.61246 152.723 7.60865 152.645 7.57815C152.545 7.54003 152.454 7.49682 152.293 7.51588C152.078 7.5413 151.853 7.5502 151.633 7.56545C151.485 7.52605 151.378 7.44598 151.165 7.47521C151.037 7.493 150.9 7.49681 150.768 7.50698C150.591 7.52096 150.414 7.53368 150.237 7.54893C150.046 7.56418 150.049 7.56036 149.756 7.48538C149.587 7.4409 149.412 7.49046 149.241 7.49809C149.106 7.50444 149.039 7.5629 149.071 7.63788C149.104 7.71286 149.031 7.77132 148.908 7.78149C148.599 7.80563 148.287 7.83104 147.979 7.85265C147.941 7.85519 147.896 7.84629 147.861 7.8374C147.53 7.75733 147.53 7.75862 147.383 7.77005C147.163 7.78912 146.937 7.79927 146.72 7.82342C146.569 7.83994 146.459 7.81326 146.363 7.77005C146.287 7.73701 146.218 7.72938 146.121 7.73701C145.058 7.82216 143.995 7.90095 142.934 7.98864C142.776 8.00134 142.685 7.96449 142.577 7.93018C142.54 7.91874 142.505 7.89459 142.467 7.89459C142.379 7.89459 142.29 7.90603 142.201 7.91366C141.804 7.94416 141.407 7.98101 141.007 8.00389C140.838 8.01405 140.792 8.07252 140.719 8.12081C140.663 8.15766 140.599 8.17291 140.499 8.17799C140.403 8.18307 140.333 8.17672 140.258 8.14368C140.161 8.10047 140.051 8.07378 139.901 8.09157C139.726 8.1119 139.549 8.12081 139.369 8.13479C139.278 8.14114 139.208 8.16401 139.178 8.20976C139.173 8.21739 139.229 8.23646 139.262 8.24789C139.369 8.28602 139.471 8.3305 139.592 8.35719C139.715 8.38387 139.85 8.35336 139.978 8.34574C140.024 8.34319 140.067 8.33558 140.11 8.33685C140.15 8.33812 140.199 8.34448 140.228 8.35591C140.368 8.4131 140.515 8.4525 140.709 8.41818C140.875 8.4347 140.961 8.54018 141.173 8.51223C141.302 8.4957 141.436 8.48808 141.57 8.48173C141.605 8.48046 141.643 8.50333 141.681 8.51477C141.788 8.54654 141.874 8.59737 142.035 8.57577C142.207 8.55289 142.389 8.54908 142.564 8.53129C142.66 8.52112 142.73 8.53002 142.805 8.56306C142.902 8.605 143.012 8.63676 143.162 8.61643C143.291 8.59864 143.428 8.59482 143.56 8.58339C143.732 8.56941 143.732 8.57068 144.038 8.64947C144.073 8.65837 144.118 8.66854 144.156 8.66599C144.379 8.65074 144.599 8.63168 144.822 8.61643C144.907 8.61007 144.991 8.6266 145.05 8.66345C145.074 8.6787 145.066 8.70413 145.074 8.72574C144.631 8.76005 144.188 8.78927 143.748 8.83121C143.581 8.84773 143.506 8.79563 143.396 8.7664C143.358 8.75623 143.318 8.73463 143.283 8.73717C142.972 8.75877 142.663 8.78164 142.354 8.8096C142.258 8.8185 142.185 8.81341 142.113 8.77656C141.928 8.6787 141.702 8.73208 141.493 8.74606C141.332 8.75623 141.281 8.79563 141.299 8.8795C141.323 8.97863 141.42 9.00913 141.667 8.99134C141.756 8.98499 141.844 8.97609 141.933 8.971C142.019 8.96592 142.097 8.98244 142.166 9.01675C142.234 9.05106 142.314 9.06886 142.397 9.06377C142.574 9.05233 142.754 9.0409 142.926 9.02184C143.068 9.00659 143.187 9.01929 143.286 9.06632C143.396 9.11842 143.525 9.10698 143.654 9.09554C143.954 9.07013 143.957 9.0714 144.145 9.13495C144.183 9.14766 144.22 9.17181 144.255 9.17053C144.564 9.15147 144.875 9.13495 145.179 9.10445C145.337 9.0892 145.428 9.12986 145.533 9.1629C145.571 9.17434 145.608 9.19976 145.643 9.19722C145.866 9.18324 146.089 9.16925 146.306 9.14511C146.408 9.13367 146.47 9.14129 146.553 9.17179C146.752 9.24677 146.757 9.24423 147.039 9.22008C147.125 9.21246 147.219 9.19848 147.3 9.20865C147.38 9.21882 147.445 9.25568 147.52 9.27855C147.555 9.28872 147.598 9.30269 147.635 9.30015C147.812 9.28998 147.989 9.27474 148.167 9.26076C148.333 9.24678 148.333 9.24805 148.645 9.32685C148.771 9.35989 148.902 9.33193 149.028 9.32176C149.165 9.31032 149.289 9.31033 149.394 9.35989C149.498 9.40945 149.624 9.4069 149.759 9.39673C149.885 9.38657 150.014 9.35862 150.143 9.39293C150.438 9.47173 150.438 9.47298 150.62 9.45773C150.886 9.43613 151.149 9.4158 151.418 9.39673C151.453 9.39419 151.498 9.40945 151.533 9.41962C151.608 9.44249 151.673 9.48061 151.753 9.4895C151.834 9.49967 151.928 9.48442 152.014 9.4768C152.29 9.45265 152.309 9.44376 152.494 9.52764C152.65 9.59626 152.843 9.49714 152.988 9.57593C153.072 9.62041 153.184 9.65599 153.34 9.63438C153.469 9.61659 153.603 9.61151 153.737 9.60134C153.949 9.58482 153.949 9.5861 154.218 9.66235C154.253 9.67252 154.298 9.68522 154.333 9.68268C154.511 9.67251 154.69 9.66362 154.862 9.64074C155.064 9.61406 155.192 9.66235 155.343 9.70937C155.461 9.74623 155.601 9.71572 155.727 9.70301C155.864 9.69031 155.987 9.69411 156.089 9.74367C156.196 9.79451 156.323 9.78816 156.457 9.77799C156.583 9.76909 156.712 9.73986 156.841 9.77545C157.117 9.85424 157.117 9.85424 157.319 9.83899C157.496 9.82501 157.673 9.80977 157.85 9.7996C157.885 9.79706 157.928 9.81357 157.963 9.82501C158.038 9.84789 158.103 9.88602 158.183 9.89491C158.264 9.90381 158.358 9.88729 158.446 9.88094C158.535 9.87458 158.629 9.85552 158.709 9.86314C158.79 9.87077 158.865 9.90254 158.93 9.9305C159.005 9.96354 159.074 9.96735 159.176 9.95464C159.305 9.93812 159.44 9.93431 159.571 9.92541C159.644 9.94956 159.719 9.9737 159.789 10.0004C159.861 10.0283 159.939 10.0258 160.038 10.0169C160.368 9.98641 160.371 9.99023 160.648 10.069C160.774 10.1046 160.905 10.0754 161.032 10.0665C161.166 10.0563 161.292 10.0512 161.397 10.1021C161.499 10.1504 161.625 10.1567 161.759 10.1415C161.845 10.1313 161.936 10.1249 162.025 10.1211C162.065 10.1199 162.114 10.1249 162.143 10.1351C162.285 10.1885 162.425 10.2368 162.621 10.2025C162.793 10.2126 162.879 10.3168 163.085 10.2965C163.26 10.2787 163.442 10.2749 163.614 10.252C163.773 10.2317 163.885 10.2673 163.966 10.3118C164.111 10.3906 164.315 10.2838 164.46 10.3613C164.543 10.4058 164.65 10.4414 164.812 10.4223C164.989 10.402 165.045 10.4287 165.096 10.5087C165.126 10.5545 165.12 10.5913 165.067 10.6269C165.013 10.6638 164.954 10.6574 164.868 10.6155C164.769 10.5685 164.651 10.5596 164.508 10.5697C164.369 10.5799 164.283 10.5138 164.167 10.4884C164.052 10.4617 163.915 10.5062 163.794 10.4719C163.51 10.3918 163.51 10.3918 163.316 10.4071C163.185 10.4172 163.048 10.4223 162.919 10.4401C162.766 10.4617 162.667 10.4223 162.562 10.3867C162.524 10.374 162.487 10.3499 162.454 10.3511C162.146 10.3702 161.834 10.388 161.528 10.4198C161.367 10.4363 161.281 10.3905 161.174 10.3588C161.136 10.3473 161.096 10.3245 161.064 10.327C160.798 10.3448 160.535 10.3677 160.269 10.3893C160.218 10.4236 160.162 10.4566 160.113 10.4935C160.062 10.5316 159.993 10.5481 159.891 10.5469C159.721 10.5469 159.555 10.6002 159.386 10.5329C159.211 10.4643 159.198 10.4681 159.029 10.4846C158.814 10.5062 158.586 10.5011 158.385 10.5507C158.35 10.5596 158.312 10.5837 158.312 10.6015C158.309 10.6129 158.366 10.6295 158.401 10.6396C158.519 10.6701 158.656 10.6257 158.774 10.6574C158.852 10.6778 158.916 10.7083 158.994 10.7299C159.026 10.7388 159.074 10.7375 159.117 10.7362C159.163 10.7349 159.206 10.7261 159.249 10.7273C159.289 10.7286 159.332 10.7362 159.364 10.7477C159.512 10.7959 159.668 10.8404 159.799 10.8976C159.928 10.9535 160.049 10.9154 160.178 10.9129C160.693 11.0018 160.693 11.0031 161.04 10.9751C161.126 10.9688 161.214 10.9612 161.303 10.9624C161.34 10.9624 161.375 10.9853 161.413 10.998C161.52 11.0361 161.622 11.0704 161.773 11.0501C161.901 11.0323 162.038 11.0285 162.17 11.0171C162.347 11.0031 162.347 11.0031 162.648 11.0832C162.723 11.1035 162.803 11.101 162.9 11.0908C162.983 11.0819 163.069 11.101 163.128 11.1378C163.152 11.1531 163.144 11.1785 163.152 11.2001C162.887 11.2204 162.618 11.2344 162.361 11.2649C162.194 11.284 162.119 11.2293 162.009 11.2001C161.971 11.1899 161.931 11.1683 161.896 11.1709C161.633 11.1899 161.37 11.2115 161.107 11.2369C161.075 11.2395 161.034 11.2687 161.032 11.2865C161.026 11.3195 161.093 11.3513 161.19 11.35C161.319 11.3488 161.445 11.3272 161.56 11.3793C161.657 11.425 161.778 11.4454 161.92 11.425C162.006 11.4136 162.097 11.4136 162.183 11.4034C162.412 11.3729 162.618 11.3793 162.79 11.4657C162.922 11.4886 163.05 11.467 163.177 11.4555C163.271 11.4466 163.362 11.4377 163.429 11.4619C163.571 11.5127 163.711 11.5635 163.907 11.5292C164.119 11.5648 164.28 11.6398 164.457 11.7008C164.54 11.73 164.605 11.7466 164.702 11.7275C164.742 11.7199 164.79 11.7199 164.833 11.716C164.922 11.7097 165.016 11.6906 165.096 11.6982C165.177 11.7071 165.244 11.744 165.316 11.7669C165.351 11.7783 165.391 11.7974 165.426 11.7961C165.561 11.7898 165.692 11.777 165.824 11.7669C165.955 11.758 166.087 11.7491 166.218 11.7402C166.328 11.7732 166.441 11.8063 166.551 11.8393C166.728 11.8253 166.906 11.8114 167.08 11.7986C167.276 11.7834 167.276 11.7847 167.558 11.8635C167.684 11.899 167.818 11.8762 167.939 11.8596C168.141 11.833 168.275 11.8813 168.417 11.9321C168.447 11.9423 168.5 11.9486 168.535 11.9435C168.675 11.9257 168.796 11.9397 168.898 11.9867C168.97 12.0198 169.043 12.035 169.131 12.0287C169.44 12.0045 169.749 11.9791 170.057 11.9575C170.095 11.955 170.138 11.9664 170.173 11.9766C170.447 12.0541 170.449 12.0579 170.651 12.0376C170.831 12.0198 170.997 12.0121 171.139 12.082C171.169 12.0973 171.214 12.1189 171.247 12.1176C171.467 12.1049 171.69 12.0909 171.907 12.0693C172.007 12.0592 172.076 12.063 172.154 12.0922C172.253 12.1291 172.342 12.1736 172.506 12.157C172.96 12.11 172.962 12.1176 173.499 12.2053C173.537 12.2117 173.588 12.2015 173.631 12.1964C173.722 12.1837 173.789 12.2015 173.87 12.2307C174.05 12.2968 174.055 12.293 174.227 12.279C174.358 12.2676 174.495 12.2651 174.624 12.246C174.823 12.218 174.954 12.2676 175.102 12.3146C175.22 12.3515 175.357 12.321 175.483 12.3095C175.62 12.2968 175.744 12.3006 175.846 12.3489C175.915 12.382 175.991 12.3998 176.079 12.3934C176.388 12.3705 176.697 12.3451 177.005 12.3222C177.043 12.3197 177.089 12.3299 177.123 12.3388C177.43 12.4176 177.43 12.4214 177.733 12.3921C177.83 12.3832 177.91 12.3807 177.983 12.4074C178.052 12.4328 178.128 12.457 178.2 12.4811C178.332 12.4722 178.466 12.4697 178.595 12.4544C178.694 12.443 178.764 12.4481 178.842 12.4748C178.944 12.5091 179.03 12.5688 179.191 12.5395C179.274 12.5256 179.371 12.5294 179.454 12.5167C179.553 12.5002 179.62 12.5103 179.698 12.5434C179.795 12.5828 179.894 12.6234 180.05 12.6031C180.222 12.5802 180.404 12.5764 180.579 12.5586C180.675 12.5484 180.742 12.5586 180.82 12.5917C180.917 12.6336 181.027 12.6603 181.177 12.6438C181.483 12.612 181.486 12.6183 181.784 12.6984C181.859 12.7187 181.94 12.7162 182.036 12.706C182.12 12.6971 182.206 12.7162 182.265 12.7531C182.321 12.7937 182.316 12.8191 182.321 12.8407ZM158.398 1.37893C158.309 1.38528 158.221 1.39291 158.092 1.28234C158.084 1.26328 158.089 1.24041 158.07 1.22389C158.027 1.18958 157.96 1.16543 157.88 1.16162C157.735 1.15654 157.56 1.19974 157.563 1.23278C157.566 1.26074 157.611 1.28488 157.7 1.30776C157.737 1.31665 157.767 1.3319 157.802 1.34207C157.904 1.3713 157.985 1.4285 158.132 1.39927C158.105 1.32048 158.119 1.35987 158.132 1.39927C158.119 1.44756 158.159 1.48188 158.256 1.49585C158.282 1.49967 158.323 1.49712 158.344 1.48949C158.427 1.46154 158.441 1.42342 158.379 1.32302C158.368 1.33954 158.376 1.36876 158.401 1.37639C158.425 1.38401 158.484 1.37767 158.513 1.36877C158.589 1.34462 158.626 1.31285 158.607 1.28616C158.597 1.27218 158.546 1.25439 158.513 1.25439C158.457 1.25439 158.406 1.28235 158.398 1.37893ZM180.106 16.117C179.91 16.1411 179.685 16.1323 179.489 16.1818C179.454 16.1907 179.419 16.2136 179.416 16.2314C179.414 16.2428 179.467 16.2593 179.499 16.2682C179.572 16.2886 179.652 16.2822 179.746 16.2759C179.889 16.267 179.972 16.3254 180.082 16.3547C180.117 16.3635 180.163 16.3699 180.2 16.3674C180.418 16.3521 180.632 16.3356 180.85 16.3178C180.887 16.314 180.928 16.3051 180.96 16.2937C181.067 16.2568 181.057 16.2327 180.952 16.2047C180.836 16.1742 180.745 16.1234 180.627 16.0992C180.458 16.0649 180.286 16.1106 180.106 16.117ZM164.86 17.0447C164.728 17.0549 164.599 17.0651 164.468 17.0752C164.425 17.079 164.379 17.0803 164.339 17.0854C164.256 17.0943 164.194 17.121 164.154 17.1629C164.216 17.196 164.291 17.215 164.374 17.2112C164.506 17.2036 164.634 17.1871 164.766 17.1833C164.908 17.1782 164.991 17.2354 165.102 17.2646C165.136 17.2735 165.179 17.2747 165.22 17.276C165.418 17.2811 165.539 17.215 165.502 17.1223C165.475 17.0498 165.373 17.0066 165.249 17.0155C165.12 17.0244 164.989 17.0346 164.86 17.0447ZM181.024 14.2387C181.057 14.2171 181.091 14.2018 181.108 14.1828C181.156 14.118 181.137 14.0697 181.048 14.0188C180.941 13.9566 180.81 13.9985 180.689 14.0048C180.659 14.0061 180.627 14.0328 180.611 14.0493C180.6 14.0608 180.6 14.0849 180.616 14.0913C180.748 14.1421 180.887 14.1891 181.024 14.2387ZM157.735 10.4846C157.606 10.4948 157.474 10.5024 157.346 10.5164C157.313 10.5202 157.284 10.5443 157.265 10.5608C157.23 10.5913 157.268 10.6333 157.378 10.6371C157.504 10.6422 157.635 10.6206 157.767 10.6104C157.933 10.5977 158.033 10.5507 157.971 10.51C157.912 10.4706 157.831 10.463 157.735 10.4846ZM16.4167 7.76878C16.5026 7.76243 16.5912 7.75734 16.6771 7.74844C16.7576 7.73955 16.8194 7.71159 16.8597 7.66965C16.7926 7.63661 16.7174 7.61882 16.6342 7.62263C16.5026 7.63025 16.3738 7.64042 16.2449 7.65313C16.1644 7.66075 16.0865 7.68871 16.0677 7.73192C16.049 7.76496 16.2288 7.78403 16.4167 7.76878ZM146.381 7.57306C146.416 7.5845 146.451 7.60738 146.486 7.60738C146.572 7.60738 146.661 7.59975 146.741 7.58704C146.776 7.58196 146.803 7.55909 146.819 7.54129C146.83 7.52986 146.827 7.50953 146.811 7.49936C146.733 7.43836 146.422 7.45996 146.371 7.52986C146.365 7.54257 146.379 7.55909 146.381 7.57306ZM137.911 0.613875C137.919 0.634209 137.922 0.65454 137.933 0.674873C137.954 0.712999 138.013 0.740963 138.099 0.760026C138.166 0.728255 138.201 0.692676 138.199 0.654551C138.196 0.634217 138.188 0.613871 138.177 0.593537C138.156 0.555411 138.097 0.527462 138.011 0.5084C137.943 0.5389 137.911 0.574478 137.911 0.613875ZM187.229 17.2659C187.204 17.2824 187.18 17.2989 187.153 17.3142C187.226 17.351 187.293 17.3624 187.344 17.3421C187.376 17.3294 187.395 17.3103 187.419 17.2938C187.347 17.257 187.282 17.2468 187.229 17.2659ZM185.559 17.4387C185.594 17.4501 185.626 17.4654 185.663 17.473C185.725 17.4857 185.782 17.4641 185.824 17.4184C185.79 17.4069 185.757 17.3917 185.72 17.384C185.658 17.3713 185.602 17.3929 185.559 17.4387ZM186.616 17.2061C186.598 17.2366 186.635 17.262 186.735 17.2837C186.759 17.2671 186.791 17.2519 186.807 17.2341C186.834 17.2049 186.788 17.1782 186.692 17.1578C186.665 17.1731 186.641 17.1896 186.616 17.2061ZM180.949 15.8362C180.93 15.8667 180.968 15.8921 181.067 15.9137C181.091 15.8971 181.124 15.8819 181.14 15.8641C181.167 15.8349 181.121 15.8082 181.024 15.7879C180.997 15.8031 180.973 15.8196 180.949 15.8362ZM173.228 6.8436C173.204 6.86012 173.18 6.87664 173.153 6.89189C173.225 6.92874 173.292 6.94018 173.343 6.91984C173.376 6.90714 173.394 6.88807 173.419 6.87155C173.346 6.8347 173.282 6.82453 173.228 6.8436ZM165.832 2.07281C165.896 2.08171 165.95 2.06392 165.996 2.0169C165.961 2.00546 165.928 1.99021 165.891 1.98259C165.829 1.96988 165.773 1.99149 165.73 2.03724C165.765 2.04995 165.8 2.06137 165.832 2.07281ZM161.904 1.77416C161.88 1.79068 161.856 1.80721 161.829 1.82246C161.901 1.85931 161.969 1.87075 162.02 1.85041C162.052 1.8377 162.071 1.81864 162.095 1.80212C162.022 1.76526 161.958 1.75637 161.904 1.77416ZM135.27 0.612603C135.245 0.629124 135.221 0.645646 135.194 0.660896C135.267 0.697751 135.334 0.709184 135.385 0.688851C135.417 0.676142 135.436 0.657079 135.46 0.640558C135.388 0.603703 135.323 0.594811 135.27 0.612603ZM2.64973 10.9523C2.61483 10.9408 2.57996 10.9294 2.54774 10.9167C2.46989 10.951 2.44574 10.9828 2.48869 11.0069C2.51554 11.0222 2.55578 11.0311 2.59068 11.0425C2.67122 11.0082 2.69 10.9777 2.64973 10.9523Z" fill="#FFE492"/>
</svg>
